<svg xmlns="http://www.w3.org/2000/svg" xmlns:xlink="http://www.w3.org/1999/xlink" width="840" height="581.04"><rect width="840" height="581.04" rx="5" ry="5" class="a"/><svg y="0%" x="0%"><circle cx="20" cy="20" r="6" fill="#ff5f58"/><circle cx="40" cy="20" r="6" fill="#ffbd2e"/><circle cx="60" cy="20" r="6" fill="#18c132"/></svg><svg height="521.04" viewBox="0 0 80 52.104" width="800" x="15" xmlns="http://www.w3.org/2000/svg" xmlns:xlink="http://www.w3.org/1999/xlink" y="50"><style>@keyframes p{0%{transform:translateX(0)}.1%{transform:translateX(-80px)}10.5%{transform:translateX(-160px)}15.9%{transform:translateX(-400px)}31.5%{transform:translateX(-480px)}37%{transform:translateX(-640px)}37.1%{transform:translateX(-720px)}52.7%{transform:translateX(-880px)}58.1%{transform:translateX(-1120px)}73.7%{transform:translateX(-1280px)}79.2%{transform:translateX(-1520px)}to{transform:translateX(-1600px)}}.a{fill:#282d35}.f{fill:#66c2cd;font-weight:700;white-space:pre}.g{fill:#b9c0cb}.g,.h,.i,.k,.m{white-space:pre}.h{fill:#b9c0cb;font-weight:700}.i,.k,.m{fill:#66c2cd}.k,.m{fill:#e88388}.m{fill:#a8cc8c}</style><g font-family="Monaco,Consolas,Menlo,'Bitstream Vera Sans Mono','Powerline Symbols',monospace" font-size="1.67"><defs><symbol id="1"><text x="1.002" y="1.67" class="f">══</text><text x="4.008" y="1.67" class="f">SECRET</text><text x="11.022" y="1.67" class="f">DETECTION</text><text x="21.042" y="1.67" class="f">══</text></symbol><symbol id="2"><text x="1.002" y="1.67" class="g">Scanning</text><text x="10.02" y="1.67" class="g">tool</text><text x="15.03" y="1.67" class="g">inputs</text><text x="22.044" y="1.67" class="g">for</text><text x="26.052" y="1.67" class="g">plaintext</text><text x="36.072" y="1.67" class="g">credentials</text></symbol><symbol id="3"><text x="1.002" y="1.67" class="h">Test</text><text x="6.012" y="1.67" class="h">1:</text><text x="9.018" y="1.67" class="h">AWS</text><text x="13.026" y="1.67" class="h">Access</text><text x="20.04" y="1.67" class="h">Key</text></symbol><symbol id="4"><text x="1.002" y="1.67" class="g">tool_input:</text><text x="13.026" y="1.67" class="g">{</text><text x="15.03" y="1.67" class="g">&quot;command&quot;:</text><text x="26.052" y="1.67" class="g">&quot;curl</text><text x="32.064" y="1.67" class="g">-H</text><text x="35.07" y="1.67" class="g">&apos;Authorization:</text><text x="51.102" y="1.67" class="g">AKIAIOSFODNN7EXAMPLE&apos;&quot;</text><text x="74.148" y="1.67" class="g">}</text></symbol><symbol id="5"><text x="2.004" y="1.67" class="g">{</text></symbol><symbol id="6"><text x="4.008" y="1.67" class="i">&quot;hookSpecificOutput&quot;:</text><text x="26.052" y="1.67" class="g">{</text></symbol><symbol id="7"><text x="6.012" y="1.67" class="i">&quot;hookEventName&quot;:</text><text x="23.046" y="1.67" class="g">&quot;PreToolUse&quot;,</text></symbol><symbol id="8"><text x="6.012" y="1.67" class="i">&quot;permissionDecision&quot;:</text><text x="28.056" y="1.67" style="white-space:pre" fill="#e88388" font-weight="700">&quot;deny&quot;</text><text x="34.068" y="1.67" class="g">,</text></symbol><symbol id="9"><text x="6.012" y="1.67" class="i">&quot;permissionDecisionReason&quot;:</text><text x="34.068" y="1.67" class="g">&quot;[GOVERNANCE]</text><text x="48.096" y="1.67" class="g">SECURITY</text><text x="57.114" y="1.67" class="g">BREACH:</text><text x="65.13" y="1.67" class="g">Plaintext</text><text x="75.15" y="1.67" class="g">secre</text></symbol><symbol id="10"><text y="1.67" class="g">t</text><text x="2.004" y="1.67" class="g">detected</text><text x="11.022" y="1.67" class="g">in</text><text x="14.028" y="1.67" class="g">tool</text><text x="19.038" y="1.67" class="g">input</text><text x="25.05" y="1.67" class="g">\u2014</text><text x="32.064" y="1.67" class="g">AWS</text><text x="36.072" y="1.67" class="g">Access</text><text x="43.086" y="1.67" class="g">Key</text><text x="47.094" y="1.67" class="g">(AKIAIOSFODNN...[REDACTED])&quot;</text></symbol><symbol id="11"><text x="4.008" y="1.67" class="g">}</text></symbol><symbol id="12"><text x="2.004" y="1.67" class="g">}</text></symbol><symbol id="13"><text x="1.002" y="1.67" class="k">✗</text><text x="3.006" y="1.67" class="k">DENIED</text><text x="10.02" y="1.67" class="k">—</text><text x="12.024" y="1.67" class="k">secret_injection:</text><text x="30.06" y="1.67" class="k">AWS</text><text x="34.068" y="1.67" class="k">access</text><text x="41.082" y="1.67" class="k">key</text><text x="45.09" y="1.67" class="k">detected</text></symbol><symbol id="14"><text x="1.002" y="1.67" class="h">Test</text><text x="6.012" y="1.67" class="h">2:</text><text x="9.018" y="1.67" class="h">GitHub</text><text x="16.032" y="1.67" class="h">Personal</text><text x="25.05" y="1.67" class="h">Access</text><text x="32.064" y="1.67" class="h">Token</text></symbol><symbol id="15"><text x="1.002" y="1.67" class="g">tool_input:</text><text x="13.026" y="1.67" class="g">{</text><text x="15.03" y="1.67" class="g">&quot;command&quot;:</text><text x="26.052" y="1.67" class="g">&quot;curl</text><text x="32.064" y="1.67" class="g">-H</text><text x="35.07" y="1.67" class="g">&apos;token:</text><text x="43.086" y="1.67" class="g">ghp_ABCDEFghijklmnop12345678&apos;&quot;</text><text x="74.148" y="1.67" class="g">}</text></symbol><symbol id="16"><text y="1.67" class="g">t</text><text x="2.004" y="1.67" class="g">detected</text><text x="11.022" y="1.67" class="g">in</text><text x="14.028" y="1.67" class="g">tool</text><text x="19.038" y="1.67" class="g">input</text><text x="25.05" y="1.67" class="g">\u2014</text><text x="32.064" y="1.67" class="g">GitHub</text><text x="39.078" y="1.67" class="g">Token</text><text x="45.09" y="1.67" class="g">(classic)</text><text x="55.11" y="1.67" class="g">(ghp_ABCDEFgh...[REDACTED</text></symbol><symbol id="17"><text y="1.67" class="g">])&quot;</text></symbol><symbol id="18"><text x="1.002" y="1.67" class="k">✗</text><text x="3.006" y="1.67" class="k">DENIED</text><text x="10.02" y="1.67" class="k">—</text><text x="12.024" y="1.67" class="k">secret_injection:</text><text x="30.06" y="1.67" class="k">GitHub</text><text x="37.074" y="1.67" class="k">token</text><text x="43.086" y="1.67" class="k">detected</text></symbol><symbol id="19"><text x="1.002" y="1.67" class="h">Test</text><text x="6.012" y="1.67" class="h">3:</text><text x="9.018" y="1.67" class="h">RSA</text><text x="13.026" y="1.67" class="h">Private</text><text x="21.042" y="1.67" class="h">Key</text></symbol><symbol id="20"><text x="1.002" y="1.67" class="g">tool_input:</text><text x="13.026" y="1.67" class="g">{</text><text x="15.03" y="1.67" class="g">&quot;content&quot;:</text><text x="26.052" y="1.67" class="g">&quot;-----BEGIN</text><text x="38.076" y="1.67" class="g">RSA</text><text x="42.084" y="1.67" class="g">PRIVATE</text><text x="50.1" y="1.67" class="g">KEY-----&quot;</text><text x="60.12" y="1.67" class="g">}</text></symbol><symbol id="21"><text y="1.67" class="g">t</text><text x="2.004" y="1.67" class="g">detected</text><text x="11.022" y="1.67" class="g">in</text><text x="14.028" y="1.67" class="g">tool</text><text x="19.038" y="1.67" class="g">input</text><text x="25.05" y="1.67" class="g">\u2014</text><text x="32.064" y="1.67" class="g">Private</text><text x="40.08" y="1.67" class="g">Key</text><text x="44.088" y="1.67" class="g">Header</text><text x="51.102" y="1.67" class="g">(-----BEGIN</text><text x="63.126" y="1.67" class="g">R...[REDACTED])&quot;</text></symbol><symbol id="22"><text x="1.002" y="1.67" class="k">✗</text><text x="3.006" y="1.67" class="k">DENIED</text><text x="10.02" y="1.67" class="k">—</text><text x="12.024" y="1.67" class="k">secret_injection:</text><text x="30.06" y="1.67" class="k">private</text><text x="38.076" y="1.67" class="k">key</text><text x="42.084" y="1.67" class="k">detected</text></symbol><symbol id="23"><text x="1.002" y="1.67" class="h">Test</text><text x="6.012" y="1.67" class="h">4:</text><text x="9.018" y="1.67" class="h">Clean</text><text x="15.03" y="1.67" class="h">File</text><text x="20.04" y="1.67" class="h">Read</text></symbol><symbol id="24"><text x="1.002" y="1.67" class="g">tool_input:</text><text x="13.026" y="1.67" class="g">{</text><text x="15.03" y="1.67" class="g">&quot;file_path&quot;:</text><text x="28.056" y="1.67" class="g">&quot;/home/user/project/src/main.rs&quot;</text><text x="61.122" y="1.67" class="g">}</text></symbol><symbol id="25"><text x="6.012" y="1.67" class="i">&quot;permissionDecision&quot;:</text><text x="28.056" y="1.67" style="white-space:pre" fill="#a8cc8c" font-weight="700">&quot;allow&quot;</text></symbol><symbol id="26"><text x="1.002" y="1.67" class="m">✓</text><text x="3.006" y="1.67" class="m">ALLOWED</text><text x="11.022" y="1.67" class="m">—</text><text x="13.026" y="1.67" class="m">no</text><text x="16.032" y="1.67" class="m">secrets</text><text x="24.048" y="1.67" class="m">detected</text></symbol><symbol id="a"><path fill="transparent" d="M0 0h80v24H0z"/></symbol><symbol id="b"><path fill="#6f7683" d="M0 0h1.102v2.171H0z"/></symbol></defs><path class="a" d="M0 0h80v52.104H0z"/><g style="animation-duration:9.618602s;animation-iteration-count:infinite;animation-name:p;animation-timing-function:steps(1,end)"><svg width="1680"><svg><use xlink:href="#a"/><use xlink:href="#b" x="-.004"/></svg><svg x="80"><use xlink:href="#a"/><use xlink:href="#b" x="-.004" y="8.659"/><use xlink:href="#1" y="2.171"/><use xlink:href="#2" y="4.342"/></svg><svg x="160"><use xlink:href="#a"/><use xlink:href="#b" x="-.004" y="13.001"/><use xlink:href="#1" y="2.171"/><use xlink:href="#2" y="4.342"/><use xlink:href="#3" y="8.684"/><use xlink:href="#4" y="10.855"/></svg><svg x="240"><use xlink:href="#a"/><use xlink:href="#b" x="-.004" y="19.514"/><use xlink:href="#1" y="2.171"/><use xlink:href="#2" y="4.342"/><use xlink:href="#3" y="8.684"/><use xlink:href="#4" y="10.855"/><use xlink:href="#5" y="13.026"/><use xlink:href="#6" y="15.197"/><use xlink:href="#7" y="17.368"/></svg><svg x="320"><use xlink:href="#a"/><use xlink:href="#b" x="-.004" y="30.369"/><use xlink:href="#1" y="2.171"/><use xlink:href="#2" y="4.342"/><use xlink:href="#3" y="8.684"/><use xlink:href="#4" y="10.855"/><use xlink:href="#5" y="13.026"/><use xlink:href="#6" y="15.197"/><use xlink:href="#7" y="17.368"/><use xlink:href="#8" y="19.539"/><use xlink:href="#9" y="21.71"/><use xlink:href="#10" y="23.881"/><use xlink:href="#11" y="26.052"/><use xlink:href="#12" y="28.223"/></svg><svg x="400"><use xlink:href="#a"/><use xlink:href="#b" x="-.004" y="32.54"/><use xlink:href="#1" y="2.171"/><use xlink:href="#2" y="4.342"/><use xlink:href="#3" y="8.684"/><use xlink:href="#4" y="10.855"/><use xlink:href="#5" y="13.026"/><use xlink:href="#6" y="15.197"/><use xlink:href="#7" y="17.368"/><use xlink:href="#8" y="19.539"/><use xlink:href="#9" y="21.71"/><use xlink:href="#10" y="23.881"/><use xlink:href="#11" y="26.052"/><use xlink:href="#12" y="28.223"/><use xlink:href="#13" y="30.394"/></svg><svg x="480"><use xlink:href="#a"/><use xlink:href="#b" x="-.004" y="39.053"/><use xlink:href="#1" y="2.171"/><use xlink:href="#2" y="4.342"/><use xlink:href="#3" y="8.684"/><use xlink:href="#4" y="10.855"/><use xlink:href="#5" y="13.026"/><use xlink:href="#6" y="15.197"/><use xlink:href="#7" y="17.368"/><use xlink:href="#8" y="19.539"/><use xlink:href="#9" y="21.71"/><use xlink:href="#10" y="23.881"/><use xlink:href="#11" y="26.052"/><use xlink:href="#12" y="28.223"/><use xlink:href="#13" y="30.394"/><use xlink:href="#14" y="34.736"/><use xlink:href="#15" y="36.907"/></svg><svg x="560"><use xlink:href="#a"/><use xlink:href="#b" x="-.004" y="47.737"/><use xlink:href="#1" y="2.171"/><use xlink:href="#2" y="4.342"/><use xlink:href="#3" y="8.684"/><use xlink:href="#4" y="10.855"/><use xlink:href="#5" y="13.026"/><use xlink:href="#6" y="15.197"/><use xlink:href="#7" y="17.368"/><use xlink:href="#8" y="19.539"/><use xlink:href="#9" y="21.71"/><use xlink:href="#10" y="23.881"/><use xlink:href="#11" y="26.052"/><use xlink:href="#12" y="28.223"/><use xlink:href="#13" y="30.394"/><use xlink:href="#14" y="34.736"/><use xlink:href="#15" y="36.907"/><use xlink:href="#5" y="39.078"/><use xlink:href="#6" y="41.249"/><use xlink:href="#7" y="43.42"/><use xlink:href="#8" y="45.591"/></svg><svg x="640"><use xlink:href="#a"/><use xlink:href="#b" x="-.004" y="49.908"/><use xlink:href="#3"/><use xlink:href="#4" y="2.171"/><use xlink:href="#5" y="4.342"/><use xlink:href="#6" y="6.513"/><use xlink:href="#7" y="8.684"/><use xlink:href="#8" y="10.855"/><use xlink:href="#9" y="13.026"/><use xlink:href="#10" y="15.197"/><use xlink:href="#11" y="17.368"/><use xlink:href="#12" y="19.539"/><use xlink:href="#13" y="21.71"/><use xlink:href="#14" y="26.052"/><use xlink:href="#15" y="28.223"/><use xlink:href="#5" y="30.394"/><use xlink:href="#6" y="32.565"/><use xlink:href="#7" y="34.736"/><use xlink:href="#8" y="36.907"/><use xlink:href="#9" y="39.078"/><use xlink:href="#16" y="41.249"/><use xlink:href="#17" y="43.42"/><use xlink:href="#11" y="45.591"/><use xlink:href="#12" y="47.762"/></svg><svg x="720"><use xlink:href="#a"/><use xlink:href="#b" x="-.004" y="49.908"/><use xlink:href="#4"/><use xlink:href="#5" y="2.171"/><use xlink:href="#6" y="4.342"/><use xlink:href="#7" y="6.513"/><use xlink:href="#8" y="8.684"/><use xlink:href="#9" y="10.855"/><use xlink:href="#10" y="13.026"/><use xlink:href="#11" y="15.197"/><use xlink:href="#12" y="17.368"/><use xlink:href="#13" y="19.539"/><use xlink:href="#14" y="23.881"/><use xlink:href="#15" y="26.052"/><use xlink:href="#5" y="28.223"/><use xlink:href="#6" y="30.394"/><use xlink:href="#7" y="32.565"/><use xlink:href="#8" y="34.736"/><use xlink:href="#9" y="36.907"/><use xlink:href="#16" y="39.078"/><use xlink:href="#17" y="41.249"/><use xlink:href="#11" y="43.42"/><use xlink:href="#12" y="45.591"/><use xlink:href="#18" y="47.762"/></svg><svg x="800"><use xlink:href="#a"/><use xlink:href="#b" x="-.004" y="49.908"/><use xlink:href="#6"/><use xlink:href="#7" y="2.171"/><use xlink:href="#8" y="4.342"/><use xlink:href="#9" y="6.513"/><use xlink:href="#10" y="8.684"/><use xlink:href="#11" y="10.855"/><use xlink:href="#12" y="13.026"/><use xlink:href="#13" y="15.197"/><use xlink:href="#14" y="19.539"/><use xlink:href="#15" y="21.71"/><use xlink:href="#5" y="23.881"/><use xlink:href="#6" y="26.052"/><use xlink:href="#7" y="28.223"/><use xlink:href="#8" y="30.394"/><use xlink:href="#9" y="32.565"/><use xlink:href="#16" y="34.736"/><use xlink:href="#17" y="36.907"/><use xlink:href="#11" y="39.078"/><use xlink:href="#12" y="41.249"/><use xlink:href="#18" y="43.42"/><use xlink:href="#19" y="47.762"/></svg><svg x="880"><use xlink:href="#a"/><use xlink:href="#b" x="-.004" y="49.908"/><use xlink:href="#7"/><use xlink:href="#8" y="2.171"/><use xlink:href="#9" y="4.342"/><use xlink:href="#10" y="6.513"/><use xlink:href="#11" y="8.684"/><use xlink:href="#12" y="10.855"/><use xlink:href="#13" y="13.026"/><use xlink:href="#14" y="17.368"/><use xlink:href="#15" y="19.539"/><use xlink:href="#5" y="21.71"/><use xlink:href="#6" y="23.881"/><use xlink:href="#7" y="26.052"/><use xlink:href="#8" y="28.223"/><use xlink:href="#9" y="30.394"/><use xlink:href="#16" y="32.565"/><use xlink:href="#17" y="34.736"/><use xlink:href="#11" y="36.907"/><use xlink:href="#12" y="39.078"/><use xlink:href="#18" y="41.249"/><use xlink:href="#19" y="45.591"/><use xlink:href="#20" y="47.762"/></svg><svg x="960"><use xlink:href="#a"/><use xlink:href="#b" x="-.004" y="49.908"/><use xlink:href="#10"/><use xlink:href="#11" y="2.171"/><use xlink:href="#12" y="4.342"/><use xlink:href="#13" y="6.513"/><use xlink:href="#14" y="10.855"/><use xlink:href="#15" y="13.026"/><use xlink:href="#5" y="15.197"/><use xlink:href="#6" y="17.368"/><use xlink:href="#7" y="19.539"/><use xlink:href="#8" y="21.71"/><use xlink:href="#9" y="23.881"/><use xlink:href="#16" y="26.052"/><use xlink:href="#17" y="28.223"/><use xlink:href="#11" y="30.394"/><use xlink:href="#12" y="32.565"/><use xlink:href="#18" y="34.736"/><use xlink:href="#19" y="39.078"/><use xlink:href="#20" y="41.249"/><use xlink:href="#5" y="43.42"/><use xlink:href="#6" y="45.591"/><use xlink:href="#7" y="47.762"/></svg><svg x="1040"><use xlink:href="#a"/><use xlink:href="#b" x="-.004" y="49.908"/><use xlink:href="#14"/><use xlink:href="#15" y="2.171"/><use xlink:href="#5" y="4.342"/><use xlink:href="#6" y="6.513"/><use xlink:href="#7" y="8.684"/><use xlink:href="#8" y="10.855"/><use xlink:href="#9" y="13.026"/><use xlink:href="#16" y="15.197"/><use xlink:href="#17" y="17.368"/><use xlink:href="#11" y="19.539"/><use xlink:href="#12" y="21.71"/><use xlink:href="#18" y="23.881"/><use xlink:href="#19" y="28.223"/><use xlink:href="#20" y="30.394"/><use xlink:href="#5" y="32.565"/><use xlink:href="#6" y="34.736"/><use xlink:href="#7" y="36.907"/><use xlink:href="#8" y="39.078"/><use xlink:href="#9" y="41.249"/><use xlink:href="#21" y="43.42"/><use xlink:href="#11" y="45.591"/><use xlink:href="#12" y="47.762"/></svg><svg x="1120"><use xlink:href="#a"/><use xlink:href="#b" x="-.004" y="49.908"/><use xlink:href="#15"/><use xlink:href="#5" y="2.171"/><use xlink:href="#6" y="4.342"/><use xlink:href="#7" y="6.513"/><use xlink:href="#8" y="8.684"/><use xlink:href="#9" y="10.855"/><use xlink:href="#16" y="13.026"/><use xlink:href="#17" y="15.197"/><use xlink:href="#11" y="17.368"/><use xlink:href="#12" y="19.539"/><use xlink:href="#18" y="21.71"/><use xlink:href="#19" y="26.052"/><use xlink:href="#20" y="28.223"/><use xlink:href="#5" y="30.394"/><use xlink:href="#6" y="32.565"/><use xlink:href="#7" y="34.736"/><use xlink:href="#8" y="36.907"/><use xlink:href="#9" y="39.078"/><use xlink:href="#21" y="41.249"/><use xlink:href="#11" y="43.42"/><use xlink:href="#12" y="45.591"/><use xlink:href="#22" y="47.762"/></svg><svg x="1200"><use xlink:href="#a"/><use xlink:href="#b" x="-.004" y="49.908"/><use xlink:href="#6"/><use xlink:href="#7" y="2.171"/><use xlink:href="#8" y="4.342"/><use xlink:href="#9" y="6.513"/><use xlink:href="#16" y="8.684"/><use xlink:href="#17" y="10.855"/><use xlink:href="#11" y="13.026"/><use xlink:href="#12" y="15.197"/><use xlink:href="#18" y="17.368"/><use xlink:href="#19" y="21.71"/><use xlink:href="#20" y="23.881"/><use xlink:href="#5" y="26.052"/><use xlink:href="#6" y="28.223"/><use xlink:href="#7" y="30.394"/><use xlink:href="#8" y="32.565"/><use xlink:href="#9" y="34.736"/><use xlink:href="#21" y="36.907"/><use xlink:href="#11" y="39.078"/><use xlink:href="#12" y="41.249"/><use xlink:href="#22" y="43.42"/><use xlink:href="#23" y="47.762"/></svg><svg x="1280"><use xlink:href="#a"/><use xlink:href="#b" x="-.004" y="49.908"/><use xlink:href="#7"/><use xlink:href="#8" y="2.171"/><use xlink:href="#9" y="4.342"/><use xlink:href="#16" y="6.513"/><use xlink:href="#17" y="8.684"/><use xlink:href="#11" y="10.855"/><use xlink:href="#12" y="13.026"/><use xlink:href="#18" y="15.197"/><use xlink:href="#19" y="19.539"/><use xlink:href="#20" y="21.71"/><use xlink:href="#5" y="23.881"/><use xlink:href="#6" y="26.052"/><use xlink:href="#7" y="28.223"/><use xlink:href="#8" y="30.394"/><use xlink:href="#9" y="32.565"/><use xlink:href="#21" y="34.736"/><use xlink:href="#11" y="36.907"/><use xlink:href="#12" y="39.078"/><use xlink:href="#22" y="41.249"/><use xlink:href="#23" y="45.591"/><use xlink:href="#24" y="47.762"/></svg><svg x="1360"><use xlink:href="#a"/><use xlink:href="#b" x="-.004" y="49.908"/><use xlink:href="#17"/><use xlink:href="#11" y="2.171"/><use xlink:href="#12" y="4.342"/><use xlink:href="#18" y="6.513"/><use xlink:href="#19" y="10.855"/><use xlink:href="#20" y="13.026"/><use xlink:href="#5" y="15.197"/><use xlink:href="#6" y="17.368"/><use xlink:href="#7" y="19.539"/><use xlink:href="#8" y="21.71"/><use xlink:href="#9" y="23.881"/><use xlink:href="#21" y="26.052"/><use xlink:href="#11" y="28.223"/><use xlink:href="#12" y="30.394"/><use xlink:href="#22" y="32.565"/><use xlink:href="#23" y="36.907"/><use xlink:href="#24" y="39.078"/><use xlink:href="#5" y="41.249"/><use xlink:href="#6" y="43.42"/><use xlink:href="#7" y="45.591"/><use xlink:href="#25" y="47.762"/></svg><svg x="1440"><use xlink:href="#a"/><use xlink:href="#b" x="-.004" y="49.908"/><use xlink:href="#12"/><use xlink:href="#18" y="2.171"/><use xlink:href="#19" y="6.513"/><use xlink:href="#20" y="8.684"/><use xlink:href="#5" y="10.855"/><use xlink:href="#6" y="13.026"/><use xlink:href="#7" y="15.197"/><use xlink:href="#8" y="17.368"/><use xlink:href="#9" y="19.539"/><use xlink:href="#21" y="21.71"/><use xlink:href="#11" y="23.881"/><use xlink:href="#12" y="26.052"/><use xlink:href="#22" y="28.223"/><use xlink:href="#23" y="32.565"/><use xlink:href="#24" y="34.736"/><use xlink:href="#5" y="36.907"/><use xlink:href="#6" y="39.078"/><use xlink:href="#7" y="41.249"/><use xlink:href="#25" y="43.42"/><use xlink:href="#11" y="45.591"/><use xlink:href="#12" y="47.762"/></svg><svg x="1520"><use xlink:href="#a"/><use xlink:href="#b" x="-.004" y="49.908"/><use xlink:href="#18"/><use xlink:href="#19" y="4.342"/><use xlink:href="#20" y="6.513"/><use xlink:href="#5" y="8.684"/><use xlink:href="#6" y="10.855"/><use xlink:href="#7" y="13.026"/><use xlink:href="#8" y="15.197"/><use xlink:href="#9" y="17.368"/><use xlink:href="#21" y="19.539"/><use xlink:href="#11" y="21.71"/><use xlink:href="#12" y="23.881"/><use xlink:href="#22" y="26.052"/><use xlink:href="#23" y="30.394"/><use xlink:href="#24" y="32.565"/><use xlink:href="#5" y="34.736"/><use xlink:href="#6" y="36.907"/><use xlink:href="#7" y="39.078"/><use xlink:href="#25" y="41.249"/><use xlink:href="#11" y="43.42"/><use xlink:href="#12" y="45.591"/><use xlink:href="#26" y="47.762"/></svg><svg x="1600"><use xlink:href="#a"/><use xlink:href="#b" x="-.004" y="49.908"/><use xlink:href="#19"/><use xlink:href="#20" y="2.171"/><use xlink:href="#5" y="4.342"/><use xlink:href="#6" y="6.513"/><use xlink:href="#7" y="8.684"/><use xlink:href="#8" y="10.855"/><use xlink:href="#9" y="13.026"/><use xlink:href="#21" y="15.197"/><use xlink:href="#11" y="17.368"/><use xlink:href="#12" y="19.539"/><use xlink:href="#22" y="21.71"/><use xlink:href="#23" y="26.052"/><use xlink:href="#24" y="28.223"/><use xlink:href="#5" y="30.394"/><use xlink:href="#6" y="32.565"/><use xlink:href="#7" y="34.736"/><use xlink:href="#25" y="36.907"/><use xlink:href="#11" y="39.078"/><use xlink:href="#12" y="41.249"/><use xlink:href="#26" y="43.42"/><text x="1.002" y="49.432" class="i">3</text><text x="3.006" y="49.432" class="i">blocked.</text><text x="12.024" y="49.432" class="i">1</text><text x="14.028" y="49.432" class="i">allowed.</text><text x="23.046" y="49.432" class="i">All</text><text x="27.054" y="49.432" class="i">audited.</text></svg></svg></g></g></svg></svg>