<svg xmlns="http://www.w3.org/2000/svg" xmlns:xlink="http://www.w3.org/1999/xlink" width="840" height="581.04"><rect width="840" height="581.04" rx="5" ry="5" class="a"/><svg y="0%" x="0%"><circle cx="20" cy="20" r="6" fill="#ff5f58"/><circle cx="40" cy="20" r="6" fill="#ffbd2e"/><circle cx="60" cy="20" r="6" fill="#18c132"/></svg><svg height="521.04" viewBox="0 0 80 52.104" width="800" x="15" xmlns="http://www.w3.org/2000/svg" xmlns:xlink="http://www.w3.org/1999/xlink" y="50"><style>@keyframes m{0%{transform:translateX(0)}26.3%{transform:translateX(-80px)}26.4%{transform:translateX(-160px)}31%{transform:translateX(-240px)}33.1%{transform:translateX(-480px)}51.3%{transform:translateX(-640px)}55.9%{transform:translateX(-720px)}59%{transform:translateX(-880px)}77.2%{transform:translateX(-1120px)}to{transform:translateX(-1600px)}}.a{fill:#282d35}.f{fill:#66c2cd;font-weight:700;white-space:pre}.g{fill:#b9c0cb}.g,.h,.i,.j{white-space:pre}.h{fill:#b9c0cb;font-weight:700}.i,.j{fill:#a8cc8c}.j{fill:#dbab79}</style><g font-family="Monaco,Consolas,Menlo,'Bitstream Vera Sans Mono','Powerline Symbols',monospace" font-size="1.67"><defs><symbol id="1"><text x="1.002" y="1.67" class="f">══</text><text x="4.008" y="1.67" class="f">LOAD</text><text x="9.018" y="1.67" class="f">TEST</text><text x="14.028" y="1.67" class="f">══</text></symbol><symbol id="2"><text x="1.002" y="1.67" class="g">Governance</text><text x="12.024" y="1.67" class="g">throughput</text><text x="23.046" y="1.67" class="g">+</text><text x="25.05" y="1.67" class="g">latency</text></symbol><symbol id="3"><text x="1.002" y="1.67" class="h">Governance:</text><text x="13.026" y="1.67" class="h">500</text><text x="17.034" y="1.67" class="h">requests,</text><text x="27.054" y="1.67" class="h">50</text><text x="30.06" y="1.67" class="h">concurrent</text></symbol><symbol id="4"><text x="1.002" y="1.67" class="g">JWT</text><text x="5.01" y="1.67" class="g">→</text><text x="7.014" y="1.67" class="g">scope</text><text x="13.026" y="1.67" class="g">→</text><text x="15.03" y="1.67" class="g">3</text><text x="17.034" y="1.67" class="g">rules</text><text x="23.046" y="1.67" class="g">→</text><text x="25.05" y="1.67" class="g">audit</text><text x="31.062" y="1.67" class="g">write</text></symbol><symbol id="5"><text x="2.004" y="1.67" class="g">Running</text><text x="10.02" y="1.67" class="g">benchmark...</text></symbol><symbol id="6"><text x="2.004" y="1.67" class="g">┌───────────────────┬──────────────────────┐</text></symbol><symbol id="7"><text x="2.004" y="1.67" class="g">│</text><text x="5.01" y="1.67" class="g">Throughput</text><text x="22.044" y="1.67" class="g">│</text><text x="25.05" y="1.67" class="i">2318</text><text x="30.06" y="1.67" class="i">req/s</text><text x="45.09" y="1.67" class="g">│</text></symbol><symbol id="8"><text x="2.004" y="1.67" class="g">├───────────────────┼──────────────────────┤</text></symbol><symbol id="9"><text x="2.004" y="1.67" class="g">│</text><text x="5.01" y="1.67" class="g">p50</text><text x="22.044" y="1.67" class="g">│</text><text x="25.05" y="1.67" class="i">9.8ms</text><text x="45.09" y="1.67" class="g">│</text></symbol><symbol id="10"><text x="2.004" y="1.67" class="g">│</text><text x="5.01" y="1.67" class="g">p90</text><text x="22.044" y="1.67" class="g">│</text><text x="25.05" y="1.67" class="j">48.8ms</text><text x="45.09" y="1.67" class="g">│</text></symbol><symbol id="11"><text x="2.004" y="1.67" class="g">│</text><text x="5.01" y="1.67" class="g">p99</text><text x="22.044" y="1.67" class="g">│</text><text x="25.05" y="1.67" class="j">125.5ms</text><text x="45.09" y="1.67" class="g">│</text></symbol><symbol id="12"><text x="2.004" y="1.67" class="g">│</text><text x="5.01" y="1.67" class="g">Fastest</text><text x="22.044" y="1.67" class="g">│</text><text x="25.05" y="1.67" class="i">1.7ms</text><text x="45.09" y="1.67" class="g">│</text></symbol><symbol id="13"><text x="2.004" y="1.67" class="g">└───────────────────┴──────────────────────┘</text></symbol><symbol id="14"><text x="1.002" y="1.67" class="h">Sustained:</text><text x="12.024" y="1.67" class="h">1000</text><text x="17.034" y="1.67" class="h">requests,</text><text x="27.054" y="1.67" class="h">100</text><text x="31.062" y="1.67" class="h">concurrent</text></symbol><symbol id="15"><text x="1.002" y="1.67" class="g">Double</text><text x="8.016" y="1.67" class="g">the</text><text x="12.024" y="1.67" class="g">concurrency</text></symbol><symbol id="16"><text x="2.004" y="1.67" class="g">│</text><text x="5.01" y="1.67" class="g">Throughput</text><text x="22.044" y="1.67" class="g">│</text><text x="25.05" y="1.67" class="i">3090</text><text x="30.06" y="1.67" class="i">req/s</text><text x="45.09" y="1.67" class="g">│</text></symbol><symbol id="17"><text x="2.004" y="1.67" class="g">│</text><text x="5.01" y="1.67" class="g">p50</text><text x="22.044" y="1.67" class="g">│</text><text x="25.05" y="1.67" class="i">21.9ms</text><text x="45.09" y="1.67" class="g">│</text></symbol><symbol id="18"><text x="2.004" y="1.67" class="g">│</text><text x="5.01" y="1.67" class="g">p90</text><text x="22.044" y="1.67" class="g">│</text><text x="25.05" y="1.67" class="j">76.4ms</text><text x="45.09" y="1.67" class="g">│</text></symbol><symbol id="19"><text x="2.004" y="1.67" class="g">│</text><text x="5.01" y="1.67" class="g">p99</text><text x="22.044" y="1.67" class="g">│</text><text x="25.05" y="1.67" class="j">159.5ms</text><text x="45.09" y="1.67" class="g">│</text></symbol><symbol id="20"><text x="1.002" y="1.67" class="f">══</text><text x="4.008" y="1.67" class="f">SUMMARY</text><text x="12.024" y="1.67" class="f">══</text></symbol><symbol id="21"><text x="2.004" y="1.67" class="h">Endpoint</text><text x="23.046" y="1.67" class="h">req/s</text><text x="34.068" y="1.67" class="h">p50</text><text x="45.09" y="1.67" class="h">p90</text><text x="56.112" y="1.67" class="h">p99</text></symbol><symbol id="22"><text x="2.004" y="1.67" class="g">────────────────────────────────────────────────────────</text></symbol><symbol id="23"><text x="2.004" y="1.67" class="g">Governance</text><text x="13.026" y="1.67" class="g">(50c)</text><text x="23.046" y="1.67" class="i">2318</text><text x="34.068" y="1.67" class="g">9.8ms</text><text x="45.09" y="1.67" class="g">48.8ms</text><text x="56.112" y="1.67" class="g">125.5ms</text></symbol><symbol id="24"><text x="2.004" y="1.67" class="g">Sustained</text><text x="12.024" y="1.67" class="g">(100c)</text><text x="23.046" y="1.67" class="i">3090</text><text x="34.068" y="1.67" class="g">21.9ms</text><text x="45.09" y="1.67" class="g">76.4ms</text><text x="56.112" y="1.67" class="g">159.5ms</text></symbol><symbol id="25"><text x="1.002" y="1.67" class="f">Enterprise</text><text x="12.024" y="1.67" class="f">Capacity</text><text x="21.042" y="1.67" class="g">(10</text><text x="25.05" y="1.67" class="g">tool</text><text x="30.06" y="1.67" class="g">calls/min</text><text x="40.08" y="1.67" class="g">per</text><text x="44.088" y="1.67" class="g">dev)</text></symbol><symbol id="26"><text x="2.004" y="1.67" class="g">│</text><text x="5.01" y="1.67" class="g">1</text><text x="7.014" y="1.67" class="g">instance</text><text x="22.044" y="1.67" class="g">│</text><text x="25.05" y="1.67" class="i">~13908</text><text x="32.064" y="1.67" class="i">devs</text><text x="45.09" y="1.67" class="g">│</text></symbol><symbol id="27"><text x="2.004" y="1.67" class="g">│</text><text x="5.01" y="1.67" class="g">3</text><text x="7.014" y="1.67" class="g">+</text><text x="9.018" y="1.67" class="g">PgBouncer</text><text x="22.044" y="1.67" class="g">│</text><text x="25.05" y="1.67" class="i">~41724</text><text x="32.064" y="1.67" class="i">devs</text><text x="45.09" y="1.67" class="g">│</text></symbol><symbol id="28"><text x="2.004" y="1.67" class="g">│</text><text x="5.01" y="1.67" class="g">10</text><text x="8.016" y="1.67" class="g">+</text><text x="10.02" y="1.67" class="g">PgBouncer</text><text x="22.044" y="1.67" class="g">│</text><text x="25.05" y="1.67" class="i">~139080</text><text x="33.066" y="1.67" class="i">devs</text><text x="45.09" y="1.67" class="g">│</text></symbol><symbol id="a"><path fill="transparent" d="M0 0h80v24H0z"/></symbol><symbol id="b"><path fill="#6f7683" d="M0 0h1.102v2.171H0z"/></symbol></defs><path class="a" d="M0 0h80v52.104H0z"/><g style="animation-duration:10.973626s;animation-iteration-count:infinite;animation-name:m;animation-timing-function:steps(1,end)"><svg width="1680"><svg><use xlink:href="#a"/><use xlink:href="#b" x="-.004"/></svg><svg x="80"><use xlink:href="#a"/><use xlink:href="#b" x="-.004" y="8.659"/><use xlink:href="#1" y="2.171"/><use xlink:href="#2" y="4.342"/></svg><svg x="160"><use xlink:href="#a"/><use xlink:href="#b" x="-.004" y="15.172"/><use xlink:href="#1" y="2.171"/><use xlink:href="#2" y="4.342"/><use xlink:href="#3" y="8.684"/><use xlink:href="#4" y="10.855"/></svg><svg x="240"><use xlink:href="#a"/><use xlink:href="#b" x="-.004" y="17.343"/><use xlink:href="#1" y="2.171"/><use xlink:href="#2" y="4.342"/><use xlink:href="#3" y="8.684"/><use xlink:href="#4" y="10.855"/><use xlink:href="#5" y="15.197"/></svg><svg x="320"><use xlink:href="#a"/><use xlink:href="#b" x="-.004" y="21.685"/><use xlink:href="#1" y="2.171"/><use xlink:href="#2" y="4.342"/><use xlink:href="#3" y="8.684"/><use xlink:href="#4" y="10.855"/><use xlink:href="#5" y="15.197"/><use xlink:href="#6" y="17.368"/><use xlink:href="#7" y="19.539"/></svg><svg x="400"><use xlink:href="#a"/><use xlink:href="#b" x="-.004" y="28.198"/><use xlink:href="#1" y="2.171"/><use xlink:href="#2" y="4.342"/><use xlink:href="#3" y="8.684"/><use xlink:href="#4" y="10.855"/><use xlink:href="#5" y="15.197"/><use xlink:href="#6" y="17.368"/><use xlink:href="#7" y="19.539"/><use xlink:href="#8" y="21.71"/><use xlink:href="#9" y="23.881"/><use xlink:href="#10" y="26.052"/></svg><svg x="480"><use xlink:href="#a"/><use xlink:href="#b" x="-.004" y="34.711"/><use xlink:href="#1" y="2.171"/><use xlink:href="#2" y="4.342"/><use xlink:href="#3" y="8.684"/><use xlink:href="#4" y="10.855"/><use xlink:href="#5" y="15.197"/><use xlink:href="#6" y="17.368"/><use xlink:href="#7" y="19.539"/><use xlink:href="#8" y="21.71"/><use xlink:href="#9" y="23.881"/><use xlink:href="#10" y="26.052"/><use xlink:href="#11" y="28.223"/><use xlink:href="#12" y="30.394"/><use xlink:href="#13" y="32.565"/></svg><svg x="560"><use xlink:href="#a"/><use xlink:href="#b" x="-.004" y="41.224"/><use xlink:href="#1" y="2.171"/><use xlink:href="#2" y="4.342"/><use xlink:href="#3" y="8.684"/><use xlink:href="#4" y="10.855"/><use xlink:href="#5" y="15.197"/><use xlink:href="#6" y="17.368"/><use xlink:href="#7" y="19.539"/><use xlink:href="#8" y="21.71"/><use xlink:href="#9" y="23.881"/><use xlink:href="#10" y="26.052"/><use xlink:href="#11" y="28.223"/><use xlink:href="#12" y="30.394"/><use xlink:href="#13" y="32.565"/><use xlink:href="#14" y="36.907"/><use xlink:href="#15" y="39.078"/></svg><svg x="640"><use xlink:href="#a"/><use xlink:href="#b" x="-.004" y="43.395"/><use xlink:href="#1" y="2.171"/><use xlink:href="#2" y="4.342"/><use xlink:href="#3" y="8.684"/><use xlink:href="#4" y="10.855"/><use xlink:href="#5" y="15.197"/><use xlink:href="#6" y="17.368"/><use xlink:href="#7" y="19.539"/><use xlink:href="#8" y="21.71"/><use xlink:href="#9" y="23.881"/><use xlink:href="#10" y="26.052"/><use xlink:href="#11" y="28.223"/><use xlink:href="#12" y="30.394"/><use xlink:href="#13" y="32.565"/><use xlink:href="#14" y="36.907"/><use xlink:href="#15" y="39.078"/></svg><svg x="720"><use xlink:href="#a"/><use xlink:href="#b" x="-.004" y="45.566"/><use xlink:href="#1" y="2.171"/><use xlink:href="#2" y="4.342"/><use xlink:href="#3" y="8.684"/><use xlink:href="#4" y="10.855"/><use xlink:href="#5" y="15.197"/><use xlink:href="#6" y="17.368"/><use xlink:href="#7" y="19.539"/><use xlink:href="#8" y="21.71"/><use xlink:href="#9" y="23.881"/><use xlink:href="#10" y="26.052"/><use xlink:href="#11" y="28.223"/><use xlink:href="#12" y="30.394"/><use xlink:href="#13" y="32.565"/><use xlink:href="#14" y="36.907"/><use xlink:href="#15" y="39.078"/><use xlink:href="#5" y="43.42"/></svg><svg x="800"><use xlink:href="#a"/><use xlink:href="#b" x="-.004" y="49.908"/><use xlink:href="#1" y="2.171"/><use xlink:href="#2" y="4.342"/><use xlink:href="#3" y="8.684"/><use xlink:href="#4" y="10.855"/><use xlink:href="#5" y="15.197"/><use xlink:href="#6" y="17.368"/><use xlink:href="#7" y="19.539"/><use xlink:href="#8" y="21.71"/><use xlink:href="#9" y="23.881"/><use xlink:href="#10" y="26.052"/><use xlink:href="#11" y="28.223"/><use xlink:href="#12" y="30.394"/><use xlink:href="#13" y="32.565"/><use xlink:href="#14" y="36.907"/><use xlink:href="#15" y="39.078"/><use xlink:href="#5" y="43.42"/><use xlink:href="#6" y="45.591"/><use xlink:href="#16" y="47.762"/></svg><svg x="880"><use xlink:href="#a"/><use xlink:href="#b" x="-.004" y="49.908"/><use xlink:href="#4"/><use xlink:href="#5" y="4.342"/><use xlink:href="#6" y="6.513"/><use xlink:href="#7" y="8.684"/><use xlink:href="#8" y="10.855"/><use xlink:href="#9" y="13.026"/><use xlink:href="#10" y="15.197"/><use xlink:href="#11" y="17.368"/><use xlink:href="#12" y="19.539"/><use xlink:href="#13" y="21.71"/><use xlink:href="#14" y="26.052"/><use xlink:href="#15" y="28.223"/><use xlink:href="#5" y="32.565"/><use xlink:href="#6" y="34.736"/><use xlink:href="#16" y="36.907"/><use xlink:href="#8" y="39.078"/><use xlink:href="#17" y="41.249"/><use xlink:href="#18" y="43.42"/><use xlink:href="#19" y="45.591"/><use xlink:href="#13" y="47.762"/></svg><svg x="960"><use xlink:href="#a"/><use xlink:href="#b" x="-.004" y="49.908"/><use xlink:href="#6"/><use xlink:href="#7" y="2.171"/><use xlink:href="#8" y="4.342"/><use xlink:href="#9" y="6.513"/><use xlink:href="#10" y="8.684"/><use xlink:href="#11" y="10.855"/><use xlink:href="#12" y="13.026"/><use xlink:href="#13" y="15.197"/><use xlink:href="#14" y="19.539"/><use xlink:href="#15" y="21.71"/><use xlink:href="#5" y="26.052"/><use xlink:href="#6" y="28.223"/><use xlink:href="#16" y="30.394"/><use xlink:href="#8" y="32.565"/><use xlink:href="#17" y="34.736"/><use xlink:href="#18" y="36.907"/><use xlink:href="#19" y="39.078"/><use xlink:href="#13" y="41.249"/><use xlink:href="#20" y="45.591"/></svg><svg x="1040"><use xlink:href="#a"/><use xlink:href="#b" x="-.004" y="49.908"/><use xlink:href="#9"/><use xlink:href="#10" y="2.171"/><use xlink:href="#11" y="4.342"/><use xlink:href="#12" y="6.513"/><use xlink:href="#13" y="8.684"/><use xlink:href="#14" y="13.026"/><use xlink:href="#15" y="15.197"/><use xlink:href="#5" y="19.539"/><use xlink:href="#6" y="21.71"/><use xlink:href="#16" y="23.881"/><use xlink:href="#8" y="26.052"/><use xlink:href="#17" y="28.223"/><use xlink:href="#18" y="30.394"/><use xlink:href="#19" y="32.565"/><use xlink:href="#13" y="34.736"/><use xlink:href="#20" y="39.078"/><use xlink:href="#21" y="43.42"/><use xlink:href="#22" y="45.591"/><use xlink:href="#23" y="47.762"/></svg><svg x="1120"><use xlink:href="#a"/><use xlink:href="#b" x="-.004" y="49.908"/><use xlink:href="#10"/><use xlink:href="#11" y="2.171"/><use xlink:href="#12" y="4.342"/><use xlink:href="#13" y="6.513"/><use xlink:href="#14" y="10.855"/><use xlink:href="#15" y="13.026"/><use xlink:href="#5" y="17.368"/><use xlink:href="#6" y="19.539"/><use xlink:href="#16" y="21.71"/><use xlink:href="#8" y="23.881"/><use xlink:href="#17" y="26.052"/><use xlink:href="#18" y="28.223"/><use xlink:href="#19" y="30.394"/><use xlink:href="#13" y="32.565"/><use xlink:href="#20" y="36.907"/><use xlink:href="#21" y="41.249"/><use xlink:href="#22" y="43.42"/><use xlink:href="#23" y="45.591"/><use xlink:href="#24" y="47.762"/></svg><svg x="1200"><use xlink:href="#a"/><use xlink:href="#b" x="-.004" y="49.908"/><use xlink:href="#13"/><use xlink:href="#14" y="4.342"/><use xlink:href="#15" y="6.513"/><use xlink:href="#5" y="10.855"/><use xlink:href="#6" y="13.026"/><use xlink:href="#16" y="15.197"/><use xlink:href="#8" y="17.368"/><use xlink:href="#17" y="19.539"/><use xlink:href="#18" y="21.71"/><use xlink:href="#19" y="23.881"/><use xlink:href="#13" y="26.052"/><use xlink:href="#20" y="30.394"/><use xlink:href="#21" y="34.736"/><use xlink:href="#22" y="36.907"/><use xlink:href="#23" y="39.078"/><use xlink:href="#24" y="41.249"/><use xlink:href="#25" y="45.591"/></svg><svg x="1280"><use xlink:href="#a"/><use xlink:href="#b" x="-.004" y="49.908"/><use xlink:href="#14" y="2.171"/><use xlink:href="#15" y="4.342"/><use xlink:href="#5" y="8.684"/><use xlink:href="#6" y="10.855"/><use xlink:href="#16" y="13.026"/><use xlink:href="#8" y="15.197"/><use xlink:href="#17" y="17.368"/><use xlink:href="#18" y="19.539"/><use xlink:href="#19" y="21.71"/><use xlink:href="#13" y="23.881"/><use xlink:href="#20" y="28.223"/><use xlink:href="#21" y="32.565"/><use xlink:href="#22" y="34.736"/><use xlink:href="#23" y="36.907"/><use xlink:href="#24" y="39.078"/><use xlink:href="#25" y="43.42"/><use xlink:href="#6" y="47.762"/></svg><svg x="1360"><use xlink:href="#a"/><use xlink:href="#b" x="-.004" y="49.908"/><use xlink:href="#14"/><use xlink:href="#15" y="2.171"/><use xlink:href="#5" y="6.513"/><use xlink:href="#6" y="8.684"/><use xlink:href="#16" y="10.855"/><use xlink:href="#8" y="13.026"/><use xlink:href="#17" y="15.197"/><use xlink:href="#18" y="17.368"/><use xlink:href="#19" y="19.539"/><use xlink:href="#13" y="21.71"/><use xlink:href="#20" y="26.052"/><use xlink:href="#21" y="30.394"/><use xlink:href="#22" y="32.565"/><use xlink:href="#23" y="34.736"/><use xlink:href="#24" y="36.907"/><use xlink:href="#25" y="41.249"/><use xlink:href="#6" y="45.591"/><use xlink:href="#26" y="47.762"/></svg><svg x="1440"><use xlink:href="#a"/><use xlink:href="#b" x="-.004" y="49.908"/><use xlink:href="#15"/><use xlink:href="#5" y="4.342"/><use xlink:href="#6" y="6.513"/><use xlink:href="#16" y="8.684"/><use xlink:href="#8" y="10.855"/><use xlink:href="#17" y="13.026"/><use xlink:href="#18" y="15.197"/><use xlink:href="#19" y="17.368"/><use xlink:href="#13" y="19.539"/><use xlink:href="#20" y="23.881"/><use xlink:href="#21" y="28.223"/><use xlink:href="#22" y="30.394"/><use xlink:href="#23" y="32.565"/><use xlink:href="#24" y="34.736"/><use xlink:href="#25" y="39.078"/><use xlink:href="#6" y="43.42"/><use xlink:href="#26" y="45.591"/><use xlink:href="#27" y="47.762"/></svg><svg x="1520"><use xlink:href="#a"/><use xlink:href="#b" x="-.004" y="49.908"/><use xlink:href="#5"/><use xlink:href="#6" y="2.171"/><use xlink:href="#16" y="4.342"/><use xlink:href="#8" y="6.513"/><use xlink:href="#17" y="8.684"/><use xlink:href="#18" y="10.855"/><use xlink:href="#19" y="13.026"/><use xlink:href="#13" y="15.197"/><use xlink:href="#20" y="19.539"/><use xlink:href="#21" y="23.881"/><use xlink:href="#22" y="26.052"/><use xlink:href="#23" y="28.223"/><use xlink:href="#24" y="30.394"/><use xlink:href="#25" y="34.736"/><use xlink:href="#6" y="39.078"/><use xlink:href="#26" y="41.249"/><use xlink:href="#27" y="43.42"/><use xlink:href="#28" y="45.591"/><use xlink:href="#13" y="47.762"/></svg><svg x="1600"><use xlink:href="#a"/><use xlink:href="#b" x="-.004" y="49.908"/><use xlink:href="#16"/><use xlink:href="#8" y="2.171"/><use xlink:href="#17" y="4.342"/><use xlink:href="#18" y="6.513"/><use xlink:href="#19" y="8.684"/><use xlink:href="#13" y="10.855"/><use xlink:href="#20" y="15.197"/><use xlink:href="#21" y="19.539"/><use xlink:href="#22" y="21.71"/><use xlink:href="#23" y="23.881"/><use xlink:href="#24" y="26.052"/><use xlink:href="#25" y="30.394"/><use xlink:href="#6" y="34.736"/><use xlink:href="#26" y="36.907"/><use xlink:href="#27" y="39.078"/><use xlink:href="#28" y="41.249"/><use xlink:href="#13" y="43.42"/><text x="2.004" y="49.432" class="i">Governance</text><text x="13.026" y="49.432" class="i">adds</text><text x="18.036" y="49.432" class="i">&lt;1%</text><text x="22.044" y="49.432" class="i">latency</text><text x="30.06" y="49.432" class="i">to</text><text x="33.066" y="49.432" class="i">AI</text><text x="36.072" y="49.432" class="i">response</text><text x="45.09" y="49.432" class="i">time.</text></svg></svg></g></g></svg></svg>