<svg xmlns="http://www.w3.org/2000/svg" xmlns:xlink="http://www.w3.org/1999/xlink" width="1072" height="786.72"><rect width="1072" height="786.72" rx="5" ry="5" class="a"/><svg y="0%" x="0%"><circle cx="20" cy="20" r="6" fill="#ff5f58"/><circle cx="40" cy="20" r="6" fill="#ffbd2e"/><circle cx="60" cy="20" r="6" fill="#18c132"/></svg><svg height="694.72" viewBox="0 0 100 69.472" width="1000" x="31" xmlns="http://www.w3.org/2000/svg" xmlns:xlink="http://www.w3.org/1999/xlink" y="66"><style>@keyframes l{0%{transform:translateX(0)}.3%{transform:translateX(-200px)}20.6%{transform:translateX(-300px)}21.1%{transform:translateX(-400px)}21.5%{transform:translateX(-500px)}21.9%{transform:translateX(-600px)}22.3%{transform:translateX(-700px)}22.7%{transform:translateX(-800px)}23.2%{transform:translateX(-900px)}23.6%{transform:translateX(-1000px)}24%{transform:translateX(-1100px)}24.4%{transform:translateX(-1200px)}24.8%{transform:translateX(-1300px)}25.2%{transform:translateX(-1400px)}25.6%{transform:translateX(-1500px)}26%{transform:translateX(-1600px)}26.4%{transform:translateX(-1700px)}26.8%{transform:translateX(-1800px)}27.3%{transform:translateX(-1900px)}27.7%{transform:translateX(-2000px)}28.1%{transform:translateX(-2100px)}28.5%{transform:translateX(-2200px)}28.9%{transform:translateX(-2300px)}29.3%{transform:translateX(-2400px)}29.7%{transform:translateX(-2500px)}30.1%{transform:translateX(-2600px)}30.6%{transform:translateX(-2700px)}31%{transform:translateX(-2800px)}31.4%{transform:translateX(-2900px)}31.8%{transform:translateX(-3000px)}32.3%{transform:translateX(-3100px)}32.7%{transform:translateX(-3200px)}33.1%{transform:translateX(-3300px)}33.6%{transform:translateX(-3400px)}55.1%{transform:translateX(-3600px)}70.3%{transform:translateX(-3700px)}70.8%{transform:translateX(-3800px)}71.2%{transform:translateX(-3900px)}71.6%{transform:translateX(-4000px)}72%{transform:translateX(-4100px)}72.4%{transform:translateX(-4200px)}72.8%{transform:translateX(-4300px)}73.3%{transform:translateX(-4400px)}73.7%{transform:translateX(-4500px)}74.1%{transform:translateX(-4600px)}74.5%{transform:translateX(-4700px)}74.9%{transform:translateX(-4800px)}75.3%{transform:translateX(-4900px)}75.7%{transform:translateX(-5000px)}76.2%{transform:translateX(-5100px)}76.6%{transform:translateX(-5200px)}77%{transform:translateX(-5300px)}77.4%{transform:translateX(-5400px)}77.8%{transform:translateX(-5500px)}78.2%{transform:translateX(-5600px)}78.6%{transform:translateX(-5700px)}79%{transform:translateX(-5800px)}79.5%{transform:translateX(-5900px)}79.9%{transform:translateX(-6000px)}80.3%{transform:translateX(-6100px)}80.7%{transform:translateX(-6200px)}to{transform:translateX(-6600px)}}.a{fill:#1a1a1f}.g,.i,.n{fill:#b9c0cb;white-space:pre}.i,.n{fill:#a8cc8c}.n{font-weight:700}</style><g font-family="Monaco,Consolas,Menlo,'Bitstream Vera Sans Mono','Powerline Symbols',monospace" font-size="1.67"><defs><symbol id="1"><text y="1.67" style="white-space:pre" fill="#fff" font-weight="700">domain-templates</text></symbol><symbol id="2"><text y="1.67" class="g">Handlebars</text><text x="11.022" y="1.67" class="g">templates</text><text x="21.042" y="1.67" class="g">validated</text><text x="31.062" y="1.67" class="g">and</text><text x="35.07" y="1.67" class="g">rendered</text><text x="44.088" y="1.67" class="g">server-side</text></symbol><symbol id="3"><text y="1.67" style="white-space:pre" fill="#66c2cd">━━━━━━━━━━━━━━━━━━━━━━━━━━━━━━━━━━━━━━━━━━━━━━━━━━━━━━━━━━━━━━</text></symbol><symbol id="4"><text y="1.67" class="i">$</text><text x="2.004" y="1.67" class="g">s</text></symbol><symbol id="5"><text y="1.67" class="i">$</text><text x="2.004" y="1.67" class="g">sy</text></symbol><symbol id="6"><text y="1.67" class="i">$</text><text x="2.004" y="1.67" class="g">sys</text></symbol><symbol id="7"><text y="1.67" class="i">$</text><text x="2.004" y="1.67" class="g">syst</text></symbol><symbol id="8"><text y="1.67" class="i">$</text><text x="2.004" y="1.67" class="g">syste</text></symbol><symbol id="9"><text y="1.67" class="i">$</text><text x="2.004" y="1.67" class="g">system</text></symbol><symbol id="10"><text y="1.67" class="i">$</text><text x="2.004" y="1.67" class="g">systemp</text></symbol><symbol id="11"><text y="1.67" class="i">$</text><text x="2.004" y="1.67" class="g">systempr</text></symbol><symbol id="12"><text y="1.67" class="i">$</text><text x="2.004" y="1.67" class="g">systempro</text></symbol><symbol id="13"><text y="1.67" class="i">$</text><text x="2.004" y="1.67" class="g">systemprom</text></symbol><symbol id="14"><text y="1.67" class="i">$</text><text x="2.004" y="1.67" class="g">systempromp</text></symbol><symbol id="15"><text y="1.67" class="i">$</text><text x="2.004" y="1.67" class="g">systemprompt</text></symbol><symbol id="16"><text y="1.67" class="i">$</text><text x="2.004" y="1.67" class="g">systemprompt</text><text x="15.03" y="1.67" class="g">w</text></symbol><symbol id="17"><text y="1.67" class="i">$</text><text x="2.004" y="1.67" class="g">systemprompt</text><text x="15.03" y="1.67" class="g">we</text></symbol><symbol id="18"><text y="1.67" class="i">$</text><text x="2.004" y="1.67" class="g">systemprompt</text><text x="15.03" y="1.67" class="g">web</text></symbol><symbol id="19"><text y="1.67" class="i">$</text><text x="2.004" y="1.67" class="g">systemprompt</text><text x="15.03" y="1.67" class="g">web</text><text x="19.038" y="1.67" class="g">templates</text></symbol><symbol id="20"><text y="1.67" class="i">$</text><text x="2.004" y="1.67" class="g">systemprompt</text><text x="15.03" y="1.67" class="g">web</text><text x="19.038" y="1.67" class="g">templates</text><text x="29.058" y="1.67" class="g">list</text></symbol><symbol id="21"><text x="4.008" y="1.67" class="g">Templates</text></symbol><symbol id="22"><text x="4.008" y="1.67" class="g">{</text></symbol><symbol id="23"><text x="6.012" y="1.67" class="g">&quot;templates&quot;:</text><text x="19.038" y="1.67" class="g">[]</text></symbol><symbol id="24"><text x="4.008" y="1.67" class="g">}</text></symbol><symbol id="25"><text y="1.67" class="i">$</text><text x="2.004" y="1.67" class="g">systemprompt</text><text x="15.03" y="1.67" class="g">web</text><text x="19.038" y="1.67" class="g">validate</text></symbol><symbol id="26"><text x="4.008" y="1.67" class="g">Web</text><text x="8.016" y="1.67" class="g">Configuration</text><text x="22.044" y="1.67" class="g">Validation</text></symbol><symbol id="27"><text x="6.012" y="1.67" class="g">&quot;valid&quot;:</text><text x="15.03" y="1.67" class="g">true,</text></symbol><symbol id="28"><text x="6.012" y="1.67" class="g">&quot;items_checked&quot;:</text><text x="23.046" y="1.67" class="g">4,</text></symbol><symbol id="29"><text x="6.012" y="1.67" class="g">&quot;errors&quot;:</text><text x="16.032" y="1.67" class="g">[],</text></symbol><symbol id="30"><text x="6.012" y="1.67" class="g">&quot;warnings&quot;:</text><text x="18.036" y="1.67" class="g">[</text></symbol><symbol id="31"><text x="8.016" y="1.67" class="g">{</text></symbol><symbol id="32"><text x="10.02" y="1.67" class="g">&quot;source&quot;:</text><text x="20.04" y="1.67" class="g">&quot;config&quot;,</text></symbol><symbol id="33"><text x="10.02" y="1.67" class="g">&quot;message&quot;:</text><text x="21.042" y="1.67" class="g">&quot;Templates</text><text x="32.064" y="1.67" class="g">directory</text><text x="42.084" y="1.67" class="g">not</text><text x="46.092" y="1.67" class="g">found:</text><text x="53.106" y="1.67" class="g">/var/www/html/systemprompt-template/services/se</text></symbol><symbol id="34"><text y="1.67" class="g">rvices/web/templates&quot;,</text></symbol><symbol id="35"><text x="10.02" y="1.67" class="g">&quot;suggestion&quot;:</text><text x="24.048" y="1.67" class="g">&quot;Create</text><text x="32.064" y="1.67" class="g">the</text><text x="36.072" y="1.67" class="g">templates</text><text x="46.092" y="1.67" class="g">directory&quot;</text></symbol><symbol id="36"><text x="8.016" y="1.67" class="g">},</text></symbol><symbol id="37"><text x="10.02" y="1.67" class="g">&quot;message&quot;:</text><text x="21.042" y="1.67" class="g">&quot;Assets</text><text x="29.058" y="1.67" class="g">directory</text><text x="39.078" y="1.67" class="g">not</text><text x="43.086" y="1.67" class="g">found:</text><text x="50.1" y="1.67" class="g">/var/www/html/systemprompt-template/services/servi</text></symbol><symbol id="38"><text y="1.67" class="g">ces/web/assets&quot;,</text></symbol><symbol id="a"><path fill="transparent" d="M0 0h100v33H0z"/></symbol><symbol id="b"><path fill="#f79938" d="M0 0h1.102v2.171H0z"/></symbol></defs><path class="a" d="M0 0h100v69.472H0z"/><g style="animation-duration:3.939321s;animation-iteration-count:infinite;animation-name:l;animation-timing-function:steps(1,end)"><svg width="6700"><svg><use xlink:href="#a"/><use xlink:href="#b" x="-.004"/></svg><svg x="100"><use xlink:href="#a"/><use xlink:href="#b" x="-.004" y="6.488"/><use xlink:href="#1" y="2.171"/><use xlink:href="#2" y="4.342"/></svg><svg x="200"><use xlink:href="#a"/><use xlink:href="#b" x="-.004" y="10.83"/><use xlink:href="#1" y="2.171"/><use xlink:href="#2" y="4.342"/><use xlink:href="#3" y="6.513"/></svg><svg x="300"><use xlink:href="#a"/><use xlink:href="#b" x="2.996" y="10.83"/><use xlink:href="#1" y="2.171"/><use xlink:href="#2" y="4.342"/><use xlink:href="#3" y="6.513"/><use xlink:href="#4" y="10.855"/></svg><svg x="400"><use xlink:href="#a"/><use xlink:href="#b" x="3.996" y="10.83"/><use xlink:href="#1" y="2.171"/><use xlink:href="#2" y="4.342"/><use xlink:href="#3" y="6.513"/><use xlink:href="#5" y="10.855"/></svg><svg x="500"><use xlink:href="#a"/><use xlink:href="#b" x="4.996" y="10.83"/><use xlink:href="#1" y="2.171"/><use xlink:href="#2" y="4.342"/><use xlink:href="#3" y="6.513"/><use xlink:href="#6" y="10.855"/></svg><svg x="600"><use xlink:href="#a"/><use xlink:href="#b" x="5.996" y="10.83"/><use xlink:href="#1" y="2.171"/><use xlink:href="#2" y="4.342"/><use xlink:href="#3" y="6.513"/><use xlink:href="#7" y="10.855"/></svg><svg x="700"><use xlink:href="#a"/><use xlink:href="#b" x="6.996" y="10.83"/><use xlink:href="#1" y="2.171"/><use xlink:href="#2" y="4.342"/><use xlink:href="#3" y="6.513"/><use xlink:href="#8" y="10.855"/></svg><svg x="800"><use xlink:href="#a"/><use xlink:href="#b" x="7.996" y="10.83"/><use xlink:href="#1" y="2.171"/><use xlink:href="#2" y="4.342"/><use xlink:href="#3" y="6.513"/><use xlink:href="#9" y="10.855"/></svg><svg x="900"><use xlink:href="#a"/><use xlink:href="#b" x="8.996" y="10.83"/><use xlink:href="#1" y="2.171"/><use xlink:href="#2" y="4.342"/><use xlink:href="#3" y="6.513"/><use xlink:href="#10" y="10.855"/></svg><svg x="1000"><use xlink:href="#a"/><use xlink:href="#b" x="9.996" y="10.83"/><use xlink:href="#1" y="2.171"/><use xlink:href="#2" y="4.342"/><use xlink:href="#3" y="6.513"/><use xlink:href="#11" y="10.855"/></svg><svg x="1100"><use xlink:href="#a"/><use xlink:href="#b" x="10.996" y="10.83"/><use xlink:href="#1" y="2.171"/><use xlink:href="#2" y="4.342"/><use xlink:href="#3" y="6.513"/><use xlink:href="#12" y="10.855"/></svg><svg x="1200"><use xlink:href="#a"/><use xlink:href="#b" x="11.996" y="10.83"/><use xlink:href="#1" y="2.171"/><use xlink:href="#2" y="4.342"/><use xlink:href="#3" y="6.513"/><use xlink:href="#13" y="10.855"/></svg><svg x="1300"><use xlink:href="#a"/><use xlink:href="#b" x="12.996" y="10.83"/><use xlink:href="#1" y="2.171"/><use xlink:href="#2" y="4.342"/><use xlink:href="#3" y="6.513"/><use xlink:href="#14" y="10.855"/></svg><svg x="1400"><use xlink:href="#a"/><use xlink:href="#b" x="13.996" y="10.83"/><use xlink:href="#1" y="2.171"/><use xlink:href="#2" y="4.342"/><use xlink:href="#3" y="6.513"/><use xlink:href="#15" y="10.855"/></svg><svg x="1500"><use xlink:href="#a"/><use xlink:href="#b" x="14.996" y="10.83"/><use xlink:href="#1" y="2.171"/><use xlink:href="#2" y="4.342"/><use xlink:href="#3" y="6.513"/><use xlink:href="#15" y="10.855"/></svg><svg x="1600"><use xlink:href="#a"/><use xlink:href="#b" x="15.996" y="10.83"/><use xlink:href="#1" y="2.171"/><use xlink:href="#2" y="4.342"/><use xlink:href="#3" y="6.513"/><use xlink:href="#16" y="10.855"/></svg><svg x="1700"><use xlink:href="#a"/><use xlink:href="#b" x="16.996" y="10.83"/><use xlink:href="#1" y="2.171"/><use xlink:href="#2" y="4.342"/><use xlink:href="#3" y="6.513"/><use xlink:href="#17" y="10.855"/></svg><svg x="1800"><use xlink:href="#a"/><use xlink:href="#b" x="17.996" y="10.83"/><use xlink:href="#1" y="2.171"/><use xlink:href="#2" y="4.342"/><use xlink:href="#3" y="6.513"/><use xlink:href="#18" y="10.855"/></svg><svg x="1900"><use xlink:href="#a"/><use xlink:href="#b" x="18.996" y="10.83"/><use xlink:href="#1" y="2.171"/><use xlink:href="#2" y="4.342"/><use xlink:href="#3" y="6.513"/><use xlink:href="#18" y="10.855"/></svg><svg x="2000"><use xlink:href="#a"/><use xlink:href="#b" x="19.996" y="10.83"/><use xlink:href="#1" y="2.171"/><use xlink:href="#2" y="4.342"/><use xlink:href="#3" y="6.513"/><text y="12.525" class="i">$</text><text x="2.004" y="12.525" class="g">systemprompt</text><text x="15.03" y="12.525" class="g">web</text><text x="19.038" y="12.525" class="g">t</text></svg><svg x="2100"><use xlink:href="#a"/><use xlink:href="#b" x="20.996" y="10.83"/><use xlink:href="#1" y="2.171"/><use xlink:href="#2" y="4.342"/><use xlink:href="#3" y="6.513"/><text y="12.525" class="i">$</text><text x="2.004" y="12.525" class="g">systemprompt</text><text x="15.03" y="12.525" class="g">web</text><text x="19.038" y="12.525" class="g">te</text></svg><svg x="2200"><use xlink:href="#a"/><use xlink:href="#b" x="21.996" y="10.83"/><use xlink:href="#1" y="2.171"/><use xlink:href="#2" y="4.342"/><use xlink:href="#3" y="6.513"/><text y="12.525" class="i">$</text><text x="2.004" y="12.525" class="g">systemprompt</text><text x="15.03" y="12.525" class="g">web</text><text x="19.038" y="12.525" class="g">tem</text></svg><svg x="2300"><use xlink:href="#a"/><use xlink:href="#b" x="22.996" y="10.83"/><use xlink:href="#1" y="2.171"/><use xlink:href="#2" y="4.342"/><use xlink:href="#3" y="6.513"/><text y="12.525" class="i">$</text><text x="2.004" y="12.525" class="g">systemprompt</text><text x="15.03" y="12.525" class="g">web</text><text x="19.038" y="12.525" class="g">temp</text></svg><svg x="2400"><use xlink:href="#a"/><use xlink:href="#b" x="23.996" y="10.83"/><use xlink:href="#1" y="2.171"/><use xlink:href="#2" y="4.342"/><use xlink:href="#3" y="6.513"/><text y="12.525" class="i">$</text><text x="2.004" y="12.525" class="g">systemprompt</text><text x="15.03" y="12.525" class="g">web</text><text x="19.038" y="12.525" class="g">templ</text></svg><svg x="2500"><use xlink:href="#a"/><use xlink:href="#b" x="24.996" y="10.83"/><use xlink:href="#1" y="2.171"/><use xlink:href="#2" y="4.342"/><use xlink:href="#3" y="6.513"/><text y="12.525" class="i">$</text><text x="2.004" y="12.525" class="g">systemprompt</text><text x="15.03" y="12.525" class="g">web</text><text x="19.038" y="12.525" class="g">templa</text></svg><svg x="2600"><use xlink:href="#a"/><use xlink:href="#b" x="25.996" y="10.83"/><use xlink:href="#1" y="2.171"/><use xlink:href="#2" y="4.342"/><use xlink:href="#3" y="6.513"/><text y="12.525" class="i">$</text><text x="2.004" y="12.525" class="g">systemprompt</text><text x="15.03" y="12.525" class="g">web</text><text x="19.038" y="12.525" class="g">templat</text></svg><svg x="2700"><use xlink:href="#a"/><use xlink:href="#b" x="26.996" y="10.83"/><use xlink:href="#1" y="2.171"/><use xlink:href="#2" y="4.342"/><use xlink:href="#3" y="6.513"/><text y="12.525" class="i">$</text><text x="2.004" y="12.525" class="g">systemprompt</text><text x="15.03" y="12.525" class="g">web</text><text x="19.038" y="12.525" class="g">template</text></svg><svg x="2800"><use xlink:href="#a"/><use xlink:href="#b" x="27.996" y="10.83"/><use xlink:href="#1" y="2.171"/><use xlink:href="#2" y="4.342"/><use xlink:href="#3" y="6.513"/><use xlink:href="#19" y="10.855"/></svg><svg x="2900"><use xlink:href="#a"/><use xlink:href="#b" x="28.996" y="10.83"/><use xlink:href="#1" y="2.171"/><use xlink:href="#2" y="4.342"/><use xlink:href="#3" y="6.513"/><use xlink:href="#19" y="10.855"/></svg><svg x="3000"><use xlink:href="#a"/><use xlink:href="#b" x="29.996" y="10.83"/><use xlink:href="#1" y="2.171"/><use xlink:href="#2" y="4.342"/><use xlink:href="#3" y="6.513"/><text y="12.525" class="i">$</text><text x="2.004" y="12.525" class="g">systemprompt</text><text x="15.03" y="12.525" class="g">web</text><text x="19.038" y="12.525" class="g">templates</text><text x="29.058" y="12.525" class="g">l</text></svg><svg x="3100"><use xlink:href="#a"/><use xlink:href="#b" x="30.996" y="10.83"/><use xlink:href="#1" y="2.171"/><use xlink:href="#2" y="4.342"/><use xlink:href="#3" y="6.513"/><text y="12.525" class="i">$</text><text x="2.004" y="12.525" class="g">systemprompt</text><text x="15.03" y="12.525" class="g">web</text><text x="19.038" y="12.525" class="g">templates</text><text x="29.058" y="12.525" class="g">li</text></svg><svg x="3200"><use xlink:href="#a"/><use xlink:href="#b" x="31.996" y="10.83"/><use xlink:href="#1" y="2.171"/><use xlink:href="#2" y="4.342"/><use xlink:href="#3" y="6.513"/><text y="12.525" class="i">$</text><text x="2.004" y="12.525" class="g">systemprompt</text><text x="15.03" y="12.525" class="g">web</text><text x="19.038" y="12.525" class="g">templates</text><text x="29.058" y="12.525" class="g">lis</text></svg><svg x="3300"><use xlink:href="#a"/><use xlink:href="#b" x="32.996" y="10.83"/><use xlink:href="#1" y="2.171"/><use xlink:href="#2" y="4.342"/><use xlink:href="#3" y="6.513"/><use xlink:href="#20" y="10.855"/></svg><svg x="3400"><use xlink:href="#a"/><use xlink:href="#b" x="-.004" y="13.001"/><use xlink:href="#1" y="2.171"/><use xlink:href="#2" y="4.342"/><use xlink:href="#3" y="6.513"/><use xlink:href="#20" y="10.855"/></svg><svg x="3500"><use xlink:href="#a"/><use xlink:href="#b" x="-.004" y="23.856"/><use xlink:href="#1" y="2.171"/><use xlink:href="#2" y="4.342"/><use xlink:href="#3" y="6.513"/><use xlink:href="#20" y="10.855"/><use xlink:href="#21" y="15.197"/><use xlink:href="#22" y="17.368"/><use xlink:href="#23" y="19.539"/><use xlink:href="#24" y="21.71"/></svg><svg x="3600"><use xlink:href="#a"/><use xlink:href="#b" x="-.004" y="26.027"/><use xlink:href="#1" y="2.171"/><use xlink:href="#2" y="4.342"/><use xlink:href="#3" y="6.513"/><use xlink:href="#20" y="10.855"/><use xlink:href="#21" y="15.197"/><use xlink:href="#22" y="17.368"/><use xlink:href="#23" y="19.539"/><use xlink:href="#24" y="21.71"/></svg><svg x="3700"><use xlink:href="#a"/><use xlink:href="#b" x="2.996" y="26.027"/><use xlink:href="#1" y="2.171"/><use xlink:href="#2" y="4.342"/><use xlink:href="#3" y="6.513"/><use xlink:href="#20" y="10.855"/><use xlink:href="#21" y="15.197"/><use xlink:href="#22" y="17.368"/><use xlink:href="#23" y="19.539"/><use xlink:href="#24" y="21.71"/><use xlink:href="#4" y="26.052"/></svg><svg x="3800"><use xlink:href="#a"/><use xlink:href="#b" x="3.996" y="26.027"/><use xlink:href="#1" y="2.171"/><use xlink:href="#2" y="4.342"/><use xlink:href="#3" y="6.513"/><use xlink:href="#20" y="10.855"/><use xlink:href="#21" y="15.197"/><use xlink:href="#22" y="17.368"/><use xlink:href="#23" y="19.539"/><use xlink:href="#24" y="21.71"/><use xlink:href="#5" y="26.052"/></svg><svg x="3900"><use xlink:href="#a"/><use xlink:href="#b" x="4.996" y="26.027"/><use xlink:href="#1" y="2.171"/><use xlink:href="#2" y="4.342"/><use xlink:href="#3" y="6.513"/><use xlink:href="#20" y="10.855"/><use xlink:href="#21" y="15.197"/><use xlink:href="#22" y="17.368"/><use xlink:href="#23" y="19.539"/><use xlink:href="#24" y="21.71"/><use xlink:href="#6" y="26.052"/></svg><svg x="4000"><use xlink:href="#a"/><use xlink:href="#b" x="5.996" y="26.027"/><use xlink:href="#1" y="2.171"/><use xlink:href="#2" y="4.342"/><use xlink:href="#3" y="6.513"/><use xlink:href="#20" y="10.855"/><use xlink:href="#21" y="15.197"/><use xlink:href="#22" y="17.368"/><use xlink:href="#23" y="19.539"/><use xlink:href="#24" y="21.71"/><use xlink:href="#7" y="26.052"/></svg><svg x="4100"><use xlink:href="#a"/><use xlink:href="#b" x="6.996" y="26.027"/><use xlink:href="#1" y="2.171"/><use xlink:href="#2" y="4.342"/><use xlink:href="#3" y="6.513"/><use xlink:href="#20" y="10.855"/><use xlink:href="#21" y="15.197"/><use xlink:href="#22" y="17.368"/><use xlink:href="#23" y="19.539"/><use xlink:href="#24" y="21.71"/><use xlink:href="#8" y="26.052"/></svg><svg x="4200"><use xlink:href="#a"/><use xlink:href="#b" x="7.996" y="26.027"/><use xlink:href="#1" y="2.171"/><use xlink:href="#2" y="4.342"/><use xlink:href="#3" y="6.513"/><use xlink:href="#20" y="10.855"/><use xlink:href="#21" y="15.197"/><use xlink:href="#22" y="17.368"/><use xlink:href="#23" y="19.539"/><use xlink:href="#24" y="21.71"/><use xlink:href="#9" y="26.052"/></svg><svg x="4300"><use xlink:href="#a"/><use xlink:href="#b" x="8.996" y="26.027"/><use xlink:href="#1" y="2.171"/><use xlink:href="#2" y="4.342"/><use xlink:href="#3" y="6.513"/><use xlink:href="#20" y="10.855"/><use xlink:href="#21" y="15.197"/><use xlink:href="#22" y="17.368"/><use xlink:href="#23" y="19.539"/><use xlink:href="#24" y="21.71"/><use xlink:href="#10" y="26.052"/></svg><svg x="4400"><use xlink:href="#a"/><use xlink:href="#b" x="9.996" y="26.027"/><use xlink:href="#1" y="2.171"/><use xlink:href="#2" y="4.342"/><use xlink:href="#3" y="6.513"/><use xlink:href="#20" y="10.855"/><use xlink:href="#21" y="15.197"/><use xlink:href="#22" y="17.368"/><use xlink:href="#23" y="19.539"/><use xlink:href="#24" y="21.71"/><use xlink:href="#11" y="26.052"/></svg><svg x="4500"><use xlink:href="#a"/><use xlink:href="#b" x="10.996" y="26.027"/><use xlink:href="#1" y="2.171"/><use xlink:href="#2" y="4.342"/><use xlink:href="#3" y="6.513"/><use xlink:href="#20" y="10.855"/><use xlink:href="#21" y="15.197"/><use xlink:href="#22" y="17.368"/><use xlink:href="#23" y="19.539"/><use xlink:href="#24" y="21.71"/><use xlink:href="#12" y="26.052"/></svg><svg x="4600"><use xlink:href="#a"/><use xlink:href="#b" x="11.996" y="26.027"/><use xlink:href="#1" y="2.171"/><use xlink:href="#2" y="4.342"/><use xlink:href="#3" y="6.513"/><use xlink:href="#20" y="10.855"/><use xlink:href="#21" y="15.197"/><use xlink:href="#22" y="17.368"/><use xlink:href="#23" y="19.539"/><use xlink:href="#24" y="21.71"/><use xlink:href="#13" y="26.052"/></svg><svg x="4700"><use xlink:href="#a"/><use xlink:href="#b" x="12.996" y="26.027"/><use xlink:href="#1" y="2.171"/><use xlink:href="#2" y="4.342"/><use xlink:href="#3" y="6.513"/><use xlink:href="#20" y="10.855"/><use xlink:href="#21" y="15.197"/><use xlink:href="#22" y="17.368"/><use xlink:href="#23" y="19.539"/><use xlink:href="#24" y="21.71"/><use xlink:href="#14" y="26.052"/></svg><svg x="4800"><use xlink:href="#a"/><use xlink:href="#b" x="13.996" y="26.027"/><use xlink:href="#1" y="2.171"/><use xlink:href="#2" y="4.342"/><use xlink:href="#3" y="6.513"/><use xlink:href="#20" y="10.855"/><use xlink:href="#21" y="15.197"/><use xlink:href="#22" y="17.368"/><use xlink:href="#23" y="19.539"/><use xlink:href="#24" y="21.71"/><use xlink:href="#15" y="26.052"/></svg><svg x="4900"><use xlink:href="#a"/><use xlink:href="#b" x="14.996" y="26.027"/><use xlink:href="#1" y="2.171"/><use xlink:href="#2" y="4.342"/><use xlink:href="#3" y="6.513"/><use xlink:href="#20" y="10.855"/><use xlink:href="#21" y="15.197"/><use xlink:href="#22" y="17.368"/><use xlink:href="#23" y="19.539"/><use xlink:href="#24" y="21.71"/><use xlink:href="#15" y="26.052"/></svg><svg x="5000"><use xlink:href="#a"/><use xlink:href="#b" x="15.996" y="26.027"/><use xlink:href="#1" y="2.171"/><use xlink:href="#2" y="4.342"/><use xlink:href="#3" y="6.513"/><use xlink:href="#20" y="10.855"/><use xlink:href="#21" y="15.197"/><use xlink:href="#22" y="17.368"/><use xlink:href="#23" y="19.539"/><use xlink:href="#24" y="21.71"/><use xlink:href="#16" y="26.052"/></svg><svg x="5100"><use xlink:href="#a"/><use xlink:href="#b" x="16.996" y="26.027"/><use xlink:href="#1" y="2.171"/><use xlink:href="#2" y="4.342"/><use xlink:href="#3" y="6.513"/><use xlink:href="#20" y="10.855"/><use xlink:href="#21" y="15.197"/><use xlink:href="#22" y="17.368"/><use xlink:href="#23" y="19.539"/><use xlink:href="#24" y="21.71"/><use xlink:href="#17" y="26.052"/></svg><svg x="5200"><use xlink:href="#a"/><use xlink:href="#b" x="17.996" y="26.027"/><use xlink:href="#1" y="2.171"/><use xlink:href="#2" y="4.342"/><use xlink:href="#3" y="6.513"/><use xlink:href="#20" y="10.855"/><use xlink:href="#21" y="15.197"/><use xlink:href="#22" y="17.368"/><use xlink:href="#23" y="19.539"/><use xlink:href="#24" y="21.71"/><use xlink:href="#18" y="26.052"/></svg><svg x="5300"><use xlink:href="#a"/><use xlink:href="#b" x="18.996" y="26.027"/><use xlink:href="#1" y="2.171"/><use xlink:href="#2" y="4.342"/><use xlink:href="#3" y="6.513"/><use xlink:href="#20" y="10.855"/><use xlink:href="#21" y="15.197"/><use xlink:href="#22" y="17.368"/><use xlink:href="#23" y="19.539"/><use xlink:href="#24" y="21.71"/><use xlink:href="#18" y="26.052"/></svg><svg x="5400"><use xlink:href="#a"/><use xlink:href="#b" x="19.996" y="26.027"/><use xlink:href="#1" y="2.171"/><use xlink:href="#2" y="4.342"/><use xlink:href="#3" y="6.513"/><use xlink:href="#20" y="10.855"/><use xlink:href="#21" y="15.197"/><use xlink:href="#22" y="17.368"/><use xlink:href="#23" y="19.539"/><use xlink:href="#24" y="21.71"/><text y="27.722" class="i">$</text><text x="2.004" y="27.722" class="g">systemprompt</text><text x="15.03" y="27.722" class="g">web</text><text x="19.038" y="27.722" class="g">v</text></svg><svg x="5500"><use xlink:href="#a"/><use xlink:href="#b" x="20.996" y="26.027"/><use xlink:href="#1" y="2.171"/><use xlink:href="#2" y="4.342"/><use xlink:href="#3" y="6.513"/><use xlink:href="#20" y="10.855"/><use xlink:href="#21" y="15.197"/><use xlink:href="#22" y="17.368"/><use xlink:href="#23" y="19.539"/><use xlink:href="#24" y="21.71"/><text y="27.722" class="i">$</text><text x="2.004" y="27.722" class="g">systemprompt</text><text x="15.03" y="27.722" class="g">web</text><text x="19.038" y="27.722" class="g">va</text></svg><svg x="5600"><use xlink:href="#a"/><use xlink:href="#b" x="21.996" y="26.027"/><use xlink:href="#1" y="2.171"/><use xlink:href="#2" y="4.342"/><use xlink:href="#3" y="6.513"/><use xlink:href="#20" y="10.855"/><use xlink:href="#21" y="15.197"/><use xlink:href="#22" y="17.368"/><use xlink:href="#23" y="19.539"/><use xlink:href="#24" y="21.71"/><text y="27.722" class="i">$</text><text x="2.004" y="27.722" class="g">systemprompt</text><text x="15.03" y="27.722" class="g">web</text><text x="19.038" y="27.722" class="g">val</text></svg><svg x="5700"><use xlink:href="#a"/><use xlink:href="#b" x="22.996" y="26.027"/><use xlink:href="#1" y="2.171"/><use xlink:href="#2" y="4.342"/><use xlink:href="#3" y="6.513"/><use xlink:href="#20" y="10.855"/><use xlink:href="#21" y="15.197"/><use xlink:href="#22" y="17.368"/><use xlink:href="#23" y="19.539"/><use xlink:href="#24" y="21.71"/><text y="27.722" class="i">$</text><text x="2.004" y="27.722" class="g">systemprompt</text><text x="15.03" y="27.722" class="g">web</text><text x="19.038" y="27.722" class="g">vali</text></svg><svg x="5800"><use xlink:href="#a"/><use xlink:href="#b" x="23.996" y="26.027"/><use xlink:href="#1" y="2.171"/><use xlink:href="#2" y="4.342"/><use xlink:href="#3" y="6.513"/><use xlink:href="#20" y="10.855"/><use xlink:href="#21" y="15.197"/><use xlink:href="#22" y="17.368"/><use xlink:href="#23" y="19.539"/><use xlink:href="#24" y="21.71"/><text y="27.722" class="i">$</text><text x="2.004" y="27.722" class="g">systemprompt</text><text x="15.03" y="27.722" class="g">web</text><text x="19.038" y="27.722" class="g">valid</text></svg><svg x="5900"><use xlink:href="#a"/><use xlink:href="#b" x="24.996" y="26.027"/><use xlink:href="#1" y="2.171"/><use xlink:href="#2" y="4.342"/><use xlink:href="#3" y="6.513"/><use xlink:href="#20" y="10.855"/><use xlink:href="#21" y="15.197"/><use xlink:href="#22" y="17.368"/><use xlink:href="#23" y="19.539"/><use xlink:href="#24" y="21.71"/><text y="27.722" class="i">$</text><text x="2.004" y="27.722" class="g">systemprompt</text><text x="15.03" y="27.722" class="g">web</text><text x="19.038" y="27.722" class="g">valida</text></svg><svg x="6000"><use xlink:href="#a"/><use xlink:href="#b" x="25.996" y="26.027"/><use xlink:href="#1" y="2.171"/><use xlink:href="#2" y="4.342"/><use xlink:href="#3" y="6.513"/><use xlink:href="#20" y="10.855"/><use xlink:href="#21" y="15.197"/><use xlink:href="#22" y="17.368"/><use xlink:href="#23" y="19.539"/><use xlink:href="#24" y="21.71"/><text y="27.722" class="i">$</text><text x="2.004" y="27.722" class="g">systemprompt</text><text x="15.03" y="27.722" class="g">web</text><text x="19.038" y="27.722" class="g">validat</text></svg><svg x="6100"><use xlink:href="#a"/><use xlink:href="#b" x="26.996" y="26.027"/><use xlink:href="#1" y="2.171"/><use xlink:href="#2" y="4.342"/><use xlink:href="#3" y="6.513"/><use xlink:href="#20" y="10.855"/><use xlink:href="#21" y="15.197"/><use xlink:href="#22" y="17.368"/><use xlink:href="#23" y="19.539"/><use xlink:href="#24" y="21.71"/><use xlink:href="#25" y="26.052"/></svg><svg x="6200"><use xlink:href="#a"/><use xlink:href="#b" x="-.004" y="28.198"/><use xlink:href="#1" y="2.171"/><use xlink:href="#2" y="4.342"/><use xlink:href="#3" y="6.513"/><use xlink:href="#20" y="10.855"/><use xlink:href="#21" y="15.197"/><use xlink:href="#22" y="17.368"/><use xlink:href="#23" y="19.539"/><use xlink:href="#24" y="21.71"/><use xlink:href="#25" y="26.052"/></svg><svg x="6300"><use xlink:href="#a"/><use xlink:href="#b" x="-.004" y="36.882"/><use xlink:href="#1" y="2.171"/><use xlink:href="#2" y="4.342"/><use xlink:href="#3" y="6.513"/><use xlink:href="#20" y="10.855"/><use xlink:href="#21" y="15.197"/><use xlink:href="#22" y="17.368"/><use xlink:href="#23" y="19.539"/><use xlink:href="#24" y="21.71"/><use xlink:href="#25" y="26.052"/><use xlink:href="#26" y="30.394"/><use xlink:href="#22" y="32.565"/><use xlink:href="#27" y="34.736"/></svg><svg x="6400"><use xlink:href="#a"/><use xlink:href="#b" x="-.004" y="65.105"/><use xlink:href="#1" y="2.171"/><use xlink:href="#2" y="4.342"/><use xlink:href="#3" y="6.513"/><use xlink:href="#20" y="10.855"/><use xlink:href="#21" y="15.197"/><use xlink:href="#22" y="17.368"/><use xlink:href="#23" y="19.539"/><use xlink:href="#24" y="21.71"/><use xlink:href="#25" y="26.052"/><use xlink:href="#26" y="30.394"/><use xlink:href="#22" y="32.565"/><use xlink:href="#27" y="34.736"/><use xlink:href="#28" y="36.907"/><use xlink:href="#29" y="39.078"/><use xlink:href="#30" y="41.249"/><use xlink:href="#31" y="43.42"/><use xlink:href="#32" y="45.591"/><use xlink:href="#33" y="47.762"/><use xlink:href="#34" y="49.933"/><use xlink:href="#35" y="52.104"/><use xlink:href="#36" y="54.275"/><use xlink:href="#31" y="56.446"/><use xlink:href="#32" y="58.617"/><use xlink:href="#37" y="60.788"/><use xlink:href="#38" y="62.959"/></svg><svg x="6500"><use xlink:href="#a"/><use xlink:href="#b" x="-.004" y="67.276"/><use xlink:href="#1" y="2.171"/><use xlink:href="#2" y="4.342"/><use xlink:href="#3" y="6.513"/><use xlink:href="#20" y="10.855"/><use xlink:href="#21" y="15.197"/><use xlink:href="#22" y="17.368"/><use xlink:href="#23" y="19.539"/><use xlink:href="#24" y="21.71"/><use xlink:href="#25" y="26.052"/><use xlink:href="#26" y="30.394"/><use xlink:href="#22" y="32.565"/><use xlink:href="#27" y="34.736"/><use xlink:href="#28" y="36.907"/><use xlink:href="#29" y="39.078"/><use xlink:href="#30" y="41.249"/><use xlink:href="#31" y="43.42"/><use xlink:href="#32" y="45.591"/><use xlink:href="#33" y="47.762"/><use xlink:href="#34" y="49.933"/><use xlink:href="#35" y="52.104"/><use xlink:href="#36" y="54.275"/><use xlink:href="#31" y="56.446"/><use xlink:href="#32" y="58.617"/><use xlink:href="#37" y="60.788"/><use xlink:href="#38" y="62.959"/></svg><svg x="6600"><use xlink:href="#a"/><use xlink:href="#b" x="-.004" y="69.447"/><use xlink:href="#1" y="2.171"/><use xlink:href="#2" y="4.342"/><use xlink:href="#3" y="6.513"/><use xlink:href="#20" y="10.855"/><use xlink:href="#21" y="15.197"/><use xlink:href="#22" y="17.368"/><use xlink:href="#23" y="19.539"/><use xlink:href="#24" y="21.71"/><use xlink:href="#25" y="26.052"/><use xlink:href="#26" y="30.394"/><use xlink:href="#22" y="32.565"/><use xlink:href="#27" y="34.736"/><use xlink:href="#28" y="36.907"/><use xlink:href="#29" y="39.078"/><use xlink:href="#30" y="41.249"/><use xlink:href="#31" y="43.42"/><use xlink:href="#32" y="45.591"/><use xlink:href="#33" y="47.762"/><use xlink:href="#34" y="49.933"/><use xlink:href="#35" y="52.104"/><use xlink:href="#36" y="54.275"/><use xlink:href="#31" y="56.446"/><use xlink:href="#32" y="58.617"/><use xlink:href="#37" y="60.788"/><use xlink:href="#38" y="62.959"/><text y="68.971" class="n">&gt;&gt;&gt;</text><text x="4.008" y="68.971" class="n">ALLOW</text><text x="10.02" y="68.971" class="i">templates</text><text x="20.04" y="68.971" class="i">are</text><text x="24.048" y="68.971" class="i">code</text><text x="29.058" y="68.971" class="i">—</text><text x="31.062" y="68.971" class="i">validated,</text><text x="42.084" y="68.971" class="i">typed,</text><text x="49.098" y="68.971" class="i">tested</text></svg></svg></g></g></svg></svg>