<svg xmlns="http://www.w3.org/2000/svg" xmlns:xlink="http://www.w3.org/1999/xlink" width="1072" height="786.72"><rect width="1072" height="786.72" rx="5" ry="5" class="a"/><svg y="0%" x="0%"><circle cx="20" cy="20" r="6" fill="#ff5f58"/><circle cx="40" cy="20" r="6" fill="#ffbd2e"/><circle cx="60" cy="20" r="6" fill="#18c132"/></svg><svg height="694.72" viewBox="0 0 100 69.472" width="1000" x="31" xmlns="http://www.w3.org/2000/svg" xmlns:xlink="http://www.w3.org/1999/xlink" y="66"><style>@keyframes l{0%{transform:translateX(0)}.4%{transform:translateX(-100px)}34.4%{transform:translateX(-200px)}35.1%{transform:translateX(-300px)}35.8%{transform:translateX(-400px)}36.4%{transform:translateX(-500px)}37.1%{transform:translateX(-600px)}37.8%{transform:translateX(-700px)}38.5%{transform:translateX(-800px)}39.2%{transform:translateX(-900px)}39.9%{transform:translateX(-1000px)}40.5%{transform:translateX(-1100px)}41.2%{transform:translateX(-1200px)}41.9%{transform:translateX(-1300px)}42.6%{transform:translateX(-1400px)}43.3%{transform:translateX(-1500px)}44%{transform:translateX(-1600px)}44.7%{transform:translateX(-1700px)}45.4%{transform:translateX(-1800px)}46.1%{transform:translateX(-1900px)}46.7%{transform:translateX(-2000px)}47.4%{transform:translateX(-2100px)}48.1%{transform:translateX(-2200px)}48.8%{transform:translateX(-2300px)}49.5%{transform:translateX(-2400px)}50.2%{transform:translateX(-2500px)}50.9%{transform:translateX(-2600px)}51.6%{transform:translateX(-2700px)}52.3%{transform:translateX(-2800px)}53%{transform:translateX(-2900px)}53.7%{transform:translateX(-3000px)}54.4%{transform:translateX(-3100px)}55.1%{transform:translateX(-3200px)}55.7%{transform:translateX(-3300px)}56.4%{transform:translateX(-3400px)}57.1%{transform:translateX(-3500px)}57.8%{transform:translateX(-3600px)}58.5%{transform:translateX(-3700px)}59.2%{transform:translateX(-3800px)}59.9%{transform:translateX(-3900px)}60.6%{transform:translateX(-4000px)}61.3%{transform:translateX(-4100px)}62%{transform:translateX(-4200px)}62.7%{transform:translateX(-4300px)}63.4%{transform:translateX(-4400px)}64%{transform:translateX(-4500px)}64.7%{transform:translateX(-4600px)}65.4%{transform:translateX(-4700px)}66.1%{transform:translateX(-4800px)}66.8%{transform:translateX(-4900px)}67.5%{transform:translateX(-5000px)}68.2%{transform:translateX(-5100px)}68.9%{transform:translateX(-5200px)}69.6%{transform:translateX(-5300px)}70.2%{transform:translateX(-5400px)}70.9%{transform:translateX(-5500px)}}.a{fill:#1a1a1f}.g,.i,.n{fill:#b9c0cb;white-space:pre}.i,.n{fill:#a8cc8c}.n{font-weight:700}</style><g font-family="Monaco,Consolas,Menlo,'Bitstream Vera Sans Mono','Powerline Symbols',monospace" font-size="1.67"><defs><symbol id="1"><text y="1.67" style="white-space:pre" fill="#fff" font-weight="700">infra-events</text></symbol><symbol id="2"><text y="1.67" class="g">Typed</text><text x="6.012" y="1.67" class="g">event</text><text x="12.024" y="1.67" class="g">bus</text><text x="16.032" y="1.67" class="g">wiring</text><text x="23.046" y="1.67" class="g">every</text><text x="29.058" y="1.67" class="g">domain</text><text x="36.072" y="1.67" class="g">together</text></symbol><symbol id="3"><text y="1.67" style="white-space:pre" fill="#66c2cd">━━━━━━━━━━━━━━━━━━━━━━━━━━━━━━━━━━━━━━━━━━━━━━━━━━━━━━━━━━━━━━</text></symbol><symbol id="4"><text y="1.67" class="i">$</text><text x="2.004" y="1.67" class="g">systemprompt</text></symbol><symbol id="5"><text y="1.67" class="i">$</text><text x="2.004" y="1.67" class="g">systemprompt</text><text x="15.03" y="1.67" class="g">infra</text></symbol><symbol id="6"><text y="1.67" class="i">$</text><text x="2.004" y="1.67" class="g">systemprompt</text><text x="15.03" y="1.67" class="g">infra</text><text x="21.042" y="1.67" class="g">logs</text></symbol><symbol id="7"><text y="1.67" class="i">$</text><text x="2.004" y="1.67" class="g">systemprompt</text><text x="15.03" y="1.67" class="g">infra</text><text x="21.042" y="1.67" class="g">logs</text><text x="26.052" y="1.67" class="g">view</text></symbol><symbol id="8"><text y="1.67" class="i">$</text><text x="2.004" y="1.67" class="g">systemprompt</text><text x="15.03" y="1.67" class="g">infra</text><text x="21.042" y="1.67" class="g">logs</text><text x="26.052" y="1.67" class="g">view</text><text x="31.062" y="1.67" class="g">--level</text></symbol><symbol id="9"><text y="1.67" class="i">$</text><text x="2.004" y="1.67" class="g">systemprompt</text><text x="15.03" y="1.67" class="g">infra</text><text x="21.042" y="1.67" class="g">logs</text><text x="26.052" y="1.67" class="g">view</text><text x="31.062" y="1.67" class="g">--level</text><text x="39.078" y="1.67" class="g">info</text></symbol><symbol id="10"><text y="1.67" class="i">$</text><text x="2.004" y="1.67" class="g">systemprompt</text><text x="15.03" y="1.67" class="g">infra</text><text x="21.042" y="1.67" class="g">logs</text><text x="26.052" y="1.67" class="g">view</text><text x="31.062" y="1.67" class="g">--level</text><text x="39.078" y="1.67" class="g">info</text><text x="44.088" y="1.67" class="g">--since</text></symbol><symbol id="11"><text y="1.67" class="i">$</text><text x="2.004" y="1.67" class="g">systemprompt</text><text x="15.03" y="1.67" class="g">infra</text><text x="21.042" y="1.67" class="g">logs</text><text x="26.052" y="1.67" class="g">view</text><text x="31.062" y="1.67" class="g">--level</text><text x="39.078" y="1.67" class="g">info</text><text x="44.088" y="1.67" class="g">--since</text><text x="52.104" y="1.67" class="g">10m</text></symbol><symbol id="12"><text x="4.008" y="1.67" class="g">Log</text><text x="8.016" y="1.67" class="g">Entries</text></symbol><symbol id="13"><text x="4.008" y="1.67" class="g">Level:</text><text x="11.022" y="1.67" class="g">info</text></symbol><symbol id="14"><text x="4.008" y="1.67" class="g">Since:</text><text x="11.022" y="1.67" class="g">10m</text></symbol><symbol id="15"><text x="4.008" y="1.67" class="g">ℹ</text><text x="6.012" y="1.67" class="g">21:52:47.423</text><text x="19.038" y="1.67" class="g">INFO</text><text x="24.048" y="1.67" class="g">[systemprompt_extension::registry::discovery]</text><text x="70.14" y="1.67" class="g">Extension</text><text x="80.16" y="1.67" class="g">discovery</text><text x="90.18" y="1.67" class="g">completed</text></symbol><symbol id="16"><text x="1.002" y="1.67" class="g">[system]</text></symbol><symbol id="17"><text x="4.008" y="1.67" class="g">ℹ</text><text x="6.012" y="1.67" class="g">21:52:26.924</text><text x="19.038" y="1.67" class="g">INFO</text><text x="24.048" y="1.67" class="g">[systemprompt_extension::registry::discovery]</text><text x="70.14" y="1.67" class="g">Extension</text><text x="80.16" y="1.67" class="g">discovery</text><text x="90.18" y="1.67" class="g">completed</text></symbol><symbol id="18"><text x="4.008" y="1.67" class="g">ℹ</text><text x="6.012" y="1.67" class="g">21:49:29.103</text><text x="19.038" y="1.67" class="g">INFO</text><text x="24.048" y="1.67" class="g">[systemprompt_extension::registry::discovery]</text><text x="70.14" y="1.67" class="g">Extension</text><text x="80.16" y="1.67" class="g">discovery</text><text x="90.18" y="1.67" class="g">completed</text></symbol><symbol id="19"><text x="4.008" y="1.67" class="g">ℹ</text><text x="6.012" y="1.67" class="g">21:46:08.298</text><text x="19.038" y="1.67" class="g">INFO</text><text x="24.048" y="1.67" class="g">[systemprompt_extension::registry::discovery]</text><text x="70.14" y="1.67" class="g">Extension</text><text x="80.16" y="1.67" class="g">discovery</text><text x="90.18" y="1.67" class="g">completed</text></symbol><symbol id="20"><text x="4.008" y="1.67" class="g">ℹ</text><text x="6.012" y="1.67" class="g">21:45:30.779</text><text x="19.038" y="1.67" class="g">INFO</text><text x="24.048" y="1.67" class="g">[systemprompt_extension::registry::discovery]</text><text x="70.14" y="1.67" class="g">Extension</text><text x="80.16" y="1.67" class="g">discovery</text><text x="90.18" y="1.67" class="g">completed</text></symbol><symbol id="21"><text x="4.008" y="1.67" class="g">ℹ</text><text x="6.012" y="1.67" class="g">21:45:01.461</text><text x="19.038" y="1.67" class="g">INFO</text><text x="24.048" y="1.67" class="g">[systemprompt_web_jobs::publish]</text><text x="57.114" y="1.67" class="g">Publish</text><text x="65.13" y="1.67" class="g">pipeline</text><text x="74.148" y="1.67" class="g">completed</text><text x="85.17" y="1.67" class="g">[system]</text></symbol><symbol id="22"><text x="4.008" y="1.67" class="g">ℹ</text><text x="6.012" y="1.67" class="g">21:45:01.457</text><text x="19.038" y="1.67" class="g">INFO</text><text x="24.048" y="1.67" class="g">[systemprompt_web_jobs::robots]</text><text x="56.112" y="1.67" class="g">robots.txt</text><text x="67.134" y="1.67" class="g">generation</text><text x="78.156" y="1.67" class="g">completed</text><text x="89.178" y="1.67" class="g">[system]</text></symbol><symbol id="23"><text x="4.008" y="1.67" class="g">ℹ</text><text x="6.012" y="1.67" class="g">21:45:01.454</text><text x="19.038" y="1.67" class="g">INFO</text><text x="24.048" y="1.67" class="g">[systemprompt_web_jobs::robots]</text><text x="56.112" y="1.67" class="g">Generated</text><text x="66.132" y="1.67" class="g">robots.txt</text><text x="78.156" y="1.67" class="g">[system]</text></symbol><symbol id="24"><text x="4.008" y="1.67" class="g">ℹ</text><text x="6.012" y="1.67" class="g">21:45:01.450</text><text x="19.038" y="1.67" class="g">INFO</text><text x="24.048" y="1.67" class="g">[systemprompt_web_jobs::robots]</text><text x="56.112" y="1.67" class="g">robots.txt</text><text x="67.134" y="1.67" class="g">generation</text><text x="78.156" y="1.67" class="g">started</text><text x="87.174" y="1.67" class="g">[system]</text></symbol><symbol id="25"><text x="4.008" y="1.67" class="g">ℹ</text><text x="6.012" y="1.67" class="g">21:45:01.447</text><text x="19.038" y="1.67" class="g">INFO</text><text x="24.048" y="1.67" class="g">[systemprompt_web_jobs::llms_txt]</text><text x="58.116" y="1.67" class="g">llms.txt</text><text x="67.134" y="1.67" class="g">generation</text><text x="78.156" y="1.67" class="g">completed</text><text x="89.178" y="1.67" class="g">[system]</text></symbol><symbol id="26"><text x="4.008" y="1.67" class="g">ℹ</text><text x="6.012" y="1.67" class="g">21:45:01.444</text><text x="19.038" y="1.67" class="g">INFO</text><text x="24.048" y="1.67" class="g">[systemprompt_web_jobs::llms_txt]</text><text x="58.116" y="1.67" class="g">Generated</text><text x="68.136" y="1.67" class="g">llms.txt</text><text x="78.156" y="1.67" class="g">[system]</text></symbol><symbol id="a"><path fill="transparent" d="M0 0h100v33H0z"/></symbol><symbol id="b"><path fill="#f79938" d="M0 0h1.102v2.171H0z"/></symbol></defs><path class="a" d="M0 0h100v69.472H0z"/><svg width="6300"><svg><use xlink:href="#a"/><use xlink:href="#b" x="-.004"/></svg><svg x="100"><use xlink:href="#a"/><use xlink:href="#b" x="-.004" y="10.83"/><use xlink:href="#1" y="2.171"/><use xlink:href="#2" y="4.342"/><use xlink:href="#3" y="6.513"/></svg><svg x="200"><use xlink:href="#a"/><use xlink:href="#b" x="2.996" y="10.83"/><use xlink:href="#1" y="2.171"/><use xlink:href="#2" y="4.342"/><use xlink:href="#3" y="6.513"/><text y="12.525" class="i">$</text><text x="2.004" y="12.525" class="g">s</text></svg><svg x="300"><use xlink:href="#a"/><use xlink:href="#b" x="3.996" y="10.83"/><use xlink:href="#1" y="2.171"/><use xlink:href="#2" y="4.342"/><use xlink:href="#3" y="6.513"/><text y="12.525" class="i">$</text><text x="2.004" y="12.525" class="g">sy</text></svg><svg x="400"><use xlink:href="#a"/><use xlink:href="#b" x="4.996" y="10.83"/><use xlink:href="#1" y="2.171"/><use xlink:href="#2" y="4.342"/><use xlink:href="#3" y="6.513"/><text y="12.525" class="i">$</text><text x="2.004" y="12.525" class="g">sys</text></svg><svg x="500"><use xlink:href="#a"/><use xlink:href="#b" x="5.996" y="10.83"/><use xlink:href="#1" y="2.171"/><use xlink:href="#2" y="4.342"/><use xlink:href="#3" y="6.513"/><text y="12.525" class="i">$</text><text x="2.004" y="12.525" class="g">syst</text></svg><svg x="600"><use xlink:href="#a"/><use xlink:href="#b" x="6.996" y="10.83"/><use xlink:href="#1" y="2.171"/><use xlink:href="#2" y="4.342"/><use xlink:href="#3" y="6.513"/><text y="12.525" class="i">$</text><text x="2.004" y="12.525" class="g">syste</text></svg><svg x="700"><use xlink:href="#a"/><use xlink:href="#b" x="7.996" y="10.83"/><use xlink:href="#1" y="2.171"/><use xlink:href="#2" y="4.342"/><use xlink:href="#3" y="6.513"/><text y="12.525" class="i">$</text><text x="2.004" y="12.525" class="g">system</text></svg><svg x="800"><use xlink:href="#a"/><use xlink:href="#b" x="8.996" y="10.83"/><use xlink:href="#1" y="2.171"/><use xlink:href="#2" y="4.342"/><use xlink:href="#3" y="6.513"/><text y="12.525" class="i">$</text><text x="2.004" y="12.525" class="g">systemp</text></svg><svg x="900"><use xlink:href="#a"/><use xlink:href="#b" x="9.996" y="10.83"/><use xlink:href="#1" y="2.171"/><use xlink:href="#2" y="4.342"/><use xlink:href="#3" y="6.513"/><text y="12.525" class="i">$</text><text x="2.004" y="12.525" class="g">systempr</text></svg><svg x="1000"><use xlink:href="#a"/><use xlink:href="#b" x="10.996" y="10.83"/><use xlink:href="#1" y="2.171"/><use xlink:href="#2" y="4.342"/><use xlink:href="#3" y="6.513"/><text y="12.525" class="i">$</text><text x="2.004" y="12.525" class="g">systempro</text></svg><svg x="1100"><use xlink:href="#a"/><use xlink:href="#b" x="11.996" y="10.83"/><use xlink:href="#1" y="2.171"/><use xlink:href="#2" y="4.342"/><use xlink:href="#3" y="6.513"/><text y="12.525" class="i">$</text><text x="2.004" y="12.525" class="g">systemprom</text></svg><svg x="1200"><use xlink:href="#a"/><use xlink:href="#b" x="12.996" y="10.83"/><use xlink:href="#1" y="2.171"/><use xlink:href="#2" y="4.342"/><use xlink:href="#3" y="6.513"/><text y="12.525" class="i">$</text><text x="2.004" y="12.525" class="g">systempromp</text></svg><svg x="1300"><use xlink:href="#a"/><use xlink:href="#b" x="13.996" y="10.83"/><use xlink:href="#1" y="2.171"/><use xlink:href="#2" y="4.342"/><use xlink:href="#3" y="6.513"/><use xlink:href="#4" y="10.855"/></svg><svg x="1400"><use xlink:href="#a"/><use xlink:href="#b" x="14.996" y="10.83"/><use xlink:href="#1" y="2.171"/><use xlink:href="#2" y="4.342"/><use xlink:href="#3" y="6.513"/><use xlink:href="#4" y="10.855"/></svg><svg x="1500"><use xlink:href="#a"/><use xlink:href="#b" x="15.996" y="10.83"/><use xlink:href="#1" y="2.171"/><use xlink:href="#2" y="4.342"/><use xlink:href="#3" y="6.513"/><text y="12.525" class="i">$</text><text x="2.004" y="12.525" class="g">systemprompt</text><text x="15.03" y="12.525" class="g">i</text></svg><svg x="1600"><use xlink:href="#a"/><use xlink:href="#b" x="16.996" y="10.83"/><use xlink:href="#1" y="2.171"/><use xlink:href="#2" y="4.342"/><use xlink:href="#3" y="6.513"/><text y="12.525" class="i">$</text><text x="2.004" y="12.525" class="g">systemprompt</text><text x="15.03" y="12.525" class="g">in</text></svg><svg x="1700"><use xlink:href="#a"/><use xlink:href="#b" x="17.996" y="10.83"/><use xlink:href="#1" y="2.171"/><use xlink:href="#2" y="4.342"/><use xlink:href="#3" y="6.513"/><text y="12.525" class="i">$</text><text x="2.004" y="12.525" class="g">systemprompt</text><text x="15.03" y="12.525" class="g">inf</text></svg><svg x="1800"><use xlink:href="#a"/><use xlink:href="#b" x="18.996" y="10.83"/><use xlink:href="#1" y="2.171"/><use xlink:href="#2" y="4.342"/><use xlink:href="#3" y="6.513"/><text y="12.525" class="i">$</text><text x="2.004" y="12.525" class="g">systemprompt</text><text x="15.03" y="12.525" class="g">infr</text></svg><svg x="1900"><use xlink:href="#a"/><use xlink:href="#b" x="19.996" y="10.83"/><use xlink:href="#1" y="2.171"/><use xlink:href="#2" y="4.342"/><use xlink:href="#3" y="6.513"/><use xlink:href="#5" y="10.855"/></svg><svg x="2000"><use xlink:href="#a"/><use xlink:href="#b" x="20.996" y="10.83"/><use xlink:href="#1" y="2.171"/><use xlink:href="#2" y="4.342"/><use xlink:href="#3" y="6.513"/><use xlink:href="#5" y="10.855"/></svg><svg x="2100"><use xlink:href="#a"/><use xlink:href="#b" x="21.996" y="10.83"/><use xlink:href="#1" y="2.171"/><use xlink:href="#2" y="4.342"/><use xlink:href="#3" y="6.513"/><text y="12.525" class="i">$</text><text x="2.004" y="12.525" class="g">systemprompt</text><text x="15.03" y="12.525" class="g">infra</text><text x="21.042" y="12.525" class="g">l</text></svg><svg x="2200"><use xlink:href="#a"/><use xlink:href="#b" x="22.996" y="10.83"/><use xlink:href="#1" y="2.171"/><use xlink:href="#2" y="4.342"/><use xlink:href="#3" y="6.513"/><text y="12.525" class="i">$</text><text x="2.004" y="12.525" class="g">systemprompt</text><text x="15.03" y="12.525" class="g">infra</text><text x="21.042" y="12.525" class="g">lo</text></svg><svg x="2300"><use xlink:href="#a"/><use xlink:href="#b" x="23.996" y="10.83"/><use xlink:href="#1" y="2.171"/><use xlink:href="#2" y="4.342"/><use xlink:href="#3" y="6.513"/><text y="12.525" class="i">$</text><text x="2.004" y="12.525" class="g">systemprompt</text><text x="15.03" y="12.525" class="g">infra</text><text x="21.042" y="12.525" class="g">log</text></svg><svg x="2400"><use xlink:href="#a"/><use xlink:href="#b" x="24.996" y="10.83"/><use xlink:href="#1" y="2.171"/><use xlink:href="#2" y="4.342"/><use xlink:href="#3" y="6.513"/><use xlink:href="#6" y="10.855"/></svg><svg x="2500"><use xlink:href="#a"/><use xlink:href="#b" x="25.996" y="10.83"/><use xlink:href="#1" y="2.171"/><use xlink:href="#2" y="4.342"/><use xlink:href="#3" y="6.513"/><use xlink:href="#6" y="10.855"/></svg><svg x="2600"><use xlink:href="#a"/><use xlink:href="#b" x="26.996" y="10.83"/><use xlink:href="#1" y="2.171"/><use xlink:href="#2" y="4.342"/><use xlink:href="#3" y="6.513"/><text y="12.525" class="i">$</text><text x="2.004" y="12.525" class="g">systemprompt</text><text x="15.03" y="12.525" class="g">infra</text><text x="21.042" y="12.525" class="g">logs</text><text x="26.052" y="12.525" class="g">v</text></svg><svg x="2700"><use xlink:href="#a"/><use xlink:href="#b" x="27.996" y="10.83"/><use xlink:href="#1" y="2.171"/><use xlink:href="#2" y="4.342"/><use xlink:href="#3" y="6.513"/><text y="12.525" class="i">$</text><text x="2.004" y="12.525" class="g">systemprompt</text><text x="15.03" y="12.525" class="g">infra</text><text x="21.042" y="12.525" class="g">logs</text><text x="26.052" y="12.525" class="g">vi</text></svg><svg x="2800"><use xlink:href="#a"/><use xlink:href="#b" x="28.996" y="10.83"/><use xlink:href="#1" y="2.171"/><use xlink:href="#2" y="4.342"/><use xlink:href="#3" y="6.513"/><text y="12.525" class="i">$</text><text x="2.004" y="12.525" class="g">systemprompt</text><text x="15.03" y="12.525" class="g">infra</text><text x="21.042" y="12.525" class="g">logs</text><text x="26.052" y="12.525" class="g">vie</text></svg><svg x="2900"><use xlink:href="#a"/><use xlink:href="#b" x="29.996" y="10.83"/><use xlink:href="#1" y="2.171"/><use xlink:href="#2" y="4.342"/><use xlink:href="#3" y="6.513"/><use xlink:href="#7" y="10.855"/></svg><svg x="3000"><use xlink:href="#a"/><use xlink:href="#b" x="30.996" y="10.83"/><use xlink:href="#1" y="2.171"/><use xlink:href="#2" y="4.342"/><use xlink:href="#3" y="6.513"/><use xlink:href="#7" y="10.855"/></svg><svg x="3100"><use xlink:href="#a"/><use xlink:href="#b" x="31.996" y="10.83"/><use xlink:href="#1" y="2.171"/><use xlink:href="#2" y="4.342"/><use xlink:href="#3" y="6.513"/><text y="12.525" class="i">$</text><text x="2.004" y="12.525" class="g">systemprompt</text><text x="15.03" y="12.525" class="g">infra</text><text x="21.042" y="12.525" class="g">logs</text><text x="26.052" y="12.525" class="g">view</text><text x="31.062" y="12.525" class="g">-</text></svg><svg x="3200"><use xlink:href="#a"/><use xlink:href="#b" x="32.996" y="10.83"/><use xlink:href="#1" y="2.171"/><use xlink:href="#2" y="4.342"/><use xlink:href="#3" y="6.513"/><text y="12.525" class="i">$</text><text x="2.004" y="12.525" class="g">systemprompt</text><text x="15.03" y="12.525" class="g">infra</text><text x="21.042" y="12.525" class="g">logs</text><text x="26.052" y="12.525" class="g">view</text><text x="31.062" y="12.525" class="g">--</text></svg><svg x="3300"><use xlink:href="#a"/><use xlink:href="#b" x="33.996" y="10.83"/><use xlink:href="#1" y="2.171"/><use xlink:href="#2" y="4.342"/><use xlink:href="#3" y="6.513"/><text y="12.525" class="i">$</text><text x="2.004" y="12.525" class="g">systemprompt</text><text x="15.03" y="12.525" class="g">infra</text><text x="21.042" y="12.525" class="g">logs</text><text x="26.052" y="12.525" class="g">view</text><text x="31.062" y="12.525" class="g">--l</text></svg><svg x="3400"><use xlink:href="#a"/><use xlink:href="#b" x="34.996" y="10.83"/><use xlink:href="#1" y="2.171"/><use xlink:href="#2" y="4.342"/><use xlink:href="#3" y="6.513"/><text y="12.525" class="i">$</text><text x="2.004" y="12.525" class="g">systemprompt</text><text x="15.03" y="12.525" class="g">infra</text><text x="21.042" y="12.525" class="g">logs</text><text x="26.052" y="12.525" class="g">view</text><text x="31.062" y="12.525" class="g">--le</text></svg><svg x="3500"><use xlink:href="#a"/><use xlink:href="#b" x="35.996" y="10.83"/><use xlink:href="#1" y="2.171"/><use xlink:href="#2" y="4.342"/><use xlink:href="#3" y="6.513"/><text y="12.525" class="i">$</text><text x="2.004" y="12.525" class="g">systemprompt</text><text x="15.03" y="12.525" class="g">infra</text><text x="21.042" y="12.525" class="g">logs</text><text x="26.052" y="12.525" class="g">view</text><text x="31.062" y="12.525" class="g">--lev</text></svg><svg x="3600"><use xlink:href="#a"/><use xlink:href="#b" x="36.996" y="10.83"/><use xlink:href="#1" y="2.171"/><use xlink:href="#2" y="4.342"/><use xlink:href="#3" y="6.513"/><text y="12.525" class="i">$</text><text x="2.004" y="12.525" class="g">systemprompt</text><text x="15.03" y="12.525" class="g">infra</text><text x="21.042" y="12.525" class="g">logs</text><text x="26.052" y="12.525" class="g">view</text><text x="31.062" y="12.525" class="g">--leve</text></svg><svg x="3700"><use xlink:href="#a"/><use xlink:href="#b" x="37.996" y="10.83"/><use xlink:href="#1" y="2.171"/><use xlink:href="#2" y="4.342"/><use xlink:href="#3" y="6.513"/><use xlink:href="#8" y="10.855"/></svg><svg x="3800"><use xlink:href="#a"/><use xlink:href="#b" x="38.996" y="10.83"/><use xlink:href="#1" y="2.171"/><use xlink:href="#2" y="4.342"/><use xlink:href="#3" y="6.513"/><use xlink:href="#8" y="10.855"/></svg><svg x="3900"><use xlink:href="#a"/><use xlink:href="#b" x="39.996" y="10.83"/><use xlink:href="#1" y="2.171"/><use xlink:href="#2" y="4.342"/><use xlink:href="#3" y="6.513"/><text y="12.525" class="i">$</text><text x="2.004" y="12.525" class="g">systemprompt</text><text x="15.03" y="12.525" class="g">infra</text><text x="21.042" y="12.525" class="g">logs</text><text x="26.052" y="12.525" class="g">view</text><text x="31.062" y="12.525" class="g">--level</text><text x="39.078" y="12.525" class="g">i</text></svg><svg x="4000"><use xlink:href="#a"/><use xlink:href="#b" x="40.996" y="10.83"/><use xlink:href="#1" y="2.171"/><use xlink:href="#2" y="4.342"/><use xlink:href="#3" y="6.513"/><text y="12.525" class="i">$</text><text x="2.004" y="12.525" class="g">systemprompt</text><text x="15.03" y="12.525" class="g">infra</text><text x="21.042" y="12.525" class="g">logs</text><text x="26.052" y="12.525" class="g">view</text><text x="31.062" y="12.525" class="g">--level</text><text x="39.078" y="12.525" class="g">in</text></svg><svg x="4100"><use xlink:href="#a"/><use xlink:href="#b" x="41.996" y="10.83"/><use xlink:href="#1" y="2.171"/><use xlink:href="#2" y="4.342"/><use xlink:href="#3" y="6.513"/><text y="12.525" class="i">$</text><text x="2.004" y="12.525" class="g">systemprompt</text><text x="15.03" y="12.525" class="g">infra</text><text x="21.042" y="12.525" class="g">logs</text><text x="26.052" y="12.525" class="g">view</text><text x="31.062" y="12.525" class="g">--level</text><text x="39.078" y="12.525" class="g">inf</text></svg><svg x="4200"><use xlink:href="#a"/><use xlink:href="#b" x="42.996" y="10.83"/><use xlink:href="#1" y="2.171"/><use xlink:href="#2" y="4.342"/><use xlink:href="#3" y="6.513"/><use xlink:href="#9" y="10.855"/></svg><svg x="4300"><use xlink:href="#a"/><use xlink:href="#b" x="43.996" y="10.83"/><use xlink:href="#1" y="2.171"/><use xlink:href="#2" y="4.342"/><use xlink:href="#3" y="6.513"/><use xlink:href="#9" y="10.855"/></svg><svg x="4400"><use xlink:href="#a"/><use xlink:href="#b" x="44.996" y="10.83"/><use xlink:href="#1" y="2.171"/><use xlink:href="#2" y="4.342"/><use xlink:href="#3" y="6.513"/><text y="12.525" class="i">$</text><text x="2.004" y="12.525" class="g">systemprompt</text><text x="15.03" y="12.525" class="g">infra</text><text x="21.042" y="12.525" class="g">logs</text><text x="26.052" y="12.525" class="g">view</text><text x="31.062" y="12.525" class="g">--level</text><text x="39.078" y="12.525" class="g">info</text><text x="44.088" y="12.525" class="g">-</text></svg><svg x="4500"><use xlink:href="#a"/><use xlink:href="#b" x="45.996" y="10.83"/><use xlink:href="#1" y="2.171"/><use xlink:href="#2" y="4.342"/><use xlink:href="#3" y="6.513"/><text y="12.525" class="i">$</text><text x="2.004" y="12.525" class="g">systemprompt</text><text x="15.03" y="12.525" class="g">infra</text><text x="21.042" y="12.525" class="g">logs</text><text x="26.052" y="12.525" class="g">view</text><text x="31.062" y="12.525" class="g">--level</text><text x="39.078" y="12.525" class="g">info</text><text x="44.088" y="12.525" class="g">--</text></svg><svg x="4600"><use xlink:href="#a"/><use xlink:href="#b" x="46.996" y="10.83"/><use xlink:href="#1" y="2.171"/><use xlink:href="#2" y="4.342"/><use xlink:href="#3" y="6.513"/><text y="12.525" class="i">$</text><text x="2.004" y="12.525" class="g">systemprompt</text><text x="15.03" y="12.525" class="g">infra</text><text x="21.042" y="12.525" class="g">logs</text><text x="26.052" y="12.525" class="g">view</text><text x="31.062" y="12.525" class="g">--level</text><text x="39.078" y="12.525" class="g">info</text><text x="44.088" y="12.525" class="g">--s</text></svg><svg x="4700"><use xlink:href="#a"/><use xlink:href="#b" x="47.996" y="10.83"/><use xlink:href="#1" y="2.171"/><use xlink:href="#2" y="4.342"/><use xlink:href="#3" y="6.513"/><text y="12.525" class="i">$</text><text x="2.004" y="12.525" class="g">systemprompt</text><text x="15.03" y="12.525" class="g">infra</text><text x="21.042" y="12.525" class="g">logs</text><text x="26.052" y="12.525" class="g">view</text><text x="31.062" y="12.525" class="g">--level</text><text x="39.078" y="12.525" class="g">info</text><text x="44.088" y="12.525" class="g">--si</text></svg><svg x="4800"><use xlink:href="#a"/><use xlink:href="#b" x="48.996" y="10.83"/><use xlink:href="#1" y="2.171"/><use xlink:href="#2" y="4.342"/><use xlink:href="#3" y="6.513"/><text y="12.525" class="i">$</text><text x="2.004" y="12.525" class="g">systemprompt</text><text x="15.03" y="12.525" class="g">infra</text><text x="21.042" y="12.525" class="g">logs</text><text x="26.052" y="12.525" class="g">view</text><text x="31.062" y="12.525" class="g">--level</text><text x="39.078" y="12.525" class="g">info</text><text x="44.088" y="12.525" class="g">--sin</text></svg><svg x="4900"><use xlink:href="#a"/><use xlink:href="#b" x="49.996" y="10.83"/><use xlink:href="#1" y="2.171"/><use xlink:href="#2" y="4.342"/><use xlink:href="#3" y="6.513"/><text y="12.525" class="i">$</text><text x="2.004" y="12.525" class="g">systemprompt</text><text x="15.03" y="12.525" class="g">infra</text><text x="21.042" y="12.525" class="g">logs</text><text x="26.052" y="12.525" class="g">view</text><text x="31.062" y="12.525" class="g">--level</text><text x="39.078" y="12.525" class="g">info</text><text x="44.088" y="12.525" class="g">--sinc</text></svg><svg x="5000"><use xlink:href="#a"/><use xlink:href="#b" x="50.996" y="10.83"/><use xlink:href="#1" y="2.171"/><use xlink:href="#2" y="4.342"/><use xlink:href="#3" y="6.513"/><use xlink:href="#10" y="10.855"/></svg><svg x="5100"><use xlink:href="#a"/><use xlink:href="#b" x="51.996" y="10.83"/><use xlink:href="#1" y="2.171"/><use xlink:href="#2" y="4.342"/><use xlink:href="#3" y="6.513"/><use xlink:href="#10" y="10.855"/></svg><svg x="5200"><use xlink:href="#a"/><use xlink:href="#b" x="52.996" y="10.83"/><use xlink:href="#1" y="2.171"/><use xlink:href="#2" y="4.342"/><use xlink:href="#3" y="6.513"/><text y="12.525" class="i">$</text><text x="2.004" y="12.525" class="g">systemprompt</text><text x="15.03" y="12.525" class="g">infra</text><text x="21.042" y="12.525" class="g">logs</text><text x="26.052" y="12.525" class="g">view</text><text x="31.062" y="12.525" class="g">--level</text><text x="39.078" y="12.525" class="g">info</text><text x="44.088" y="12.525" class="g">--since</text><text x="52.104" y="12.525" class="g">1</text></svg><svg x="5300"><use xlink:href="#a"/><use xlink:href="#b" x="53.996" y="10.83"/><use xlink:href="#1" y="2.171"/><use xlink:href="#2" y="4.342"/><use xlink:href="#3" y="6.513"/><text y="12.525" class="i">$</text><text x="2.004" y="12.525" class="g">systemprompt</text><text x="15.03" y="12.525" class="g">infra</text><text x="21.042" y="12.525" class="g">logs</text><text x="26.052" y="12.525" class="g">view</text><text x="31.062" y="12.525" class="g">--level</text><text x="39.078" y="12.525" class="g">info</text><text x="44.088" y="12.525" class="g">--since</text><text x="52.104" y="12.525" class="g">10</text></svg><svg x="5400"><use xlink:href="#a"/><use xlink:href="#b" x="54.996" y="10.83"/><use xlink:href="#1" y="2.171"/><use xlink:href="#2" y="4.342"/><use xlink:href="#3" y="6.513"/><use xlink:href="#11" y="10.855"/></svg><svg x="5500"><use xlink:href="#a"/><use xlink:href="#b" x="-.004" y="13.001"/><use xlink:href="#1" y="2.171"/><use xlink:href="#2" y="4.342"/><use xlink:href="#3" y="6.513"/><use xlink:href="#11" y="10.855"/></svg><svg x="5600"><use xlink:href="#a"/><use xlink:href="#b" x="-.004" y="19.514"/><use xlink:href="#1" y="2.171"/><use xlink:href="#2" y="4.342"/><use xlink:href="#3" y="6.513"/><use xlink:href="#11" y="10.855"/><use xlink:href="#12" y="15.197"/><use xlink:href="#13" y="17.368"/></svg><svg x="5700"><use xlink:href="#a"/><use xlink:href="#b" x="-.004" y="30.369"/><use xlink:href="#1" y="2.171"/><use xlink:href="#2" y="4.342"/><use xlink:href="#3" y="6.513"/><use xlink:href="#11" y="10.855"/><use xlink:href="#12" y="15.197"/><use xlink:href="#13" y="17.368"/><use xlink:href="#14" y="19.539"/><use xlink:href="#15" y="21.71"/><use xlink:href="#16" y="23.881"/><use xlink:href="#17" y="26.052"/><use xlink:href="#16" y="28.223"/></svg><svg x="5800"><use xlink:href="#a"/><use xlink:href="#b" x="-.004" y="45.566"/><use xlink:href="#1" y="2.171"/><use xlink:href="#2" y="4.342"/><use xlink:href="#3" y="6.513"/><use xlink:href="#11" y="10.855"/><use xlink:href="#12" y="15.197"/><use xlink:href="#13" y="17.368"/><use xlink:href="#14" y="19.539"/><use xlink:href="#15" y="21.71"/><use xlink:href="#16" y="23.881"/><use xlink:href="#17" y="26.052"/><use xlink:href="#16" y="28.223"/><use xlink:href="#18" y="30.394"/><use xlink:href="#16" y="32.565"/><use xlink:href="#19" y="34.736"/><use xlink:href="#16" y="36.907"/><use xlink:href="#20" y="39.078"/><use xlink:href="#16" y="41.249"/><use xlink:href="#21" y="43.42"/></svg><svg x="5900"><use xlink:href="#a"/><use xlink:href="#b" x="-.004" y="52.079"/><use xlink:href="#1" y="2.171"/><use xlink:href="#2" y="4.342"/><use xlink:href="#3" y="6.513"/><use xlink:href="#11" y="10.855"/><use xlink:href="#12" y="15.197"/><use xlink:href="#13" y="17.368"/><use xlink:href="#14" y="19.539"/><use xlink:href="#15" y="21.71"/><use xlink:href="#16" y="23.881"/><use xlink:href="#17" y="26.052"/><use xlink:href="#16" y="28.223"/><use xlink:href="#18" y="30.394"/><use xlink:href="#16" y="32.565"/><use xlink:href="#19" y="34.736"/><use xlink:href="#16" y="36.907"/><use xlink:href="#20" y="39.078"/><use xlink:href="#16" y="41.249"/><use xlink:href="#21" y="43.42"/><use xlink:href="#22" y="45.591"/><use xlink:href="#23" y="47.762"/><use xlink:href="#24" y="49.933"/></svg><svg x="6000"><use xlink:href="#a"/><use xlink:href="#b" x="-.004" y="56.421"/><use xlink:href="#1" y="2.171"/><use xlink:href="#2" y="4.342"/><use xlink:href="#3" y="6.513"/><use xlink:href="#11" y="10.855"/><use xlink:href="#12" y="15.197"/><use xlink:href="#13" y="17.368"/><use xlink:href="#14" y="19.539"/><use xlink:href="#15" y="21.71"/><use xlink:href="#16" y="23.881"/><use xlink:href="#17" y="26.052"/><use xlink:href="#16" y="28.223"/><use xlink:href="#18" y="30.394"/><use xlink:href="#16" y="32.565"/><use xlink:href="#19" y="34.736"/><use xlink:href="#16" y="36.907"/><use xlink:href="#20" y="39.078"/><use xlink:href="#16" y="41.249"/><use xlink:href="#21" y="43.42"/><use xlink:href="#22" y="45.591"/><use xlink:href="#23" y="47.762"/><use xlink:href="#24" y="49.933"/><use xlink:href="#25" y="52.104"/><use xlink:href="#26" y="54.275"/></svg><svg x="6100"><use xlink:href="#a"/><use xlink:href="#b" x="-.004" y="58.592"/><use xlink:href="#1" y="2.171"/><use xlink:href="#2" y="4.342"/><use xlink:href="#3" y="6.513"/><use xlink:href="#11" y="10.855"/><use xlink:href="#12" y="15.197"/><use xlink:href="#13" y="17.368"/><use xlink:href="#14" y="19.539"/><use xlink:href="#15" y="21.71"/><use xlink:href="#16" y="23.881"/><use xlink:href="#17" y="26.052"/><use xlink:href="#16" y="28.223"/><use xlink:href="#18" y="30.394"/><use xlink:href="#16" y="32.565"/><use xlink:href="#19" y="34.736"/><use xlink:href="#16" y="36.907"/><use xlink:href="#20" y="39.078"/><use xlink:href="#16" y="41.249"/><use xlink:href="#21" y="43.42"/><use xlink:href="#22" y="45.591"/><use xlink:href="#23" y="47.762"/><use xlink:href="#24" y="49.933"/><use xlink:href="#25" y="52.104"/><use xlink:href="#26" y="54.275"/></svg><svg x="6200"><use xlink:href="#a"/><use xlink:href="#b" x="-.004" y="60.763"/><use xlink:href="#1" y="2.171"/><use xlink:href="#2" y="4.342"/><use xlink:href="#3" y="6.513"/><use xlink:href="#11" y="10.855"/><use xlink:href="#12" y="15.197"/><use xlink:href="#13" y="17.368"/><use xlink:href="#14" y="19.539"/><use xlink:href="#15" y="21.71"/><use xlink:href="#16" y="23.881"/><use xlink:href="#17" y="26.052"/><use xlink:href="#16" y="28.223"/><use xlink:href="#18" y="30.394"/><use xlink:href="#16" y="32.565"/><use xlink:href="#19" y="34.736"/><use xlink:href="#16" y="36.907"/><use xlink:href="#20" y="39.078"/><use xlink:href="#16" y="41.249"/><use xlink:href="#21" y="43.42"/><use xlink:href="#22" y="45.591"/><use xlink:href="#23" y="47.762"/><use xlink:href="#24" y="49.933"/><use xlink:href="#25" y="52.104"/><use xlink:href="#26" y="54.275"/><text y="60.287" class="n">&gt;&gt;&gt;</text><text x="4.008" y="60.287" class="n">ALLOW</text><text x="10.02" y="60.287" class="i">one</text><text x="14.028" y="60.287" class="i">event</text><text x="20.04" y="60.287" class="i">bus,</text><text x="25.05" y="60.287" class="i">every</text><text x="31.062" y="60.287" class="i">domain</text><text x="38.076" y="60.287" class="i">subscribes</text></svg></svg></g></svg></svg>