<svg xmlns="http://www.w3.org/2000/svg" xmlns:xlink="http://www.w3.org/1999/xlink" width="1072" height="786.72"><rect width="1072" height="786.72" rx="5" ry="5" class="a"/><svg y="0%" x="0%"><circle cx="20" cy="20" r="6" fill="#ff5f58"/><circle cx="40" cy="20" r="6" fill="#ffbd2e"/><circle cx="60" cy="20" r="6" fill="#18c132"/></svg><svg height="694.72" viewBox="0 0 100 69.472" width="1000" x="31" xmlns="http://www.w3.org/2000/svg" xmlns:xlink="http://www.w3.org/1999/xlink" y="66"><style>@keyframes l{0%{transform:translateX(0)}.3%{transform:translateX(-100px)}21.5%{transform:translateX(-200px)}22%{transform:translateX(-300px)}22.4%{transform:translateX(-400px)}22.8%{transform:translateX(-500px)}23.3%{transform:translateX(-600px)}23.7%{transform:translateX(-700px)}24.1%{transform:translateX(-800px)}24.5%{transform:translateX(-900px)}25%{transform:translateX(-1000px)}25.4%{transform:translateX(-1100px)}25.8%{transform:translateX(-1200px)}26.3%{transform:translateX(-1300px)}26.7%{transform:translateX(-1400px)}27.1%{transform:translateX(-1500px)}27.5%{transform:translateX(-1600px)}28%{transform:translateX(-1700px)}28.4%{transform:translateX(-1800px)}28.8%{transform:translateX(-1900px)}29.2%{transform:translateX(-2000px)}29.7%{transform:translateX(-2100px)}30.1%{transform:translateX(-2200px)}30.5%{transform:translateX(-2300px)}30.9%{transform:translateX(-2400px)}31.4%{transform:translateX(-2500px)}31.8%{transform:translateX(-2600px)}32.2%{transform:translateX(-2700px)}32.6%{transform:translateX(-2800px)}33.1%{transform:translateX(-2900px)}33.5%{transform:translateX(-3000px)}33.9%{transform:translateX(-3100px)}34.3%{transform:translateX(-3200px)}34.8%{transform:translateX(-3300px)}35.2%{transform:translateX(-3400px)}35.6%{transform:translateX(-3500px)}36.1%{transform:translateX(-3600px)}53.3%{transform:translateX(-3900px)}69.2%{transform:translateX(-4000px)}69.7%{transform:translateX(-4100px)}70.1%{transform:translateX(-4200px)}70.5%{transform:translateX(-4300px)}70.9%{transform:translateX(-4400px)}71.4%{transform:translateX(-4500px)}71.8%{transform:translateX(-4600px)}72.2%{transform:translateX(-4700px)}72.7%{transform:translateX(-4800px)}73.1%{transform:translateX(-4900px)}73.5%{transform:translateX(-5000px)}73.9%{transform:translateX(-5100px)}74.4%{transform:translateX(-5200px)}74.8%{transform:translateX(-5300px)}75.2%{transform:translateX(-5400px)}75.6%{transform:translateX(-5500px)}76.1%{transform:translateX(-5600px)}76.5%{transform:translateX(-5700px)}76.9%{transform:translateX(-5800px)}77.4%{transform:translateX(-5900px)}77.8%{transform:translateX(-6000px)}78.2%{transform:translateX(-6100px)}78.6%{transform:translateX(-6200px)}79.1%{transform:translateX(-6300px)}79.5%{transform:translateX(-6400px)}80%{transform:translateX(-6500px)}80.4%{transform:translateX(-6600px)}80.8%{transform:translateX(-6700px)}81.3%{transform:translateX(-6800px)}81.7%{transform:translateX(-6900px)}82.1%{transform:translateX(-7000px)}to{transform:translateX(-7500px)}}.a{fill:#1a1a1f}.g,.i,.n{fill:#b9c0cb;white-space:pre}.i,.n{fill:#a8cc8c}.n{font-weight:700}</style><g font-family="Monaco,Consolas,Menlo,'Bitstream Vera Sans Mono','Powerline Symbols',monospace" font-size="1.67"><defs><symbol id="1"><text y="1.67" style="white-space:pre" fill="#fff" font-weight="700">infra-loader</text></symbol><symbol id="2"><text y="1.67" class="g">Strict</text><text x="7.014" y="1.67" class="g">YAML</text><text x="12.024" y="1.67" class="g">loader</text><text x="19.038" y="1.67" class="g">—</text><text x="21.042" y="1.67" class="g">unknown</text><text x="29.058" y="1.67" class="g">keys</text><text x="34.068" y="1.67" class="g">fail</text><text x="39.078" y="1.67" class="g">loud</text></symbol><symbol id="3"><text y="1.67" style="white-space:pre" fill="#66c2cd">━━━━━━━━━━━━━━━━━━━━━━━━━━━━━━━━━━━━━━━━━━━━━━━━━━━━━━━━━━━━━━</text></symbol><symbol id="4"><text y="1.67" class="i">$</text><text x="2.004" y="1.67" class="g">s</text></symbol><symbol id="5"><text y="1.67" class="i">$</text><text x="2.004" y="1.67" class="g">sy</text></symbol><symbol id="6"><text y="1.67" class="i">$</text><text x="2.004" y="1.67" class="g">sys</text></symbol><symbol id="7"><text y="1.67" class="i">$</text><text x="2.004" y="1.67" class="g">syst</text></symbol><symbol id="8"><text y="1.67" class="i">$</text><text x="2.004" y="1.67" class="g">syste</text></symbol><symbol id="9"><text y="1.67" class="i">$</text><text x="2.004" y="1.67" class="g">system</text></symbol><symbol id="10"><text y="1.67" class="i">$</text><text x="2.004" y="1.67" class="g">systemp</text></symbol><symbol id="11"><text y="1.67" class="i">$</text><text x="2.004" y="1.67" class="g">systempr</text></symbol><symbol id="12"><text y="1.67" class="i">$</text><text x="2.004" y="1.67" class="g">systempro</text></symbol><symbol id="13"><text y="1.67" class="i">$</text><text x="2.004" y="1.67" class="g">systemprom</text></symbol><symbol id="14"><text y="1.67" class="i">$</text><text x="2.004" y="1.67" class="g">systempromp</text></symbol><symbol id="15"><text y="1.67" class="i">$</text><text x="2.004" y="1.67" class="g">systemprompt</text></symbol><symbol id="16"><text y="1.67" class="i">$</text><text x="2.004" y="1.67" class="g">systemprompt</text><text x="15.03" y="1.67" class="g">a</text></symbol><symbol id="17"><text y="1.67" class="i">$</text><text x="2.004" y="1.67" class="g">systemprompt</text><text x="15.03" y="1.67" class="g">ad</text></symbol><symbol id="18"><text y="1.67" class="i">$</text><text x="2.004" y="1.67" class="g">systemprompt</text><text x="15.03" y="1.67" class="g">adm</text></symbol><symbol id="19"><text y="1.67" class="i">$</text><text x="2.004" y="1.67" class="g">systemprompt</text><text x="15.03" y="1.67" class="g">admi</text></symbol><symbol id="20"><text y="1.67" class="i">$</text><text x="2.004" y="1.67" class="g">systemprompt</text><text x="15.03" y="1.67" class="g">admin</text></symbol><symbol id="21"><text y="1.67" class="i">$</text><text x="2.004" y="1.67" class="g">systemprompt</text><text x="15.03" y="1.67" class="g">admin</text><text x="21.042" y="1.67" class="g">agents</text></symbol><symbol id="22"><text y="1.67" class="i">$</text><text x="2.004" y="1.67" class="g">systemprompt</text><text x="15.03" y="1.67" class="g">admin</text><text x="21.042" y="1.67" class="g">agents</text><text x="28.056" y="1.67" class="g">validate</text></symbol><symbol id="23"><text x="4.008" y="1.67" class="g">Validation</text><text x="15.03" y="1.67" class="g">Results</text></symbol><symbol id="24"><text x="4.008" y="1.67" class="g">{</text></symbol><symbol id="25"><text x="6.012" y="1.67" class="g">&quot;valid&quot;:</text><text x="15.03" y="1.67" class="g">true,</text></symbol><symbol id="26"><text x="6.012" y="1.67" class="g">&quot;items_checked&quot;:</text><text x="23.046" y="1.67" class="g">2,</text></symbol><symbol id="27"><text x="6.012" y="1.67" class="g">&quot;errors&quot;:</text><text x="16.032" y="1.67" class="g">[],</text></symbol><symbol id="28"><text x="6.012" y="1.67" class="g">&quot;warnings&quot;:</text><text x="18.036" y="1.67" class="g">[]</text></symbol><symbol id="29"><text x="4.008" y="1.67" class="g">}</text></symbol><symbol id="30"><text y="1.67" class="i">$</text><text x="2.004" y="1.67" class="g">systemprompt</text><text x="15.03" y="1.67" class="g">admin</text><text x="21.042" y="1.67" class="g">config</text></symbol><symbol id="31"><text y="1.67" class="i">$</text><text x="2.004" y="1.67" class="g">systemprompt</text><text x="15.03" y="1.67" class="g">admin</text><text x="21.042" y="1.67" class="g">config</text><text x="28.056" y="1.67" class="g">show</text></symbol><symbol id="32"><text x="4.008" y="1.67" class="g">Configuration</text><text x="18.036" y="1.67" class="g">Overview</text></symbol><symbol id="33"><text x="6.012" y="1.67" class="g">&quot;profile_name&quot;:</text><text x="22.044" y="1.67" class="g">&quot;local&quot;,</text></symbol><symbol id="34"><text x="6.012" y="1.67" class="g">&quot;profile_path&quot;:</text><text x="22.044" y="1.67" class="g">&quot;/var/www/html/systemprompt-template/.systemprompt/profiles/local/profile.yaml</text></symbol><symbol id="35"><text y="1.67" class="g">&quot;,</text></symbol><symbol id="36"><text x="6.012" y="1.67" class="g">&quot;server&quot;:</text><text x="16.032" y="1.67" class="g">{</text></symbol><symbol id="37"><text x="8.016" y="1.67" class="g">&quot;host&quot;:</text><text x="16.032" y="1.67" class="g">&quot;127.0.0.1&quot;,</text></symbol><symbol id="38"><text x="8.016" y="1.67" class="g">&quot;port&quot;:</text><text x="16.032" y="1.67" class="g">8080,</text></symbol><symbol id="39"><text x="8.016" y="1.67" class="g">&quot;use_https&quot;:</text><text x="21.042" y="1.67" class="g">false,</text></symbol><symbol id="40"><text x="8.016" y="1.67" class="g">&quot;cors_origins_count&quot;:</text><text x="30.06" y="1.67" class="g">2</text></symbol><symbol id="41"><text x="6.012" y="1.67" class="g">},</text></symbol><symbol id="42"><text x="6.012" y="1.67" class="g">&quot;runtime&quot;:</text><text x="17.034" y="1.67" class="g">{</text></symbol><symbol id="43"><text x="8.016" y="1.67" class="g">&quot;environment&quot;:</text><text x="23.046" y="1.67" class="g">&quot;development&quot;,</text></symbol><symbol id="44"><text x="8.016" y="1.67" class="g">&quot;log_level&quot;:</text><text x="21.042" y="1.67" class="g">&quot;verbose&quot;,</text></symbol><symbol id="45"><text x="8.016" y="1.67" class="g">&quot;output_format&quot;:</text><text x="25.05" y="1.67" class="g">&quot;text&quot;,</text></symbol><symbol id="46"><text x="8.016" y="1.67" class="g">&quot;no_color&quot;:</text><text x="20.04" y="1.67" class="g">false</text></symbol><symbol id="47"><text x="6.012" y="1.67" class="g">&quot;security&quot;:</text><text x="18.036" y="1.67" class="g">{</text></symbol><symbol id="48"><text x="8.016" y="1.67" class="g">&quot;jwt_issuer&quot;:</text><text x="22.044" y="1.67" class="g">&quot;systemprompt-local&quot;,</text></symbol><symbol id="49"><text x="8.016" y="1.67" class="g">&quot;access_token_expiry_seconds&quot;:</text><text x="39.078" y="1.67" class="g">2592000,</text></symbol><symbol id="a"><path fill="transparent" d="M0 0h100v33H0z"/></symbol><symbol id="b"><path fill="#f79938" d="M0 0h1.102v2.171H0z"/></symbol></defs><path class="a" d="M0 0h100v69.472H0z"/><g style="animation-duration:3.771892s;animation-iteration-count:infinite;animation-name:l;animation-timing-function:steps(1,end)"><svg width="7600"><svg><use xlink:href="#a"/><use xlink:href="#b" x="-.004"/></svg><svg x="100"><use xlink:href="#a"/><use xlink:href="#b" x="-.004" y="10.83"/><use xlink:href="#1" y="2.171"/><use xlink:href="#2" y="4.342"/><use xlink:href="#3" y="6.513"/></svg><svg x="200"><use xlink:href="#a"/><use xlink:href="#b" x="2.996" y="10.83"/><use xlink:href="#1" y="2.171"/><use xlink:href="#2" y="4.342"/><use xlink:href="#3" y="6.513"/><use xlink:href="#4" y="10.855"/></svg><svg x="300"><use xlink:href="#a"/><use xlink:href="#b" x="3.996" y="10.83"/><use xlink:href="#1" y="2.171"/><use xlink:href="#2" y="4.342"/><use xlink:href="#3" y="6.513"/><use xlink:href="#5" y="10.855"/></svg><svg x="400"><use xlink:href="#a"/><use xlink:href="#b" x="4.996" y="10.83"/><use xlink:href="#1" y="2.171"/><use xlink:href="#2" y="4.342"/><use xlink:href="#3" y="6.513"/><use xlink:href="#6" y="10.855"/></svg><svg x="500"><use xlink:href="#a"/><use xlink:href="#b" x="5.996" y="10.83"/><use xlink:href="#1" y="2.171"/><use xlink:href="#2" y="4.342"/><use xlink:href="#3" y="6.513"/><use xlink:href="#7" y="10.855"/></svg><svg x="600"><use xlink:href="#a"/><use xlink:href="#b" x="6.996" y="10.83"/><use xlink:href="#1" y="2.171"/><use xlink:href="#2" y="4.342"/><use xlink:href="#3" y="6.513"/><use xlink:href="#8" y="10.855"/></svg><svg x="700"><use xlink:href="#a"/><use xlink:href="#b" x="7.996" y="10.83"/><use xlink:href="#1" y="2.171"/><use xlink:href="#2" y="4.342"/><use xlink:href="#3" y="6.513"/><use xlink:href="#9" y="10.855"/></svg><svg x="800"><use xlink:href="#a"/><use xlink:href="#b" x="8.996" y="10.83"/><use xlink:href="#1" y="2.171"/><use xlink:href="#2" y="4.342"/><use xlink:href="#3" y="6.513"/><use xlink:href="#10" y="10.855"/></svg><svg x="900"><use xlink:href="#a"/><use xlink:href="#b" x="9.996" y="10.83"/><use xlink:href="#1" y="2.171"/><use xlink:href="#2" y="4.342"/><use xlink:href="#3" y="6.513"/><use xlink:href="#11" y="10.855"/></svg><svg x="1000"><use xlink:href="#a"/><use xlink:href="#b" x="10.996" y="10.83"/><use xlink:href="#1" y="2.171"/><use xlink:href="#2" y="4.342"/><use xlink:href="#3" y="6.513"/><use xlink:href="#12" y="10.855"/></svg><svg x="1100"><use xlink:href="#a"/><use xlink:href="#b" x="11.996" y="10.83"/><use xlink:href="#1" y="2.171"/><use xlink:href="#2" y="4.342"/><use xlink:href="#3" y="6.513"/><use xlink:href="#13" y="10.855"/></svg><svg x="1200"><use xlink:href="#a"/><use xlink:href="#b" x="12.996" y="10.83"/><use xlink:href="#1" y="2.171"/><use xlink:href="#2" y="4.342"/><use xlink:href="#3" y="6.513"/><use xlink:href="#14" y="10.855"/></svg><svg x="1300"><use xlink:href="#a"/><use xlink:href="#b" x="13.996" y="10.83"/><use xlink:href="#1" y="2.171"/><use xlink:href="#2" y="4.342"/><use xlink:href="#3" y="6.513"/><use xlink:href="#15" y="10.855"/></svg><svg x="1400"><use xlink:href="#a"/><use xlink:href="#b" x="14.996" y="10.83"/><use xlink:href="#1" y="2.171"/><use xlink:href="#2" y="4.342"/><use xlink:href="#3" y="6.513"/><use xlink:href="#15" y="10.855"/></svg><svg x="1500"><use xlink:href="#a"/><use xlink:href="#b" x="15.996" y="10.83"/><use xlink:href="#1" y="2.171"/><use xlink:href="#2" y="4.342"/><use xlink:href="#3" y="6.513"/><use xlink:href="#16" y="10.855"/></svg><svg x="1600"><use xlink:href="#a"/><use xlink:href="#b" x="16.996" y="10.83"/><use xlink:href="#1" y="2.171"/><use xlink:href="#2" y="4.342"/><use xlink:href="#3" y="6.513"/><use xlink:href="#17" y="10.855"/></svg><svg x="1700"><use xlink:href="#a"/><use xlink:href="#b" x="17.996" y="10.83"/><use xlink:href="#1" y="2.171"/><use xlink:href="#2" y="4.342"/><use xlink:href="#3" y="6.513"/><use xlink:href="#18" y="10.855"/></svg><svg x="1800"><use xlink:href="#a"/><use xlink:href="#b" x="18.996" y="10.83"/><use xlink:href="#1" y="2.171"/><use xlink:href="#2" y="4.342"/><use xlink:href="#3" y="6.513"/><use xlink:href="#19" y="10.855"/></svg><svg x="1900"><use xlink:href="#a"/><use xlink:href="#b" x="19.996" y="10.83"/><use xlink:href="#1" y="2.171"/><use xlink:href="#2" y="4.342"/><use xlink:href="#3" y="6.513"/><use xlink:href="#20" y="10.855"/></svg><svg x="2000"><use xlink:href="#a"/><use xlink:href="#b" x="20.996" y="10.83"/><use xlink:href="#1" y="2.171"/><use xlink:href="#2" y="4.342"/><use xlink:href="#3" y="6.513"/><use xlink:href="#20" y="10.855"/></svg><svg x="2100"><use xlink:href="#a"/><use xlink:href="#b" x="21.996" y="10.83"/><use xlink:href="#1" y="2.171"/><use xlink:href="#2" y="4.342"/><use xlink:href="#3" y="6.513"/><text y="12.525" class="i">$</text><text x="2.004" y="12.525" class="g">systemprompt</text><text x="15.03" y="12.525" class="g">admin</text><text x="21.042" y="12.525" class="g">a</text></svg><svg x="2200"><use xlink:href="#a"/><use xlink:href="#b" x="22.996" y="10.83"/><use xlink:href="#1" y="2.171"/><use xlink:href="#2" y="4.342"/><use xlink:href="#3" y="6.513"/><text y="12.525" class="i">$</text><text x="2.004" y="12.525" class="g">systemprompt</text><text x="15.03" y="12.525" class="g">admin</text><text x="21.042" y="12.525" class="g">ag</text></svg><svg x="2300"><use xlink:href="#a"/><use xlink:href="#b" x="23.996" y="10.83"/><use xlink:href="#1" y="2.171"/><use xlink:href="#2" y="4.342"/><use xlink:href="#3" y="6.513"/><text y="12.525" class="i">$</text><text x="2.004" y="12.525" class="g">systemprompt</text><text x="15.03" y="12.525" class="g">admin</text><text x="21.042" y="12.525" class="g">age</text></svg><svg x="2400"><use xlink:href="#a"/><use xlink:href="#b" x="24.996" y="10.83"/><use xlink:href="#1" y="2.171"/><use xlink:href="#2" y="4.342"/><use xlink:href="#3" y="6.513"/><text y="12.525" class="i">$</text><text x="2.004" y="12.525" class="g">systemprompt</text><text x="15.03" y="12.525" class="g">admin</text><text x="21.042" y="12.525" class="g">agen</text></svg><svg x="2500"><use xlink:href="#a"/><use xlink:href="#b" x="25.996" y="10.83"/><use xlink:href="#1" y="2.171"/><use xlink:href="#2" y="4.342"/><use xlink:href="#3" y="6.513"/><text y="12.525" class="i">$</text><text x="2.004" y="12.525" class="g">systemprompt</text><text x="15.03" y="12.525" class="g">admin</text><text x="21.042" y="12.525" class="g">agent</text></svg><svg x="2600"><use xlink:href="#a"/><use xlink:href="#b" x="26.996" y="10.83"/><use xlink:href="#1" y="2.171"/><use xlink:href="#2" y="4.342"/><use xlink:href="#3" y="6.513"/><use xlink:href="#21" y="10.855"/></svg><svg x="2700"><use xlink:href="#a"/><use xlink:href="#b" x="27.996" y="10.83"/><use xlink:href="#1" y="2.171"/><use xlink:href="#2" y="4.342"/><use xlink:href="#3" y="6.513"/><use xlink:href="#21" y="10.855"/></svg><svg x="2800"><use xlink:href="#a"/><use xlink:href="#b" x="28.996" y="10.83"/><use xlink:href="#1" y="2.171"/><use xlink:href="#2" y="4.342"/><use xlink:href="#3" y="6.513"/><text y="12.525" class="i">$</text><text x="2.004" y="12.525" class="g">systemprompt</text><text x="15.03" y="12.525" class="g">admin</text><text x="21.042" y="12.525" class="g">agents</text><text x="28.056" y="12.525" class="g">v</text></svg><svg x="2900"><use xlink:href="#a"/><use xlink:href="#b" x="29.996" y="10.83"/><use xlink:href="#1" y="2.171"/><use xlink:href="#2" y="4.342"/><use xlink:href="#3" y="6.513"/><text y="12.525" class="i">$</text><text x="2.004" y="12.525" class="g">systemprompt</text><text x="15.03" y="12.525" class="g">admin</text><text x="21.042" y="12.525" class="g">agents</text><text x="28.056" y="12.525" class="g">va</text></svg><svg x="3000"><use xlink:href="#a"/><use xlink:href="#b" x="30.996" y="10.83"/><use xlink:href="#1" y="2.171"/><use xlink:href="#2" y="4.342"/><use xlink:href="#3" y="6.513"/><text y="12.525" class="i">$</text><text x="2.004" y="12.525" class="g">systemprompt</text><text x="15.03" y="12.525" class="g">admin</text><text x="21.042" y="12.525" class="g">agents</text><text x="28.056" y="12.525" class="g">val</text></svg><svg x="3100"><use xlink:href="#a"/><use xlink:href="#b" x="31.996" y="10.83"/><use xlink:href="#1" y="2.171"/><use xlink:href="#2" y="4.342"/><use xlink:href="#3" y="6.513"/><text y="12.525" class="i">$</text><text x="2.004" y="12.525" class="g">systemprompt</text><text x="15.03" y="12.525" class="g">admin</text><text x="21.042" y="12.525" class="g">agents</text><text x="28.056" y="12.525" class="g">vali</text></svg><svg x="3200"><use xlink:href="#a"/><use xlink:href="#b" x="32.996" y="10.83"/><use xlink:href="#1" y="2.171"/><use xlink:href="#2" y="4.342"/><use xlink:href="#3" y="6.513"/><text y="12.525" class="i">$</text><text x="2.004" y="12.525" class="g">systemprompt</text><text x="15.03" y="12.525" class="g">admin</text><text x="21.042" y="12.525" class="g">agents</text><text x="28.056" y="12.525" class="g">valid</text></svg><svg x="3300"><use xlink:href="#a"/><use xlink:href="#b" x="33.996" y="10.83"/><use xlink:href="#1" y="2.171"/><use xlink:href="#2" y="4.342"/><use xlink:href="#3" y="6.513"/><text y="12.525" class="i">$</text><text x="2.004" y="12.525" class="g">systemprompt</text><text x="15.03" y="12.525" class="g">admin</text><text x="21.042" y="12.525" class="g">agents</text><text x="28.056" y="12.525" class="g">valida</text></svg><svg x="3400"><use xlink:href="#a"/><use xlink:href="#b" x="34.996" y="10.83"/><use xlink:href="#1" y="2.171"/><use xlink:href="#2" y="4.342"/><use xlink:href="#3" y="6.513"/><text y="12.525" class="i">$</text><text x="2.004" y="12.525" class="g">systemprompt</text><text x="15.03" y="12.525" class="g">admin</text><text x="21.042" y="12.525" class="g">agents</text><text x="28.056" y="12.525" class="g">validat</text></svg><svg x="3500"><use xlink:href="#a"/><use xlink:href="#b" x="35.996" y="10.83"/><use xlink:href="#1" y="2.171"/><use xlink:href="#2" y="4.342"/><use xlink:href="#3" y="6.513"/><use xlink:href="#22" y="10.855"/></svg><svg x="3600"><use xlink:href="#a"/><use xlink:href="#b" x="-.004" y="13.001"/><use xlink:href="#1" y="2.171"/><use xlink:href="#2" y="4.342"/><use xlink:href="#3" y="6.513"/><use xlink:href="#22" y="10.855"/></svg><svg x="3700"><use xlink:href="#a"/><use xlink:href="#b" x="-.004" y="21.685"/><use xlink:href="#1" y="2.171"/><use xlink:href="#2" y="4.342"/><use xlink:href="#3" y="6.513"/><use xlink:href="#22" y="10.855"/><use xlink:href="#23" y="15.197"/><use xlink:href="#24" y="17.368"/><use xlink:href="#25" y="19.539"/></svg><svg x="3800"><use xlink:href="#a"/><use xlink:href="#b" x="-.004" y="30.369"/><use xlink:href="#1" y="2.171"/><use xlink:href="#2" y="4.342"/><use xlink:href="#3" y="6.513"/><use xlink:href="#22" y="10.855"/><use xlink:href="#23" y="15.197"/><use xlink:href="#24" y="17.368"/><use xlink:href="#25" y="19.539"/><use xlink:href="#26" y="21.71"/><use xlink:href="#27" y="23.881"/><use xlink:href="#28" y="26.052"/><use xlink:href="#29" y="28.223"/></svg><svg x="3900"><use xlink:href="#a"/><use xlink:href="#b" x="-.004" y="32.54"/><use xlink:href="#1" y="2.171"/><use xlink:href="#2" y="4.342"/><use xlink:href="#3" y="6.513"/><use xlink:href="#22" y="10.855"/><use xlink:href="#23" y="15.197"/><use xlink:href="#24" y="17.368"/><use xlink:href="#25" y="19.539"/><use xlink:href="#26" y="21.71"/><use xlink:href="#27" y="23.881"/><use xlink:href="#28" y="26.052"/><use xlink:href="#29" y="28.223"/></svg><svg x="4000"><use xlink:href="#a"/><use xlink:href="#b" x="2.996" y="32.54"/><use xlink:href="#1" y="2.171"/><use xlink:href="#2" y="4.342"/><use xlink:href="#3" y="6.513"/><use xlink:href="#22" y="10.855"/><use xlink:href="#23" y="15.197"/><use xlink:href="#24" y="17.368"/><use xlink:href="#25" y="19.539"/><use xlink:href="#26" y="21.71"/><use xlink:href="#27" y="23.881"/><use xlink:href="#28" y="26.052"/><use xlink:href="#29" y="28.223"/><use xlink:href="#4" y="32.565"/></svg><svg x="4100"><use xlink:href="#a"/><use xlink:href="#b" x="3.996" y="32.54"/><use xlink:href="#1" y="2.171"/><use xlink:href="#2" y="4.342"/><use xlink:href="#3" y="6.513"/><use xlink:href="#22" y="10.855"/><use xlink:href="#23" y="15.197"/><use xlink:href="#24" y="17.368"/><use xlink:href="#25" y="19.539"/><use xlink:href="#26" y="21.71"/><use xlink:href="#27" y="23.881"/><use xlink:href="#28" y="26.052"/><use xlink:href="#29" y="28.223"/><use xlink:href="#5" y="32.565"/></svg><svg x="4200"><use xlink:href="#a"/><use xlink:href="#b" x="4.996" y="32.54"/><use xlink:href="#1" y="2.171"/><use xlink:href="#2" y="4.342"/><use xlink:href="#3" y="6.513"/><use xlink:href="#22" y="10.855"/><use xlink:href="#23" y="15.197"/><use xlink:href="#24" y="17.368"/><use xlink:href="#25" y="19.539"/><use xlink:href="#26" y="21.71"/><use xlink:href="#27" y="23.881"/><use xlink:href="#28" y="26.052"/><use xlink:href="#29" y="28.223"/><use xlink:href="#6" y="32.565"/></svg><svg x="4300"><use xlink:href="#a"/><use xlink:href="#b" x="5.996" y="32.54"/><use xlink:href="#1" y="2.171"/><use xlink:href="#2" y="4.342"/><use xlink:href="#3" y="6.513"/><use xlink:href="#22" y="10.855"/><use xlink:href="#23" y="15.197"/><use xlink:href="#24" y="17.368"/><use xlink:href="#25" y="19.539"/><use xlink:href="#26" y="21.71"/><use xlink:href="#27" y="23.881"/><use xlink:href="#28" y="26.052"/><use xlink:href="#29" y="28.223"/><use xlink:href="#7" y="32.565"/></svg><svg x="4400"><use xlink:href="#a"/><use xlink:href="#b" x="6.996" y="32.54"/><use xlink:href="#1" y="2.171"/><use xlink:href="#2" y="4.342"/><use xlink:href="#3" y="6.513"/><use xlink:href="#22" y="10.855"/><use xlink:href="#23" y="15.197"/><use xlink:href="#24" y="17.368"/><use xlink:href="#25" y="19.539"/><use xlink:href="#26" y="21.71"/><use xlink:href="#27" y="23.881"/><use xlink:href="#28" y="26.052"/><use xlink:href="#29" y="28.223"/><use xlink:href="#8" y="32.565"/></svg><svg x="4500"><use xlink:href="#a"/><use xlink:href="#b" x="7.996" y="32.54"/><use xlink:href="#1" y="2.171"/><use xlink:href="#2" y="4.342"/><use xlink:href="#3" y="6.513"/><use xlink:href="#22" y="10.855"/><use xlink:href="#23" y="15.197"/><use xlink:href="#24" y="17.368"/><use xlink:href="#25" y="19.539"/><use xlink:href="#26" y="21.71"/><use xlink:href="#27" y="23.881"/><use xlink:href="#28" y="26.052"/><use xlink:href="#29" y="28.223"/><use xlink:href="#9" y="32.565"/></svg><svg x="4600"><use xlink:href="#a"/><use xlink:href="#b" x="8.996" y="32.54"/><use xlink:href="#1" y="2.171"/><use xlink:href="#2" y="4.342"/><use xlink:href="#3" y="6.513"/><use xlink:href="#22" y="10.855"/><use xlink:href="#23" y="15.197"/><use xlink:href="#24" y="17.368"/><use xlink:href="#25" y="19.539"/><use xlink:href="#26" y="21.71"/><use xlink:href="#27" y="23.881"/><use xlink:href="#28" y="26.052"/><use xlink:href="#29" y="28.223"/><use xlink:href="#10" y="32.565"/></svg><svg x="4700"><use xlink:href="#a"/><use xlink:href="#b" x="9.996" y="32.54"/><use xlink:href="#1" y="2.171"/><use xlink:href="#2" y="4.342"/><use xlink:href="#3" y="6.513"/><use xlink:href="#22" y="10.855"/><use xlink:href="#23" y="15.197"/><use xlink:href="#24" y="17.368"/><use xlink:href="#25" y="19.539"/><use xlink:href="#26" y="21.71"/><use xlink:href="#27" y="23.881"/><use xlink:href="#28" y="26.052"/><use xlink:href="#29" y="28.223"/><use xlink:href="#11" y="32.565"/></svg><svg x="4800"><use xlink:href="#a"/><use xlink:href="#b" x="10.996" y="32.54"/><use xlink:href="#1" y="2.171"/><use xlink:href="#2" y="4.342"/><use xlink:href="#3" y="6.513"/><use xlink:href="#22" y="10.855"/><use xlink:href="#23" y="15.197"/><use xlink:href="#24" y="17.368"/><use xlink:href="#25" y="19.539"/><use xlink:href="#26" y="21.71"/><use xlink:href="#27" y="23.881"/><use xlink:href="#28" y="26.052"/><use xlink:href="#29" y="28.223"/><use xlink:href="#12" y="32.565"/></svg><svg x="4900"><use xlink:href="#a"/><use xlink:href="#b" x="11.996" y="32.54"/><use xlink:href="#1" y="2.171"/><use xlink:href="#2" y="4.342"/><use xlink:href="#3" y="6.513"/><use xlink:href="#22" y="10.855"/><use xlink:href="#23" y="15.197"/><use xlink:href="#24" y="17.368"/><use xlink:href="#25" y="19.539"/><use xlink:href="#26" y="21.71"/><use xlink:href="#27" y="23.881"/><use xlink:href="#28" y="26.052"/><use xlink:href="#29" y="28.223"/><use xlink:href="#13" y="32.565"/></svg><svg x="5000"><use xlink:href="#a"/><use xlink:href="#b" x="12.996" y="32.54"/><use xlink:href="#1" y="2.171"/><use xlink:href="#2" y="4.342"/><use xlink:href="#3" y="6.513"/><use xlink:href="#22" y="10.855"/><use xlink:href="#23" y="15.197"/><use xlink:href="#24" y="17.368"/><use xlink:href="#25" y="19.539"/><use xlink:href="#26" y="21.71"/><use xlink:href="#27" y="23.881"/><use xlink:href="#28" y="26.052"/><use xlink:href="#29" y="28.223"/><use xlink:href="#14" y="32.565"/></svg><svg x="5100"><use xlink:href="#a"/><use xlink:href="#b" x="13.996" y="32.54"/><use xlink:href="#1" y="2.171"/><use xlink:href="#2" y="4.342"/><use xlink:href="#3" y="6.513"/><use xlink:href="#22" y="10.855"/><use xlink:href="#23" y="15.197"/><use xlink:href="#24" y="17.368"/><use xlink:href="#25" y="19.539"/><use xlink:href="#26" y="21.71"/><use xlink:href="#27" y="23.881"/><use xlink:href="#28" y="26.052"/><use xlink:href="#29" y="28.223"/><use xlink:href="#15" y="32.565"/></svg><svg x="5200"><use xlink:href="#a"/><use xlink:href="#b" x="14.996" y="32.54"/><use xlink:href="#1" y="2.171"/><use xlink:href="#2" y="4.342"/><use xlink:href="#3" y="6.513"/><use xlink:href="#22" y="10.855"/><use xlink:href="#23" y="15.197"/><use xlink:href="#24" y="17.368"/><use xlink:href="#25" y="19.539"/><use xlink:href="#26" y="21.71"/><use xlink:href="#27" y="23.881"/><use xlink:href="#28" y="26.052"/><use xlink:href="#29" y="28.223"/><use xlink:href="#15" y="32.565"/></svg><svg x="5300"><use xlink:href="#a"/><use xlink:href="#b" x="15.996" y="32.54"/><use xlink:href="#1" y="2.171"/><use xlink:href="#2" y="4.342"/><use xlink:href="#3" y="6.513"/><use xlink:href="#22" y="10.855"/><use xlink:href="#23" y="15.197"/><use xlink:href="#24" y="17.368"/><use xlink:href="#25" y="19.539"/><use xlink:href="#26" y="21.71"/><use xlink:href="#27" y="23.881"/><use xlink:href="#28" y="26.052"/><use xlink:href="#29" y="28.223"/><use xlink:href="#16" y="32.565"/></svg><svg x="5400"><use xlink:href="#a"/><use xlink:href="#b" x="16.996" y="32.54"/><use xlink:href="#1" y="2.171"/><use xlink:href="#2" y="4.342"/><use xlink:href="#3" y="6.513"/><use xlink:href="#22" y="10.855"/><use xlink:href="#23" y="15.197"/><use xlink:href="#24" y="17.368"/><use xlink:href="#25" y="19.539"/><use xlink:href="#26" y="21.71"/><use xlink:href="#27" y="23.881"/><use xlink:href="#28" y="26.052"/><use xlink:href="#29" y="28.223"/><use xlink:href="#17" y="32.565"/></svg><svg x="5500"><use xlink:href="#a"/><use xlink:href="#b" x="17.996" y="32.54"/><use xlink:href="#1" y="2.171"/><use xlink:href="#2" y="4.342"/><use xlink:href="#3" y="6.513"/><use xlink:href="#22" y="10.855"/><use xlink:href="#23" y="15.197"/><use xlink:href="#24" y="17.368"/><use xlink:href="#25" y="19.539"/><use xlink:href="#26" y="21.71"/><use xlink:href="#27" y="23.881"/><use xlink:href="#28" y="26.052"/><use xlink:href="#29" y="28.223"/><use xlink:href="#18" y="32.565"/></svg><svg x="5600"><use xlink:href="#a"/><use xlink:href="#b" x="18.996" y="32.54"/><use xlink:href="#1" y="2.171"/><use xlink:href="#2" y="4.342"/><use xlink:href="#3" y="6.513"/><use xlink:href="#22" y="10.855"/><use xlink:href="#23" y="15.197"/><use xlink:href="#24" y="17.368"/><use xlink:href="#25" y="19.539"/><use xlink:href="#26" y="21.71"/><use xlink:href="#27" y="23.881"/><use xlink:href="#28" y="26.052"/><use xlink:href="#29" y="28.223"/><use xlink:href="#19" y="32.565"/></svg><svg x="5700"><use xlink:href="#a"/><use xlink:href="#b" x="19.996" y="32.54"/><use xlink:href="#1" y="2.171"/><use xlink:href="#2" y="4.342"/><use xlink:href="#3" y="6.513"/><use xlink:href="#22" y="10.855"/><use xlink:href="#23" y="15.197"/><use xlink:href="#24" y="17.368"/><use xlink:href="#25" y="19.539"/><use xlink:href="#26" y="21.71"/><use xlink:href="#27" y="23.881"/><use xlink:href="#28" y="26.052"/><use xlink:href="#29" y="28.223"/><use xlink:href="#20" y="32.565"/></svg><svg x="5800"><use xlink:href="#a"/><use xlink:href="#b" x="20.996" y="32.54"/><use xlink:href="#1" y="2.171"/><use xlink:href="#2" y="4.342"/><use xlink:href="#3" y="6.513"/><use xlink:href="#22" y="10.855"/><use xlink:href="#23" y="15.197"/><use xlink:href="#24" y="17.368"/><use xlink:href="#25" y="19.539"/><use xlink:href="#26" y="21.71"/><use xlink:href="#27" y="23.881"/><use xlink:href="#28" y="26.052"/><use xlink:href="#29" y="28.223"/><use xlink:href="#20" y="32.565"/></svg><svg x="5900"><use xlink:href="#a"/><use xlink:href="#b" x="21.996" y="32.54"/><use xlink:href="#1" y="2.171"/><use xlink:href="#2" y="4.342"/><use xlink:href="#3" y="6.513"/><use xlink:href="#22" y="10.855"/><use xlink:href="#23" y="15.197"/><use xlink:href="#24" y="17.368"/><use xlink:href="#25" y="19.539"/><use xlink:href="#26" y="21.71"/><use xlink:href="#27" y="23.881"/><use xlink:href="#28" y="26.052"/><use xlink:href="#29" y="28.223"/><text y="34.235" class="i">$</text><text x="2.004" y="34.235" class="g">systemprompt</text><text x="15.03" y="34.235" class="g">admin</text><text x="21.042" y="34.235" class="g">c</text></svg><svg x="6000"><use xlink:href="#a"/><use xlink:href="#b" x="22.996" y="32.54"/><use xlink:href="#1" y="2.171"/><use xlink:href="#2" y="4.342"/><use xlink:href="#3" y="6.513"/><use xlink:href="#22" y="10.855"/><use xlink:href="#23" y="15.197"/><use xlink:href="#24" y="17.368"/><use xlink:href="#25" y="19.539"/><use xlink:href="#26" y="21.71"/><use xlink:href="#27" y="23.881"/><use xlink:href="#28" y="26.052"/><use xlink:href="#29" y="28.223"/><text y="34.235" class="i">$</text><text x="2.004" y="34.235" class="g">systemprompt</text><text x="15.03" y="34.235" class="g">admin</text><text x="21.042" y="34.235" class="g">co</text></svg><svg x="6100"><use xlink:href="#a"/><use xlink:href="#b" x="23.996" y="32.54"/><use xlink:href="#1" y="2.171"/><use xlink:href="#2" y="4.342"/><use xlink:href="#3" y="6.513"/><use xlink:href="#22" y="10.855"/><use xlink:href="#23" y="15.197"/><use xlink:href="#24" y="17.368"/><use xlink:href="#25" y="19.539"/><use xlink:href="#26" y="21.71"/><use xlink:href="#27" y="23.881"/><use xlink:href="#28" y="26.052"/><use xlink:href="#29" y="28.223"/><text y="34.235" class="i">$</text><text x="2.004" y="34.235" class="g">systemprompt</text><text x="15.03" y="34.235" class="g">admin</text><text x="21.042" y="34.235" class="g">con</text></svg><svg x="6200"><use xlink:href="#a"/><use xlink:href="#b" x="24.996" y="32.54"/><use xlink:href="#1" y="2.171"/><use xlink:href="#2" y="4.342"/><use xlink:href="#3" y="6.513"/><use xlink:href="#22" y="10.855"/><use xlink:href="#23" y="15.197"/><use xlink:href="#24" y="17.368"/><use xlink:href="#25" y="19.539"/><use xlink:href="#26" y="21.71"/><use xlink:href="#27" y="23.881"/><use xlink:href="#28" y="26.052"/><use xlink:href="#29" y="28.223"/><text y="34.235" class="i">$</text><text x="2.004" y="34.235" class="g">systemprompt</text><text x="15.03" y="34.235" class="g">admin</text><text x="21.042" y="34.235" class="g">conf</text></svg><svg x="6300"><use xlink:href="#a"/><use xlink:href="#b" x="25.996" y="32.54"/><use xlink:href="#1" y="2.171"/><use xlink:href="#2" y="4.342"/><use xlink:href="#3" y="6.513"/><use xlink:href="#22" y="10.855"/><use xlink:href="#23" y="15.197"/><use xlink:href="#24" y="17.368"/><use xlink:href="#25" y="19.539"/><use xlink:href="#26" y="21.71"/><use xlink:href="#27" y="23.881"/><use xlink:href="#28" y="26.052"/><use xlink:href="#29" y="28.223"/><text y="34.235" class="i">$</text><text x="2.004" y="34.235" class="g">systemprompt</text><text x="15.03" y="34.235" class="g">admin</text><text x="21.042" y="34.235" class="g">confi</text></svg><svg x="6400"><use xlink:href="#a"/><use xlink:href="#b" x="26.996" y="32.54"/><use xlink:href="#1" y="2.171"/><use xlink:href="#2" y="4.342"/><use xlink:href="#3" y="6.513"/><use xlink:href="#22" y="10.855"/><use xlink:href="#23" y="15.197"/><use xlink:href="#24" y="17.368"/><use xlink:href="#25" y="19.539"/><use xlink:href="#26" y="21.71"/><use xlink:href="#27" y="23.881"/><use xlink:href="#28" y="26.052"/><use xlink:href="#29" y="28.223"/><use xlink:href="#30" y="32.565"/></svg><svg x="6500"><use xlink:href="#a"/><use xlink:href="#b" x="27.996" y="32.54"/><use xlink:href="#1" y="2.171"/><use xlink:href="#2" y="4.342"/><use xlink:href="#3" y="6.513"/><use xlink:href="#22" y="10.855"/><use xlink:href="#23" y="15.197"/><use xlink:href="#24" y="17.368"/><use xlink:href="#25" y="19.539"/><use xlink:href="#26" y="21.71"/><use xlink:href="#27" y="23.881"/><use xlink:href="#28" y="26.052"/><use xlink:href="#29" y="28.223"/><use xlink:href="#30" y="32.565"/></svg><svg x="6600"><use xlink:href="#a"/><use xlink:href="#b" x="28.996" y="32.54"/><use xlink:href="#1" y="2.171"/><use xlink:href="#2" y="4.342"/><use xlink:href="#3" y="6.513"/><use xlink:href="#22" y="10.855"/><use xlink:href="#23" y="15.197"/><use xlink:href="#24" y="17.368"/><use xlink:href="#25" y="19.539"/><use xlink:href="#26" y="21.71"/><use xlink:href="#27" y="23.881"/><use xlink:href="#28" y="26.052"/><use xlink:href="#29" y="28.223"/><text y="34.235" class="i">$</text><text x="2.004" y="34.235" class="g">systemprompt</text><text x="15.03" y="34.235" class="g">admin</text><text x="21.042" y="34.235" class="g">config</text><text x="28.056" y="34.235" class="g">s</text></svg><svg x="6700"><use xlink:href="#a"/><use xlink:href="#b" x="29.996" y="32.54"/><use xlink:href="#1" y="2.171"/><use xlink:href="#2" y="4.342"/><use xlink:href="#3" y="6.513"/><use xlink:href="#22" y="10.855"/><use xlink:href="#23" y="15.197"/><use xlink:href="#24" y="17.368"/><use xlink:href="#25" y="19.539"/><use xlink:href="#26" y="21.71"/><use xlink:href="#27" y="23.881"/><use xlink:href="#28" y="26.052"/><use xlink:href="#29" y="28.223"/><text y="34.235" class="i">$</text><text x="2.004" y="34.235" class="g">systemprompt</text><text x="15.03" y="34.235" class="g">admin</text><text x="21.042" y="34.235" class="g">config</text><text x="28.056" y="34.235" class="g">sh</text></svg><svg x="6800"><use xlink:href="#a"/><use xlink:href="#b" x="30.996" y="32.54"/><use xlink:href="#1" y="2.171"/><use xlink:href="#2" y="4.342"/><use xlink:href="#3" y="6.513"/><use xlink:href="#22" y="10.855"/><use xlink:href="#23" y="15.197"/><use xlink:href="#24" y="17.368"/><use xlink:href="#25" y="19.539"/><use xlink:href="#26" y="21.71"/><use xlink:href="#27" y="23.881"/><use xlink:href="#28" y="26.052"/><use xlink:href="#29" y="28.223"/><text y="34.235" class="i">$</text><text x="2.004" y="34.235" class="g">systemprompt</text><text x="15.03" y="34.235" class="g">admin</text><text x="21.042" y="34.235" class="g">config</text><text x="28.056" y="34.235" class="g">sho</text></svg><svg x="6900"><use xlink:href="#a"/><use xlink:href="#b" x="31.996" y="32.54"/><use xlink:href="#1" y="2.171"/><use xlink:href="#2" y="4.342"/><use xlink:href="#3" y="6.513"/><use xlink:href="#22" y="10.855"/><use xlink:href="#23" y="15.197"/><use xlink:href="#24" y="17.368"/><use xlink:href="#25" y="19.539"/><use xlink:href="#26" y="21.71"/><use xlink:href="#27" y="23.881"/><use xlink:href="#28" y="26.052"/><use xlink:href="#29" y="28.223"/><use xlink:href="#31" y="32.565"/></svg><svg x="7000"><use xlink:href="#a"/><use xlink:href="#b" x="-.004" y="34.711"/><use xlink:href="#1" y="2.171"/><use xlink:href="#2" y="4.342"/><use xlink:href="#3" y="6.513"/><use xlink:href="#22" y="10.855"/><use xlink:href="#23" y="15.197"/><use xlink:href="#24" y="17.368"/><use xlink:href="#25" y="19.539"/><use xlink:href="#26" y="21.71"/><use xlink:href="#27" y="23.881"/><use xlink:href="#28" y="26.052"/><use xlink:href="#29" y="28.223"/><use xlink:href="#31" y="32.565"/></svg><svg x="7100"><use xlink:href="#a"/><use xlink:href="#b" x="-.004" y="41.224"/><use xlink:href="#1" y="2.171"/><use xlink:href="#2" y="4.342"/><use xlink:href="#3" y="6.513"/><use xlink:href="#22" y="10.855"/><use xlink:href="#23" y="15.197"/><use xlink:href="#24" y="17.368"/><use xlink:href="#25" y="19.539"/><use xlink:href="#26" y="21.71"/><use xlink:href="#27" y="23.881"/><use xlink:href="#28" y="26.052"/><use xlink:href="#29" y="28.223"/><use xlink:href="#31" y="32.565"/><use xlink:href="#32" y="36.907"/><use xlink:href="#24" y="39.078"/></svg><svg x="7200"><use xlink:href="#a"/><use xlink:href="#b" x="-.004" y="67.276"/><use xlink:href="#1" y="2.171"/><use xlink:href="#2" y="4.342"/><use xlink:href="#3" y="6.513"/><use xlink:href="#22" y="10.855"/><use xlink:href="#23" y="15.197"/><use xlink:href="#24" y="17.368"/><use xlink:href="#25" y="19.539"/><use xlink:href="#26" y="21.71"/><use xlink:href="#27" y="23.881"/><use xlink:href="#28" y="26.052"/><use xlink:href="#29" y="28.223"/><use xlink:href="#31" y="32.565"/><use xlink:href="#32" y="36.907"/><use xlink:href="#24" y="39.078"/><use xlink:href="#33" y="41.249"/><use xlink:href="#34" y="43.42"/><use xlink:href="#35" y="45.591"/><use xlink:href="#36" y="47.762"/><use xlink:href="#37" y="49.933"/><use xlink:href="#38" y="52.104"/><use xlink:href="#39" y="54.275"/><use xlink:href="#40" y="56.446"/><use xlink:href="#41" y="58.617"/><use xlink:href="#42" y="60.788"/><use xlink:href="#43" y="62.959"/><use xlink:href="#44" y="65.13"/></svg><svg x="7300"><use xlink:href="#a"/><use xlink:href="#b" x="-.004" y="69.447"/><use xlink:href="#22"/><use xlink:href="#23" y="4.342"/><use xlink:href="#24" y="6.513"/><use xlink:href="#25" y="8.684"/><use xlink:href="#26" y="10.855"/><use xlink:href="#27" y="13.026"/><use xlink:href="#28" y="15.197"/><use xlink:href="#29" y="17.368"/><use xlink:href="#31" y="21.71"/><use xlink:href="#32" y="26.052"/><use xlink:href="#24" y="28.223"/><use xlink:href="#33" y="30.394"/><use xlink:href="#34" y="32.565"/><use xlink:href="#35" y="34.736"/><use xlink:href="#36" y="36.907"/><use xlink:href="#37" y="39.078"/><use xlink:href="#38" y="41.249"/><use xlink:href="#39" y="43.42"/><use xlink:href="#40" y="45.591"/><use xlink:href="#41" y="47.762"/><use xlink:href="#42" y="49.933"/><use xlink:href="#43" y="52.104"/><use xlink:href="#44" y="54.275"/><use xlink:href="#45" y="56.446"/><use xlink:href="#46" y="58.617"/><use xlink:href="#41" y="60.788"/><use xlink:href="#47" y="62.959"/><use xlink:href="#48" y="65.13"/><use xlink:href="#49" y="67.301"/></svg><svg x="7400"><use xlink:href="#a"/><use xlink:href="#b" x="-.004" y="69.447"/><use xlink:href="#23" y="2.171"/><use xlink:href="#24" y="4.342"/><use xlink:href="#25" y="6.513"/><use xlink:href="#26" y="8.684"/><use xlink:href="#27" y="10.855"/><use xlink:href="#28" y="13.026"/><use xlink:href="#29" y="15.197"/><use xlink:href="#31" y="19.539"/><use xlink:href="#32" y="23.881"/><use xlink:href="#24" y="26.052"/><use xlink:href="#33" y="28.223"/><use xlink:href="#34" y="30.394"/><use xlink:href="#35" y="32.565"/><use xlink:href="#36" y="34.736"/><use xlink:href="#37" y="36.907"/><use xlink:href="#38" y="39.078"/><use xlink:href="#39" y="41.249"/><use xlink:href="#40" y="43.42"/><use xlink:href="#41" y="45.591"/><use xlink:href="#42" y="47.762"/><use xlink:href="#43" y="49.933"/><use xlink:href="#44" y="52.104"/><use xlink:href="#45" y="54.275"/><use xlink:href="#46" y="56.446"/><use xlink:href="#41" y="58.617"/><use xlink:href="#47" y="60.788"/><use xlink:href="#48" y="62.959"/><use xlink:href="#49" y="65.13"/></svg><svg x="7500"><use xlink:href="#a"/><use xlink:href="#b" x="-.004" y="69.447"/><use xlink:href="#23"/><use xlink:href="#24" y="2.171"/><use xlink:href="#25" y="4.342"/><use xlink:href="#26" y="6.513"/><use xlink:href="#27" y="8.684"/><use xlink:href="#28" y="10.855"/><use xlink:href="#29" y="13.026"/><use xlink:href="#31" y="17.368"/><use xlink:href="#32" y="21.71"/><use xlink:href="#24" y="23.881"/><use xlink:href="#33" y="26.052"/><use xlink:href="#34" y="28.223"/><use xlink:href="#35" y="30.394"/><use xlink:href="#36" y="32.565"/><use xlink:href="#37" y="34.736"/><use xlink:href="#38" y="36.907"/><use xlink:href="#39" y="39.078"/><use xlink:href="#40" y="41.249"/><use xlink:href="#41" y="43.42"/><use xlink:href="#42" y="45.591"/><use xlink:href="#43" y="47.762"/><use xlink:href="#44" y="49.933"/><use xlink:href="#45" y="52.104"/><use xlink:href="#46" y="54.275"/><use xlink:href="#41" y="56.446"/><use xlink:href="#47" y="58.617"/><use xlink:href="#48" y="60.788"/><use xlink:href="#49" y="62.959"/><text y="68.971" class="n">&gt;&gt;&gt;</text><text x="4.008" y="68.971" class="n">ALLOW</text><text x="10.02" y="68.971" class="i">config</text><text x="17.034" y="68.971" class="i">errors</text><text x="24.048" y="68.971" class="i">caught</text><text x="31.062" y="68.971" class="i">at</text><text x="34.068" y="68.971" class="i">load,</text><text x="40.08" y="68.971" class="i">not</text><text x="44.088" y="68.971" class="i">at</text><text x="47.094" y="68.971" class="i">2am</text></svg></svg></g></g></svg></svg>