<svg xmlns="http://www.w3.org/2000/svg" xmlns:xlink="http://www.w3.org/1999/xlink" width="1072" height="786.72"><rect width="1072" height="786.72" rx="5" ry="5" class="a"/><svg y="0%" x="0%"><circle cx="20" cy="20" r="6" fill="#ff5f58"/><circle cx="40" cy="20" r="6" fill="#ffbd2e"/><circle cx="60" cy="20" r="6" fill="#18c132"/></svg><svg height="694.72" viewBox="0 0 100 69.472" width="1000" x="31" xmlns="http://www.w3.org/2000/svg" xmlns:xlink="http://www.w3.org/1999/xlink" y="66"><style>@keyframes l{0%{transform:translateX(0)}.3%{transform:translateX(-100px)}25.3%{transform:translateX(-200px)}25.8%{transform:translateX(-300px)}26.3%{transform:translateX(-400px)}26.9%{transform:translateX(-500px)}27.4%{transform:translateX(-600px)}27.9%{transform:translateX(-700px)}28.4%{transform:translateX(-800px)}28.9%{transform:translateX(-900px)}29.4%{transform:translateX(-1000px)}29.9%{transform:translateX(-1100px)}30.4%{transform:translateX(-1200px)}30.9%{transform:translateX(-1300px)}31.4%{transform:translateX(-1400px)}31.9%{transform:translateX(-1500px)}32.4%{transform:translateX(-1600px)}32.9%{transform:translateX(-1700px)}33.4%{transform:translateX(-1800px)}33.9%{transform:translateX(-1900px)}34.4%{transform:translateX(-2000px)}34.9%{transform:translateX(-2100px)}35.4%{transform:translateX(-2200px)}35.9%{transform:translateX(-2300px)}36.4%{transform:translateX(-2400px)}36.9%{transform:translateX(-2500px)}37.4%{transform:translateX(-2600px)}37.9%{transform:translateX(-2700px)}38.4%{transform:translateX(-2800px)}38.9%{transform:translateX(-2900px)}39.4%{transform:translateX(-3000px)}40%{transform:translateX(-3100px)}40.5%{transform:translateX(-3200px)}53.3%{transform:translateX(-3500px)}72.1%{transform:translateX(-3600px)}72.6%{transform:translateX(-3700px)}73.1%{transform:translateX(-3800px)}73.6%{transform:translateX(-3900px)}74.1%{transform:translateX(-4000px)}74.6%{transform:translateX(-4100px)}75.1%{transform:translateX(-4200px)}75.6%{transform:translateX(-4300px)}76.1%{transform:translateX(-4400px)}76.6%{transform:translateX(-4500px)}77.1%{transform:translateX(-4600px)}77.6%{transform:translateX(-4700px)}78.1%{transform:translateX(-4800px)}78.6%{transform:translateX(-4900px)}79.1%{transform:translateX(-5000px)}79.6%{transform:translateX(-5100px)}80.1%{transform:translateX(-5200px)}80.6%{transform:translateX(-5300px)}81.1%{transform:translateX(-5400px)}81.6%{transform:translateX(-5500px)}82.1%{transform:translateX(-5600px)}82.6%{transform:translateX(-5700px)}83.1%{transform:translateX(-5800px)}83.6%{transform:translateX(-5900px)}84.1%{transform:translateX(-6000px)}84.6%{transform:translateX(-6100px)}85.1%{transform:translateX(-6200px)}85.6%{transform:translateX(-6300px)}86.2%{transform:translateX(-6400px)}86.7%{transform:translateX(-6500px)}87.2%{transform:translateX(-6600px)}}.a{fill:#1a1a1f}.g,.i,.n{fill:#b9c0cb;white-space:pre}.i,.n{fill:#a8cc8c}.n{font-weight:700}</style><g font-family="Monaco,Consolas,Menlo,'Bitstream Vera Sans Mono','Powerline Symbols',monospace" font-size="1.67"><defs><symbol id="1"><text y="1.67" style="white-space:pre" fill="#fff" font-weight="700">infra-cloud</text></symbol><symbol id="2"><text y="1.67" class="g">Cloud</text><text x="6.012" y="1.67" class="g">auth</text><text x="11.022" y="1.67" class="g">and</text><text x="15.03" y="1.67" class="g">config</text><text x="22.044" y="1.67" class="g">sync</text><text x="27.054" y="1.67" class="g">from</text><text x="32.064" y="1.67" class="g">the</text><text x="36.072" y="1.67" class="g">CLI</text></symbol><symbol id="3"><text y="1.67" style="white-space:pre" fill="#66c2cd">━━━━━━━━━━━━━━━━━━━━━━━━━━━━━━━━━━━━━━━━━━━━━━━━━━━━━━━━━━━━━━</text></symbol><symbol id="4"><text y="1.67" class="i">$</text><text x="2.004" y="1.67" class="g">s</text></symbol><symbol id="5"><text y="1.67" class="i">$</text><text x="2.004" y="1.67" class="g">sy</text></symbol><symbol id="6"><text y="1.67" class="i">$</text><text x="2.004" y="1.67" class="g">sys</text></symbol><symbol id="7"><text y="1.67" class="i">$</text><text x="2.004" y="1.67" class="g">syst</text></symbol><symbol id="8"><text y="1.67" class="i">$</text><text x="2.004" y="1.67" class="g">syste</text></symbol><symbol id="9"><text y="1.67" class="i">$</text><text x="2.004" y="1.67" class="g">system</text></symbol><symbol id="10"><text y="1.67" class="i">$</text><text x="2.004" y="1.67" class="g">systemp</text></symbol><symbol id="11"><text y="1.67" class="i">$</text><text x="2.004" y="1.67" class="g">systempr</text></symbol><symbol id="12"><text y="1.67" class="i">$</text><text x="2.004" y="1.67" class="g">systempro</text></symbol><symbol id="13"><text y="1.67" class="i">$</text><text x="2.004" y="1.67" class="g">systemprom</text></symbol><symbol id="14"><text y="1.67" class="i">$</text><text x="2.004" y="1.67" class="g">systempromp</text></symbol><symbol id="15"><text y="1.67" class="i">$</text><text x="2.004" y="1.67" class="g">systemprompt</text></symbol><symbol id="16"><text y="1.67" class="i">$</text><text x="2.004" y="1.67" class="g">systemprompt</text><text x="15.03" y="1.67" class="g">c</text></symbol><symbol id="17"><text y="1.67" class="i">$</text><text x="2.004" y="1.67" class="g">systemprompt</text><text x="15.03" y="1.67" class="g">cl</text></symbol><symbol id="18"><text y="1.67" class="i">$</text><text x="2.004" y="1.67" class="g">systemprompt</text><text x="15.03" y="1.67" class="g">clo</text></symbol><symbol id="19"><text y="1.67" class="i">$</text><text x="2.004" y="1.67" class="g">systemprompt</text><text x="15.03" y="1.67" class="g">clou</text></symbol><symbol id="20"><text y="1.67" class="i">$</text><text x="2.004" y="1.67" class="g">systemprompt</text><text x="15.03" y="1.67" class="g">cloud</text></symbol><symbol id="21"><text y="1.67" class="i">$</text><text x="2.004" y="1.67" class="g">systemprompt</text><text x="15.03" y="1.67" class="g">cloud</text><text x="21.042" y="1.67" class="g">auth</text></symbol><symbol id="22"><text y="1.67" class="i">$</text><text x="2.004" y="1.67" class="g">systemprompt</text><text x="15.03" y="1.67" class="g">cloud</text><text x="21.042" y="1.67" class="g">auth</text><text x="26.052" y="1.67" class="g">status</text></symbol><symbol id="23"><text x="4.008" y="1.67" class="g">error:</text><text x="11.022" y="1.67" class="g">unrecognized</text><text x="24.048" y="1.67" class="g">subcommand</text><text x="35.07" y="1.67" class="g">&apos;status&apos;</text></symbol><symbol id="24"><text x="4.008" y="1.67" class="g">Usage:</text><text x="11.022" y="1.67" class="g">systemprompt</text><text x="24.048" y="1.67" class="g">cloud</text><text x="30.06" y="1.67" class="g">auth</text><text x="35.07" y="1.67" class="g">[OPTIONS]</text><text x="45.09" y="1.67" class="g">&lt;COMMAND&gt;</text></symbol><symbol id="25"><text x="4.008" y="1.67" class="g">For</text><text x="8.016" y="1.67" class="g">more</text><text x="13.026" y="1.67" class="g">information,</text><text x="26.052" y="1.67" class="g">try</text><text x="30.06" y="1.67" class="g">&apos;--help&apos;.</text></symbol><symbol id="26"><text y="1.67" class="i">$</text><text x="2.004" y="1.67" class="g">systemprompt</text><text x="15.03" y="1.67" class="g">cloud</text><text x="21.042" y="1.67" class="g">sync</text></symbol><symbol id="27"><text y="1.67" class="i">$</text><text x="2.004" y="1.67" class="g">systemprompt</text><text x="15.03" y="1.67" class="g">cloud</text><text x="21.042" y="1.67" class="g">sync</text><text x="26.052" y="1.67" class="g">status</text></symbol><symbol id="28"><text x="4.008" y="1.67" class="g">Usage:</text><text x="11.022" y="1.67" class="g">systemprompt</text><text x="24.048" y="1.67" class="g">cloud</text><text x="30.06" y="1.67" class="g">sync</text><text x="35.07" y="1.67" class="g">[OPTIONS]</text><text x="45.09" y="1.67" class="g">[COMMAND]</text></symbol><symbol id="a"><path fill="transparent" d="M0 0h100v33H0z"/></symbol><symbol id="b"><path fill="#f79938" d="M0 0h1.102v2.171H0z"/></symbol></defs><path class="a" d="M0 0h100v69.472H0z"/><svg width="7100"><svg><use xlink:href="#a"/><use xlink:href="#b" x="-.004"/></svg><svg x="100"><use xlink:href="#a"/><use xlink:href="#b" x="-.004" y="10.83"/><use xlink:href="#1" y="2.171"/><use xlink:href="#2" y="4.342"/><use xlink:href="#3" y="6.513"/></svg><svg x="200"><use xlink:href="#a"/><use xlink:href="#b" x="2.996" y="10.83"/><use xlink:href="#1" y="2.171"/><use xlink:href="#2" y="4.342"/><use xlink:href="#3" y="6.513"/><use xlink:href="#4" y="10.855"/></svg><svg x="300"><use xlink:href="#a"/><use xlink:href="#b" x="3.996" y="10.83"/><use xlink:href="#1" y="2.171"/><use xlink:href="#2" y="4.342"/><use xlink:href="#3" y="6.513"/><use xlink:href="#5" y="10.855"/></svg><svg x="400"><use xlink:href="#a"/><use xlink:href="#b" x="4.996" y="10.83"/><use xlink:href="#1" y="2.171"/><use xlink:href="#2" y="4.342"/><use xlink:href="#3" y="6.513"/><use xlink:href="#6" y="10.855"/></svg><svg x="500"><use xlink:href="#a"/><use xlink:href="#b" x="5.996" y="10.83"/><use xlink:href="#1" y="2.171"/><use xlink:href="#2" y="4.342"/><use xlink:href="#3" y="6.513"/><use xlink:href="#7" y="10.855"/></svg><svg x="600"><use xlink:href="#a"/><use xlink:href="#b" x="6.996" y="10.83"/><use xlink:href="#1" y="2.171"/><use xlink:href="#2" y="4.342"/><use xlink:href="#3" y="6.513"/><use xlink:href="#8" y="10.855"/></svg><svg x="700"><use xlink:href="#a"/><use xlink:href="#b" x="7.996" y="10.83"/><use xlink:href="#1" y="2.171"/><use xlink:href="#2" y="4.342"/><use xlink:href="#3" y="6.513"/><use xlink:href="#9" y="10.855"/></svg><svg x="800"><use xlink:href="#a"/><use xlink:href="#b" x="8.996" y="10.83"/><use xlink:href="#1" y="2.171"/><use xlink:href="#2" y="4.342"/><use xlink:href="#3" y="6.513"/><use xlink:href="#10" y="10.855"/></svg><svg x="900"><use xlink:href="#a"/><use xlink:href="#b" x="9.996" y="10.83"/><use xlink:href="#1" y="2.171"/><use xlink:href="#2" y="4.342"/><use xlink:href="#3" y="6.513"/><use xlink:href="#11" y="10.855"/></svg><svg x="1000"><use xlink:href="#a"/><use xlink:href="#b" x="10.996" y="10.83"/><use xlink:href="#1" y="2.171"/><use xlink:href="#2" y="4.342"/><use xlink:href="#3" y="6.513"/><use xlink:href="#12" y="10.855"/></svg><svg x="1100"><use xlink:href="#a"/><use xlink:href="#b" x="11.996" y="10.83"/><use xlink:href="#1" y="2.171"/><use xlink:href="#2" y="4.342"/><use xlink:href="#3" y="6.513"/><use xlink:href="#13" y="10.855"/></svg><svg x="1200"><use xlink:href="#a"/><use xlink:href="#b" x="12.996" y="10.83"/><use xlink:href="#1" y="2.171"/><use xlink:href="#2" y="4.342"/><use xlink:href="#3" y="6.513"/><use xlink:href="#14" y="10.855"/></svg><svg x="1300"><use xlink:href="#a"/><use xlink:href="#b" x="13.996" y="10.83"/><use xlink:href="#1" y="2.171"/><use xlink:href="#2" y="4.342"/><use xlink:href="#3" y="6.513"/><use xlink:href="#15" y="10.855"/></svg><svg x="1400"><use xlink:href="#a"/><use xlink:href="#b" x="14.996" y="10.83"/><use xlink:href="#1" y="2.171"/><use xlink:href="#2" y="4.342"/><use xlink:href="#3" y="6.513"/><use xlink:href="#15" y="10.855"/></svg><svg x="1500"><use xlink:href="#a"/><use xlink:href="#b" x="15.996" y="10.83"/><use xlink:href="#1" y="2.171"/><use xlink:href="#2" y="4.342"/><use xlink:href="#3" y="6.513"/><use xlink:href="#16" y="10.855"/></svg><svg x="1600"><use xlink:href="#a"/><use xlink:href="#b" x="16.996" y="10.83"/><use xlink:href="#1" y="2.171"/><use xlink:href="#2" y="4.342"/><use xlink:href="#3" y="6.513"/><use xlink:href="#17" y="10.855"/></svg><svg x="1700"><use xlink:href="#a"/><use xlink:href="#b" x="17.996" y="10.83"/><use xlink:href="#1" y="2.171"/><use xlink:href="#2" y="4.342"/><use xlink:href="#3" y="6.513"/><use xlink:href="#18" y="10.855"/></svg><svg x="1800"><use xlink:href="#a"/><use xlink:href="#b" x="18.996" y="10.83"/><use xlink:href="#1" y="2.171"/><use xlink:href="#2" y="4.342"/><use xlink:href="#3" y="6.513"/><use xlink:href="#19" y="10.855"/></svg><svg x="1900"><use xlink:href="#a"/><use xlink:href="#b" x="19.996" y="10.83"/><use xlink:href="#1" y="2.171"/><use xlink:href="#2" y="4.342"/><use xlink:href="#3" y="6.513"/><use xlink:href="#20" y="10.855"/></svg><svg x="2000"><use xlink:href="#a"/><use xlink:href="#b" x="20.996" y="10.83"/><use xlink:href="#1" y="2.171"/><use xlink:href="#2" y="4.342"/><use xlink:href="#3" y="6.513"/><use xlink:href="#20" y="10.855"/></svg><svg x="2100"><use xlink:href="#a"/><use xlink:href="#b" x="21.996" y="10.83"/><use xlink:href="#1" y="2.171"/><use xlink:href="#2" y="4.342"/><use xlink:href="#3" y="6.513"/><text y="12.525" class="i">$</text><text x="2.004" y="12.525" class="g">systemprompt</text><text x="15.03" y="12.525" class="g">cloud</text><text x="21.042" y="12.525" class="g">a</text></svg><svg x="2200"><use xlink:href="#a"/><use xlink:href="#b" x="22.996" y="10.83"/><use xlink:href="#1" y="2.171"/><use xlink:href="#2" y="4.342"/><use xlink:href="#3" y="6.513"/><text y="12.525" class="i">$</text><text x="2.004" y="12.525" class="g">systemprompt</text><text x="15.03" y="12.525" class="g">cloud</text><text x="21.042" y="12.525" class="g">au</text></svg><svg x="2300"><use xlink:href="#a"/><use xlink:href="#b" x="23.996" y="10.83"/><use xlink:href="#1" y="2.171"/><use xlink:href="#2" y="4.342"/><use xlink:href="#3" y="6.513"/><text y="12.525" class="i">$</text><text x="2.004" y="12.525" class="g">systemprompt</text><text x="15.03" y="12.525" class="g">cloud</text><text x="21.042" y="12.525" class="g">aut</text></svg><svg x="2400"><use xlink:href="#a"/><use xlink:href="#b" x="24.996" y="10.83"/><use xlink:href="#1" y="2.171"/><use xlink:href="#2" y="4.342"/><use xlink:href="#3" y="6.513"/><use xlink:href="#21" y="10.855"/></svg><svg x="2500"><use xlink:href="#a"/><use xlink:href="#b" x="25.996" y="10.83"/><use xlink:href="#1" y="2.171"/><use xlink:href="#2" y="4.342"/><use xlink:href="#3" y="6.513"/><use xlink:href="#21" y="10.855"/></svg><svg x="2600"><use xlink:href="#a"/><use xlink:href="#b" x="26.996" y="10.83"/><use xlink:href="#1" y="2.171"/><use xlink:href="#2" y="4.342"/><use xlink:href="#3" y="6.513"/><text y="12.525" class="i">$</text><text x="2.004" y="12.525" class="g">systemprompt</text><text x="15.03" y="12.525" class="g">cloud</text><text x="21.042" y="12.525" class="g">auth</text><text x="26.052" y="12.525" class="g">s</text></svg><svg x="2700"><use xlink:href="#a"/><use xlink:href="#b" x="27.996" y="10.83"/><use xlink:href="#1" y="2.171"/><use xlink:href="#2" y="4.342"/><use xlink:href="#3" y="6.513"/><text y="12.525" class="i">$</text><text x="2.004" y="12.525" class="g">systemprompt</text><text x="15.03" y="12.525" class="g">cloud</text><text x="21.042" y="12.525" class="g">auth</text><text x="26.052" y="12.525" class="g">st</text></svg><svg x="2800"><use xlink:href="#a"/><use xlink:href="#b" x="28.996" y="10.83"/><use xlink:href="#1" y="2.171"/><use xlink:href="#2" y="4.342"/><use xlink:href="#3" y="6.513"/><text y="12.525" class="i">$</text><text x="2.004" y="12.525" class="g">systemprompt</text><text x="15.03" y="12.525" class="g">cloud</text><text x="21.042" y="12.525" class="g">auth</text><text x="26.052" y="12.525" class="g">sta</text></svg><svg x="2900"><use xlink:href="#a"/><use xlink:href="#b" x="29.996" y="10.83"/><use xlink:href="#1" y="2.171"/><use xlink:href="#2" y="4.342"/><use xlink:href="#3" y="6.513"/><text y="12.525" class="i">$</text><text x="2.004" y="12.525" class="g">systemprompt</text><text x="15.03" y="12.525" class="g">cloud</text><text x="21.042" y="12.525" class="g">auth</text><text x="26.052" y="12.525" class="g">stat</text></svg><svg x="3000"><use xlink:href="#a"/><use xlink:href="#b" x="30.996" y="10.83"/><use xlink:href="#1" y="2.171"/><use xlink:href="#2" y="4.342"/><use xlink:href="#3" y="6.513"/><text y="12.525" class="i">$</text><text x="2.004" y="12.525" class="g">systemprompt</text><text x="15.03" y="12.525" class="g">cloud</text><text x="21.042" y="12.525" class="g">auth</text><text x="26.052" y="12.525" class="g">statu</text></svg><svg x="3100"><use xlink:href="#a"/><use xlink:href="#b" x="31.996" y="10.83"/><use xlink:href="#1" y="2.171"/><use xlink:href="#2" y="4.342"/><use xlink:href="#3" y="6.513"/><use xlink:href="#22" y="10.855"/></svg><svg x="3200"><use xlink:href="#a"/><use xlink:href="#b" x="-.004" y="13.001"/><use xlink:href="#1" y="2.171"/><use xlink:href="#2" y="4.342"/><use xlink:href="#3" y="6.513"/><use xlink:href="#22" y="10.855"/></svg><svg x="3300"><use xlink:href="#a"/><use xlink:href="#b" x="-.004" y="17.343"/><use xlink:href="#1" y="2.171"/><use xlink:href="#2" y="4.342"/><use xlink:href="#3" y="6.513"/><use xlink:href="#22" y="10.855"/><use xlink:href="#23" y="13.026"/></svg><svg x="3400"><use xlink:href="#a"/><use xlink:href="#b" x="-.004" y="23.856"/><use xlink:href="#1" y="2.171"/><use xlink:href="#2" y="4.342"/><use xlink:href="#3" y="6.513"/><use xlink:href="#22" y="10.855"/><use xlink:href="#23" y="13.026"/><use xlink:href="#24" y="17.368"/><use xlink:href="#25" y="21.71"/></svg><svg x="3500"><use xlink:href="#a"/><use xlink:href="#b" x="-.004" y="26.027"/><use xlink:href="#1" y="2.171"/><use xlink:href="#2" y="4.342"/><use xlink:href="#3" y="6.513"/><use xlink:href="#22" y="10.855"/><use xlink:href="#23" y="13.026"/><use xlink:href="#24" y="17.368"/><use xlink:href="#25" y="21.71"/></svg><svg x="3600"><use xlink:href="#a"/><use xlink:href="#b" x="2.996" y="26.027"/><use xlink:href="#1" y="2.171"/><use xlink:href="#2" y="4.342"/><use xlink:href="#3" y="6.513"/><use xlink:href="#22" y="10.855"/><use xlink:href="#23" y="13.026"/><use xlink:href="#24" y="17.368"/><use xlink:href="#25" y="21.71"/><use xlink:href="#4" y="26.052"/></svg><svg x="3700"><use xlink:href="#a"/><use xlink:href="#b" x="3.996" y="26.027"/><use xlink:href="#1" y="2.171"/><use xlink:href="#2" y="4.342"/><use xlink:href="#3" y="6.513"/><use xlink:href="#22" y="10.855"/><use xlink:href="#23" y="13.026"/><use xlink:href="#24" y="17.368"/><use xlink:href="#25" y="21.71"/><use xlink:href="#5" y="26.052"/></svg><svg x="3800"><use xlink:href="#a"/><use xlink:href="#b" x="4.996" y="26.027"/><use xlink:href="#1" y="2.171"/><use xlink:href="#2" y="4.342"/><use xlink:href="#3" y="6.513"/><use xlink:href="#22" y="10.855"/><use xlink:href="#23" y="13.026"/><use xlink:href="#24" y="17.368"/><use xlink:href="#25" y="21.71"/><use xlink:href="#6" y="26.052"/></svg><svg x="3900"><use xlink:href="#a"/><use xlink:href="#b" x="5.996" y="26.027"/><use xlink:href="#1" y="2.171"/><use xlink:href="#2" y="4.342"/><use xlink:href="#3" y="6.513"/><use xlink:href="#22" y="10.855"/><use xlink:href="#23" y="13.026"/><use xlink:href="#24" y="17.368"/><use xlink:href="#25" y="21.71"/><use xlink:href="#7" y="26.052"/></svg><svg x="4000"><use xlink:href="#a"/><use xlink:href="#b" x="6.996" y="26.027"/><use xlink:href="#1" y="2.171"/><use xlink:href="#2" y="4.342"/><use xlink:href="#3" y="6.513"/><use xlink:href="#22" y="10.855"/><use xlink:href="#23" y="13.026"/><use xlink:href="#24" y="17.368"/><use xlink:href="#25" y="21.71"/><use xlink:href="#8" y="26.052"/></svg><svg x="4100"><use xlink:href="#a"/><use xlink:href="#b" x="7.996" y="26.027"/><use xlink:href="#1" y="2.171"/><use xlink:href="#2" y="4.342"/><use xlink:href="#3" y="6.513"/><use xlink:href="#22" y="10.855"/><use xlink:href="#23" y="13.026"/><use xlink:href="#24" y="17.368"/><use xlink:href="#25" y="21.71"/><use xlink:href="#9" y="26.052"/></svg><svg x="4200"><use xlink:href="#a"/><use xlink:href="#b" x="8.996" y="26.027"/><use xlink:href="#1" y="2.171"/><use xlink:href="#2" y="4.342"/><use xlink:href="#3" y="6.513"/><use xlink:href="#22" y="10.855"/><use xlink:href="#23" y="13.026"/><use xlink:href="#24" y="17.368"/><use xlink:href="#25" y="21.71"/><use xlink:href="#10" y="26.052"/></svg><svg x="4300"><use xlink:href="#a"/><use xlink:href="#b" x="9.996" y="26.027"/><use xlink:href="#1" y="2.171"/><use xlink:href="#2" y="4.342"/><use xlink:href="#3" y="6.513"/><use xlink:href="#22" y="10.855"/><use xlink:href="#23" y="13.026"/><use xlink:href="#24" y="17.368"/><use xlink:href="#25" y="21.71"/><use xlink:href="#11" y="26.052"/></svg><svg x="4400"><use xlink:href="#a"/><use xlink:href="#b" x="10.996" y="26.027"/><use xlink:href="#1" y="2.171"/><use xlink:href="#2" y="4.342"/><use xlink:href="#3" y="6.513"/><use xlink:href="#22" y="10.855"/><use xlink:href="#23" y="13.026"/><use xlink:href="#24" y="17.368"/><use xlink:href="#25" y="21.71"/><use xlink:href="#12" y="26.052"/></svg><svg x="4500"><use xlink:href="#a"/><use xlink:href="#b" x="11.996" y="26.027"/><use xlink:href="#1" y="2.171"/><use xlink:href="#2" y="4.342"/><use xlink:href="#3" y="6.513"/><use xlink:href="#22" y="10.855"/><use xlink:href="#23" y="13.026"/><use xlink:href="#24" y="17.368"/><use xlink:href="#25" y="21.71"/><use xlink:href="#13" y="26.052"/></svg><svg x="4600"><use xlink:href="#a"/><use xlink:href="#b" x="12.996" y="26.027"/><use xlink:href="#1" y="2.171"/><use xlink:href="#2" y="4.342"/><use xlink:href="#3" y="6.513"/><use xlink:href="#22" y="10.855"/><use xlink:href="#23" y="13.026"/><use xlink:href="#24" y="17.368"/><use xlink:href="#25" y="21.71"/><use xlink:href="#14" y="26.052"/></svg><svg x="4700"><use xlink:href="#a"/><use xlink:href="#b" x="13.996" y="26.027"/><use xlink:href="#1" y="2.171"/><use xlink:href="#2" y="4.342"/><use xlink:href="#3" y="6.513"/><use xlink:href="#22" y="10.855"/><use xlink:href="#23" y="13.026"/><use xlink:href="#24" y="17.368"/><use xlink:href="#25" y="21.71"/><use xlink:href="#15" y="26.052"/></svg><svg x="4800"><use xlink:href="#a"/><use xlink:href="#b" x="14.996" y="26.027"/><use xlink:href="#1" y="2.171"/><use xlink:href="#2" y="4.342"/><use xlink:href="#3" y="6.513"/><use xlink:href="#22" y="10.855"/><use xlink:href="#23" y="13.026"/><use xlink:href="#24" y="17.368"/><use xlink:href="#25" y="21.71"/><use xlink:href="#15" y="26.052"/></svg><svg x="4900"><use xlink:href="#a"/><use xlink:href="#b" x="15.996" y="26.027"/><use xlink:href="#1" y="2.171"/><use xlink:href="#2" y="4.342"/><use xlink:href="#3" y="6.513"/><use xlink:href="#22" y="10.855"/><use xlink:href="#23" y="13.026"/><use xlink:href="#24" y="17.368"/><use xlink:href="#25" y="21.71"/><use xlink:href="#16" y="26.052"/></svg><svg x="5000"><use xlink:href="#a"/><use xlink:href="#b" x="16.996" y="26.027"/><use xlink:href="#1" y="2.171"/><use xlink:href="#2" y="4.342"/><use xlink:href="#3" y="6.513"/><use xlink:href="#22" y="10.855"/><use xlink:href="#23" y="13.026"/><use xlink:href="#24" y="17.368"/><use xlink:href="#25" y="21.71"/><use xlink:href="#17" y="26.052"/></svg><svg x="5100"><use xlink:href="#a"/><use xlink:href="#b" x="17.996" y="26.027"/><use xlink:href="#1" y="2.171"/><use xlink:href="#2" y="4.342"/><use xlink:href="#3" y="6.513"/><use xlink:href="#22" y="10.855"/><use xlink:href="#23" y="13.026"/><use xlink:href="#24" y="17.368"/><use xlink:href="#25" y="21.71"/><use xlink:href="#18" y="26.052"/></svg><svg x="5200"><use xlink:href="#a"/><use xlink:href="#b" x="18.996" y="26.027"/><use xlink:href="#1" y="2.171"/><use xlink:href="#2" y="4.342"/><use xlink:href="#3" y="6.513"/><use xlink:href="#22" y="10.855"/><use xlink:href="#23" y="13.026"/><use xlink:href="#24" y="17.368"/><use xlink:href="#25" y="21.71"/><use xlink:href="#19" y="26.052"/></svg><svg x="5300"><use xlink:href="#a"/><use xlink:href="#b" x="19.996" y="26.027"/><use xlink:href="#1" y="2.171"/><use xlink:href="#2" y="4.342"/><use xlink:href="#3" y="6.513"/><use xlink:href="#22" y="10.855"/><use xlink:href="#23" y="13.026"/><use xlink:href="#24" y="17.368"/><use xlink:href="#25" y="21.71"/><use xlink:href="#20" y="26.052"/></svg><svg x="5400"><use xlink:href="#a"/><use xlink:href="#b" x="20.996" y="26.027"/><use xlink:href="#1" y="2.171"/><use xlink:href="#2" y="4.342"/><use xlink:href="#3" y="6.513"/><use xlink:href="#22" y="10.855"/><use xlink:href="#23" y="13.026"/><use xlink:href="#24" y="17.368"/><use xlink:href="#25" y="21.71"/><use xlink:href="#20" y="26.052"/></svg><svg x="5500"><use xlink:href="#a"/><use xlink:href="#b" x="21.996" y="26.027"/><use xlink:href="#1" y="2.171"/><use xlink:href="#2" y="4.342"/><use xlink:href="#3" y="6.513"/><use xlink:href="#22" y="10.855"/><use xlink:href="#23" y="13.026"/><use xlink:href="#24" y="17.368"/><use xlink:href="#25" y="21.71"/><text y="27.722" class="i">$</text><text x="2.004" y="27.722" class="g">systemprompt</text><text x="15.03" y="27.722" class="g">cloud</text><text x="21.042" y="27.722" class="g">s</text></svg><svg x="5600"><use xlink:href="#a"/><use xlink:href="#b" x="22.996" y="26.027"/><use xlink:href="#1" y="2.171"/><use xlink:href="#2" y="4.342"/><use xlink:href="#3" y="6.513"/><use xlink:href="#22" y="10.855"/><use xlink:href="#23" y="13.026"/><use xlink:href="#24" y="17.368"/><use xlink:href="#25" y="21.71"/><text y="27.722" class="i">$</text><text x="2.004" y="27.722" class="g">systemprompt</text><text x="15.03" y="27.722" class="g">cloud</text><text x="21.042" y="27.722" class="g">sy</text></svg><svg x="5700"><use xlink:href="#a"/><use xlink:href="#b" x="23.996" y="26.027"/><use xlink:href="#1" y="2.171"/><use xlink:href="#2" y="4.342"/><use xlink:href="#3" y="6.513"/><use xlink:href="#22" y="10.855"/><use xlink:href="#23" y="13.026"/><use xlink:href="#24" y="17.368"/><use xlink:href="#25" y="21.71"/><text y="27.722" class="i">$</text><text x="2.004" y="27.722" class="g">systemprompt</text><text x="15.03" y="27.722" class="g">cloud</text><text x="21.042" y="27.722" class="g">syn</text></svg><svg x="5800"><use xlink:href="#a"/><use xlink:href="#b" x="24.996" y="26.027"/><use xlink:href="#1" y="2.171"/><use xlink:href="#2" y="4.342"/><use xlink:href="#3" y="6.513"/><use xlink:href="#22" y="10.855"/><use xlink:href="#23" y="13.026"/><use xlink:href="#24" y="17.368"/><use xlink:href="#25" y="21.71"/><use xlink:href="#26" y="26.052"/></svg><svg x="5900"><use xlink:href="#a"/><use xlink:href="#b" x="25.996" y="26.027"/><use xlink:href="#1" y="2.171"/><use xlink:href="#2" y="4.342"/><use xlink:href="#3" y="6.513"/><use xlink:href="#22" y="10.855"/><use xlink:href="#23" y="13.026"/><use xlink:href="#24" y="17.368"/><use xlink:href="#25" y="21.71"/><use xlink:href="#26" y="26.052"/></svg><svg x="6000"><use xlink:href="#a"/><use xlink:href="#b" x="26.996" y="26.027"/><use xlink:href="#1" y="2.171"/><use xlink:href="#2" y="4.342"/><use xlink:href="#3" y="6.513"/><use xlink:href="#22" y="10.855"/><use xlink:href="#23" y="13.026"/><use xlink:href="#24" y="17.368"/><use xlink:href="#25" y="21.71"/><text y="27.722" class="i">$</text><text x="2.004" y="27.722" class="g">systemprompt</text><text x="15.03" y="27.722" class="g">cloud</text><text x="21.042" y="27.722" class="g">sync</text><text x="26.052" y="27.722" class="g">s</text></svg><svg x="6100"><use xlink:href="#a"/><use xlink:href="#b" x="27.996" y="26.027"/><use xlink:href="#1" y="2.171"/><use xlink:href="#2" y="4.342"/><use xlink:href="#3" y="6.513"/><use xlink:href="#22" y="10.855"/><use xlink:href="#23" y="13.026"/><use xlink:href="#24" y="17.368"/><use xlink:href="#25" y="21.71"/><text y="27.722" class="i">$</text><text x="2.004" y="27.722" class="g">systemprompt</text><text x="15.03" y="27.722" class="g">cloud</text><text x="21.042" y="27.722" class="g">sync</text><text x="26.052" y="27.722" class="g">st</text></svg><svg x="6200"><use xlink:href="#a"/><use xlink:href="#b" x="28.996" y="26.027"/><use xlink:href="#1" y="2.171"/><use xlink:href="#2" y="4.342"/><use xlink:href="#3" y="6.513"/><use xlink:href="#22" y="10.855"/><use xlink:href="#23" y="13.026"/><use xlink:href="#24" y="17.368"/><use xlink:href="#25" y="21.71"/><text y="27.722" class="i">$</text><text x="2.004" y="27.722" class="g">systemprompt</text><text x="15.03" y="27.722" class="g">cloud</text><text x="21.042" y="27.722" class="g">sync</text><text x="26.052" y="27.722" class="g">sta</text></svg><svg x="6300"><use xlink:href="#a"/><use xlink:href="#b" x="29.996" y="26.027"/><use xlink:href="#1" y="2.171"/><use xlink:href="#2" y="4.342"/><use xlink:href="#3" y="6.513"/><use xlink:href="#22" y="10.855"/><use xlink:href="#23" y="13.026"/><use xlink:href="#24" y="17.368"/><use xlink:href="#25" y="21.71"/><text y="27.722" class="i">$</text><text x="2.004" y="27.722" class="g">systemprompt</text><text x="15.03" y="27.722" class="g">cloud</text><text x="21.042" y="27.722" class="g">sync</text><text x="26.052" y="27.722" class="g">stat</text></svg><svg x="6400"><use xlink:href="#a"/><use xlink:href="#b" x="30.996" y="26.027"/><use xlink:href="#1" y="2.171"/><use xlink:href="#2" y="4.342"/><use xlink:href="#3" y="6.513"/><use xlink:href="#22" y="10.855"/><use xlink:href="#23" y="13.026"/><use xlink:href="#24" y="17.368"/><use xlink:href="#25" y="21.71"/><text y="27.722" class="i">$</text><text x="2.004" y="27.722" class="g">systemprompt</text><text x="15.03" y="27.722" class="g">cloud</text><text x="21.042" y="27.722" class="g">sync</text><text x="26.052" y="27.722" class="g">statu</text></svg><svg x="6500"><use xlink:href="#a"/><use xlink:href="#b" x="31.996" y="26.027"/><use xlink:href="#1" y="2.171"/><use xlink:href="#2" y="4.342"/><use xlink:href="#3" y="6.513"/><use xlink:href="#22" y="10.855"/><use xlink:href="#23" y="13.026"/><use xlink:href="#24" y="17.368"/><use xlink:href="#25" y="21.71"/><use xlink:href="#27" y="26.052"/></svg><svg x="6600"><use xlink:href="#a"/><use xlink:href="#b" x="-.004" y="28.198"/><use xlink:href="#1" y="2.171"/><use xlink:href="#2" y="4.342"/><use xlink:href="#3" y="6.513"/><use xlink:href="#22" y="10.855"/><use xlink:href="#23" y="13.026"/><use xlink:href="#24" y="17.368"/><use xlink:href="#25" y="21.71"/><use xlink:href="#27" y="26.052"/></svg><svg x="6700"><use xlink:href="#a"/><use xlink:href="#b" x="-.004" y="36.882"/><use xlink:href="#1" y="2.171"/><use xlink:href="#2" y="4.342"/><use xlink:href="#3" y="6.513"/><use xlink:href="#22" y="10.855"/><use xlink:href="#23" y="13.026"/><use xlink:href="#24" y="17.368"/><use xlink:href="#25" y="21.71"/><use xlink:href="#27" y="26.052"/><use xlink:href="#23" y="28.223"/><use xlink:href="#28" y="32.565"/></svg><svg x="6800"><use xlink:href="#a"/><use xlink:href="#b" x="-.004" y="39.053"/><use xlink:href="#1" y="2.171"/><use xlink:href="#2" y="4.342"/><use xlink:href="#3" y="6.513"/><use xlink:href="#22" y="10.855"/><use xlink:href="#23" y="13.026"/><use xlink:href="#24" y="17.368"/><use xlink:href="#25" y="21.71"/><use xlink:href="#27" y="26.052"/><use xlink:href="#23" y="28.223"/><use xlink:href="#28" y="32.565"/><use xlink:href="#25" y="36.907"/></svg><svg x="6900"><use xlink:href="#a"/><use xlink:href="#b" x="-.004" y="41.224"/><use xlink:href="#1" y="2.171"/><use xlink:href="#2" y="4.342"/><use xlink:href="#3" y="6.513"/><use xlink:href="#22" y="10.855"/><use xlink:href="#23" y="13.026"/><use xlink:href="#24" y="17.368"/><use xlink:href="#25" y="21.71"/><use xlink:href="#27" y="26.052"/><use xlink:href="#23" y="28.223"/><use xlink:href="#28" y="32.565"/><use xlink:href="#25" y="36.907"/></svg><svg x="7000"><use xlink:href="#a"/><use xlink:href="#b" x="-.004" y="43.395"/><use xlink:href="#1" y="2.171"/><use xlink:href="#2" y="4.342"/><use xlink:href="#3" y="6.513"/><use xlink:href="#22" y="10.855"/><use xlink:href="#23" y="13.026"/><use xlink:href="#24" y="17.368"/><use xlink:href="#25" y="21.71"/><use xlink:href="#27" y="26.052"/><use xlink:href="#23" y="28.223"/><use xlink:href="#28" y="32.565"/><use xlink:href="#25" y="36.907"/><text y="42.919" class="n">&gt;&gt;&gt;</text><text x="4.008" y="42.919" class="n">ALLOW</text><text x="10.02" y="42.919" class="i">local-first,</text><text x="23.046" y="42.919" class="i">cloud-synced,</text><text x="37.074" y="42.919" class="i">zero</text><text x="42.084" y="42.919" class="i">lock-in</text></svg></svg></g></svg></svg>