<svg xmlns="http://www.w3.org/2000/svg" xmlns:xlink="http://www.w3.org/1999/xlink" width="1072" height="786.72"><rect width="1072" height="786.72" rx="5" ry="5" class="a"/><svg y="0%" x="0%"><circle cx="20" cy="20" r="6" fill="#ff5f58"/><circle cx="40" cy="20" r="6" fill="#ffbd2e"/><circle cx="60" cy="20" r="6" fill="#18c132"/></svg><svg height="694.72" viewBox="0 0 100 69.472" width="1000" x="31" xmlns="http://www.w3.org/2000/svg" xmlns:xlink="http://www.w3.org/1999/xlink" y="66"><style>@keyframes l{0%{transform:translateX(0)}.6%{transform:translateX(-100px)}44.7%{transform:translateX(-200px)}45.6%{transform:translateX(-300px)}46.5%{transform:translateX(-400px)}47.4%{transform:translateX(-500px)}48.3%{transform:translateX(-600px)}49.2%{transform:translateX(-700px)}50.1%{transform:translateX(-800px)}51%{transform:translateX(-900px)}51.9%{transform:translateX(-1000px)}52.8%{transform:translateX(-1100px)}53.6%{transform:translateX(-1200px)}54.5%{transform:translateX(-1300px)}55.4%{transform:translateX(-1400px)}56.3%{transform:translateX(-1500px)}57.2%{transform:translateX(-1600px)}58.1%{transform:translateX(-1700px)}59%{transform:translateX(-1800px)}59.9%{transform:translateX(-1900px)}60.8%{transform:translateX(-2000px)}61.7%{transform:translateX(-2100px)}62.5%{transform:translateX(-2200px)}63.4%{transform:translateX(-2300px)}64.3%{transform:translateX(-2400px)}65.2%{transform:translateX(-2500px)}66.1%{transform:translateX(-2600px)}67%{transform:translateX(-2700px)}67.9%{transform:translateX(-2800px)}68.8%{transform:translateX(-2900px)}69.7%{transform:translateX(-3000px)}70.6%{transform:translateX(-3100px)}71.4%{transform:translateX(-3200px)}72.3%{transform:translateX(-3300px)}73.2%{transform:translateX(-3400px)}}.a{fill:#1a1a1f}.g,.i,.n{fill:#b9c0cb;white-space:pre}.i,.n{fill:#a8cc8c}.n{font-weight:700}</style><g font-family="Monaco,Consolas,Menlo,'Bitstream Vera Sans Mono','Powerline Symbols',monospace" font-size="1.67"><defs><symbol id="1"><text y="1.67" style="white-space:pre" fill="#fff" font-weight="700">tests-integration</text></symbol><symbol id="2"><text y="1.67" class="g">End-to-end</text><text x="11.022" y="1.67" class="g">integration</text><text x="23.046" y="1.67" class="g">tests</text><text x="29.058" y="1.67" class="g">against</text><text x="37.074" y="1.67" class="g">a</text><text x="39.078" y="1.67" class="g">live</text><text x="44.088" y="1.67" class="g">DB</text></symbol><symbol id="3"><text y="1.67" style="white-space:pre" fill="#66c2cd">━━━━━━━━━━━━━━━━━━━━━━━━━━━━━━━━━━━━━━━━━━━━━━━━━━━━━━━━━━━━━━</text></symbol><symbol id="4"><text y="1.67" class="i">$</text><text x="2.004" y="1.67" class="g">cargo</text></symbol><symbol id="5"><text y="1.67" class="i">$</text><text x="2.004" y="1.67" class="g">cargo</text><text x="8.016" y="1.67" class="g">test</text></symbol><symbol id="6"><text y="1.67" class="i">$</text><text x="2.004" y="1.67" class="g">cargo</text><text x="8.016" y="1.67" class="g">test</text><text x="13.026" y="1.67" class="g">--list</text></symbol><symbol id="7"><text y="1.67" class="i">$</text><text x="2.004" y="1.67" class="g">cargo</text><text x="8.016" y="1.67" class="g">test</text><text x="13.026" y="1.67" class="g">--list</text><text x="20.04" y="1.67" class="g">-p</text></symbol><symbol id="8"><text y="1.67" class="i">$</text><text x="2.004" y="1.67" class="g">cargo</text><text x="8.016" y="1.67" class="g">test</text><text x="13.026" y="1.67" class="g">--list</text><text x="20.04" y="1.67" class="g">-p</text><text x="23.046" y="1.67" class="g">integration</text></symbol><symbol id="9"><text x="4.008" y="1.67" class="g">error:</text><text x="11.022" y="1.67" class="g">unexpected</text><text x="22.044" y="1.67" class="g">argument</text><text x="31.062" y="1.67" class="g">&apos;--list&apos;</text><text x="40.08" y="1.67" class="g">found</text></symbol><symbol id="10"><text x="6.012" y="1.67" class="g">tip:</text><text x="11.022" y="1.67" class="g">a</text><text x="13.026" y="1.67" class="g">similar</text><text x="21.042" y="1.67" class="g">argument</text><text x="30.06" y="1.67" class="g">exists:</text><text x="38.076" y="1.67" class="g">&apos;--lib&apos;</text></symbol><symbol id="11"><text x="6.012" y="1.67" class="g">tip:</text><text x="11.022" y="1.67" class="g">to</text><text x="14.028" y="1.67" class="g">pass</text><text x="19.038" y="1.67" class="g">&apos;--list&apos;</text><text x="28.056" y="1.67" class="g">as</text><text x="31.062" y="1.67" class="g">a</text><text x="33.066" y="1.67" class="g">value,</text><text x="40.08" y="1.67" class="g">use</text><text x="44.088" y="1.67" class="g">&apos;--</text><text x="48.096" y="1.67" class="g">--list&apos;</text></symbol><symbol id="12"><text x="4.008" y="1.67" class="g">Usage:</text><text x="11.022" y="1.67" class="g">cargo</text><text x="17.034" y="1.67" class="g">test</text><text x="22.044" y="1.67" class="g">--lib</text><text x="28.056" y="1.67" class="g">[TESTNAME]</text><text x="39.078" y="1.67" class="g">[--</text><text x="43.086" y="1.67" class="g">[ARGS]...]</text></symbol><symbol id="13"><text x="4.008" y="1.67" class="g">For</text><text x="8.016" y="1.67" class="g">more</text><text x="13.026" y="1.67" class="g">information,</text><text x="26.052" y="1.67" class="g">try</text><text x="30.06" y="1.67" class="g">&apos;--help&apos;.</text></symbol><symbol id="a"><path fill="transparent" d="M0 0h100v33H0z"/></symbol><symbol id="b"><path fill="#f79938" d="M0 0h1.102v2.171H0z"/></symbol></defs><path class="a" d="M0 0h100v69.472H0z"/><svg width="3900"><svg><use xlink:href="#a"/><use xlink:href="#b" x="-.004"/></svg><svg x="100"><use xlink:href="#a"/><use xlink:href="#b" x="-.004" y="10.83"/><use xlink:href="#1" y="2.171"/><use xlink:href="#2" y="4.342"/><use xlink:href="#3" y="6.513"/></svg><svg x="200"><use xlink:href="#a"/><use xlink:href="#b" x="2.996" y="10.83"/><use xlink:href="#1" y="2.171"/><use xlink:href="#2" y="4.342"/><use xlink:href="#3" y="6.513"/><text y="12.525" class="i">$</text><text x="2.004" y="12.525" class="g">c</text></svg><svg x="300"><use xlink:href="#a"/><use xlink:href="#b" x="3.996" y="10.83"/><use xlink:href="#1" y="2.171"/><use xlink:href="#2" y="4.342"/><use xlink:href="#3" y="6.513"/><text y="12.525" class="i">$</text><text x="2.004" y="12.525" class="g">ca</text></svg><svg x="400"><use xlink:href="#a"/><use xlink:href="#b" x="4.996" y="10.83"/><use xlink:href="#1" y="2.171"/><use xlink:href="#2" y="4.342"/><use xlink:href="#3" y="6.513"/><text y="12.525" class="i">$</text><text x="2.004" y="12.525" class="g">car</text></svg><svg x="500"><use xlink:href="#a"/><use xlink:href="#b" x="5.996" y="10.83"/><use xlink:href="#1" y="2.171"/><use xlink:href="#2" y="4.342"/><use xlink:href="#3" y="6.513"/><text y="12.525" class="i">$</text><text x="2.004" y="12.525" class="g">carg</text></svg><svg x="600"><use xlink:href="#a"/><use xlink:href="#b" x="6.996" y="10.83"/><use xlink:href="#1" y="2.171"/><use xlink:href="#2" y="4.342"/><use xlink:href="#3" y="6.513"/><use xlink:href="#4" y="10.855"/></svg><svg x="700"><use xlink:href="#a"/><use xlink:href="#b" x="7.996" y="10.83"/><use xlink:href="#1" y="2.171"/><use xlink:href="#2" y="4.342"/><use xlink:href="#3" y="6.513"/><use xlink:href="#4" y="10.855"/></svg><svg x="800"><use xlink:href="#a"/><use xlink:href="#b" x="8.996" y="10.83"/><use xlink:href="#1" y="2.171"/><use xlink:href="#2" y="4.342"/><use xlink:href="#3" y="6.513"/><text y="12.525" class="i">$</text><text x="2.004" y="12.525" class="g">cargo</text><text x="8.016" y="12.525" class="g">t</text></svg><svg x="900"><use xlink:href="#a"/><use xlink:href="#b" x="9.996" y="10.83"/><use xlink:href="#1" y="2.171"/><use xlink:href="#2" y="4.342"/><use xlink:href="#3" y="6.513"/><text y="12.525" class="i">$</text><text x="2.004" y="12.525" class="g">cargo</text><text x="8.016" y="12.525" class="g">te</text></svg><svg x="1000"><use xlink:href="#a"/><use xlink:href="#b" x="10.996" y="10.83"/><use xlink:href="#1" y="2.171"/><use xlink:href="#2" y="4.342"/><use xlink:href="#3" y="6.513"/><text y="12.525" class="i">$</text><text x="2.004" y="12.525" class="g">cargo</text><text x="8.016" y="12.525" class="g">tes</text></svg><svg x="1100"><use xlink:href="#a"/><use xlink:href="#b" x="11.996" y="10.83"/><use xlink:href="#1" y="2.171"/><use xlink:href="#2" y="4.342"/><use xlink:href="#3" y="6.513"/><use xlink:href="#5" y="10.855"/></svg><svg x="1200"><use xlink:href="#a"/><use xlink:href="#b" x="12.996" y="10.83"/><use xlink:href="#1" y="2.171"/><use xlink:href="#2" y="4.342"/><use xlink:href="#3" y="6.513"/><use xlink:href="#5" y="10.855"/></svg><svg x="1300"><use xlink:href="#a"/><use xlink:href="#b" x="13.996" y="10.83"/><use xlink:href="#1" y="2.171"/><use xlink:href="#2" y="4.342"/><use xlink:href="#3" y="6.513"/><text y="12.525" class="i">$</text><text x="2.004" y="12.525" class="g">cargo</text><text x="8.016" y="12.525" class="g">test</text><text x="13.026" y="12.525" class="g">-</text></svg><svg x="1400"><use xlink:href="#a"/><use xlink:href="#b" x="14.996" y="10.83"/><use xlink:href="#1" y="2.171"/><use xlink:href="#2" y="4.342"/><use xlink:href="#3" y="6.513"/><text y="12.525" class="i">$</text><text x="2.004" y="12.525" class="g">cargo</text><text x="8.016" y="12.525" class="g">test</text><text x="13.026" y="12.525" class="g">--</text></svg><svg x="1500"><use xlink:href="#a"/><use xlink:href="#b" x="15.996" y="10.83"/><use xlink:href="#1" y="2.171"/><use xlink:href="#2" y="4.342"/><use xlink:href="#3" y="6.513"/><text y="12.525" class="i">$</text><text x="2.004" y="12.525" class="g">cargo</text><text x="8.016" y="12.525" class="g">test</text><text x="13.026" y="12.525" class="g">--l</text></svg><svg x="1600"><use xlink:href="#a"/><use xlink:href="#b" x="16.996" y="10.83"/><use xlink:href="#1" y="2.171"/><use xlink:href="#2" y="4.342"/><use xlink:href="#3" y="6.513"/><text y="12.525" class="i">$</text><text x="2.004" y="12.525" class="g">cargo</text><text x="8.016" y="12.525" class="g">test</text><text x="13.026" y="12.525" class="g">--li</text></svg><svg x="1700"><use xlink:href="#a"/><use xlink:href="#b" x="17.996" y="10.83"/><use xlink:href="#1" y="2.171"/><use xlink:href="#2" y="4.342"/><use xlink:href="#3" y="6.513"/><text y="12.525" class="i">$</text><text x="2.004" y="12.525" class="g">cargo</text><text x="8.016" y="12.525" class="g">test</text><text x="13.026" y="12.525" class="g">--lis</text></svg><svg x="1800"><use xlink:href="#a"/><use xlink:href="#b" x="18.996" y="10.83"/><use xlink:href="#1" y="2.171"/><use xlink:href="#2" y="4.342"/><use xlink:href="#3" y="6.513"/><use xlink:href="#6" y="10.855"/></svg><svg x="1900"><use xlink:href="#a"/><use xlink:href="#b" x="19.996" y="10.83"/><use xlink:href="#1" y="2.171"/><use xlink:href="#2" y="4.342"/><use xlink:href="#3" y="6.513"/><use xlink:href="#6" y="10.855"/></svg><svg x="2000"><use xlink:href="#a"/><use xlink:href="#b" x="20.996" y="10.83"/><use xlink:href="#1" y="2.171"/><use xlink:href="#2" y="4.342"/><use xlink:href="#3" y="6.513"/><text y="12.525" class="i">$</text><text x="2.004" y="12.525" class="g">cargo</text><text x="8.016" y="12.525" class="g">test</text><text x="13.026" y="12.525" class="g">--list</text><text x="20.04" y="12.525" class="g">-</text></svg><svg x="2100"><use xlink:href="#a"/><use xlink:href="#b" x="21.996" y="10.83"/><use xlink:href="#1" y="2.171"/><use xlink:href="#2" y="4.342"/><use xlink:href="#3" y="6.513"/><use xlink:href="#7" y="10.855"/></svg><svg x="2200"><use xlink:href="#a"/><use xlink:href="#b" x="22.996" y="10.83"/><use xlink:href="#1" y="2.171"/><use xlink:href="#2" y="4.342"/><use xlink:href="#3" y="6.513"/><use xlink:href="#7" y="10.855"/></svg><svg x="2300"><use xlink:href="#a"/><use xlink:href="#b" x="23.996" y="10.83"/><use xlink:href="#1" y="2.171"/><use xlink:href="#2" y="4.342"/><use xlink:href="#3" y="6.513"/><text y="12.525" class="i">$</text><text x="2.004" y="12.525" class="g">cargo</text><text x="8.016" y="12.525" class="g">test</text><text x="13.026" y="12.525" class="g">--list</text><text x="20.04" y="12.525" class="g">-p</text><text x="23.046" y="12.525" class="g">i</text></svg><svg x="2400"><use xlink:href="#a"/><use xlink:href="#b" x="24.996" y="10.83"/><use xlink:href="#1" y="2.171"/><use xlink:href="#2" y="4.342"/><use xlink:href="#3" y="6.513"/><text y="12.525" class="i">$</text><text x="2.004" y="12.525" class="g">cargo</text><text x="8.016" y="12.525" class="g">test</text><text x="13.026" y="12.525" class="g">--list</text><text x="20.04" y="12.525" class="g">-p</text><text x="23.046" y="12.525" class="g">in</text></svg><svg x="2500"><use xlink:href="#a"/><use xlink:href="#b" x="25.996" y="10.83"/><use xlink:href="#1" y="2.171"/><use xlink:href="#2" y="4.342"/><use xlink:href="#3" y="6.513"/><text y="12.525" class="i">$</text><text x="2.004" y="12.525" class="g">cargo</text><text x="8.016" y="12.525" class="g">test</text><text x="13.026" y="12.525" class="g">--list</text><text x="20.04" y="12.525" class="g">-p</text><text x="23.046" y="12.525" class="g">int</text></svg><svg x="2600"><use xlink:href="#a"/><use xlink:href="#b" x="26.996" y="10.83"/><use xlink:href="#1" y="2.171"/><use xlink:href="#2" y="4.342"/><use xlink:href="#3" y="6.513"/><text y="12.525" class="i">$</text><text x="2.004" y="12.525" class="g">cargo</text><text x="8.016" y="12.525" class="g">test</text><text x="13.026" y="12.525" class="g">--list</text><text x="20.04" y="12.525" class="g">-p</text><text x="23.046" y="12.525" class="g">inte</text></svg><svg x="2700"><use xlink:href="#a"/><use xlink:href="#b" x="27.996" y="10.83"/><use xlink:href="#1" y="2.171"/><use xlink:href="#2" y="4.342"/><use xlink:href="#3" y="6.513"/><text y="12.525" class="i">$</text><text x="2.004" y="12.525" class="g">cargo</text><text x="8.016" y="12.525" class="g">test</text><text x="13.026" y="12.525" class="g">--list</text><text x="20.04" y="12.525" class="g">-p</text><text x="23.046" y="12.525" class="g">integ</text></svg><svg x="2800"><use xlink:href="#a"/><use xlink:href="#b" x="28.996" y="10.83"/><use xlink:href="#1" y="2.171"/><use xlink:href="#2" y="4.342"/><use xlink:href="#3" y="6.513"/><text y="12.525" class="i">$</text><text x="2.004" y="12.525" class="g">cargo</text><text x="8.016" y="12.525" class="g">test</text><text x="13.026" y="12.525" class="g">--list</text><text x="20.04" y="12.525" class="g">-p</text><text x="23.046" y="12.525" class="g">integr</text></svg><svg x="2900"><use xlink:href="#a"/><use xlink:href="#b" x="29.996" y="10.83"/><use xlink:href="#1" y="2.171"/><use xlink:href="#2" y="4.342"/><use xlink:href="#3" y="6.513"/><text y="12.525" class="i">$</text><text x="2.004" y="12.525" class="g">cargo</text><text x="8.016" y="12.525" class="g">test</text><text x="13.026" y="12.525" class="g">--list</text><text x="20.04" y="12.525" class="g">-p</text><text x="23.046" y="12.525" class="g">integra</text></svg><svg x="3000"><use xlink:href="#a"/><use xlink:href="#b" x="30.996" y="10.83"/><use xlink:href="#1" y="2.171"/><use xlink:href="#2" y="4.342"/><use xlink:href="#3" y="6.513"/><text y="12.525" class="i">$</text><text x="2.004" y="12.525" class="g">cargo</text><text x="8.016" y="12.525" class="g">test</text><text x="13.026" y="12.525" class="g">--list</text><text x="20.04" y="12.525" class="g">-p</text><text x="23.046" y="12.525" class="g">integrat</text></svg><svg x="3100"><use xlink:href="#a"/><use xlink:href="#b" x="31.996" y="10.83"/><use xlink:href="#1" y="2.171"/><use xlink:href="#2" y="4.342"/><use xlink:href="#3" y="6.513"/><text y="12.525" class="i">$</text><text x="2.004" y="12.525" class="g">cargo</text><text x="8.016" y="12.525" class="g">test</text><text x="13.026" y="12.525" class="g">--list</text><text x="20.04" y="12.525" class="g">-p</text><text x="23.046" y="12.525" class="g">integrati</text></svg><svg x="3200"><use xlink:href="#a"/><use xlink:href="#b" x="32.996" y="10.83"/><use xlink:href="#1" y="2.171"/><use xlink:href="#2" y="4.342"/><use xlink:href="#3" y="6.513"/><text y="12.525" class="i">$</text><text x="2.004" y="12.525" class="g">cargo</text><text x="8.016" y="12.525" class="g">test</text><text x="13.026" y="12.525" class="g">--list</text><text x="20.04" y="12.525" class="g">-p</text><text x="23.046" y="12.525" class="g">integratio</text></svg><svg x="3300"><use xlink:href="#a"/><use xlink:href="#b" x="33.996" y="10.83"/><use xlink:href="#1" y="2.171"/><use xlink:href="#2" y="4.342"/><use xlink:href="#3" y="6.513"/><use xlink:href="#8" y="10.855"/></svg><svg x="3400"><use xlink:href="#a"/><use xlink:href="#b" x="-.004" y="13.001"/><use xlink:href="#1" y="2.171"/><use xlink:href="#2" y="4.342"/><use xlink:href="#3" y="6.513"/><use xlink:href="#8" y="10.855"/></svg><svg x="3500"><use xlink:href="#a"/><use xlink:href="#b" x="-.004" y="21.685"/><use xlink:href="#1" y="2.171"/><use xlink:href="#2" y="4.342"/><use xlink:href="#3" y="6.513"/><use xlink:href="#8" y="10.855"/><use xlink:href="#9" y="13.026"/><use xlink:href="#10" y="17.368"/><use xlink:href="#11" y="19.539"/></svg><svg x="3600"><use xlink:href="#a"/><use xlink:href="#b" x="-.004" y="30.369"/><use xlink:href="#1" y="2.171"/><use xlink:href="#2" y="4.342"/><use xlink:href="#3" y="6.513"/><use xlink:href="#8" y="10.855"/><use xlink:href="#9" y="13.026"/><use xlink:href="#10" y="17.368"/><use xlink:href="#11" y="19.539"/><use xlink:href="#12" y="23.881"/><use xlink:href="#13" y="28.223"/></svg><svg x="3700"><use xlink:href="#a"/><use xlink:href="#b" x="-.004" y="32.54"/><use xlink:href="#1" y="2.171"/><use xlink:href="#2" y="4.342"/><use xlink:href="#3" y="6.513"/><use xlink:href="#8" y="10.855"/><use xlink:href="#9" y="13.026"/><use xlink:href="#10" y="17.368"/><use xlink:href="#11" y="19.539"/><use xlink:href="#12" y="23.881"/><use xlink:href="#13" y="28.223"/></svg><svg x="3800"><use xlink:href="#a"/><use xlink:href="#b" x="-.004" y="34.711"/><use xlink:href="#1" y="2.171"/><use xlink:href="#2" y="4.342"/><use xlink:href="#3" y="6.513"/><use xlink:href="#8" y="10.855"/><use xlink:href="#9" y="13.026"/><use xlink:href="#10" y="17.368"/><use xlink:href="#11" y="19.539"/><use xlink:href="#12" y="23.881"/><use xlink:href="#13" y="28.223"/><text y="34.235" class="n">&gt;&gt;&gt;</text><text x="4.008" y="34.235" class="n">ALLOW</text><text x="10.02" y="34.235" class="i">every</text><text x="16.032" y="34.235" class="i">domain</text><text x="23.046" y="34.235" class="i">covered,</text><text x="32.064" y="34.235" class="i">every</text><text x="38.076" y="34.235" class="i">path</text><text x="43.086" y="34.235" class="i">tested</text></svg></svg></g></svg></svg>