<svg xmlns="http://www.w3.org/2000/svg" xmlns:xlink="http://www.w3.org/1999/xlink" width="840" height="581.04"><rect width="840" height="581.04" rx="5" ry="5" class="a"/><svg y="0%" x="0%"><circle cx="20" cy="20" r="6" fill="#ff5f58"/><circle cx="40" cy="20" r="6" fill="#ffbd2e"/><circle cx="60" cy="20" r="6" fill="#18c132"/></svg><svg height="521.04" viewBox="0 0 80 52.104" width="800" x="15" xmlns="http://www.w3.org/2000/svg" xmlns:xlink="http://www.w3.org/1999/xlink" y="50"><style>@keyframes o{0%{transform:translateX(0)}.1%{transform:translateX(-160px)}9.3%{transform:translateX(-240px)}13.9%{transform:translateX(-320px)}16.9%{transform:translateX(-560px)}30.8%{transform:translateX(-720px)}35.4%{transform:translateX(-800px)}38.4%{transform:translateX(-960px)}38.5%{transform:translateX(-1040px)}52.3%{transform:translateX(-1200px)}57%{transform:translateX(-1280px)}59.9%{transform:translateX(-1440px)}60%{transform:translateX(-1600px)}73.8%{transform:translateX(-1760px)}78.5%{transform:translateX(-1840px)}81.5%{transform:translateX(-2080px)}to{transform:translateX(-2160px)}}.a{fill:#1a1a1f}.f,.g,.h,.i{white-space:pre}.f{fill:#fff;font-weight:700}.g,.h,.i{fill:#b9c0cb}.h,.i{fill:#66c2cd}.i{fill:#a8cc8c}.j{font-weight:700}.j,.k,.l,.q{fill:#e88388;white-space:pre}.l,.q{fill:#a8cc8c;font-weight:700}.q{fill:#66c2cd}</style><g font-family="Monaco,Consolas,Menlo,'Bitstream Vera Sans Mono','Powerline Symbols',monospace" font-size="1.67"><defs><symbol id="1"><text x="2.004" y="1.67" class="f">SECRET</text><text x="9.018" y="1.67" class="f">DETECTION</text></symbol><symbol id="2"><text x="2.004" y="1.67" class="g">Scanning</text><text x="11.022" y="1.67" class="g">tool</text><text x="16.032" y="1.67" class="g">inputs</text><text x="23.046" y="1.67" class="g">for</text><text x="27.054" y="1.67" class="g">plaintext</text><text x="37.074" y="1.67" class="g">credentials</text></symbol><symbol id="3"><text x="2.004" y="1.67" class="h">━━━━━━━━━━━━━━━━━━━━━━━━━━━━━━━━━━━━━━━━━━━━━━━━━━</text></symbol><symbol id="4"><text x="2.004" y="1.67" class="h">──</text><text x="5.01" y="1.67" class="f">Test</text><text x="10.02" y="1.67" class="f">1</text><text x="12.024" y="1.67" class="f">—</text><text x="14.028" y="1.67" class="f">AWS</text><text x="18.036" y="1.67" class="f">Access</text><text x="25.05" y="1.67" class="f">Key</text></symbol><symbol id="5"><text x="2.004" y="1.67" class="g">AKIAIOSFODNN7EXAMPLE</text><text x="23.046" y="1.67" class="g">in</text><text x="26.052" y="1.67" class="g">tool</text><text x="31.062" y="1.67" class="g">input</text></symbol><symbol id="6"><text x="2.004" y="1.67" class="i">$</text><text x="4.008" y="1.67" class="g">systemprompt</text><text x="17.034" y="1.67" class="g">hooks</text><text x="23.046" y="1.67" class="g">govern</text><text x="30.06" y="1.67" class="g">--tool</text><text x="37.074" y="1.67" class="g">Bash</text><text x="42.084" y="1.67" class="g">--input</text><text x="50.1" y="1.67" class="g">&apos;{&quot;command&quot;:</text><text x="63.126" y="1.67" class="g">&quot;curl</text><text x="69.138" y="1.67" class="g">-H</text><text x="72.144" y="1.67" class="g">AKIAIOSF</text></symbol><symbol id="7"><text y="1.67" class="g">ODNN7EXAMPLE&quot;}&apos;</text></symbol><symbol id="8"><text x="4.008" y="1.67" class="g">{</text></symbol><symbol id="9"><text x="6.012" y="1.67" class="h">&quot;hookSpecificOutput&quot;:</text><text x="28.056" y="1.67" class="g">{</text></symbol><symbol id="10"><text x="8.016" y="1.67" class="h">&quot;hookEventName&quot;:</text><text x="25.05" y="1.67" class="g">&quot;PreToolUse&quot;,</text></symbol><symbol id="11"><text x="8.016" y="1.67" class="h">&quot;permissionDecision&quot;:</text><text x="30.06" y="1.67" class="j">&quot;deny&quot;</text><text x="36.072" y="1.67" class="g">,</text></symbol><symbol id="12"><text x="8.016" y="1.67" class="h">&quot;permissionDecisionReason&quot;:</text><text x="36.072" y="1.67" class="g">&quot;[GOVERNANCE]</text><text x="50.1" y="1.67" class="g">SECURITY</text><text x="59.118" y="1.67" class="g">BREACH:</text><text x="67.134" y="1.67" class="g">Plaintext</text><text x="77.154" y="1.67" class="g">sec</text></symbol><symbol id="13"><text y="1.67" class="g">ret</text><text x="4.008" y="1.67" class="g">detected</text><text x="13.026" y="1.67" class="g">in</text><text x="16.032" y="1.67" class="g">tool</text><text x="21.042" y="1.67" class="g">input</text><text x="27.054" y="1.67" class="g">\u2014</text><text x="34.068" y="1.67" class="g">AWS</text><text x="38.076" y="1.67" class="g">Access</text><text x="45.09" y="1.67" class="g">Key</text><text x="49.098" y="1.67" class="g">(AKIAIOSFODNN...[REDACTED])&quot;</text></symbol><symbol id="14"><text x="6.012" y="1.67" class="g">}</text></symbol><symbol id="15"><text x="4.008" y="1.67" class="g">}</text></symbol><symbol id="16"><text x="2.004" y="1.67" class="j">&gt;&gt;&gt;</text><text x="6.012" y="1.67" class="j">DENY</text><text x="13.026" y="1.67" class="k">AWS</text><text x="17.034" y="1.67" class="k">access</text><text x="24.048" y="1.67" class="k">key</text><text x="28.056" y="1.67" class="k">detected</text></symbol><symbol id="17"><text x="2.004" y="1.67" class="g">────────────────────────────────────────────────────────────</text></symbol><symbol id="18"><text x="2.004" y="1.67" class="h">──</text><text x="5.01" y="1.67" class="f">Test</text><text x="10.02" y="1.67" class="f">2</text><text x="12.024" y="1.67" class="f">—</text><text x="14.028" y="1.67" class="f">GitHub</text><text x="21.042" y="1.67" class="f">Personal</text><text x="30.06" y="1.67" class="f">Access</text><text x="37.074" y="1.67" class="f">Token</text></symbol><symbol id="19"><text x="2.004" y="1.67" class="g">ghp_ABCDEFghijklmnop12345678</text><text x="31.062" y="1.67" class="g">in</text><text x="34.068" y="1.67" class="g">tool</text><text x="39.078" y="1.67" class="g">input</text></symbol><symbol id="20"><text x="2.004" y="1.67" class="i">$</text><text x="4.008" y="1.67" class="g">systemprompt</text><text x="17.034" y="1.67" class="g">hooks</text><text x="23.046" y="1.67" class="g">govern</text><text x="30.06" y="1.67" class="g">--tool</text><text x="37.074" y="1.67" class="g">Bash</text><text x="42.084" y="1.67" class="g">--input</text><text x="50.1" y="1.67" class="g">&apos;{&quot;command&quot;:</text><text x="63.126" y="1.67" class="g">&quot;curl</text><text x="69.138" y="1.67" class="g">ghp_ABCDEF.</text></symbol><symbol id="21"><text y="1.67" class="g">..&quot;}&apos;</text></symbol><symbol id="22"><text y="1.67" class="g">ret</text><text x="4.008" y="1.67" class="g">detected</text><text x="13.026" y="1.67" class="g">in</text><text x="16.032" y="1.67" class="g">tool</text><text x="21.042" y="1.67" class="g">input</text><text x="27.054" y="1.67" class="g">\u2014</text><text x="34.068" y="1.67" class="g">GitHub</text><text x="41.082" y="1.67" class="g">Token</text><text x="47.094" y="1.67" class="g">(classic)</text><text x="57.114" y="1.67" class="g">(ghp_ABCDEFgh...[REDACT</text></symbol><symbol id="23"><text y="1.67" class="g">ED])&quot;</text></symbol><symbol id="24"><text x="2.004" y="1.67" class="j">&gt;&gt;&gt;</text><text x="6.012" y="1.67" class="j">DENY</text><text x="13.026" y="1.67" class="k">GitHub</text><text x="20.04" y="1.67" class="k">token</text><text x="26.052" y="1.67" class="k">detected</text></symbol><symbol id="25"><text x="2.004" y="1.67" class="h">──</text><text x="5.01" y="1.67" class="f">Test</text><text x="10.02" y="1.67" class="f">3</text><text x="12.024" y="1.67" class="f">—</text><text x="14.028" y="1.67" class="f">RSA</text><text x="18.036" y="1.67" class="f">Private</text><text x="26.052" y="1.67" class="f">Key</text></symbol><symbol id="26"><text x="2.004" y="1.67" class="g">-----BEGIN</text><text x="13.026" y="1.67" class="g">RSA</text><text x="17.034" y="1.67" class="g">PRIVATE</text><text x="25.05" y="1.67" class="g">KEY-----</text><text x="34.068" y="1.67" class="g">in</text><text x="37.074" y="1.67" class="g">tool</text><text x="42.084" y="1.67" class="g">input</text></symbol><symbol id="27"><text x="2.004" y="1.67" class="i">$</text><text x="4.008" y="1.67" class="g">systemprompt</text><text x="17.034" y="1.67" class="g">hooks</text><text x="23.046" y="1.67" class="g">govern</text><text x="30.06" y="1.67" class="g">--tool</text><text x="37.074" y="1.67" class="g">Write</text><text x="43.086" y="1.67" class="g">--input</text><text x="51.102" y="1.67" class="g">&apos;{&quot;content&quot;:</text><text x="64.128" y="1.67" class="g">&quot;-----BEGIN</text><text x="76.152" y="1.67" class="g">RSA.</text></symbol><symbol id="28"><text y="1.67" class="g">ret</text><text x="4.008" y="1.67" class="g">detected</text><text x="13.026" y="1.67" class="g">in</text><text x="16.032" y="1.67" class="g">tool</text><text x="21.042" y="1.67" class="g">input</text><text x="27.054" y="1.67" class="g">\u2014</text><text x="34.068" y="1.67" class="g">Private</text><text x="42.084" y="1.67" class="g">Key</text><text x="46.092" y="1.67" class="g">Header</text><text x="53.106" y="1.67" class="g">(-----BEGIN</text><text x="65.13" y="1.67" class="g">R...[REDACTED])</text></symbol><symbol id="29"><text y="1.67" class="g">&quot;</text></symbol><symbol id="30"><text x="2.004" y="1.67" class="j">&gt;&gt;&gt;</text><text x="6.012" y="1.67" class="j">DENY</text><text x="13.026" y="1.67" class="k">private</text><text x="21.042" y="1.67" class="k">key</text><text x="25.05" y="1.67" class="k">detected</text></symbol><symbol id="31"><text x="2.004" y="1.67" class="h">──</text><text x="5.01" y="1.67" class="f">Test</text><text x="10.02" y="1.67" class="f">4</text><text x="12.024" y="1.67" class="f">—</text><text x="14.028" y="1.67" class="f">Clean</text><text x="20.04" y="1.67" class="f">File</text><text x="25.05" y="1.67" class="f">Read</text></symbol><symbol id="32"><text x="2.004" y="1.67" class="g">/home/user/project/src/main.rs</text></symbol><symbol id="33"><text x="2.004" y="1.67" class="i">$</text><text x="4.008" y="1.67" class="g">systemprompt</text><text x="17.034" y="1.67" class="g">hooks</text><text x="23.046" y="1.67" class="g">govern</text><text x="30.06" y="1.67" class="g">--tool</text><text x="37.074" y="1.67" class="g">Read</text><text x="42.084" y="1.67" class="g">--input</text><text x="50.1" y="1.67" class="g">&apos;{&quot;file_path&quot;:</text><text x="65.13" y="1.67" class="g">&quot;/src/main.rs&quot;}</text></symbol><symbol id="34"><text y="1.67" class="g">&apos;</text></symbol><symbol id="35"><text x="8.016" y="1.67" class="h">&quot;permissionDecision&quot;:</text><text x="30.06" y="1.67" class="l">&quot;allow&quot;</text></symbol><symbol id="36"><text x="2.004" y="1.67" class="l">&gt;&gt;&gt;</text><text x="6.012" y="1.67" class="l">ALLOW</text><text x="13.026" y="1.67" class="i">no</text><text x="16.032" y="1.67" class="i">secrets</text><text x="24.048" y="1.67" class="i">detected</text></symbol><symbol id="a"><path fill="transparent" d="M0 0h80v24H0z"/></symbol><symbol id="b"><path fill="#6f7683" d="M0 0h1.102v2.171H0z"/></symbol></defs><path class="a" d="M0 0h80v52.104H0z"/><g style="animation-duration:10.828154s;animation-iteration-count:infinite;animation-name:o;animation-timing-function:steps(1,end)"><svg width="2240"><svg><use xlink:href="#a"/><use xlink:href="#b" x="-.004"/></svg><svg x="80"><use xlink:href="#a"/><use xlink:href="#b" x="-.004" y="8.659"/><use xlink:href="#1" y="4.342"/><use xlink:href="#2" y="6.513"/></svg><svg x="160"><use xlink:href="#a"/><use xlink:href="#b" x="-.004" y="13.001"/><use xlink:href="#1" y="4.342"/><use xlink:href="#2" y="6.513"/><use xlink:href="#3" y="8.684"/></svg><svg x="240"><use xlink:href="#a"/><use xlink:href="#b" x="-.004" y="19.514"/><use xlink:href="#1" y="4.342"/><use xlink:href="#2" y="6.513"/><use xlink:href="#3" y="8.684"/><use xlink:href="#4" y="13.026"/><use xlink:href="#5" y="15.197"/></svg><svg x="320"><use xlink:href="#a"/><use xlink:href="#b" x="-.004" y="23.856"/><use xlink:href="#1" y="4.342"/><use xlink:href="#2" y="6.513"/><use xlink:href="#3" y="8.684"/><use xlink:href="#4" y="13.026"/><use xlink:href="#5" y="15.197"/><use xlink:href="#6" y="19.539"/><use xlink:href="#7" y="21.71"/></svg><svg x="400"><use xlink:href="#a"/><use xlink:href="#b" x="-.004" y="41.224"/><use xlink:href="#1" y="4.342"/><use xlink:href="#2" y="6.513"/><use xlink:href="#3" y="8.684"/><use xlink:href="#4" y="13.026"/><use xlink:href="#5" y="15.197"/><use xlink:href="#6" y="19.539"/><use xlink:href="#7" y="21.71"/><use xlink:href="#8" y="23.881"/><use xlink:href="#9" y="26.052"/><use xlink:href="#10" y="28.223"/><use xlink:href="#11" y="30.394"/><use xlink:href="#12" y="32.565"/><use xlink:href="#13" y="34.736"/><use xlink:href="#14" y="36.907"/><use xlink:href="#15" y="39.078"/></svg><svg x="480"><use xlink:href="#a"/><use xlink:href="#b" x="-.004" y="43.395"/><use xlink:href="#1" y="4.342"/><use xlink:href="#2" y="6.513"/><use xlink:href="#3" y="8.684"/><use xlink:href="#4" y="13.026"/><use xlink:href="#5" y="15.197"/><use xlink:href="#6" y="19.539"/><use xlink:href="#7" y="21.71"/><use xlink:href="#8" y="23.881"/><use xlink:href="#9" y="26.052"/><use xlink:href="#10" y="28.223"/><use xlink:href="#11" y="30.394"/><use xlink:href="#12" y="32.565"/><use xlink:href="#13" y="34.736"/><use xlink:href="#14" y="36.907"/><use xlink:href="#15" y="39.078"/></svg><svg x="560"><use xlink:href="#a"/><use xlink:href="#b" x="-.004" y="45.566"/><use xlink:href="#1" y="4.342"/><use xlink:href="#2" y="6.513"/><use xlink:href="#3" y="8.684"/><use xlink:href="#4" y="13.026"/><use xlink:href="#5" y="15.197"/><use xlink:href="#6" y="19.539"/><use xlink:href="#7" y="21.71"/><use xlink:href="#8" y="23.881"/><use xlink:href="#9" y="26.052"/><use xlink:href="#10" y="28.223"/><use xlink:href="#11" y="30.394"/><use xlink:href="#12" y="32.565"/><use xlink:href="#13" y="34.736"/><use xlink:href="#14" y="36.907"/><use xlink:href="#15" y="39.078"/><use xlink:href="#16" y="43.42"/></svg><svg x="640"><use xlink:href="#a"/><use xlink:href="#b" x="-.004" y="49.908"/><use xlink:href="#1" y="4.342"/><use xlink:href="#2" y="6.513"/><use xlink:href="#3" y="8.684"/><use xlink:href="#4" y="13.026"/><use xlink:href="#5" y="15.197"/><use xlink:href="#6" y="19.539"/><use xlink:href="#7" y="21.71"/><use xlink:href="#8" y="23.881"/><use xlink:href="#9" y="26.052"/><use xlink:href="#10" y="28.223"/><use xlink:href="#11" y="30.394"/><use xlink:href="#12" y="32.565"/><use xlink:href="#13" y="34.736"/><use xlink:href="#14" y="36.907"/><use xlink:href="#15" y="39.078"/><use xlink:href="#16" y="43.42"/><use xlink:href="#17" y="45.591"/></svg><svg x="720"><use xlink:href="#a"/><use xlink:href="#b" x="-.004" y="49.908"/><use xlink:href="#2"/><use xlink:href="#3" y="2.171"/><use xlink:href="#4" y="6.513"/><use xlink:href="#5" y="8.684"/><use xlink:href="#6" y="13.026"/><use xlink:href="#7" y="15.197"/><use xlink:href="#8" y="17.368"/><use xlink:href="#9" y="19.539"/><use xlink:href="#10" y="21.71"/><use xlink:href="#11" y="23.881"/><use xlink:href="#12" y="26.052"/><use xlink:href="#13" y="28.223"/><use xlink:href="#14" y="30.394"/><use xlink:href="#15" y="32.565"/><use xlink:href="#16" y="36.907"/><use xlink:href="#17" y="39.078"/><use xlink:href="#18" y="43.42"/><use xlink:href="#19" y="45.591"/></svg><svg x="800"><use xlink:href="#a"/><use xlink:href="#b" x="-.004" y="49.908"/><use xlink:href="#4" y="2.171"/><use xlink:href="#5" y="4.342"/><use xlink:href="#6" y="8.684"/><use xlink:href="#7" y="10.855"/><use xlink:href="#8" y="13.026"/><use xlink:href="#9" y="15.197"/><use xlink:href="#10" y="17.368"/><use xlink:href="#11" y="19.539"/><use xlink:href="#12" y="21.71"/><use xlink:href="#13" y="23.881"/><use xlink:href="#14" y="26.052"/><use xlink:href="#15" y="28.223"/><use xlink:href="#16" y="32.565"/><use xlink:href="#17" y="34.736"/><use xlink:href="#18" y="39.078"/><use xlink:href="#19" y="41.249"/><use xlink:href="#20" y="45.591"/><use xlink:href="#21" y="47.762"/></svg><svg x="880"><use xlink:href="#a"/><use xlink:href="#b" x="-.004" y="49.908"/><use xlink:href="#6"/><use xlink:href="#7" y="2.171"/><use xlink:href="#8" y="4.342"/><use xlink:href="#9" y="6.513"/><use xlink:href="#10" y="8.684"/><use xlink:href="#11" y="10.855"/><use xlink:href="#12" y="13.026"/><use xlink:href="#13" y="15.197"/><use xlink:href="#14" y="17.368"/><use xlink:href="#15" y="19.539"/><use xlink:href="#16" y="23.881"/><use xlink:href="#17" y="26.052"/><use xlink:href="#18" y="30.394"/><use xlink:href="#19" y="32.565"/><use xlink:href="#20" y="36.907"/><use xlink:href="#21" y="39.078"/><use xlink:href="#8" y="41.249"/><use xlink:href="#9" y="43.42"/><use xlink:href="#10" y="45.591"/><use xlink:href="#11" y="47.762"/></svg><svg x="960"><use xlink:href="#a"/><use xlink:href="#b" x="-.004" y="49.908"/><use xlink:href="#11"/><use xlink:href="#12" y="2.171"/><use xlink:href="#13" y="4.342"/><use xlink:href="#14" y="6.513"/><use xlink:href="#15" y="8.684"/><use xlink:href="#16" y="13.026"/><use xlink:href="#17" y="15.197"/><use xlink:href="#18" y="19.539"/><use xlink:href="#19" y="21.71"/><use xlink:href="#20" y="26.052"/><use xlink:href="#21" y="28.223"/><use xlink:href="#8" y="30.394"/><use xlink:href="#9" y="32.565"/><use xlink:href="#10" y="34.736"/><use xlink:href="#11" y="36.907"/><use xlink:href="#12" y="39.078"/><use xlink:href="#22" y="41.249"/><use xlink:href="#23" y="43.42"/><use xlink:href="#14" y="45.591"/><use xlink:href="#15" y="47.762"/></svg><svg x="1040"><use xlink:href="#a"/><use xlink:href="#b" x="-.004" y="49.908"/><use xlink:href="#13"/><use xlink:href="#14" y="2.171"/><use xlink:href="#15" y="4.342"/><use xlink:href="#16" y="8.684"/><use xlink:href="#17" y="10.855"/><use xlink:href="#18" y="15.197"/><use xlink:href="#19" y="17.368"/><use xlink:href="#20" y="21.71"/><use xlink:href="#21" y="23.881"/><use xlink:href="#8" y="26.052"/><use xlink:href="#9" y="28.223"/><use xlink:href="#10" y="30.394"/><use xlink:href="#11" y="32.565"/><use xlink:href="#12" y="34.736"/><use xlink:href="#22" y="36.907"/><use xlink:href="#23" y="39.078"/><use xlink:href="#14" y="41.249"/><use xlink:href="#15" y="43.42"/><use xlink:href="#24" y="47.762"/></svg><svg x="1120"><use xlink:href="#a"/><use xlink:href="#b" x="-.004" y="49.908"/><use xlink:href="#15"/><use xlink:href="#16" y="4.342"/><use xlink:href="#17" y="6.513"/><use xlink:href="#18" y="10.855"/><use xlink:href="#19" y="13.026"/><use xlink:href="#20" y="17.368"/><use xlink:href="#21" y="19.539"/><use xlink:href="#8" y="21.71"/><use xlink:href="#9" y="23.881"/><use xlink:href="#10" y="26.052"/><use xlink:href="#11" y="28.223"/><use xlink:href="#12" y="30.394"/><use xlink:href="#22" y="32.565"/><use xlink:href="#23" y="34.736"/><use xlink:href="#14" y="36.907"/><use xlink:href="#15" y="39.078"/><use xlink:href="#24" y="43.42"/><use xlink:href="#17" y="45.591"/></svg><svg x="1200"><use xlink:href="#a"/><use xlink:href="#b" x="-.004" y="49.908"/><use xlink:href="#17"/><use xlink:href="#18" y="4.342"/><use xlink:href="#19" y="6.513"/><use xlink:href="#20" y="10.855"/><use xlink:href="#21" y="13.026"/><use xlink:href="#8" y="15.197"/><use xlink:href="#9" y="17.368"/><use xlink:href="#10" y="19.539"/><use xlink:href="#11" y="21.71"/><use xlink:href="#12" y="23.881"/><use xlink:href="#22" y="26.052"/><use xlink:href="#23" y="28.223"/><use xlink:href="#14" y="30.394"/><use xlink:href="#15" y="32.565"/><use xlink:href="#24" y="36.907"/><use xlink:href="#17" y="39.078"/><use xlink:href="#25" y="43.42"/><use xlink:href="#26" y="45.591"/></svg><svg x="1280"><use xlink:href="#a"/><use xlink:href="#b" x="-.004" y="49.908"/><use xlink:href="#18"/><use xlink:href="#19" y="2.171"/><use xlink:href="#20" y="6.513"/><use xlink:href="#21" y="8.684"/><use xlink:href="#8" y="10.855"/><use xlink:href="#9" y="13.026"/><use xlink:href="#10" y="15.197"/><use xlink:href="#11" y="17.368"/><use xlink:href="#12" y="19.539"/><use xlink:href="#22" y="21.71"/><use xlink:href="#23" y="23.881"/><use xlink:href="#14" y="26.052"/><use xlink:href="#15" y="28.223"/><use xlink:href="#24" y="32.565"/><use xlink:href="#17" y="34.736"/><use xlink:href="#25" y="39.078"/><use xlink:href="#26" y="41.249"/><use xlink:href="#27" y="45.591"/><use xlink:href="#21" y="47.762"/></svg><svg x="1360"><use xlink:href="#a"/><use xlink:href="#b" x="-.004" y="49.908"/><use xlink:href="#20"/><use xlink:href="#21" y="2.171"/><use xlink:href="#8" y="4.342"/><use xlink:href="#9" y="6.513"/><use xlink:href="#10" y="8.684"/><use xlink:href="#11" y="10.855"/><use xlink:href="#12" y="13.026"/><use xlink:href="#22" y="15.197"/><use xlink:href="#23" y="17.368"/><use xlink:href="#14" y="19.539"/><use xlink:href="#15" y="21.71"/><use xlink:href="#24" y="26.052"/><use xlink:href="#17" y="28.223"/><use xlink:href="#25" y="32.565"/><use xlink:href="#26" y="34.736"/><use xlink:href="#27" y="39.078"/><use xlink:href="#21" y="41.249"/><use xlink:href="#8" y="43.42"/><use xlink:href="#9" y="45.591"/><use xlink:href="#10" y="47.762"/></svg><svg x="1440"><use xlink:href="#a"/><use xlink:href="#b" x="-.004" y="49.908"/><use xlink:href="#12"/><use xlink:href="#22" y="2.171"/><use xlink:href="#23" y="4.342"/><use xlink:href="#14" y="6.513"/><use xlink:href="#15" y="8.684"/><use xlink:href="#24" y="13.026"/><use xlink:href="#17" y="15.197"/><use xlink:href="#25" y="19.539"/><use xlink:href="#26" y="21.71"/><use xlink:href="#27" y="26.052"/><use xlink:href="#21" y="28.223"/><use xlink:href="#8" y="30.394"/><use xlink:href="#9" y="32.565"/><use xlink:href="#10" y="34.736"/><use xlink:href="#11" y="36.907"/><use xlink:href="#12" y="39.078"/><use xlink:href="#28" y="41.249"/><use xlink:href="#29" y="43.42"/><use xlink:href="#14" y="45.591"/><use xlink:href="#15" y="47.762"/></svg><svg x="1520"><use xlink:href="#a"/><use xlink:href="#b" x="-.004" y="49.908"/><use xlink:href="#22"/><use xlink:href="#23" y="2.171"/><use xlink:href="#14" y="4.342"/><use xlink:href="#15" y="6.513"/><use xlink:href="#24" y="10.855"/><use xlink:href="#17" y="13.026"/><use xlink:href="#25" y="17.368"/><use xlink:href="#26" y="19.539"/><use xlink:href="#27" y="23.881"/><use xlink:href="#21" y="26.052"/><use xlink:href="#8" y="28.223"/><use xlink:href="#9" y="30.394"/><use xlink:href="#10" y="32.565"/><use xlink:href="#11" y="34.736"/><use xlink:href="#12" y="36.907"/><use xlink:href="#28" y="39.078"/><use xlink:href="#29" y="41.249"/><use xlink:href="#14" y="43.42"/><use xlink:href="#15" y="45.591"/></svg><svg x="1600"><use xlink:href="#a"/><use xlink:href="#b" x="-.004" y="49.908"/><use xlink:href="#23"/><use xlink:href="#14" y="2.171"/><use xlink:href="#15" y="4.342"/><use xlink:href="#24" y="8.684"/><use xlink:href="#17" y="10.855"/><use xlink:href="#25" y="15.197"/><use xlink:href="#26" y="17.368"/><use xlink:href="#27" y="21.71"/><use xlink:href="#21" y="23.881"/><use xlink:href="#8" y="26.052"/><use xlink:href="#9" y="28.223"/><use xlink:href="#10" y="30.394"/><use xlink:href="#11" y="32.565"/><use xlink:href="#12" y="34.736"/><use xlink:href="#28" y="36.907"/><use xlink:href="#29" y="39.078"/><use xlink:href="#14" y="41.249"/><use xlink:href="#15" y="43.42"/><use xlink:href="#30" y="47.762"/></svg><svg x="1680"><use xlink:href="#a"/><use xlink:href="#b" x="-.004" y="49.908"/><use xlink:href="#15"/><use xlink:href="#24" y="4.342"/><use xlink:href="#17" y="6.513"/><use xlink:href="#25" y="10.855"/><use xlink:href="#26" y="13.026"/><use xlink:href="#27" y="17.368"/><use xlink:href="#21" y="19.539"/><use xlink:href="#8" y="21.71"/><use xlink:href="#9" y="23.881"/><use xlink:href="#10" y="26.052"/><use xlink:href="#11" y="28.223"/><use xlink:href="#12" y="30.394"/><use xlink:href="#28" y="32.565"/><use xlink:href="#29" y="34.736"/><use xlink:href="#14" y="36.907"/><use xlink:href="#15" y="39.078"/><use xlink:href="#30" y="43.42"/><use xlink:href="#17" y="45.591"/></svg><svg x="1760"><use xlink:href="#a"/><use xlink:href="#b" x="-.004" y="49.908"/><use xlink:href="#17"/><use xlink:href="#25" y="4.342"/><use xlink:href="#26" y="6.513"/><use xlink:href="#27" y="10.855"/><use xlink:href="#21" y="13.026"/><use xlink:href="#8" y="15.197"/><use xlink:href="#9" y="17.368"/><use xlink:href="#10" y="19.539"/><use xlink:href="#11" y="21.71"/><use xlink:href="#12" y="23.881"/><use xlink:href="#28" y="26.052"/><use xlink:href="#29" y="28.223"/><use xlink:href="#14" y="30.394"/><use xlink:href="#15" y="32.565"/><use xlink:href="#30" y="36.907"/><use xlink:href="#17" y="39.078"/><use xlink:href="#31" y="43.42"/><use xlink:href="#32" y="45.591"/></svg><svg x="1840"><use xlink:href="#a"/><use xlink:href="#b" x="-.004" y="49.908"/><use xlink:href="#25"/><use xlink:href="#26" y="2.171"/><use xlink:href="#27" y="6.513"/><use xlink:href="#21" y="8.684"/><use xlink:href="#8" y="10.855"/><use xlink:href="#9" y="13.026"/><use xlink:href="#10" y="15.197"/><use xlink:href="#11" y="17.368"/><use xlink:href="#12" y="19.539"/><use xlink:href="#28" y="21.71"/><use xlink:href="#29" y="23.881"/><use xlink:href="#14" y="26.052"/><use xlink:href="#15" y="28.223"/><use xlink:href="#30" y="32.565"/><use xlink:href="#17" y="34.736"/><use xlink:href="#31" y="39.078"/><use xlink:href="#32" y="41.249"/><use xlink:href="#33" y="45.591"/><use xlink:href="#34" y="47.762"/></svg><svg x="1920"><use xlink:href="#a"/><use xlink:href="#b" x="-.004" y="49.908"/><use xlink:href="#21"/><use xlink:href="#8" y="2.171"/><use xlink:href="#9" y="4.342"/><use xlink:href="#10" y="6.513"/><use xlink:href="#11" y="8.684"/><use xlink:href="#12" y="10.855"/><use xlink:href="#28" y="13.026"/><use xlink:href="#29" y="15.197"/><use xlink:href="#14" y="17.368"/><use xlink:href="#15" y="19.539"/><use xlink:href="#30" y="23.881"/><use xlink:href="#17" y="26.052"/><use xlink:href="#31" y="30.394"/><use xlink:href="#32" y="32.565"/><use xlink:href="#33" y="36.907"/><use xlink:href="#34" y="39.078"/><use xlink:href="#8" y="41.249"/><use xlink:href="#9" y="43.42"/><use xlink:href="#10" y="45.591"/><use xlink:href="#35" y="47.762"/></svg><svg x="2000"><use xlink:href="#a"/><use xlink:href="#b" x="-.004" y="49.908"/><use xlink:href="#9"/><use xlink:href="#10" y="2.171"/><use xlink:href="#11" y="4.342"/><use xlink:href="#12" y="6.513"/><use xlink:href="#28" y="8.684"/><use xlink:href="#29" y="10.855"/><use xlink:href="#14" y="13.026"/><use xlink:href="#15" y="15.197"/><use xlink:href="#30" y="19.539"/><use xlink:href="#17" y="21.71"/><use xlink:href="#31" y="26.052"/><use xlink:href="#32" y="28.223"/><use xlink:href="#33" y="32.565"/><use xlink:href="#34" y="34.736"/><use xlink:href="#8" y="36.907"/><use xlink:href="#9" y="39.078"/><use xlink:href="#10" y="41.249"/><use xlink:href="#35" y="43.42"/><use xlink:href="#14" y="45.591"/><use xlink:href="#15" y="47.762"/></svg><svg x="2080"><use xlink:href="#a"/><use xlink:href="#b" x="-.004" y="49.908"/><use xlink:href="#11"/><use xlink:href="#12" y="2.171"/><use xlink:href="#28" y="4.342"/><use xlink:href="#29" y="6.513"/><use xlink:href="#14" y="8.684"/><use xlink:href="#15" y="10.855"/><use xlink:href="#30" y="15.197"/><use xlink:href="#17" y="17.368"/><use xlink:href="#31" y="21.71"/><use xlink:href="#32" y="23.881"/><use xlink:href="#33" y="28.223"/><use xlink:href="#34" y="30.394"/><use xlink:href="#8" y="32.565"/><use xlink:href="#9" y="34.736"/><use xlink:href="#10" y="36.907"/><use xlink:href="#35" y="39.078"/><use xlink:href="#14" y="41.249"/><use xlink:href="#15" y="43.42"/><use xlink:href="#36" y="47.762"/></svg><svg x="2160"><use xlink:href="#a"/><use xlink:href="#b" x="-.004" y="49.908"/><use xlink:href="#14"/><use xlink:href="#15" y="2.171"/><use xlink:href="#30" y="6.513"/><use xlink:href="#17" y="8.684"/><use xlink:href="#31" y="13.026"/><use xlink:href="#32" y="15.197"/><use xlink:href="#33" y="19.539"/><use xlink:href="#34" y="21.71"/><use xlink:href="#8" y="23.881"/><use xlink:href="#9" y="26.052"/><use xlink:href="#10" y="28.223"/><use xlink:href="#35" y="30.394"/><use xlink:href="#14" y="32.565"/><use xlink:href="#15" y="34.736"/><use xlink:href="#36" y="39.078"/><use xlink:href="#17" y="41.249"/><text x="2.004" y="47.261" class="q">3</text><text x="4.008" y="47.261" class="q">blocked.</text><text x="13.026" y="47.261" class="q">1</text><text x="15.03" y="47.261" class="q">allowed.</text><text x="24.048" y="47.261" class="q">All</text><text x="28.056" y="47.261" class="q">audited.</text></svg></svg></g></g></svg></svg>