<svg xmlns="http://www.w3.org/2000/svg" xmlns:xlink="http://www.w3.org/1999/xlink" width="840" height="581.04"><rect width="840" height="581.04" rx="5" ry="5" class="a"/><svg y="0%" x="0%"><circle cx="20" cy="20" r="6" fill="#ff5f58"/><circle cx="40" cy="20" r="6" fill="#ffbd2e"/><circle cx="60" cy="20" r="6" fill="#18c132"/></svg><svg height="521.04" viewBox="0 0 80 52.104" width="800" x="15" xmlns="http://www.w3.org/2000/svg" xmlns:xlink="http://www.w3.org/1999/xlink" y="50"><style>@keyframes m{0%{transform:translateX(0)}.1%{transform:translateX(-80px)}9.7%{transform:translateX(-160px)}14.5%{transform:translateX(-240px)}19.6%{transform:translateX(-560px)}38.9%{transform:translateX(-640px)}43.7%{transform:translateX(-720px)}48.7%{transform:translateX(-1040px)}68%{transform:translateX(-1120px)}72.8%{transform:translateX(-1200px)}80.7%{transform:translateX(-2240px)}to{transform:translateX(-2320px)}}.a{fill:#1a1a1f}.f{fill:#fff;font-weight:700;white-space:pre}.g,.h,.i,.j,.o{fill:#b9c0cb;white-space:pre}.h,.i,.j,.o{fill:#66c2cd}.i,.j,.o{fill:#a8cc8c}.j,.o{font-weight:700}.o{fill:#66c2cd}</style><g font-family="Monaco,Consolas,Menlo,'Bitstream Vera Sans Mono','Powerline Symbols',monospace" font-size="1.67"><defs><symbol id="1"><text x="2.004" y="1.67" class="f">MCP</text><text x="6.012" y="1.67" class="f">ACCESS</text><text x="13.026" y="1.67" class="f">TRACKING</text></symbol><symbol id="2"><text x="2.004" y="1.67" class="g">OAuth</text><text x="8.016" y="1.67" class="g">authentication</text><text x="23.046" y="1.67" class="g">+</text><text x="25.05" y="1.67" class="g">tool</text><text x="30.06" y="1.67" class="g">execution</text><text x="40.08" y="1.67" class="g">+</text><text x="42.084" y="1.67" class="g">audit</text></symbol><symbol id="3"><text x="2.004" y="1.67" class="h">━━━━━━━━━━━━━━━━━━━━━━━━━━━━━━━━━━━━━━━━━━━━━━━━━━</text></symbol><symbol id="4"><text x="2.004" y="1.67" class="h">──</text><text x="5.01" y="1.67" class="f">skill-manager</text><text x="19.038" y="1.67" class="f">server</text></symbol><symbol id="5"><text x="2.004" y="1.67" class="g">OAuth</text><text x="8.016" y="1.67" class="g">→</text><text x="10.02" y="1.67" class="g">list_plugins</text></symbol><symbol id="6"><text x="2.004" y="1.67" class="i">$</text><text x="4.008" y="1.67" class="g">systemprompt</text><text x="17.034" y="1.67" class="g">plugins</text><text x="25.05" y="1.67" class="g">mcp</text><text x="29.058" y="1.67" class="g">call</text><text x="34.068" y="1.67" class="g">skill-manager</text><text x="48.096" y="1.67" class="g">list_plugins</text></symbol><symbol id="7"><text x="4.008" y="1.67" class="g">error:</text><text x="11.022" y="1.67" class="g">unexpected</text><text x="22.044" y="1.67" class="g">argument</text><text x="31.062" y="1.67" class="g">&apos;{}&apos;</text><text x="36.072" y="1.67" class="g">found</text></symbol><symbol id="8"><text x="4.008" y="1.67" class="g">Usage:</text><text x="11.022" y="1.67" class="g">systemprompt</text><text x="24.048" y="1.67" class="g">plugins</text><text x="32.064" y="1.67" class="g">mcp</text><text x="36.072" y="1.67" class="g">call</text><text x="41.082" y="1.67" class="g">[OPTIONS]</text><text x="51.102" y="1.67" class="g">[SERVER]</text><text x="60.12" y="1.67" class="g">[TOOL]</text></symbol><symbol id="9"><text x="4.008" y="1.67" class="g">For</text><text x="8.016" y="1.67" class="g">more</text><text x="13.026" y="1.67" class="g">information,</text><text x="26.052" y="1.67" class="g">try</text><text x="30.06" y="1.67" class="g">&apos;--help&apos;.</text></symbol><symbol id="10"><text x="2.004" y="1.67" class="j">&gt;&gt;&gt;</text><text x="6.012" y="1.67" class="j">ALLOW</text><text x="13.026" y="1.67" class="i">OAuth</text><text x="19.038" y="1.67" class="i">authenticated</text><text x="33.066" y="1.67" class="i">→</text><text x="35.07" y="1.67" class="i">tool</text><text x="40.08" y="1.67" class="i">executed</text></symbol><symbol id="11"><text x="2.004" y="1.67" class="g">────────────────────────────────────────────────────────────</text></symbol><symbol id="12"><text x="2.004" y="1.67" class="h">──</text><text x="5.01" y="1.67" class="f">systemprompt</text><text x="18.036" y="1.67" class="f">server</text></symbol><symbol id="13"><text x="2.004" y="1.67" class="g">OAuth</text><text x="8.016" y="1.67" class="g">→</text><text x="10.02" y="1.67" class="g">list_agents</text></symbol><symbol id="14"><text x="2.004" y="1.67" class="i">$</text><text x="4.008" y="1.67" class="g">systemprompt</text><text x="17.034" y="1.67" class="g">plugins</text><text x="25.05" y="1.67" class="g">mcp</text><text x="29.058" y="1.67" class="g">call</text><text x="34.068" y="1.67" class="g">systemprompt</text><text x="47.094" y="1.67" class="g">list_agents</text></symbol><symbol id="15"><text x="2.004" y="1.67" class="h">──</text><text x="5.01" y="1.67" class="f">Activity</text><text x="14.028" y="1.67" class="f">Log</text></symbol><symbol id="16"><text x="2.004" y="1.67" class="g">Database</text><text x="11.022" y="1.67" class="g">record</text><text x="18.036" y="1.67" class="g">of</text><text x="21.042" y="1.67" class="g">all</text><text x="25.05" y="1.67" class="g">MCP</text><text x="29.058" y="1.67" class="g">interactions</text></symbol><symbol id="17"><text x="2.004" y="1.67" class="i">$</text><text x="4.008" y="1.67" class="g">systemprompt</text><text x="17.034" y="1.67" class="g">infra</text><text x="23.046" y="1.67" class="g">db</text><text x="26.052" y="1.67" class="g">query</text><text x="32.064" y="1.67" class="g">&quot;SELECT</text><text x="40.08" y="1.67" class="g">action,</text><text x="48.096" y="1.67" class="g">entity_type,</text><text x="61.122" y="1.67" class="g">entity_name</text><text x="73.146" y="1.67" class="g">FROM</text><text x="78.156" y="1.67" class="g">us</text></symbol><symbol id="18"><text y="1.67" class="g">er_activity</text><text x="12.024" y="1.67" class="g">ORDER</text><text x="18.036" y="1.67" class="g">BY</text><text x="21.042" y="1.67" class="g">created_at</text><text x="32.064" y="1.67" class="g">DESC</text><text x="37.074" y="1.67" class="g">LIMIT</text><text x="43.086" y="1.67" class="g">6&quot;</text></symbol><symbol id="19"><text x="4.008" y="1.67" class="h">Query</text><text x="10.02" y="1.67" class="h">Results</text></symbol><symbol id="20"><text x="4.008" y="1.67" class="h">{</text></symbol><symbol id="21"><text x="6.012" y="1.67" class="h">&quot;columns&quot;:</text><text x="17.034" y="1.67" class="h">[</text></symbol><symbol id="22"><text x="8.016" y="1.67" class="h">&quot;action&quot;,</text></symbol><symbol id="23"><text x="8.016" y="1.67" class="h">&quot;entity_type&quot;,</text></symbol><symbol id="24"><text x="8.016" y="1.67" class="h">&quot;entity_name&quot;</text></symbol><symbol id="25"><text x="6.012" y="1.67" class="h">],</text></symbol><symbol id="26"><text x="6.012" y="1.67" class="h">&quot;rows&quot;:</text><text x="14.028" y="1.67" class="h">[</text></symbol><symbol id="27"><text x="8.016" y="1.67" class="h">{</text></symbol><symbol id="28"><text x="10.02" y="1.67" class="h">&quot;action&quot;:</text><text x="20.04" y="1.67" class="h">&quot;authenticated&quot;,</text></symbol><symbol id="29"><text x="10.02" y="1.67" class="h">&quot;entity_type&quot;:</text><text x="25.05" y="1.67" class="h">&quot;mcp_server&quot;,</text></symbol><symbol id="30"><text x="10.02" y="1.67" class="h">&quot;entity_name&quot;:</text><text x="25.05" y="1.67" class="h">&quot;skill-manager&quot;</text></symbol><symbol id="31"><text x="8.016" y="1.67" class="h">},</text></symbol><symbol id="32"><text x="10.02" y="1.67" class="h">&quot;action&quot;:</text><text x="20.04" y="1.67" class="h">&quot;used&quot;,</text></symbol><symbol id="33"><text x="10.02" y="1.67" class="h">&quot;entity_type&quot;:</text><text x="25.05" y="1.67" class="h">&quot;tool&quot;,</text></symbol><symbol id="34"><text x="10.02" y="1.67" class="h">&quot;entity_name&quot;:</text><text x="25.05" y="1.67" class="h">&quot;list_plugins&quot;</text></symbol><symbol id="35"><text x="10.02" y="1.67" class="h">&quot;entity_name&quot;:</text><text x="25.05" y="1.67" class="h">&quot;list_plugins&quot;,</text></symbol><symbol id="36"><text x="10.02" y="1.67" class="h">&quot;entity_type&quot;:</text><text x="25.05" y="1.67" class="h">&quot;tool&quot;</text></symbol><symbol id="37"><text x="10.02" y="1.67" class="h">&quot;entity_name&quot;:</text><text x="25.05" y="1.67" class="h">&quot;skill-manager&quot;,</text></symbol><symbol id="38"><text x="10.02" y="1.67" class="h">&quot;action&quot;:</text><text x="20.04" y="1.67" class="h">&quot;authenticated&quot;</text></symbol><symbol id="39"><text x="10.02" y="1.67" class="h">&quot;action&quot;:</text><text x="20.04" y="1.67" class="h">&quot;used&quot;</text></symbol><symbol id="40"><text x="8.016" y="1.67" class="h">}</text></symbol><symbol id="41"><text x="6.012" y="1.67" class="h">&quot;row_count&quot;:</text><text x="19.038" y="1.67" class="h">6,</text></symbol><symbol id="42"><text x="6.012" y="1.67" class="h">&quot;execution_time_ms&quot;:</text><text x="27.054" y="1.67" class="h">2</text></symbol><symbol id="43"><text x="4.008" y="1.67" class="h">}</text></symbol><symbol id="a"><path fill="transparent" d="M0 0h80v24H0z"/></symbol><symbol id="b"><path fill="#6f7683" d="M0 0h1.102v2.171H0z"/></symbol></defs><path class="a" d="M0 0h80v52.104H0z"/><g style="animation-duration:10.398265s;animation-iteration-count:infinite;animation-name:m;animation-timing-function:steps(1,end)"><svg width="2400"><svg><use xlink:href="#a"/><use xlink:href="#b" x="-.004"/></svg><svg x="80"><use xlink:href="#a"/><use xlink:href="#b" x="-.004" y="13.001"/><use xlink:href="#1" y="4.342"/><use xlink:href="#2" y="6.513"/><use xlink:href="#3" y="8.684"/></svg><svg x="160"><use xlink:href="#a"/><use xlink:href="#b" x="-.004" y="19.514"/><use xlink:href="#1" y="4.342"/><use xlink:href="#2" y="6.513"/><use xlink:href="#3" y="8.684"/><use xlink:href="#4" y="13.026"/><use xlink:href="#5" y="15.197"/></svg><svg x="240"><use xlink:href="#a"/><use xlink:href="#b" x="-.004" y="21.685"/><use xlink:href="#1" y="4.342"/><use xlink:href="#2" y="6.513"/><use xlink:href="#3" y="8.684"/><use xlink:href="#4" y="13.026"/><use xlink:href="#5" y="15.197"/><use xlink:href="#6" y="19.539"/></svg><svg x="320"><use xlink:href="#a"/><use xlink:href="#b" x="-.004" y="32.54"/><use xlink:href="#1" y="4.342"/><use xlink:href="#2" y="6.513"/><use xlink:href="#3" y="8.684"/><use xlink:href="#4" y="13.026"/><use xlink:href="#5" y="15.197"/><use xlink:href="#6" y="19.539"/><use xlink:href="#7" y="21.71"/><use xlink:href="#8" y="26.052"/><use xlink:href="#9" y="30.394"/></svg><svg x="400"><use xlink:href="#a"/><use xlink:href="#b" x="-.004" y="34.711"/><use xlink:href="#1" y="4.342"/><use xlink:href="#2" y="6.513"/><use xlink:href="#3" y="8.684"/><use xlink:href="#4" y="13.026"/><use xlink:href="#5" y="15.197"/><use xlink:href="#6" y="19.539"/><use xlink:href="#7" y="21.71"/><use xlink:href="#8" y="26.052"/><use xlink:href="#9" y="30.394"/></svg><svg x="480"><use xlink:href="#a"/><use xlink:href="#b" x="-.004" y="36.882"/><use xlink:href="#1" y="4.342"/><use xlink:href="#2" y="6.513"/><use xlink:href="#3" y="8.684"/><use xlink:href="#4" y="13.026"/><use xlink:href="#5" y="15.197"/><use xlink:href="#6" y="19.539"/><use xlink:href="#7" y="21.71"/><use xlink:href="#8" y="26.052"/><use xlink:href="#9" y="30.394"/></svg><svg x="560"><use xlink:href="#a"/><use xlink:href="#b" x="-.004" y="39.053"/><use xlink:href="#1" y="4.342"/><use xlink:href="#2" y="6.513"/><use xlink:href="#3" y="8.684"/><use xlink:href="#4" y="13.026"/><use xlink:href="#5" y="15.197"/><use xlink:href="#6" y="19.539"/><use xlink:href="#7" y="21.71"/><use xlink:href="#8" y="26.052"/><use xlink:href="#9" y="30.394"/><use xlink:href="#10" y="36.907"/></svg><svg x="640"><use xlink:href="#a"/><use xlink:href="#b" x="-.004" y="49.908"/><use xlink:href="#1" y="4.342"/><use xlink:href="#2" y="6.513"/><use xlink:href="#3" y="8.684"/><use xlink:href="#4" y="13.026"/><use xlink:href="#5" y="15.197"/><use xlink:href="#6" y="19.539"/><use xlink:href="#7" y="21.71"/><use xlink:href="#8" y="26.052"/><use xlink:href="#9" y="30.394"/><use xlink:href="#10" y="36.907"/><use xlink:href="#11" y="39.078"/><use xlink:href="#12" y="43.42"/><use xlink:href="#13" y="45.591"/></svg><svg x="720"><use xlink:href="#a"/><use xlink:href="#b" x="-.004" y="49.908"/><use xlink:href="#1" y="2.171"/><use xlink:href="#2" y="4.342"/><use xlink:href="#3" y="6.513"/><use xlink:href="#4" y="10.855"/><use xlink:href="#5" y="13.026"/><use xlink:href="#6" y="17.368"/><use xlink:href="#7" y="19.539"/><use xlink:href="#8" y="23.881"/><use xlink:href="#9" y="28.223"/><use xlink:href="#10" y="34.736"/><use xlink:href="#11" y="36.907"/><use xlink:href="#12" y="41.249"/><use xlink:href="#13" y="43.42"/><use xlink:href="#14" y="47.762"/></svg><svg x="800"><use xlink:href="#a"/><use xlink:href="#b" x="-.004" y="49.908"/><use xlink:href="#3"/><use xlink:href="#4" y="4.342"/><use xlink:href="#5" y="6.513"/><use xlink:href="#6" y="10.855"/><use xlink:href="#7" y="13.026"/><use xlink:href="#8" y="17.368"/><use xlink:href="#9" y="21.71"/><use xlink:href="#10" y="28.223"/><use xlink:href="#11" y="30.394"/><use xlink:href="#12" y="34.736"/><use xlink:href="#13" y="36.907"/><use xlink:href="#14" y="41.249"/><use xlink:href="#7" y="43.42"/><use xlink:href="#8" y="47.762"/></svg><svg x="880"><use xlink:href="#a"/><use xlink:href="#b" x="-.004" y="49.908"/><use xlink:href="#5"/><use xlink:href="#6" y="4.342"/><use xlink:href="#7" y="6.513"/><use xlink:href="#8" y="10.855"/><use xlink:href="#9" y="15.197"/><use xlink:href="#10" y="21.71"/><use xlink:href="#11" y="23.881"/><use xlink:href="#12" y="28.223"/><use xlink:href="#13" y="30.394"/><use xlink:href="#14" y="34.736"/><use xlink:href="#7" y="36.907"/><use xlink:href="#8" y="41.249"/><use xlink:href="#9" y="45.591"/></svg><svg x="960"><use xlink:href="#a"/><use xlink:href="#b" x="-.004" y="49.908"/><use xlink:href="#6" y="2.171"/><use xlink:href="#7" y="4.342"/><use xlink:href="#8" y="8.684"/><use xlink:href="#9" y="13.026"/><use xlink:href="#10" y="19.539"/><use xlink:href="#11" y="21.71"/><use xlink:href="#12" y="26.052"/><use xlink:href="#13" y="28.223"/><use xlink:href="#14" y="32.565"/><use xlink:href="#7" y="34.736"/><use xlink:href="#8" y="39.078"/><use xlink:href="#9" y="43.42"/></svg><svg x="1040"><use xlink:href="#a"/><use xlink:href="#b" x="-.004" y="49.908"/><use xlink:href="#6"/><use xlink:href="#7" y="2.171"/><use xlink:href="#8" y="6.513"/><use xlink:href="#9" y="10.855"/><use xlink:href="#10" y="17.368"/><use xlink:href="#11" y="19.539"/><use xlink:href="#12" y="23.881"/><use xlink:href="#13" y="26.052"/><use xlink:href="#14" y="30.394"/><use xlink:href="#7" y="32.565"/><use xlink:href="#8" y="36.907"/><use xlink:href="#9" y="41.249"/><use xlink:href="#10" y="47.762"/></svg><svg x="1120"><use xlink:href="#a"/><use xlink:href="#b" x="-.004" y="49.908"/><use xlink:href="#9"/><use xlink:href="#10" y="6.513"/><use xlink:href="#11" y="8.684"/><use xlink:href="#12" y="13.026"/><use xlink:href="#13" y="15.197"/><use xlink:href="#14" y="19.539"/><use xlink:href="#7" y="21.71"/><use xlink:href="#8" y="26.052"/><use xlink:href="#9" y="30.394"/><use xlink:href="#10" y="36.907"/><use xlink:href="#11" y="39.078"/><use xlink:href="#15" y="43.42"/><use xlink:href="#16" y="45.591"/></svg><svg x="1200"><use xlink:href="#a"/><use xlink:href="#b" x="-.004" y="49.908"/><use xlink:href="#10" y="2.171"/><use xlink:href="#11" y="4.342"/><use xlink:href="#12" y="8.684"/><use xlink:href="#13" y="10.855"/><use xlink:href="#14" y="15.197"/><use xlink:href="#7" y="17.368"/><use xlink:href="#8" y="21.71"/><use xlink:href="#9" y="26.052"/><use xlink:href="#10" y="32.565"/><use xlink:href="#11" y="34.736"/><use xlink:href="#15" y="39.078"/><use xlink:href="#16" y="41.249"/><use xlink:href="#17" y="45.591"/><use xlink:href="#18" y="47.762"/></svg><svg x="1280"><use xlink:href="#a"/><use xlink:href="#b" x="-.004" y="49.908"/><use xlink:href="#12" y="2.171"/><use xlink:href="#13" y="4.342"/><use xlink:href="#14" y="8.684"/><use xlink:href="#7" y="10.855"/><use xlink:href="#8" y="15.197"/><use xlink:href="#9" y="19.539"/><use xlink:href="#10" y="26.052"/><use xlink:href="#11" y="28.223"/><use xlink:href="#15" y="32.565"/><use xlink:href="#16" y="34.736"/><use xlink:href="#17" y="39.078"/><use xlink:href="#18" y="41.249"/><use xlink:href="#19" y="45.591"/><use xlink:href="#20" y="47.762"/></svg><svg x="1360"><use xlink:href="#a"/><use xlink:href="#b" x="-.004" y="49.908"/><use xlink:href="#9" y="2.171"/><use xlink:href="#10" y="8.684"/><use xlink:href="#11" y="10.855"/><use xlink:href="#15" y="15.197"/><use xlink:href="#16" y="17.368"/><use xlink:href="#17" y="21.71"/><use xlink:href="#18" y="23.881"/><use xlink:href="#19" y="28.223"/><use xlink:href="#20" y="30.394"/><use xlink:href="#21" y="32.565"/><use xlink:href="#22" y="34.736"/><use xlink:href="#23" y="36.907"/><use xlink:href="#24" y="39.078"/><use xlink:href="#25" y="41.249"/><use xlink:href="#26" y="43.42"/><use xlink:href="#27" y="45.591"/><use xlink:href="#28" y="47.762"/></svg><svg x="1440"><use xlink:href="#a"/><use xlink:href="#b" x="-.004" y="49.908"/><use xlink:href="#10"/><use xlink:href="#11" y="2.171"/><use xlink:href="#15" y="6.513"/><use xlink:href="#16" y="8.684"/><use xlink:href="#17" y="13.026"/><use xlink:href="#18" y="15.197"/><use xlink:href="#19" y="19.539"/><use xlink:href="#20" y="21.71"/><use xlink:href="#21" y="23.881"/><use xlink:href="#22" y="26.052"/><use xlink:href="#23" y="28.223"/><use xlink:href="#24" y="30.394"/><use xlink:href="#25" y="32.565"/><use xlink:href="#26" y="34.736"/><use xlink:href="#27" y="36.907"/><use xlink:href="#28" y="39.078"/><use xlink:href="#29" y="41.249"/><use xlink:href="#30" y="43.42"/><use xlink:href="#31" y="45.591"/><use xlink:href="#27" y="47.762"/></svg><svg x="1520"><use xlink:href="#a"/><use xlink:href="#b" x="-.004" y="49.908"/><use xlink:href="#15" y="2.171"/><use xlink:href="#16" y="4.342"/><use xlink:href="#17" y="8.684"/><use xlink:href="#18" y="10.855"/><use xlink:href="#19" y="15.197"/><use xlink:href="#20" y="17.368"/><use xlink:href="#21" y="19.539"/><use xlink:href="#22" y="21.71"/><use xlink:href="#23" y="23.881"/><use xlink:href="#24" y="26.052"/><use xlink:href="#25" y="28.223"/><use xlink:href="#26" y="30.394"/><use xlink:href="#27" y="32.565"/><use xlink:href="#28" y="34.736"/><use xlink:href="#29" y="36.907"/><use xlink:href="#30" y="39.078"/><use xlink:href="#31" y="41.249"/><use xlink:href="#27" y="43.42"/><use xlink:href="#32" y="45.591"/><use xlink:href="#33" y="47.762"/></svg><svg x="1600"><use xlink:href="#a"/><use xlink:href="#b" x="-.004" y="49.908"/><use xlink:href="#17" y="2.171"/><use xlink:href="#18" y="4.342"/><use xlink:href="#19" y="8.684"/><use xlink:href="#20" y="10.855"/><use xlink:href="#21" y="13.026"/><use xlink:href="#22" y="15.197"/><use xlink:href="#23" y="17.368"/><use xlink:href="#24" y="19.539"/><use xlink:href="#25" y="21.71"/><use xlink:href="#26" y="23.881"/><use xlink:href="#27" y="26.052"/><use xlink:href="#28" y="28.223"/><use xlink:href="#29" y="30.394"/><use xlink:href="#30" y="32.565"/><use xlink:href="#31" y="34.736"/><use xlink:href="#27" y="36.907"/><use xlink:href="#32" y="39.078"/><use xlink:href="#33" y="41.249"/><use xlink:href="#34" y="43.42"/><use xlink:href="#31" y="45.591"/><use xlink:href="#27" y="47.762"/></svg><svg x="1680"><use xlink:href="#a"/><use xlink:href="#b" x="-.004" y="49.908"/><use xlink:href="#19"/><use xlink:href="#20" y="2.171"/><use xlink:href="#21" y="4.342"/><use xlink:href="#22" y="6.513"/><use xlink:href="#23" y="8.684"/><use xlink:href="#24" y="10.855"/><use xlink:href="#25" y="13.026"/><use xlink:href="#26" y="15.197"/><use xlink:href="#27" y="17.368"/><use xlink:href="#28" y="19.539"/><use xlink:href="#29" y="21.71"/><use xlink:href="#30" y="23.881"/><use xlink:href="#31" y="26.052"/><use xlink:href="#27" y="28.223"/><use xlink:href="#32" y="30.394"/><use xlink:href="#33" y="32.565"/><use xlink:href="#34" y="34.736"/><use xlink:href="#31" y="36.907"/><use xlink:href="#27" y="39.078"/><use xlink:href="#35" y="41.249"/><use xlink:href="#32" y="43.42"/><use xlink:href="#36" y="45.591"/><use xlink:href="#31" y="47.762"/></svg><svg x="1760"><use xlink:href="#a"/><use xlink:href="#b" x="-.004" y="49.908"/><use xlink:href="#20"/><use xlink:href="#21" y="2.171"/><use xlink:href="#22" y="4.342"/><use xlink:href="#23" y="6.513"/><use xlink:href="#24" y="8.684"/><use xlink:href="#25" y="10.855"/><use xlink:href="#26" y="13.026"/><use xlink:href="#27" y="15.197"/><use xlink:href="#28" y="17.368"/><use xlink:href="#29" y="19.539"/><use xlink:href="#30" y="21.71"/><use xlink:href="#31" y="23.881"/><use xlink:href="#27" y="26.052"/><use xlink:href="#32" y="28.223"/><use xlink:href="#33" y="30.394"/><use xlink:href="#34" y="32.565"/><use xlink:href="#31" y="34.736"/><use xlink:href="#27" y="36.907"/><use xlink:href="#35" y="39.078"/><use xlink:href="#32" y="41.249"/><use xlink:href="#36" y="43.42"/><use xlink:href="#31" y="45.591"/><use xlink:href="#27" y="47.762"/></svg><svg x="1840"><use xlink:href="#a"/><use xlink:href="#b" x="-.004" y="49.908"/><use xlink:href="#21"/><use xlink:href="#22" y="2.171"/><use xlink:href="#23" y="4.342"/><use xlink:href="#24" y="6.513"/><use xlink:href="#25" y="8.684"/><use xlink:href="#26" y="10.855"/><use xlink:href="#27" y="13.026"/><use xlink:href="#28" y="15.197"/><use xlink:href="#29" y="17.368"/><use xlink:href="#30" y="19.539"/><use xlink:href="#31" y="21.71"/><use xlink:href="#27" y="23.881"/><use xlink:href="#32" y="26.052"/><use xlink:href="#33" y="28.223"/><use xlink:href="#34" y="30.394"/><use xlink:href="#31" y="32.565"/><use xlink:href="#27" y="34.736"/><use xlink:href="#35" y="36.907"/><use xlink:href="#32" y="39.078"/><use xlink:href="#36" y="41.249"/><use xlink:href="#31" y="43.42"/><use xlink:href="#27" y="45.591"/><use xlink:href="#29" y="47.762"/></svg><svg x="1920"><use xlink:href="#a"/><use xlink:href="#b" x="-.004" y="49.908"/><use xlink:href="#23"/><use xlink:href="#24" y="2.171"/><use xlink:href="#25" y="4.342"/><use xlink:href="#26" y="6.513"/><use xlink:href="#27" y="8.684"/><use xlink:href="#28" y="10.855"/><use xlink:href="#29" y="13.026"/><use xlink:href="#30" y="15.197"/><use xlink:href="#31" y="17.368"/><use xlink:href="#27" y="19.539"/><use xlink:href="#32" y="21.71"/><use xlink:href="#33" y="23.881"/><use xlink:href="#34" y="26.052"/><use xlink:href="#31" y="28.223"/><use xlink:href="#27" y="30.394"/><use xlink:href="#35" y="32.565"/><use xlink:href="#32" y="34.736"/><use xlink:href="#36" y="36.907"/><use xlink:href="#31" y="39.078"/><use xlink:href="#27" y="41.249"/><use xlink:href="#29" y="43.42"/><use xlink:href="#37" y="45.591"/><use xlink:href="#38" y="47.762"/></svg><svg x="2000"><use xlink:href="#a"/><use xlink:href="#b" x="-.004" y="49.908"/><use xlink:href="#26"/><use xlink:href="#27" y="2.171"/><use xlink:href="#28" y="4.342"/><use xlink:href="#29" y="6.513"/><use xlink:href="#30" y="8.684"/><use xlink:href="#31" y="10.855"/><use xlink:href="#27" y="13.026"/><use xlink:href="#32" y="15.197"/><use xlink:href="#33" y="17.368"/><use xlink:href="#34" y="19.539"/><use xlink:href="#31" y="21.71"/><use xlink:href="#27" y="23.881"/><use xlink:href="#35" y="26.052"/><use xlink:href="#32" y="28.223"/><use xlink:href="#36" y="30.394"/><use xlink:href="#31" y="32.565"/><use xlink:href="#27" y="34.736"/><use xlink:href="#29" y="36.907"/><use xlink:href="#37" y="39.078"/><use xlink:href="#38" y="41.249"/><use xlink:href="#31" y="43.42"/><use xlink:href="#27" y="45.591"/><use xlink:href="#33" y="47.762"/></svg><svg x="2080"><use xlink:href="#a"/><use xlink:href="#b" x="-.004" y="49.908"/><use xlink:href="#31"/><use xlink:href="#27" y="2.171"/><use xlink:href="#32" y="4.342"/><use xlink:href="#33" y="6.513"/><use xlink:href="#34" y="8.684"/><use xlink:href="#31" y="10.855"/><use xlink:href="#27" y="13.026"/><use xlink:href="#35" y="15.197"/><use xlink:href="#32" y="17.368"/><use xlink:href="#36" y="19.539"/><use xlink:href="#31" y="21.71"/><use xlink:href="#27" y="23.881"/><use xlink:href="#29" y="26.052"/><use xlink:href="#37" y="28.223"/><use xlink:href="#38" y="30.394"/><use xlink:href="#31" y="32.565"/><use xlink:href="#27" y="34.736"/><use xlink:href="#33" y="36.907"/><use xlink:href="#35" y="39.078"/><use xlink:href="#39" y="41.249"/><use xlink:href="#31" y="43.42"/><use xlink:href="#27" y="45.591"/><use xlink:href="#28" y="47.762"/></svg><svg x="2160"><use xlink:href="#a"/><use xlink:href="#b" x="-.004" y="49.908"/><use xlink:href="#31"/><use xlink:href="#27" y="2.171"/><use xlink:href="#35" y="4.342"/><use xlink:href="#32" y="6.513"/><use xlink:href="#36" y="8.684"/><use xlink:href="#31" y="10.855"/><use xlink:href="#27" y="13.026"/><use xlink:href="#29" y="15.197"/><use xlink:href="#37" y="17.368"/><use xlink:href="#38" y="19.539"/><use xlink:href="#31" y="21.71"/><use xlink:href="#27" y="23.881"/><use xlink:href="#33" y="26.052"/><use xlink:href="#35" y="28.223"/><use xlink:href="#39" y="30.394"/><use xlink:href="#31" y="32.565"/><use xlink:href="#27" y="34.736"/><use xlink:href="#28" y="36.907"/><use xlink:href="#29" y="39.078"/><use xlink:href="#30" y="41.249"/><use xlink:href="#40" y="43.42"/><use xlink:href="#25" y="45.591"/><use xlink:href="#41" y="47.762"/></svg><svg x="2240"><use xlink:href="#a"/><use xlink:href="#b" x="-.004" y="49.908"/><use xlink:href="#35"/><use xlink:href="#32" y="2.171"/><use xlink:href="#36" y="4.342"/><use xlink:href="#31" y="6.513"/><use xlink:href="#27" y="8.684"/><use xlink:href="#29" y="10.855"/><use xlink:href="#37" y="13.026"/><use xlink:href="#38" y="15.197"/><use xlink:href="#31" y="17.368"/><use xlink:href="#27" y="19.539"/><use xlink:href="#33" y="21.71"/><use xlink:href="#35" y="23.881"/><use xlink:href="#39" y="26.052"/><use xlink:href="#31" y="28.223"/><use xlink:href="#27" y="30.394"/><use xlink:href="#28" y="32.565"/><use xlink:href="#29" y="34.736"/><use xlink:href="#30" y="36.907"/><use xlink:href="#40" y="39.078"/><use xlink:href="#25" y="41.249"/><use xlink:href="#41" y="43.42"/><use xlink:href="#42" y="45.591"/><use xlink:href="#43" y="47.762"/></svg><svg x="2320"><use xlink:href="#a"/><use xlink:href="#b" x="-.004" y="49.908"/><use xlink:href="#27"/><use xlink:href="#29" y="2.171"/><use xlink:href="#37" y="4.342"/><use xlink:href="#38" y="6.513"/><use xlink:href="#31" y="8.684"/><use xlink:href="#27" y="10.855"/><use xlink:href="#33" y="13.026"/><use xlink:href="#35" y="15.197"/><use xlink:href="#39" y="17.368"/><use xlink:href="#31" y="19.539"/><use xlink:href="#27" y="21.71"/><use xlink:href="#28" y="23.881"/><use xlink:href="#29" y="26.052"/><use xlink:href="#30" y="28.223"/><use xlink:href="#40" y="30.394"/><use xlink:href="#25" y="32.565"/><use xlink:href="#41" y="34.736"/><use xlink:href="#42" y="36.907"/><use xlink:href="#43" y="39.078"/><use xlink:href="#11" y="41.249"/><text x="2.004" y="47.261" class="o">Every</text><text x="8.016" y="47.261" class="o">MCP</text><text x="12.024" y="47.261" class="o">call:</text><text x="18.036" y="47.261" class="o">authenticated,</text><text x="33.066" y="47.261" class="o">executed,</text><text x="43.086" y="47.261" class="o">tracked.</text></svg></svg></g></g></svg></svg>