<svg xmlns="http://www.w3.org/2000/svg" xmlns:xlink="http://www.w3.org/1999/xlink" width="840" height="581.04"><rect width="840" height="581.04" rx="5" ry="5" class="a"/><svg y="0%" x="0%"><circle cx="20" cy="20" r="6" fill="#ff5f58"/><circle cx="40" cy="20" r="6" fill="#ffbd2e"/><circle cx="60" cy="20" r="6" fill="#18c132"/></svg><svg height="521.04" viewBox="0 0 80 52.104" width="800" x="15" xmlns="http://www.w3.org/2000/svg" xmlns:xlink="http://www.w3.org/1999/xlink" y="50"><style>@keyframes m{0%{transform:translateX(0)}.1%{transform:translateX(-80px)}9%{transform:translateX(-160px)}12.4%{transform:translateX(-240px)}16.8%{transform:translateX(-400px)}21.3%{transform:translateX(-480px)}24.8%{transform:translateX(-720px)}42.6%{transform:translateX(-880px)}49.5%{transform:translateX(-960px)}54.6%{transform:translateX(-1120px)}54.7%{transform:translateX(-1920px)}54.8%{transform:translateX(-2160px)}72.6%{transform:translateX(-2240px)}77.1%{transform:translateX(-2320px)}82.2%{transform:translateX(-2560px)}to{transform:translateX(-2640px)}}.a{fill:#1a1a1f}.f{fill:#fff;font-weight:700;white-space:pre}.g,.h,.i,.j,.o{fill:#b9c0cb;white-space:pre}.h,.i,.j,.o{fill:#66c2cd}.i,.j,.o{fill:#a8cc8c}.j,.o{font-weight:700}.o{fill:#66c2cd}</style><g font-family="Monaco,Consolas,Menlo,'Bitstream Vera Sans Mono','Powerline Symbols',monospace" font-size="1.67"><defs><symbol id="1"><text x="2.004" y="1.67" class="f">LIVE</text><text x="7.014" y="1.67" class="f">AI</text><text x="10.02" y="1.67" class="f">AGENT</text></symbol><symbol id="2"><text x="2.004" y="1.67" class="g">Reasoning</text><text x="12.024" y="1.67" class="g">+</text><text x="14.028" y="1.67" class="g">MCP</text><text x="18.036" y="1.67" class="g">tools</text><text x="24.048" y="1.67" class="g">+</text><text x="26.052" y="1.67" class="g">artifacts</text><text x="36.072" y="1.67" class="g">+</text><text x="38.076" y="1.67" class="g">tracing</text></symbol><symbol id="3"><text x="2.004" y="1.67" class="h">━━━━━━━━━━━━━━━━━━━━━━━━━━━━━━━━━━━━━━━━━━━━━━━━━━</text></symbol><symbol id="4"><text x="2.004" y="1.67" class="g">Creating</text><text x="11.022" y="1.67" class="g">context...</text></symbol><symbol id="5"><text x="2.004" y="1.67" class="h">Context:</text><text x="11.022" y="1.67" class="h">13feaf98-5146-445b-863c-fc97632e38fc</text></symbol><symbol id="6"><text x="2.004" y="1.67" class="g">────────────────────────────────────────────────────────────</text></symbol><symbol id="7"><text x="2.004" y="1.67" class="h">──</text><text x="5.01" y="1.67" class="f">Agent</text><text x="11.022" y="1.67" class="f">Messaging</text></symbol><symbol id="8"><text x="2.004" y="1.67" class="g">developer_agent</text><text x="18.036" y="1.67" class="g">with</text><text x="23.046" y="1.67" class="g">MCP</text><text x="27.054" y="1.67" class="g">tool</text><text x="32.064" y="1.67" class="g">access</text></symbol><symbol id="9"><text x="2.004" y="1.67" class="i">$</text><text x="4.008" y="1.67" class="g">systemprompt</text><text x="17.034" y="1.67" class="g">admin</text><text x="23.046" y="1.67" class="g">agents</text><text x="30.06" y="1.67" class="g">message</text><text x="38.076" y="1.67" class="g">developer_agent</text><text x="54.108" y="1.67" class="g">-m</text><text x="57.114" y="1.67" class="g">&quot;List</text><text x="63.126" y="1.67" class="g">all</text><text x="67.134" y="1.67" class="g">agents&quot;</text><text x="75.15" y="1.67" class="g">--blo</text></symbol><symbol id="10"><text y="1.67" class="g">cking</text></symbol><symbol id="11"><text x="2.004" y="1.67" class="g">Agent</text><text x="8.016" y="1.67" class="g">is</text><text x="11.022" y="1.67" class="g">reasoning...</text></symbol><symbol id="12"><text x="4.008" y="1.67" class="g">Error:</text><text x="11.022" y="1.67" class="g">Failed</text><text x="18.036" y="1.67" class="g">to</text><text x="21.042" y="1.67" class="g">send</text><text x="26.052" y="1.67" class="g">message</text><text x="34.068" y="1.67" class="g">to</text><text x="37.074" y="1.67" class="g">agent</text></symbol><symbol id="13"><text x="4.008" y="1.67" class="g">Caused</text><text x="11.022" y="1.67" class="g">by:</text></symbol><symbol id="14"><text x="8.016" y="1.67" class="g">Agent</text><text x="14.028" y="1.67" class="g">request</text><text x="22.044" y="1.67" class="g">failed</text><text x="29.058" y="1.67" class="g">with</text><text x="34.068" y="1.67" class="g">status</text><text x="41.082" y="1.67" class="g">400</text><text x="45.09" y="1.67" class="g">Bad</text><text x="49.098" y="1.67" class="g">Request:</text><text x="58.116" y="1.67" class="g">{&quot;jsonrpc&quot;:&quot;2.0&quot;,&quot;erro</text></symbol><symbol id="15"><text y="1.67" class="g">r&quot;:{&quot;code&quot;:-32601,&quot;message&quot;:&quot;Method</text><text x="36.072" y="1.67" class="g">not</text><text x="40.08" y="1.67" class="g">found&quot;,&quot;data&quot;:&quot;Unsupported</text><text x="67.134" y="1.67" class="g">method:</text><text x="75.15" y="1.67" class="g">messa</text></symbol><symbol id="16"><text y="1.67" class="g">ge/send&quot;},&quot;id&quot;:&quot;202c5587-9d3e-4208-9d23-8a448cf03c32&quot;}</text></symbol><symbol id="17"><text x="2.004" y="1.67" class="j">&gt;&gt;&gt;</text><text x="6.012" y="1.67" class="j">ALLOW</text><text x="13.026" y="1.67" class="i">3</text><text x="15.03" y="1.67" class="i">AI</text><text x="18.036" y="1.67" class="i">requests,</text><text x="28.056" y="1.67" class="i">1</text><text x="30.06" y="1.67" class="i">MCP</text><text x="34.068" y="1.67" class="i">tool</text><text x="39.078" y="1.67" class="i">call</text></symbol><symbol id="18"><text x="2.004" y="1.67" class="h">──</text><text x="5.01" y="1.67" class="f">Execution</text><text x="15.03" y="1.67" class="f">Trace</text></symbol><symbol id="19"><text x="2.004" y="1.67" class="g">Every</text><text x="8.016" y="1.67" class="g">event</text><text x="14.028" y="1.67" class="g">logged</text></symbol><symbol id="20"><text x="2.004" y="1.67" class="i">$</text><text x="4.008" y="1.67" class="g">systemprompt</text><text x="17.034" y="1.67" class="g">infra</text><text x="23.046" y="1.67" class="g">logs</text><text x="28.056" y="1.67" class="g">trace</text><text x="34.068" y="1.67" class="g">show</text><text x="39.078" y="1.67" class="g">dfd06273-957b-4fac-ab19-7facd6dc6ecf</text><text x="76.152" y="1.67" class="g">--al</text></symbol><symbol id="21"><text y="1.67" class="g">l</text></symbol><symbol id="22"><text x="4.008" y="1.67" class="g">Trace</text><text x="10.02" y="1.67" class="g">Flow:</text><text x="16.032" y="1.67" class="g">dfd06273-957b-4fac-ab19-7facd6dc6ecf</text></symbol><symbol id="23"><text x="4.008" y="1.67" class="g">ℹ</text><text x="6.012" y="1.67" class="g">┌──────────────┬─────────┬──────┬─────────────────────────────────────────</text></symbol><symbol id="24"><text y="1.67" class="g">─────────────────────┬─────────┐</text></symbol><symbol id="25"><text x="4.008" y="1.67" class="g">│</text><text x="6.012" y="1.67" class="g">Time</text><text x="19.038" y="1.67" class="g">│</text><text x="21.042" y="1.67" class="g">Delta</text><text x="29.058" y="1.67" class="g">│</text><text x="31.062" y="1.67" class="g">Type</text><text x="36.072" y="1.67" class="g">│</text><text x="38.076" y="1.67" class="g">Details</text></symbol><symbol id="26"><text x="19.038" y="1.67" class="g">│</text><text x="21.042" y="1.67" class="g">Latency</text><text x="29.058" y="1.67" class="g">│</text></symbol><symbol id="27"><text x="4.008" y="1.67" class="g">├──────────────┼─────────┼──────┼───────────────────────────────────────────</text></symbol><symbol id="28"><text y="1.67" class="g">───────────────────┼─────────┤</text></symbol><symbol id="29"><text x="4.008" y="1.67" class="g">│</text><text x="6.012" y="1.67" class="g">13:27:17.758</text><text x="19.038" y="1.67" class="g">│</text><text x="21.042" y="1.67" class="g">+0ms</text><text x="29.058" y="1.67" class="g">│</text><text x="31.062" y="1.67" class="g">STEP</text><text x="36.072" y="1.67" class="g">│</text><text x="38.076" y="1.67" class="g">[understanding]</text><text x="54.108" y="1.67" class="g">Analyzing</text><text x="64.128" y="1.67" class="g">request...</text><text x="75.15" y="1.67" class="g">-</text><text x="77.154" y="1.67" class="g">com</text></symbol><symbol id="30"><text y="1.67" class="g">pleted</text><text x="19.038" y="1.67" class="g">│</text><text x="21.042" y="1.67" class="g">-</text><text x="29.058" y="1.67" class="g">│</text></symbol><symbol id="31"><text x="4.008" y="1.67" class="g">│</text><text x="6.012" y="1.67" class="g">13:27:17.839</text><text x="19.038" y="1.67" class="g">│</text><text x="21.042" y="1.67" class="g">+81ms</text><text x="29.058" y="1.67" class="g">│</text><text x="31.062" y="1.67" class="g">STEP</text><text x="36.072" y="1.67" class="g">│</text><text x="38.076" y="1.67" class="g">[planning]</text><text x="49.098" y="1.67" class="g">Planning</text><text x="58.116" y="1.67" class="g">response...</text><text x="70.14" y="1.67" class="g">-</text><text x="72.144" y="1.67" class="g">complete</text></symbol><symbol id="32"><text y="1.67" class="g">d</text><text x="19.038" y="1.67" class="g">│</text><text x="21.042" y="1.67" class="g">-</text><text x="29.058" y="1.67" class="g">│</text></symbol><symbol id="33"><text x="4.008" y="1.67" class="g">│</text><text x="6.012" y="1.67" class="g">13:27:19.509</text><text x="19.038" y="1.67" class="g">│</text><text x="21.042" y="1.67" class="g">+1670ms</text><text x="29.058" y="1.67" class="g">│</text><text x="31.062" y="1.67" class="g">AI</text><text x="36.072" y="1.67" class="g">│</text><text x="38.076" y="1.67" class="g">gemini/gemini-2.5-flash:</text><text x="63.126" y="1.67" class="g">completed</text><text x="73.146" y="1.67" class="g">(in:560</text></symbol><symbol id="34"><text y="1.67" class="g">,</text><text x="2.004" y="1.67" class="g">out:16,</text><text x="10.02" y="1.67" class="g">1666ms)</text><text x="19.038" y="1.67" class="g">│</text><text x="21.042" y="1.67" class="g">1666ms</text><text x="29.058" y="1.67" class="g">│</text></symbol><symbol id="35"><text x="4.008" y="1.67" class="g">│</text><text x="6.012" y="1.67" class="g">13:27:19.511</text><text x="19.038" y="1.67" class="g">│</text><text x="21.042" y="1.67" class="g">+1ms</text><text x="29.058" y="1.67" class="g">│</text><text x="31.062" y="1.67" class="g">STEP</text><text x="36.072" y="1.67" class="g">│</text><text x="38.076" y="1.67" class="g">[tool_execution]</text><text x="55.11" y="1.67" class="g">Running</text><text x="63.126" y="1.67" class="g">systemprompt...</text><text x="79.158" y="1.67" class="g">-</text></symbol><symbol id="36"><text x="1.002" y="1.67" class="g">completed</text><text x="19.038" y="1.67" class="g">│</text><text x="21.042" y="1.67" class="g">-</text><text x="29.058" y="1.67" class="g">│</text></symbol><symbol id="37"><text x="4.008" y="1.67" class="g">│</text><text x="6.012" y="1.67" class="g">13:27:19.552</text><text x="19.038" y="1.67" class="g">│</text><text x="21.042" y="1.67" class="g">+41ms</text><text x="29.058" y="1.67" class="g">│</text><text x="31.062" y="1.67" class="g">MCP</text><text x="36.072" y="1.67" class="g">│</text><text x="38.076" y="1.67" class="g">systemprompt/systemprompt:</text><text x="65.13" y="1.67" class="g">success</text><text x="73.146" y="1.67" class="g">(283ms)</text></symbol><symbol id="38"><text x="19.038" y="1.67" class="g">│</text><text x="21.042" y="1.67" class="g">283ms</text><text x="29.058" y="1.67" class="g">│</text></symbol><symbol id="39"><text x="2.004" y="1.67" class="h">──</text><text x="5.01" y="1.67" class="f">Cost</text><text x="10.02" y="1.67" class="f">Attribution</text></symbol><symbol id="40"><text x="2.004" y="1.67" class="g">Per-agent</text><text x="12.024" y="1.67" class="g">AI</text><text x="15.03" y="1.67" class="g">spend</text></symbol><symbol id="41"><text x="2.004" y="1.67" class="i">$</text><text x="4.008" y="1.67" class="g">systemprompt</text><text x="17.034" y="1.67" class="g">analytics</text><text x="27.054" y="1.67" class="g">costs</text><text x="33.066" y="1.67" class="g">breakdown</text><text x="43.086" y="1.67" class="g">--by</text><text x="48.096" y="1.67" class="g">agent</text></symbol><symbol id="42"><text x="4.008" y="1.67" class="g">⚠</text><text x="6.012" y="1.67" class="g">No</text><text x="9.018" y="1.67" class="g">data</text><text x="14.028" y="1.67" class="g">found</text><text x="20.04" y="1.67" class="g">in</text><text x="23.046" y="1.67" class="g">the</text><text x="27.054" y="1.67" class="g">specified</text><text x="37.074" y="1.67" class="g">time</text><text x="42.084" y="1.67" class="g">range</text></symbol><symbol id="43"><text x="2.004" y="1.67" class="j">Total</text><text x="8.016" y="1.67" class="j">cost:</text><text x="14.028" y="1.67" class="j">~$0.01</text></symbol><symbol id="a"><path fill="transparent" d="M0 0h80v24H0z"/></symbol><symbol id="b"><path fill="#6f7683" d="M0 0h1.102v2.171H0z"/></symbol></defs><path class="a" d="M0 0h80v52.104H0z"/><g style="animation-duration:11.225701s;animation-iteration-count:infinite;animation-name:m;animation-timing-function:steps(1,end)"><svg width="2720"><svg><use xlink:href="#a"/><use xlink:href="#b" x="-.004"/></svg><svg x="80"><use xlink:href="#a"/><use xlink:href="#b" x="-.004" y="13.001"/><use xlink:href="#1" y="4.342"/><use xlink:href="#2" y="6.513"/><use xlink:href="#3" y="8.684"/></svg><svg x="160"><use xlink:href="#a"/><use xlink:href="#b" x="-.004" y="15.172"/><use xlink:href="#1" y="4.342"/><use xlink:href="#2" y="6.513"/><use xlink:href="#3" y="8.684"/><use xlink:href="#4" y="13.026"/></svg><svg x="240"><use xlink:href="#a"/><use xlink:href="#b" x="-.004" y="17.343"/><use xlink:href="#1" y="4.342"/><use xlink:href="#2" y="6.513"/><use xlink:href="#3" y="8.684"/><use xlink:href="#4" y="13.026"/><use xlink:href="#5" y="15.197"/></svg><svg x="320"><use xlink:href="#a"/><use xlink:href="#b" x="-.004" y="21.685"/><use xlink:href="#1" y="4.342"/><use xlink:href="#2" y="6.513"/><use xlink:href="#3" y="8.684"/><use xlink:href="#4" y="13.026"/><use xlink:href="#5" y="15.197"/><use xlink:href="#6" y="17.368"/></svg><svg x="400"><use xlink:href="#a"/><use xlink:href="#b" x="-.004" y="28.198"/><use xlink:href="#1" y="4.342"/><use xlink:href="#2" y="6.513"/><use xlink:href="#3" y="8.684"/><use xlink:href="#4" y="13.026"/><use xlink:href="#5" y="15.197"/><use xlink:href="#6" y="17.368"/><use xlink:href="#7" y="21.71"/><use xlink:href="#8" y="23.881"/></svg><svg x="480"><use xlink:href="#a"/><use xlink:href="#b" x="-.004" y="39.053"/><use xlink:href="#1" y="4.342"/><use xlink:href="#2" y="6.513"/><use xlink:href="#3" y="8.684"/><use xlink:href="#4" y="13.026"/><use xlink:href="#5" y="15.197"/><use xlink:href="#6" y="17.368"/><use xlink:href="#7" y="21.71"/><use xlink:href="#8" y="23.881"/><use xlink:href="#9" y="28.223"/><use xlink:href="#10" y="30.394"/><use xlink:href="#11" y="34.736"/></svg><svg x="560"><use xlink:href="#a"/><use xlink:href="#b" x="-.004" y="45.566"/><use xlink:href="#1" y="4.342"/><use xlink:href="#2" y="6.513"/><use xlink:href="#3" y="8.684"/><use xlink:href="#4" y="13.026"/><use xlink:href="#5" y="15.197"/><use xlink:href="#6" y="17.368"/><use xlink:href="#7" y="21.71"/><use xlink:href="#8" y="23.881"/><use xlink:href="#9" y="28.223"/><use xlink:href="#10" y="30.394"/><use xlink:href="#11" y="34.736"/><use xlink:href="#12" y="39.078"/><use xlink:href="#13" y="43.42"/></svg><svg x="640"><use xlink:href="#a"/><use xlink:href="#b" x="-.004" y="49.908"/><use xlink:href="#1" y="2.171"/><use xlink:href="#2" y="4.342"/><use xlink:href="#3" y="6.513"/><use xlink:href="#4" y="10.855"/><use xlink:href="#5" y="13.026"/><use xlink:href="#6" y="15.197"/><use xlink:href="#7" y="19.539"/><use xlink:href="#8" y="21.71"/><use xlink:href="#9" y="26.052"/><use xlink:href="#10" y="28.223"/><use xlink:href="#11" y="32.565"/><use xlink:href="#12" y="36.907"/><use xlink:href="#13" y="41.249"/><use xlink:href="#14" y="43.42"/><use xlink:href="#15" y="45.591"/><use xlink:href="#16" y="47.762"/></svg><svg x="720"><use xlink:href="#a"/><use xlink:href="#b" x="-.004" y="49.908"/><use xlink:href="#2"/><use xlink:href="#3" y="2.171"/><use xlink:href="#4" y="6.513"/><use xlink:href="#5" y="8.684"/><use xlink:href="#6" y="10.855"/><use xlink:href="#7" y="15.197"/><use xlink:href="#8" y="17.368"/><use xlink:href="#9" y="21.71"/><use xlink:href="#10" y="23.881"/><use xlink:href="#11" y="28.223"/><use xlink:href="#12" y="32.565"/><use xlink:href="#13" y="36.907"/><use xlink:href="#14" y="39.078"/><use xlink:href="#15" y="41.249"/><use xlink:href="#16" y="43.42"/><use xlink:href="#17" y="47.762"/></svg><svg x="800"><use xlink:href="#a"/><use xlink:href="#b" x="-.004" y="49.908"/><use xlink:href="#4" y="2.171"/><use xlink:href="#5" y="4.342"/><use xlink:href="#6" y="6.513"/><use xlink:href="#7" y="10.855"/><use xlink:href="#8" y="13.026"/><use xlink:href="#9" y="17.368"/><use xlink:href="#10" y="19.539"/><use xlink:href="#11" y="23.881"/><use xlink:href="#12" y="28.223"/><use xlink:href="#13" y="32.565"/><use xlink:href="#14" y="34.736"/><use xlink:href="#15" y="36.907"/><use xlink:href="#16" y="39.078"/><use xlink:href="#17" y="43.42"/><use xlink:href="#6" y="45.591"/></svg><svg x="880"><use xlink:href="#a"/><use xlink:href="#b" x="-.004" y="49.908"/><use xlink:href="#6"/><use xlink:href="#7" y="4.342"/><use xlink:href="#8" y="6.513"/><use xlink:href="#9" y="10.855"/><use xlink:href="#10" y="13.026"/><use xlink:href="#11" y="17.368"/><use xlink:href="#12" y="21.71"/><use xlink:href="#13" y="26.052"/><use xlink:href="#14" y="28.223"/><use xlink:href="#15" y="30.394"/><use xlink:href="#16" y="32.565"/><use xlink:href="#17" y="36.907"/><use xlink:href="#6" y="39.078"/><use xlink:href="#18" y="43.42"/><use xlink:href="#19" y="45.591"/></svg><svg x="960"><use xlink:href="#a"/><use xlink:href="#b" x="-.004" y="49.908"/><use xlink:href="#7"/><use xlink:href="#8" y="2.171"/><use xlink:href="#9" y="6.513"/><use xlink:href="#10" y="8.684"/><use xlink:href="#11" y="13.026"/><use xlink:href="#12" y="17.368"/><use xlink:href="#13" y="21.71"/><use xlink:href="#14" y="23.881"/><use xlink:href="#15" y="26.052"/><use xlink:href="#16" y="28.223"/><use xlink:href="#17" y="32.565"/><use xlink:href="#6" y="34.736"/><use xlink:href="#18" y="39.078"/><use xlink:href="#19" y="41.249"/><use xlink:href="#20" y="45.591"/><use xlink:href="#21" y="47.762"/></svg><svg x="1040"><use xlink:href="#a"/><use xlink:href="#b" x="-.004" y="49.908"/><use xlink:href="#8"/><use xlink:href="#9" y="4.342"/><use xlink:href="#10" y="6.513"/><use xlink:href="#11" y="10.855"/><use xlink:href="#12" y="15.197"/><use xlink:href="#13" y="19.539"/><use xlink:href="#14" y="21.71"/><use xlink:href="#15" y="23.881"/><use xlink:href="#16" y="26.052"/><use xlink:href="#17" y="30.394"/><use xlink:href="#6" y="32.565"/><use xlink:href="#18" y="36.907"/><use xlink:href="#19" y="39.078"/><use xlink:href="#20" y="43.42"/><use xlink:href="#21" y="45.591"/></svg><svg x="1120"><use xlink:href="#a"/><use xlink:href="#b" x="-.004" y="49.908"/><use xlink:href="#9" y="2.171"/><use xlink:href="#10" y="4.342"/><use xlink:href="#11" y="8.684"/><use xlink:href="#12" y="13.026"/><use xlink:href="#13" y="17.368"/><use xlink:href="#14" y="19.539"/><use xlink:href="#15" y="21.71"/><use xlink:href="#16" y="23.881"/><use xlink:href="#17" y="28.223"/><use xlink:href="#6" y="30.394"/><use xlink:href="#18" y="34.736"/><use xlink:href="#19" y="36.907"/><use xlink:href="#20" y="41.249"/><use xlink:href="#21" y="43.42"/><use xlink:href="#22" y="47.762"/></svg><svg x="1200"><use xlink:href="#a"/><use xlink:href="#b" x="-.004" y="49.908"/><use xlink:href="#10"/><use xlink:href="#11" y="4.342"/><use xlink:href="#12" y="8.684"/><use xlink:href="#13" y="13.026"/><use xlink:href="#14" y="15.197"/><use xlink:href="#15" y="17.368"/><use xlink:href="#16" y="19.539"/><use xlink:href="#17" y="23.881"/><use xlink:href="#6" y="26.052"/><use xlink:href="#18" y="30.394"/><use xlink:href="#19" y="32.565"/><use xlink:href="#20" y="36.907"/><use xlink:href="#21" y="39.078"/><use xlink:href="#22" y="43.42"/><use xlink:href="#23" y="45.591"/><use xlink:href="#24" y="47.762"/></svg><svg x="1280"><use xlink:href="#a"/><use xlink:href="#b" x="-.004" y="49.908"/><use xlink:href="#11"/><use xlink:href="#12" y="4.342"/><use xlink:href="#13" y="8.684"/><use xlink:href="#14" y="10.855"/><use xlink:href="#15" y="13.026"/><use xlink:href="#16" y="15.197"/><use xlink:href="#17" y="19.539"/><use xlink:href="#6" y="21.71"/><use xlink:href="#18" y="26.052"/><use xlink:href="#19" y="28.223"/><use xlink:href="#20" y="32.565"/><use xlink:href="#21" y="34.736"/><use xlink:href="#22" y="39.078"/><use xlink:href="#23" y="41.249"/><use xlink:href="#24" y="43.42"/><use xlink:href="#25" y="45.591"/><use xlink:href="#26" y="47.762"/></svg><svg x="1360"><use xlink:href="#a"/><use xlink:href="#b" x="-.004" y="49.908"/><use xlink:href="#12"/><use xlink:href="#13" y="4.342"/><use xlink:href="#14" y="6.513"/><use xlink:href="#15" y="8.684"/><use xlink:href="#16" y="10.855"/><use xlink:href="#17" y="15.197"/><use xlink:href="#6" y="17.368"/><use xlink:href="#18" y="21.71"/><use xlink:href="#19" y="23.881"/><use xlink:href="#20" y="28.223"/><use xlink:href="#21" y="30.394"/><use xlink:href="#22" y="34.736"/><use xlink:href="#23" y="36.907"/><use xlink:href="#24" y="39.078"/><use xlink:href="#25" y="41.249"/><use xlink:href="#26" y="43.42"/><use xlink:href="#27" y="45.591"/><use xlink:href="#28" y="47.762"/></svg><svg x="1440"><use xlink:href="#a"/><use xlink:href="#b" x="-.004" y="49.908"/><use xlink:href="#13"/><use xlink:href="#14" y="2.171"/><use xlink:href="#15" y="4.342"/><use xlink:href="#16" y="6.513"/><use xlink:href="#17" y="10.855"/><use xlink:href="#6" y="13.026"/><use xlink:href="#18" y="17.368"/><use xlink:href="#19" y="19.539"/><use xlink:href="#20" y="23.881"/><use xlink:href="#21" y="26.052"/><use xlink:href="#22" y="30.394"/><use xlink:href="#23" y="32.565"/><use xlink:href="#24" y="34.736"/><use xlink:href="#25" y="36.907"/><use xlink:href="#26" y="39.078"/><use xlink:href="#27" y="41.249"/><use xlink:href="#28" y="43.42"/><use xlink:href="#29" y="45.591"/><use xlink:href="#30" y="47.762"/></svg><svg x="1520"><use xlink:href="#a"/><use xlink:href="#b" x="-.004" y="49.908"/><use xlink:href="#15"/><use xlink:href="#16" y="2.171"/><use xlink:href="#17" y="6.513"/><use xlink:href="#6" y="8.684"/><use xlink:href="#18" y="13.026"/><use xlink:href="#19" y="15.197"/><use xlink:href="#20" y="19.539"/><use xlink:href="#21" y="21.71"/><use xlink:href="#22" y="26.052"/><use xlink:href="#23" y="28.223"/><use xlink:href="#24" y="30.394"/><use xlink:href="#25" y="32.565"/><use xlink:href="#26" y="34.736"/><use xlink:href="#27" y="36.907"/><use xlink:href="#28" y="39.078"/><use xlink:href="#29" y="41.249"/><use xlink:href="#30" y="43.42"/><use xlink:href="#27" y="45.591"/><use xlink:href="#28" y="47.762"/></svg><svg x="1600"><use xlink:href="#a"/><use xlink:href="#b" x="-.004" y="49.908"/><use xlink:href="#17" y="2.171"/><use xlink:href="#6" y="4.342"/><use xlink:href="#18" y="8.684"/><use xlink:href="#19" y="10.855"/><use xlink:href="#20" y="15.197"/><use xlink:href="#21" y="17.368"/><use xlink:href="#22" y="21.71"/><use xlink:href="#23" y="23.881"/><use xlink:href="#24" y="26.052"/><use xlink:href="#25" y="28.223"/><use xlink:href="#26" y="30.394"/><use xlink:href="#27" y="32.565"/><use xlink:href="#28" y="34.736"/><use xlink:href="#29" y="36.907"/><use xlink:href="#30" y="39.078"/><use xlink:href="#27" y="41.249"/><use xlink:href="#28" y="43.42"/><use xlink:href="#31" y="45.591"/><use xlink:href="#32" y="47.762"/></svg><svg x="1680"><use xlink:href="#a"/><use xlink:href="#b" x="-.004" y="49.908"/><use xlink:href="#6"/><use xlink:href="#18" y="4.342"/><use xlink:href="#19" y="6.513"/><use xlink:href="#20" y="10.855"/><use xlink:href="#21" y="13.026"/><use xlink:href="#22" y="17.368"/><use xlink:href="#23" y="19.539"/><use xlink:href="#24" y="21.71"/><use xlink:href="#25" y="23.881"/><use xlink:href="#26" y="26.052"/><use xlink:href="#27" y="28.223"/><use xlink:href="#28" y="30.394"/><use xlink:href="#29" y="32.565"/><use xlink:href="#30" y="34.736"/><use xlink:href="#27" y="36.907"/><use xlink:href="#28" y="39.078"/><use xlink:href="#31" y="41.249"/><use xlink:href="#32" y="43.42"/><use xlink:href="#27" y="45.591"/><use xlink:href="#28" y="47.762"/></svg><svg x="1760"><use xlink:href="#a"/><use xlink:href="#b" x="-.004" y="49.908"/><use xlink:href="#18"/><use xlink:href="#19" y="2.171"/><use xlink:href="#20" y="6.513"/><use xlink:href="#21" y="8.684"/><use xlink:href="#22" y="13.026"/><use xlink:href="#23" y="15.197"/><use xlink:href="#24" y="17.368"/><use xlink:href="#25" y="19.539"/><use xlink:href="#26" y="21.71"/><use xlink:href="#27" y="23.881"/><use xlink:href="#28" y="26.052"/><use xlink:href="#29" y="28.223"/><use xlink:href="#30" y="30.394"/><use xlink:href="#27" y="32.565"/><use xlink:href="#28" y="34.736"/><use xlink:href="#31" y="36.907"/><use xlink:href="#32" y="39.078"/><use xlink:href="#27" y="41.249"/><use xlink:href="#28" y="43.42"/><use xlink:href="#33" y="45.591"/><use xlink:href="#34" y="47.762"/></svg><svg x="1840"><use xlink:href="#a"/><use xlink:href="#b" x="-.004" y="49.908"/><use xlink:href="#20" y="2.171"/><use xlink:href="#21" y="4.342"/><use xlink:href="#22" y="8.684"/><use xlink:href="#23" y="10.855"/><use xlink:href="#24" y="13.026"/><use xlink:href="#25" y="15.197"/><use xlink:href="#26" y="17.368"/><use xlink:href="#27" y="19.539"/><use xlink:href="#28" y="21.71"/><use xlink:href="#29" y="23.881"/><use xlink:href="#30" y="26.052"/><use xlink:href="#27" y="28.223"/><use xlink:href="#28" y="30.394"/><use xlink:href="#31" y="32.565"/><use xlink:href="#32" y="34.736"/><use xlink:href="#27" y="36.907"/><use xlink:href="#28" y="39.078"/><use xlink:href="#33" y="41.249"/><use xlink:href="#34" y="43.42"/><use xlink:href="#27" y="45.591"/><use xlink:href="#28" y="47.762"/></svg><svg x="1920"><use xlink:href="#a"/><use xlink:href="#b" x="-.004" y="49.908"/><use xlink:href="#21"/><use xlink:href="#22" y="4.342"/><use xlink:href="#23" y="6.513"/><use xlink:href="#24" y="8.684"/><use xlink:href="#25" y="10.855"/><use xlink:href="#26" y="13.026"/><use xlink:href="#27" y="15.197"/><use xlink:href="#28" y="17.368"/><use xlink:href="#29" y="19.539"/><use xlink:href="#30" y="21.71"/><use xlink:href="#27" y="23.881"/><use xlink:href="#28" y="26.052"/><use xlink:href="#31" y="28.223"/><use xlink:href="#32" y="30.394"/><use xlink:href="#27" y="32.565"/><use xlink:href="#28" y="34.736"/><use xlink:href="#33" y="36.907"/><use xlink:href="#34" y="39.078"/><use xlink:href="#27" y="41.249"/><use xlink:href="#28" y="43.42"/><use xlink:href="#35" y="45.591"/><use xlink:href="#36" y="47.762"/></svg><svg x="2000"><use xlink:href="#a"/><use xlink:href="#b" x="-.004" y="49.908"/><use xlink:href="#22"/><use xlink:href="#23" y="2.171"/><use xlink:href="#24" y="4.342"/><use xlink:href="#25" y="6.513"/><use xlink:href="#26" y="8.684"/><use xlink:href="#27" y="10.855"/><use xlink:href="#28" y="13.026"/><use xlink:href="#29" y="15.197"/><use xlink:href="#30" y="17.368"/><use xlink:href="#27" y="19.539"/><use xlink:href="#28" y="21.71"/><use xlink:href="#31" y="23.881"/><use xlink:href="#32" y="26.052"/><use xlink:href="#27" y="28.223"/><use xlink:href="#28" y="30.394"/><use xlink:href="#33" y="32.565"/><use xlink:href="#34" y="34.736"/><use xlink:href="#27" y="36.907"/><use xlink:href="#28" y="39.078"/><use xlink:href="#35" y="41.249"/><use xlink:href="#36" y="43.42"/><use xlink:href="#27" y="45.591"/><use xlink:href="#28" y="47.762"/></svg><svg x="2080"><use xlink:href="#a"/><use xlink:href="#b" x="-.004" y="49.908"/><use xlink:href="#24"/><use xlink:href="#25" y="2.171"/><use xlink:href="#26" y="4.342"/><use xlink:href="#27" y="6.513"/><use xlink:href="#28" y="8.684"/><use xlink:href="#29" y="10.855"/><use xlink:href="#30" y="13.026"/><use xlink:href="#27" y="15.197"/><use xlink:href="#28" y="17.368"/><use xlink:href="#31" y="19.539"/><use xlink:href="#32" y="21.71"/><use xlink:href="#27" y="23.881"/><use xlink:href="#28" y="26.052"/><use xlink:href="#33" y="28.223"/><use xlink:href="#34" y="30.394"/><use xlink:href="#27" y="32.565"/><use xlink:href="#28" y="34.736"/><use xlink:href="#35" y="36.907"/><use xlink:href="#36" y="39.078"/><use xlink:href="#27" y="41.249"/><use xlink:href="#28" y="43.42"/><use xlink:href="#37" y="45.591"/><use xlink:href="#38" y="47.762"/></svg><svg x="2160"><use xlink:href="#a"/><use xlink:href="#b" x="-.004" y="49.908"/><use xlink:href="#26"/><use xlink:href="#27" y="2.171"/><use xlink:href="#28" y="4.342"/><use xlink:href="#29" y="6.513"/><use xlink:href="#30" y="8.684"/><use xlink:href="#27" y="10.855"/><use xlink:href="#28" y="13.026"/><use xlink:href="#31" y="15.197"/><use xlink:href="#32" y="17.368"/><use xlink:href="#27" y="19.539"/><use xlink:href="#28" y="21.71"/><use xlink:href="#33" y="23.881"/><use xlink:href="#34" y="26.052"/><use xlink:href="#27" y="28.223"/><use xlink:href="#28" y="30.394"/><use xlink:href="#35" y="32.565"/><use xlink:href="#36" y="34.736"/><use xlink:href="#27" y="36.907"/><use xlink:href="#28" y="39.078"/><use xlink:href="#37" y="41.249"/><use xlink:href="#38" y="43.42"/><use xlink:href="#27" y="45.591"/><use xlink:href="#28" y="47.762"/></svg><svg x="2240"><use xlink:href="#a"/><use xlink:href="#b" x="-.004" y="49.908"/><use xlink:href="#27"/><use xlink:href="#28" y="2.171"/><use xlink:href="#31" y="4.342"/><use xlink:href="#32" y="6.513"/><use xlink:href="#27" y="8.684"/><use xlink:href="#28" y="10.855"/><use xlink:href="#33" y="13.026"/><use xlink:href="#34" y="15.197"/><use xlink:href="#27" y="17.368"/><use xlink:href="#28" y="19.539"/><use xlink:href="#35" y="21.71"/><use xlink:href="#36" y="23.881"/><use xlink:href="#27" y="26.052"/><use xlink:href="#28" y="28.223"/><use xlink:href="#37" y="30.394"/><use xlink:href="#38" y="32.565"/><use xlink:href="#27" y="34.736"/><use xlink:href="#28" y="36.907"/><use xlink:href="#6" y="39.078"/><use xlink:href="#39" y="43.42"/><use xlink:href="#40" y="45.591"/></svg><svg x="2320"><use xlink:href="#a"/><use xlink:href="#b" x="-.004" y="49.908"/><use xlink:href="#28"/><use xlink:href="#31" y="2.171"/><use xlink:href="#32" y="4.342"/><use xlink:href="#27" y="6.513"/><use xlink:href="#28" y="8.684"/><use xlink:href="#33" y="10.855"/><use xlink:href="#34" y="13.026"/><use xlink:href="#27" y="15.197"/><use xlink:href="#28" y="17.368"/><use xlink:href="#35" y="19.539"/><use xlink:href="#36" y="21.71"/><use xlink:href="#27" y="23.881"/><use xlink:href="#28" y="26.052"/><use xlink:href="#37" y="28.223"/><use xlink:href="#38" y="30.394"/><use xlink:href="#27" y="32.565"/><use xlink:href="#28" y="34.736"/><use xlink:href="#6" y="36.907"/><use xlink:href="#39" y="41.249"/><use xlink:href="#40" y="43.42"/><use xlink:href="#41" y="47.762"/></svg><svg x="2400"><use xlink:href="#a"/><use xlink:href="#b" x="-.004" y="49.908"/><use xlink:href="#31"/><use xlink:href="#32" y="2.171"/><use xlink:href="#27" y="4.342"/><use xlink:href="#28" y="6.513"/><use xlink:href="#33" y="8.684"/><use xlink:href="#34" y="10.855"/><use xlink:href="#27" y="13.026"/><use xlink:href="#28" y="15.197"/><use xlink:href="#35" y="17.368"/><use xlink:href="#36" y="19.539"/><use xlink:href="#27" y="21.71"/><use xlink:href="#28" y="23.881"/><use xlink:href="#37" y="26.052"/><use xlink:href="#38" y="28.223"/><use xlink:href="#27" y="30.394"/><use xlink:href="#28" y="32.565"/><use xlink:href="#6" y="34.736"/><use xlink:href="#39" y="39.078"/><use xlink:href="#40" y="41.249"/><use xlink:href="#41" y="45.591"/><use xlink:href="#42" y="47.762"/></svg><svg x="2480"><use xlink:href="#a"/><use xlink:href="#b" x="-.004" y="49.908"/><use xlink:href="#32"/><use xlink:href="#27" y="2.171"/><use xlink:href="#28" y="4.342"/><use xlink:href="#33" y="6.513"/><use xlink:href="#34" y="8.684"/><use xlink:href="#27" y="10.855"/><use xlink:href="#28" y="13.026"/><use xlink:href="#35" y="15.197"/><use xlink:href="#36" y="17.368"/><use xlink:href="#27" y="19.539"/><use xlink:href="#28" y="21.71"/><use xlink:href="#37" y="23.881"/><use xlink:href="#38" y="26.052"/><use xlink:href="#27" y="28.223"/><use xlink:href="#28" y="30.394"/><use xlink:href="#6" y="32.565"/><use xlink:href="#39" y="36.907"/><use xlink:href="#40" y="39.078"/><use xlink:href="#41" y="43.42"/><use xlink:href="#42" y="45.591"/></svg><svg x="2560"><use xlink:href="#a"/><use xlink:href="#b" x="-.004" y="49.908"/><use xlink:href="#27"/><use xlink:href="#28" y="2.171"/><use xlink:href="#33" y="4.342"/><use xlink:href="#34" y="6.513"/><use xlink:href="#27" y="8.684"/><use xlink:href="#28" y="10.855"/><use xlink:href="#35" y="13.026"/><use xlink:href="#36" y="15.197"/><use xlink:href="#27" y="17.368"/><use xlink:href="#28" y="19.539"/><use xlink:href="#37" y="21.71"/><use xlink:href="#38" y="23.881"/><use xlink:href="#27" y="26.052"/><use xlink:href="#28" y="28.223"/><use xlink:href="#6" y="30.394"/><use xlink:href="#39" y="34.736"/><use xlink:href="#40" y="36.907"/><use xlink:href="#41" y="41.249"/><use xlink:href="#42" y="43.42"/><use xlink:href="#43" y="47.762"/></svg><svg x="2640"><use xlink:href="#a"/><use xlink:href="#b" x="-.004" y="49.908"/><use xlink:href="#27"/><use xlink:href="#28" y="2.171"/><use xlink:href="#35" y="4.342"/><use xlink:href="#36" y="6.513"/><use xlink:href="#27" y="8.684"/><use xlink:href="#28" y="10.855"/><use xlink:href="#37" y="13.026"/><use xlink:href="#38" y="15.197"/><use xlink:href="#27" y="17.368"/><use xlink:href="#28" y="19.539"/><use xlink:href="#6" y="21.71"/><use xlink:href="#39" y="26.052"/><use xlink:href="#40" y="28.223"/><use xlink:href="#41" y="32.565"/><use xlink:href="#42" y="34.736"/><use xlink:href="#43" y="39.078"/><use xlink:href="#6" y="41.249"/><text x="2.004" y="47.261" class="o">AI</text><text x="5.01" y="47.261" class="o">reasoning.</text><text x="16.032" y="47.261" class="o">MCP</text><text x="20.04" y="47.261" class="o">tools.</text><text x="27.054" y="47.261" class="o">Full</text><text x="32.064" y="47.261" class="o">trace.</text><text x="39.078" y="47.261" class="o">Under</text><text x="45.09" y="47.261" class="o">a</text><text x="47.094" y="47.261" class="o">penny.</text></svg></svg></g></g></svg></svg>