<svg xmlns="http://www.w3.org/2000/svg" viewBox="0 0 800 500" width="800" height="500" font-family="system-ui, -apple-system, sans-serif">
  <defs>
    <marker id="arrow" viewBox="0 0 10 10" refX="10" refY="5" markerWidth="6" markerHeight="6" orient="auto-start-reverse">
      <path d="M 0 0 L 10 5 L 0 10 z" fill="#A2AAB9"/>
    </marker>
    <marker id="arrow-blue" viewBox="0 0 10 10" refX="10" refY="5" markerWidth="6" markerHeight="6" orient="auto-start-reverse">
      <path d="M 0 0 L 10 5 L 0 10 z" fill="#0071CE"/>
    </marker>
    <linearGradient id="gov-border" x1="0" y1="0" x2="1" y2="1">
      <stop offset="0%" stop-color="#EF4623"/>
      <stop offset="100%" stop-color="#c93a1d"/>
    </linearGradient>
  </defs>

  <!-- Title -->
  <text x="400" y="30" text-anchor="middle" fill="#252526" font-size="15" font-weight="700" letter-spacing="0.5">AI AGENT GOVERNANCE PLATFORM</text>

  <!-- ==================== TOP LAYER: CLIENTS ==================== -->
  <text x="50" y="62" fill="#A2AAB9" font-size="10" font-weight="600" letter-spacing="1">CLIENTS</text>

  <!-- Client boxes -->
  <g>
    <rect x="50" y="70" width="155" height="38" rx="6" fill="none" stroke="#D6DCE8" stroke-width="1"/>
    <text x="127" y="93" text-anchor="middle" fill="#252526" font-size="11" font-weight="500">Claude Code</text>
  </g>
  <g>
    <rect x="220" y="70" width="155" height="38" rx="6" fill="none" stroke="#D6DCE8" stroke-width="1"/>
    <text x="297" y="93" text-anchor="middle" fill="#252526" font-size="11" font-weight="500">Claude Cowork</text>
  </g>
  <g>
    <rect x="390" y="70" width="155" height="38" rx="6" fill="none" stroke="#D6DCE8" stroke-width="1"/>
    <text x="467" y="93" text-anchor="middle" fill="#252526" font-size="11" font-weight="500">Claude Desktop</text>
  </g>
  <g>
    <rect x="560" y="70" width="185" height="38" rx="6" fill="none" stroke="#D6DCE8" stroke-width="1"/>
    <text x="652" y="93" text-anchor="middle" fill="#252526" font-size="11" font-weight="500">Custom MCP Clients</text>
  </g>

  <!-- Arrows from clients down -->
  <line x1="127" y1="108" x2="127" y2="155" stroke="#A2AAB9" stroke-width="1.5" marker-end="url(#arrow)"/>
  <line x1="297" y1="108" x2="297" y2="155" stroke="#A2AAB9" stroke-width="1.5" marker-end="url(#arrow)"/>
  <line x1="467" y1="108" x2="467" y2="155" stroke="#A2AAB9" stroke-width="1.5" marker-end="url(#arrow)"/>
  <line x1="652" y1="108" x2="652" y2="155" stroke="#A2AAB9" stroke-width="1.5" marker-end="url(#arrow)"/>

  <!-- Connection bar -->
  <line x1="127" y1="140" x2="652" y2="140" stroke="#D6DCE8" stroke-width="1" stroke-dasharray="3,3"/>

  <!-- ==================== MIDDLE LAYER: GOVERNANCE ==================== -->

  <!-- Governance outer box -->
  <rect x="40" y="158" width="720" height="170" rx="12" fill="#F7F4EF" stroke="url(#gov-border)" stroke-width="2"/>

  <!-- Governance label -->
  <rect x="310" y="148" width="180" height="20" rx="4" fill="#EF4623"/>
  <text x="400" y="162" text-anchor="middle" fill="#ffffff" font-size="11" font-weight="700" letter-spacing="0.5">GOVERNANCE LAYER</text>

  <!-- Governance sub-boxes -->
  <g>
    <rect x="65" y="185" width="155" height="55" rx="8" fill="none" stroke="#D6DCE8" stroke-width="1" opacity="0.8"/>
    <text x="142" y="207" text-anchor="middle" fill="#EF4623" font-size="10" font-weight="700">OAuth2 &amp; RBAC</text>
    <text x="142" y="224" text-anchor="middle" fill="#464E5D" font-size="9">Per-user, per-agent</text>
    <text x="142" y="235" text-anchor="middle" fill="#464E5D" font-size="9">access control</text>
  </g>
  <g>
    <rect x="235" y="185" width="155" height="55" rx="8" fill="none" stroke="#D6DCE8" stroke-width="1" opacity="0.8"/>
    <text x="312" y="207" text-anchor="middle" fill="#EF4623" font-size="10" font-weight="700">Hook System</text>
    <text x="312" y="224" text-anchor="middle" fill="#464E5D" font-size="9">PreToolUse / PostToolUse</text>
    <text x="312" y="235" text-anchor="middle" fill="#464E5D" font-size="9">policy enforcement</text>
  </g>
  <g>
    <rect x="405" y="185" width="155" height="55" rx="8" fill="none" stroke="#D6DCE8" stroke-width="1" opacity="0.8"/>
    <text x="482" y="207" text-anchor="middle" fill="#EF4623" font-size="10" font-weight="700">Secret Management</text>
    <text x="482" y="224" text-anchor="middle" fill="#464E5D" font-size="9">Encrypted per-plugin</text>
    <text x="482" y="235" text-anchor="middle" fill="#464E5D" font-size="9">environment variables</text>
  </g>
  <g>
    <rect x="575" y="185" width="160" height="55" rx="8" fill="none" stroke="#D6DCE8" stroke-width="1" opacity="0.8"/>
    <text x="655" y="207" text-anchor="middle" fill="#EF4623" font-size="10" font-weight="700">Audit &amp; Analytics</text>
    <text x="655" y="224" text-anchor="middle" fill="#464E5D" font-size="9">Request tracing, cost</text>
    <text x="655" y="235" text-anchor="middle" fill="#464E5D" font-size="9">tracking, usage reports</text>
  </g>

  <!-- Narrow waist indicator -->
  <rect x="65" y="255" width="670" height="1" fill="#D6DCE8" opacity="1"/>
  <text x="400" y="275" text-anchor="middle" fill="#A2AAB9" font-size="9" font-style="italic">Single control plane for all AI agent traffic</text>

  <!-- CLI callout on right side -->
  <g transform="translate(0, 290)">
    <rect x="65" y="0" width="670" height="28" rx="5" fill="#F7F4EF" stroke="#D6DCE8" stroke-width="1"/>
    <text x="85" y="18" fill="#22c55e" font-size="11" font-weight="500" font-family="monospace">$</text>
    <text x="100" y="18" fill="#252526" font-size="11" font-family="monospace">systemprompt &lt;domain&gt; &lt;command&gt; [args]</text>
    <text x="460" y="18" fill="#464E5D" font-size="10" font-family="monospace">core | infra | admin | cloud | analytics | web</text>
  </g>

  <!-- ==================== ARROWS: GOVERNANCE TO INFRASTRUCTURE ==================== -->
  <line x1="170" y1="340" x2="170" y2="380" stroke="#A2AAB9" stroke-width="1.5" marker-end="url(#arrow)"/>
  <line x1="400" y1="340" x2="400" y2="380" stroke="#A2AAB9" stroke-width="1.5" marker-end="url(#arrow)"/>
  <line x1="630" y1="340" x2="630" y2="380" stroke="#A2AAB9" stroke-width="1.5" marker-end="url(#arrow)"/>

  <!-- Connection bar bottom -->
  <line x1="170" y1="365" x2="630" y2="365" stroke="#D6DCE8" stroke-width="1" stroke-dasharray="3,3"/>

  <!-- ==================== BOTTOM LAYER: INFRASTRUCTURE ==================== -->
  <text x="50" y="393" fill="#A2AAB9" font-size="10" font-weight="600" letter-spacing="1">INFRASTRUCTURE</text>

  <!-- PostgreSQL -->
  <g>
    <rect x="65" y="400" width="195" height="50" rx="6" fill="none" stroke="#D6DCE8" stroke-width="1"/>
    <circle cx="90" cy="425" r="10" fill="none" stroke="#0071CE" stroke-width="1.5"/>
    <ellipse cx="90" cy="421" rx="10" ry="4" fill="none" stroke="#0071CE" stroke-width="1.5"/>
    <text x="112" y="421" fill="#252526" font-size="11" font-weight="500">PostgreSQL</text>
    <text x="112" y="436" fill="#464E5D" font-size="9">Single database</text>
  </g>

  <!-- MCP Servers -->
  <g>
    <rect x="280" y="400" width="240" height="50" rx="6" fill="none" stroke="#D6DCE8" stroke-width="1"/>
    <rect x="300" y="415" width="14" height="20" rx="2" fill="none" stroke="#0071CE" stroke-width="1.5"/>
    <rect x="306" y="418" width="14" height="20" rx="2" fill="none" stroke="#0071CE" stroke-width="1.5"/>
    <text x="332" y="421" fill="#252526" font-size="11" font-weight="500">MCP Servers</text>
    <text x="332" y="436" fill="#464E5D" font-size="9">Per-server OAuth2 scopes</text>
  </g>

  <!-- AI Providers -->
  <g>
    <rect x="540" y="400" width="205" height="50" rx="6" fill="none" stroke="#D6DCE8" stroke-width="1"/>
    <polygon points="560,430 570,415 580,430" fill="none" stroke="#0071CE" stroke-width="1.5"/>
    <text x="592" y="421" fill="#252526" font-size="11" font-weight="500">AI Providers</text>
    <text x="592" y="436" fill="#464E5D" font-size="9">Anthropic, OpenAI, Google</text>
  </g>

  <!-- Bottom label -->
  <text x="400" y="478" text-anchor="middle" fill="#A2AAB9" font-size="9" letter-spacing="0.5">KNOWBE4 AI AGENT GOVERNANCE</text>
  <line x1="200" y1="485" x2="600" y2="485" stroke="#D6DCE8" stroke-width="1"/>
  <text x="400" y="496" text-anchor="middle" fill="#A2AAB9" font-size="8">systemprompt.io</text>
</svg>
