<svg xmlns="http://www.w3.org/2000/svg" xmlns:xlink="http://www.w3.org/1999/xlink" width="1072" height="786.72"><rect width="1072" height="786.72" rx="5" ry="5" class="a"/><svg y="0%" x="0%"><circle cx="20" cy="20" r="6" fill="#ff5f58"/><circle cx="40" cy="20" r="6" fill="#ffbd2e"/><circle cx="60" cy="20" r="6" fill="#18c132"/></svg><svg height="694.72" viewBox="0 0 100 69.472" width="1000" x="31" xmlns="http://www.w3.org/2000/svg" xmlns:xlink="http://www.w3.org/1999/xlink" y="66"><style>@keyframes l{0%{transform:translateX(0)}.3%{transform:translateX(-100px)}22.7%{transform:translateX(-200px)}23.1%{transform:translateX(-300px)}23.6%{transform:translateX(-400px)}24%{transform:translateX(-500px)}24.5%{transform:translateX(-600px)}24.9%{transform:translateX(-700px)}25.4%{transform:translateX(-800px)}25.9%{transform:translateX(-900px)}26.3%{transform:translateX(-1000px)}26.8%{transform:translateX(-1100px)}27.2%{transform:translateX(-1200px)}27.7%{transform:translateX(-1300px)}28.1%{transform:translateX(-1400px)}28.6%{transform:translateX(-1500px)}29%{transform:translateX(-1600px)}29.5%{transform:translateX(-1700px)}29.9%{transform:translateX(-1800px)}30.4%{transform:translateX(-1900px)}30.8%{transform:translateX(-2000px)}31.3%{transform:translateX(-2100px)}31.7%{transform:translateX(-2200px)}32.2%{transform:translateX(-2300px)}32.6%{transform:translateX(-2400px)}33.1%{transform:translateX(-2500px)}33.5%{transform:translateX(-2600px)}34%{transform:translateX(-2700px)}34.5%{transform:translateX(-2800px)}34.9%{transform:translateX(-2900px)}35.4%{transform:translateX(-3000px)}35.8%{transform:translateX(-3100px)}36.3%{transform:translateX(-3200px)}36.7%{transform:translateX(-3300px)}37.2%{transform:translateX(-3400px)}48.7%{transform:translateX(-3700px)}65.6%{transform:translateX(-3800px)}66%{transform:translateX(-3900px)}66.5%{transform:translateX(-4000px)}66.9%{transform:translateX(-4100px)}67.4%{transform:translateX(-4200px)}67.8%{transform:translateX(-4300px)}68.3%{transform:translateX(-4400px)}68.8%{transform:translateX(-4500px)}69.2%{transform:translateX(-4600px)}69.7%{transform:translateX(-4700px)}70.2%{transform:translateX(-4800px)}70.6%{transform:translateX(-4900px)}71.1%{transform:translateX(-5000px)}71.5%{transform:translateX(-5100px)}72%{transform:translateX(-5200px)}72.5%{transform:translateX(-5300px)}72.9%{transform:translateX(-5400px)}73.4%{transform:translateX(-5500px)}73.9%{transform:translateX(-5600px)}74.3%{transform:translateX(-5700px)}74.8%{transform:translateX(-5800px)}75.2%{transform:translateX(-5900px)}75.7%{transform:translateX(-6000px)}76.1%{transform:translateX(-6100px)}76.6%{transform:translateX(-6200px)}77.1%{transform:translateX(-6300px)}77.5%{transform:translateX(-6400px)}78%{transform:translateX(-6500px)}78.4%{transform:translateX(-6600px)}78.9%{transform:translateX(-6700px)}79.3%{transform:translateX(-6800px)}79.8%{transform:translateX(-6900px)}80.3%{transform:translateX(-7000px)}80.7%{transform:translateX(-7100px)}81.2%{transform:translateX(-7200px)}to{transform:translateX(-7600px)}}.a{fill:#fafafa}.g,.i,.n{fill:#2d2d2d;white-space:pre}.i,.n{fill:#27ae60}.n{font-weight:700}</style><g font-family="Monaco,Consolas,Menlo,'Bitstream Vera Sans Mono','Powerline Symbols',monospace" font-size="1.67"><defs><symbol id="1"><text y="1.67" style="white-space:pre" fill="#2d2d2d" font-weight="700">app-runtime</text></symbol><symbol id="2"><text y="1.67" class="g">Supervises</text><text x="11.022" y="1.67" class="g">every</text><text x="17.034" y="1.67" class="g">long-running</text><text x="30.06" y="1.67" class="g">service</text><text x="38.076" y="1.67" class="g">in</text><text x="41.082" y="1.67" class="g">one</text><text x="45.09" y="1.67" class="g">process</text></symbol><symbol id="3"><text y="1.67" style="white-space:pre" fill="#2980b9">━━━━━━━━━━━━━━━━━━━━━━━━━━━━━━━━━━━━━━━━━━━━━━━━━━━━━━━━━━━━━━</text></symbol><symbol id="4"><text y="1.67" class="i">$</text><text x="2.004" y="1.67" class="g">s</text></symbol><symbol id="5"><text y="1.67" class="i">$</text><text x="2.004" y="1.67" class="g">sy</text></symbol><symbol id="6"><text y="1.67" class="i">$</text><text x="2.004" y="1.67" class="g">sys</text></symbol><symbol id="7"><text y="1.67" class="i">$</text><text x="2.004" y="1.67" class="g">syst</text></symbol><symbol id="8"><text y="1.67" class="i">$</text><text x="2.004" y="1.67" class="g">syste</text></symbol><symbol id="9"><text y="1.67" class="i">$</text><text x="2.004" y="1.67" class="g">system</text></symbol><symbol id="10"><text y="1.67" class="i">$</text><text x="2.004" y="1.67" class="g">systemp</text></symbol><symbol id="11"><text y="1.67" class="i">$</text><text x="2.004" y="1.67" class="g">systempr</text></symbol><symbol id="12"><text y="1.67" class="i">$</text><text x="2.004" y="1.67" class="g">systempro</text></symbol><symbol id="13"><text y="1.67" class="i">$</text><text x="2.004" y="1.67" class="g">systemprom</text></symbol><symbol id="14"><text y="1.67" class="i">$</text><text x="2.004" y="1.67" class="g">systempromp</text></symbol><symbol id="15"><text y="1.67" class="i">$</text><text x="2.004" y="1.67" class="g">systemprompt</text></symbol><symbol id="16"><text y="1.67" class="i">$</text><text x="2.004" y="1.67" class="g">systemprompt</text><text x="15.03" y="1.67" class="g">i</text></symbol><symbol id="17"><text y="1.67" class="i">$</text><text x="2.004" y="1.67" class="g">systemprompt</text><text x="15.03" y="1.67" class="g">in</text></symbol><symbol id="18"><text y="1.67" class="i">$</text><text x="2.004" y="1.67" class="g">systemprompt</text><text x="15.03" y="1.67" class="g">inf</text></symbol><symbol id="19"><text y="1.67" class="i">$</text><text x="2.004" y="1.67" class="g">systemprompt</text><text x="15.03" y="1.67" class="g">infr</text></symbol><symbol id="20"><text y="1.67" class="i">$</text><text x="2.004" y="1.67" class="g">systemprompt</text><text x="15.03" y="1.67" class="g">infra</text></symbol><symbol id="21"><text y="1.67" class="i">$</text><text x="2.004" y="1.67" class="g">systemprompt</text><text x="15.03" y="1.67" class="g">infra</text><text x="21.042" y="1.67" class="g">s</text></symbol><symbol id="22"><text y="1.67" class="i">$</text><text x="2.004" y="1.67" class="g">systemprompt</text><text x="15.03" y="1.67" class="g">infra</text><text x="21.042" y="1.67" class="g">se</text></symbol><symbol id="23"><text y="1.67" class="i">$</text><text x="2.004" y="1.67" class="g">systemprompt</text><text x="15.03" y="1.67" class="g">infra</text><text x="21.042" y="1.67" class="g">ser</text></symbol><symbol id="24"><text y="1.67" class="i">$</text><text x="2.004" y="1.67" class="g">systemprompt</text><text x="15.03" y="1.67" class="g">infra</text><text x="21.042" y="1.67" class="g">serv</text></symbol><symbol id="25"><text y="1.67" class="i">$</text><text x="2.004" y="1.67" class="g">systemprompt</text><text x="15.03" y="1.67" class="g">infra</text><text x="21.042" y="1.67" class="g">servi</text></symbol><symbol id="26"><text y="1.67" class="i">$</text><text x="2.004" y="1.67" class="g">systemprompt</text><text x="15.03" y="1.67" class="g">infra</text><text x="21.042" y="1.67" class="g">servic</text></symbol><symbol id="27"><text y="1.67" class="i">$</text><text x="2.004" y="1.67" class="g">systemprompt</text><text x="15.03" y="1.67" class="g">infra</text><text x="21.042" y="1.67" class="g">service</text></symbol><symbol id="28"><text y="1.67" class="i">$</text><text x="2.004" y="1.67" class="g">systemprompt</text><text x="15.03" y="1.67" class="g">infra</text><text x="21.042" y="1.67" class="g">services</text></symbol><symbol id="29"><text y="1.67" class="i">$</text><text x="2.004" y="1.67" class="g">systemprompt</text><text x="15.03" y="1.67" class="g">infra</text><text x="21.042" y="1.67" class="g">services</text><text x="30.06" y="1.67" class="g">list</text></symbol><symbol id="30"><text x="4.008" y="1.67" class="g">error:</text><text x="11.022" y="1.67" class="g">unrecognized</text><text x="24.048" y="1.67" class="g">subcommand</text><text x="35.07" y="1.67" class="g">&apos;list&apos;</text></symbol><symbol id="31"><text x="4.008" y="1.67" class="g">Usage:</text><text x="11.022" y="1.67" class="g">systemprompt</text><text x="24.048" y="1.67" class="g">infra</text><text x="30.06" y="1.67" class="g">services</text><text x="39.078" y="1.67" class="g">[OPTIONS]</text><text x="49.098" y="1.67" class="g">&lt;COMMAND&gt;</text></symbol><symbol id="32"><text x="4.008" y="1.67" class="g">For</text><text x="8.016" y="1.67" class="g">more</text><text x="13.026" y="1.67" class="g">information,</text><text x="26.052" y="1.67" class="g">try</text><text x="30.06" y="1.67" class="g">&apos;--help&apos;.</text></symbol><symbol id="33"><text y="1.67" class="i">$</text><text x="2.004" y="1.67" class="g">systemprompt</text><text x="15.03" y="1.67" class="g">infra</text><text x="21.042" y="1.67" class="g">services</text><text x="30.06" y="1.67" class="g">status</text></symbol><symbol id="34"><text x="4.008" y="1.67" class="g">Service</text><text x="12.024" y="1.67" class="g">Status</text></symbol><symbol id="35"><text x="4.008" y="1.67" class="g">associate_agent:</text><text x="21.042" y="1.67" class="g">agent</text><text x="27.054" y="1.67" class="g">|</text><text x="29.058" y="1.67" class="g">running</text><text x="37.074" y="1.67" class="g">|</text><text x="39.078" y="1.67" class="g">PID:</text><text x="44.088" y="1.67" class="g">79052</text><text x="50.1" y="1.67" class="g">|</text><text x="52.104" y="1.67" class="g">-</text></symbol><symbol id="36"><text x="4.008" y="1.67" class="g">developer_agent:</text><text x="21.042" y="1.67" class="g">agent</text><text x="27.054" y="1.67" class="g">|</text><text x="29.058" y="1.67" class="g">running</text><text x="37.074" y="1.67" class="g">|</text><text x="39.078" y="1.67" class="g">PID:</text><text x="44.088" y="1.67" class="g">78974</text><text x="50.1" y="1.67" class="g">|</text><text x="52.104" y="1.67" class="g">-</text></symbol><symbol id="37"><text x="4.008" y="1.67" class="g">skill-manager:</text><text x="19.038" y="1.67" class="g">mcp</text><text x="23.046" y="1.67" class="g">|</text><text x="25.05" y="1.67" class="g">running</text><text x="33.066" y="1.67" class="g">|</text><text x="35.07" y="1.67" class="g">PID:</text><text x="40.08" y="1.67" class="g">78886</text><text x="46.092" y="1.67" class="g">|</text><text x="48.096" y="1.67" class="g">-</text></symbol><symbol id="38"><text x="4.008" y="1.67" class="g">systemprompt:</text><text x="18.036" y="1.67" class="g">mcp</text><text x="22.044" y="1.67" class="g">|</text><text x="24.048" y="1.67" class="g">running</text><text x="32.064" y="1.67" class="g">|</text><text x="34.068" y="1.67" class="g">PID:</text><text x="39.078" y="1.67" class="g">78934</text><text x="45.09" y="1.67" class="g">|</text><text x="47.094" y="1.67" class="g">-</text></symbol><symbol id="39"><text x="4.008" y="1.67" class="g">ℹ</text><text x="6.012" y="1.67" class="g">4/4</text><text x="10.02" y="1.67" class="g">services</text><text x="19.038" y="1.67" class="g">running</text></symbol><symbol id="a"><path fill="transparent" d="M0 0h100v33H0z"/></symbol><symbol id="b"><path fill="#ea580c" d="M0 0h1.102v2.171H0z"/></symbol></defs><path class="a" d="M0 0h100v69.472H0z"/><g style="animation-duration:3.575413s;animation-iteration-count:infinite;animation-name:l;animation-timing-function:steps(1,end)"><svg width="7700"><svg><use xlink:href="#a"/><use xlink:href="#b" x="-.004"/></svg><svg x="100"><use xlink:href="#a"/><use xlink:href="#b" x="-.004" y="10.83"/><use xlink:href="#1" y="2.171"/><use xlink:href="#2" y="4.342"/><use xlink:href="#3" y="6.513"/></svg><svg x="200"><use xlink:href="#a"/><use xlink:href="#b" x="2.996" y="10.83"/><use xlink:href="#1" y="2.171"/><use xlink:href="#2" y="4.342"/><use xlink:href="#3" y="6.513"/><use xlink:href="#4" y="10.855"/></svg><svg x="300"><use xlink:href="#a"/><use xlink:href="#b" x="3.996" y="10.83"/><use xlink:href="#1" y="2.171"/><use xlink:href="#2" y="4.342"/><use xlink:href="#3" y="6.513"/><use xlink:href="#5" y="10.855"/></svg><svg x="400"><use xlink:href="#a"/><use xlink:href="#b" x="4.996" y="10.83"/><use xlink:href="#1" y="2.171"/><use xlink:href="#2" y="4.342"/><use xlink:href="#3" y="6.513"/><use xlink:href="#6" y="10.855"/></svg><svg x="500"><use xlink:href="#a"/><use xlink:href="#b" x="5.996" y="10.83"/><use xlink:href="#1" y="2.171"/><use xlink:href="#2" y="4.342"/><use xlink:href="#3" y="6.513"/><use xlink:href="#7" y="10.855"/></svg><svg x="600"><use xlink:href="#a"/><use xlink:href="#b" x="6.996" y="10.83"/><use xlink:href="#1" y="2.171"/><use xlink:href="#2" y="4.342"/><use xlink:href="#3" y="6.513"/><use xlink:href="#8" y="10.855"/></svg><svg x="700"><use xlink:href="#a"/><use xlink:href="#b" x="7.996" y="10.83"/><use xlink:href="#1" y="2.171"/><use xlink:href="#2" y="4.342"/><use xlink:href="#3" y="6.513"/><use xlink:href="#9" y="10.855"/></svg><svg x="800"><use xlink:href="#a"/><use xlink:href="#b" x="8.996" y="10.83"/><use xlink:href="#1" y="2.171"/><use xlink:href="#2" y="4.342"/><use xlink:href="#3" y="6.513"/><use xlink:href="#10" y="10.855"/></svg><svg x="900"><use xlink:href="#a"/><use xlink:href="#b" x="9.996" y="10.83"/><use xlink:href="#1" y="2.171"/><use xlink:href="#2" y="4.342"/><use xlink:href="#3" y="6.513"/><use xlink:href="#11" y="10.855"/></svg><svg x="1000"><use xlink:href="#a"/><use xlink:href="#b" x="10.996" y="10.83"/><use xlink:href="#1" y="2.171"/><use xlink:href="#2" y="4.342"/><use xlink:href="#3" y="6.513"/><use xlink:href="#12" y="10.855"/></svg><svg x="1100"><use xlink:href="#a"/><use xlink:href="#b" x="11.996" y="10.83"/><use xlink:href="#1" y="2.171"/><use xlink:href="#2" y="4.342"/><use xlink:href="#3" y="6.513"/><use xlink:href="#13" y="10.855"/></svg><svg x="1200"><use xlink:href="#a"/><use xlink:href="#b" x="12.996" y="10.83"/><use xlink:href="#1" y="2.171"/><use xlink:href="#2" y="4.342"/><use xlink:href="#3" y="6.513"/><use xlink:href="#14" y="10.855"/></svg><svg x="1300"><use xlink:href="#a"/><use xlink:href="#b" x="13.996" y="10.83"/><use xlink:href="#1" y="2.171"/><use xlink:href="#2" y="4.342"/><use xlink:href="#3" y="6.513"/><use xlink:href="#15" y="10.855"/></svg><svg x="1400"><use xlink:href="#a"/><use xlink:href="#b" x="14.996" y="10.83"/><use xlink:href="#1" y="2.171"/><use xlink:href="#2" y="4.342"/><use xlink:href="#3" y="6.513"/><use xlink:href="#15" y="10.855"/></svg><svg x="1500"><use xlink:href="#a"/><use xlink:href="#b" x="15.996" y="10.83"/><use xlink:href="#1" y="2.171"/><use xlink:href="#2" y="4.342"/><use xlink:href="#3" y="6.513"/><use xlink:href="#16" y="10.855"/></svg><svg x="1600"><use xlink:href="#a"/><use xlink:href="#b" x="16.996" y="10.83"/><use xlink:href="#1" y="2.171"/><use xlink:href="#2" y="4.342"/><use xlink:href="#3" y="6.513"/><use xlink:href="#17" y="10.855"/></svg><svg x="1700"><use xlink:href="#a"/><use xlink:href="#b" x="17.996" y="10.83"/><use xlink:href="#1" y="2.171"/><use xlink:href="#2" y="4.342"/><use xlink:href="#3" y="6.513"/><use xlink:href="#18" y="10.855"/></svg><svg x="1800"><use xlink:href="#a"/><use xlink:href="#b" x="18.996" y="10.83"/><use xlink:href="#1" y="2.171"/><use xlink:href="#2" y="4.342"/><use xlink:href="#3" y="6.513"/><use xlink:href="#19" y="10.855"/></svg><svg x="1900"><use xlink:href="#a"/><use xlink:href="#b" x="19.996" y="10.83"/><use xlink:href="#1" y="2.171"/><use xlink:href="#2" y="4.342"/><use xlink:href="#3" y="6.513"/><use xlink:href="#20" y="10.855"/></svg><svg x="2000"><use xlink:href="#a"/><use xlink:href="#b" x="20.996" y="10.83"/><use xlink:href="#1" y="2.171"/><use xlink:href="#2" y="4.342"/><use xlink:href="#3" y="6.513"/><use xlink:href="#20" y="10.855"/></svg><svg x="2100"><use xlink:href="#a"/><use xlink:href="#b" x="21.996" y="10.83"/><use xlink:href="#1" y="2.171"/><use xlink:href="#2" y="4.342"/><use xlink:href="#3" y="6.513"/><use xlink:href="#21" y="10.855"/></svg><svg x="2200"><use xlink:href="#a"/><use xlink:href="#b" x="22.996" y="10.83"/><use xlink:href="#1" y="2.171"/><use xlink:href="#2" y="4.342"/><use xlink:href="#3" y="6.513"/><use xlink:href="#22" y="10.855"/></svg><svg x="2300"><use xlink:href="#a"/><use xlink:href="#b" x="23.996" y="10.83"/><use xlink:href="#1" y="2.171"/><use xlink:href="#2" y="4.342"/><use xlink:href="#3" y="6.513"/><use xlink:href="#23" y="10.855"/></svg><svg x="2400"><use xlink:href="#a"/><use xlink:href="#b" x="24.996" y="10.83"/><use xlink:href="#1" y="2.171"/><use xlink:href="#2" y="4.342"/><use xlink:href="#3" y="6.513"/><use xlink:href="#24" y="10.855"/></svg><svg x="2500"><use xlink:href="#a"/><use xlink:href="#b" x="25.996" y="10.83"/><use xlink:href="#1" y="2.171"/><use xlink:href="#2" y="4.342"/><use xlink:href="#3" y="6.513"/><use xlink:href="#25" y="10.855"/></svg><svg x="2600"><use xlink:href="#a"/><use xlink:href="#b" x="26.996" y="10.83"/><use xlink:href="#1" y="2.171"/><use xlink:href="#2" y="4.342"/><use xlink:href="#3" y="6.513"/><use xlink:href="#26" y="10.855"/></svg><svg x="2700"><use xlink:href="#a"/><use xlink:href="#b" x="27.996" y="10.83"/><use xlink:href="#1" y="2.171"/><use xlink:href="#2" y="4.342"/><use xlink:href="#3" y="6.513"/><use xlink:href="#27" y="10.855"/></svg><svg x="2800"><use xlink:href="#a"/><use xlink:href="#b" x="28.996" y="10.83"/><use xlink:href="#1" y="2.171"/><use xlink:href="#2" y="4.342"/><use xlink:href="#3" y="6.513"/><use xlink:href="#28" y="10.855"/></svg><svg x="2900"><use xlink:href="#a"/><use xlink:href="#b" x="29.996" y="10.83"/><use xlink:href="#1" y="2.171"/><use xlink:href="#2" y="4.342"/><use xlink:href="#3" y="6.513"/><use xlink:href="#28" y="10.855"/></svg><svg x="3000"><use xlink:href="#a"/><use xlink:href="#b" x="30.996" y="10.83"/><use xlink:href="#1" y="2.171"/><use xlink:href="#2" y="4.342"/><use xlink:href="#3" y="6.513"/><text y="12.525" class="i">$</text><text x="2.004" y="12.525" class="g">systemprompt</text><text x="15.03" y="12.525" class="g">infra</text><text x="21.042" y="12.525" class="g">services</text><text x="30.06" y="12.525" class="g">l</text></svg><svg x="3100"><use xlink:href="#a"/><use xlink:href="#b" x="31.996" y="10.83"/><use xlink:href="#1" y="2.171"/><use xlink:href="#2" y="4.342"/><use xlink:href="#3" y="6.513"/><text y="12.525" class="i">$</text><text x="2.004" y="12.525" class="g">systemprompt</text><text x="15.03" y="12.525" class="g">infra</text><text x="21.042" y="12.525" class="g">services</text><text x="30.06" y="12.525" class="g">li</text></svg><svg x="3200"><use xlink:href="#a"/><use xlink:href="#b" x="32.996" y="10.83"/><use xlink:href="#1" y="2.171"/><use xlink:href="#2" y="4.342"/><use xlink:href="#3" y="6.513"/><text y="12.525" class="i">$</text><text x="2.004" y="12.525" class="g">systemprompt</text><text x="15.03" y="12.525" class="g">infra</text><text x="21.042" y="12.525" class="g">services</text><text x="30.06" y="12.525" class="g">lis</text></svg><svg x="3300"><use xlink:href="#a"/><use xlink:href="#b" x="33.996" y="10.83"/><use xlink:href="#1" y="2.171"/><use xlink:href="#2" y="4.342"/><use xlink:href="#3" y="6.513"/><use xlink:href="#29" y="10.855"/></svg><svg x="3400"><use xlink:href="#a"/><use xlink:href="#b" x="-.004" y="13.001"/><use xlink:href="#1" y="2.171"/><use xlink:href="#2" y="4.342"/><use xlink:href="#3" y="6.513"/><use xlink:href="#29" y="10.855"/></svg><svg x="3500"><use xlink:href="#a"/><use xlink:href="#b" x="-.004" y="17.343"/><use xlink:href="#1" y="2.171"/><use xlink:href="#2" y="4.342"/><use xlink:href="#3" y="6.513"/><use xlink:href="#29" y="10.855"/><use xlink:href="#30" y="13.026"/></svg><svg x="3600"><use xlink:href="#a"/><use xlink:href="#b" x="-.004" y="23.856"/><use xlink:href="#1" y="2.171"/><use xlink:href="#2" y="4.342"/><use xlink:href="#3" y="6.513"/><use xlink:href="#29" y="10.855"/><use xlink:href="#30" y="13.026"/><use xlink:href="#31" y="17.368"/><use xlink:href="#32" y="21.71"/></svg><svg x="3700"><use xlink:href="#a"/><use xlink:href="#b" x="-.004" y="26.027"/><use xlink:href="#1" y="2.171"/><use xlink:href="#2" y="4.342"/><use xlink:href="#3" y="6.513"/><use xlink:href="#29" y="10.855"/><use xlink:href="#30" y="13.026"/><use xlink:href="#31" y="17.368"/><use xlink:href="#32" y="21.71"/></svg><svg x="3800"><use xlink:href="#a"/><use xlink:href="#b" x="2.996" y="26.027"/><use xlink:href="#1" y="2.171"/><use xlink:href="#2" y="4.342"/><use xlink:href="#3" y="6.513"/><use xlink:href="#29" y="10.855"/><use xlink:href="#30" y="13.026"/><use xlink:href="#31" y="17.368"/><use xlink:href="#32" y="21.71"/><use xlink:href="#4" y="26.052"/></svg><svg x="3900"><use xlink:href="#a"/><use xlink:href="#b" x="3.996" y="26.027"/><use xlink:href="#1" y="2.171"/><use xlink:href="#2" y="4.342"/><use xlink:href="#3" y="6.513"/><use xlink:href="#29" y="10.855"/><use xlink:href="#30" y="13.026"/><use xlink:href="#31" y="17.368"/><use xlink:href="#32" y="21.71"/><use xlink:href="#5" y="26.052"/></svg><svg x="4000"><use xlink:href="#a"/><use xlink:href="#b" x="4.996" y="26.027"/><use xlink:href="#1" y="2.171"/><use xlink:href="#2" y="4.342"/><use xlink:href="#3" y="6.513"/><use xlink:href="#29" y="10.855"/><use xlink:href="#30" y="13.026"/><use xlink:href="#31" y="17.368"/><use xlink:href="#32" y="21.71"/><use xlink:href="#6" y="26.052"/></svg><svg x="4100"><use xlink:href="#a"/><use xlink:href="#b" x="5.996" y="26.027"/><use xlink:href="#1" y="2.171"/><use xlink:href="#2" y="4.342"/><use xlink:href="#3" y="6.513"/><use xlink:href="#29" y="10.855"/><use xlink:href="#30" y="13.026"/><use xlink:href="#31" y="17.368"/><use xlink:href="#32" y="21.71"/><use xlink:href="#7" y="26.052"/></svg><svg x="4200"><use xlink:href="#a"/><use xlink:href="#b" x="6.996" y="26.027"/><use xlink:href="#1" y="2.171"/><use xlink:href="#2" y="4.342"/><use xlink:href="#3" y="6.513"/><use xlink:href="#29" y="10.855"/><use xlink:href="#30" y="13.026"/><use xlink:href="#31" y="17.368"/><use xlink:href="#32" y="21.71"/><use xlink:href="#8" y="26.052"/></svg><svg x="4300"><use xlink:href="#a"/><use xlink:href="#b" x="7.996" y="26.027"/><use xlink:href="#1" y="2.171"/><use xlink:href="#2" y="4.342"/><use xlink:href="#3" y="6.513"/><use xlink:href="#29" y="10.855"/><use xlink:href="#30" y="13.026"/><use xlink:href="#31" y="17.368"/><use xlink:href="#32" y="21.71"/><use xlink:href="#9" y="26.052"/></svg><svg x="4400"><use xlink:href="#a"/><use xlink:href="#b" x="8.996" y="26.027"/><use xlink:href="#1" y="2.171"/><use xlink:href="#2" y="4.342"/><use xlink:href="#3" y="6.513"/><use xlink:href="#29" y="10.855"/><use xlink:href="#30" y="13.026"/><use xlink:href="#31" y="17.368"/><use xlink:href="#32" y="21.71"/><use xlink:href="#10" y="26.052"/></svg><svg x="4500"><use xlink:href="#a"/><use xlink:href="#b" x="9.996" y="26.027"/><use xlink:href="#1" y="2.171"/><use xlink:href="#2" y="4.342"/><use xlink:href="#3" y="6.513"/><use xlink:href="#29" y="10.855"/><use xlink:href="#30" y="13.026"/><use xlink:href="#31" y="17.368"/><use xlink:href="#32" y="21.71"/><use xlink:href="#11" y="26.052"/></svg><svg x="4600"><use xlink:href="#a"/><use xlink:href="#b" x="10.996" y="26.027"/><use xlink:href="#1" y="2.171"/><use xlink:href="#2" y="4.342"/><use xlink:href="#3" y="6.513"/><use xlink:href="#29" y="10.855"/><use xlink:href="#30" y="13.026"/><use xlink:href="#31" y="17.368"/><use xlink:href="#32" y="21.71"/><use xlink:href="#12" y="26.052"/></svg><svg x="4700"><use xlink:href="#a"/><use xlink:href="#b" x="11.996" y="26.027"/><use xlink:href="#1" y="2.171"/><use xlink:href="#2" y="4.342"/><use xlink:href="#3" y="6.513"/><use xlink:href="#29" y="10.855"/><use xlink:href="#30" y="13.026"/><use xlink:href="#31" y="17.368"/><use xlink:href="#32" y="21.71"/><use xlink:href="#13" y="26.052"/></svg><svg x="4800"><use xlink:href="#a"/><use xlink:href="#b" x="12.996" y="26.027"/><use xlink:href="#1" y="2.171"/><use xlink:href="#2" y="4.342"/><use xlink:href="#3" y="6.513"/><use xlink:href="#29" y="10.855"/><use xlink:href="#30" y="13.026"/><use xlink:href="#31" y="17.368"/><use xlink:href="#32" y="21.71"/><use xlink:href="#14" y="26.052"/></svg><svg x="4900"><use xlink:href="#a"/><use xlink:href="#b" x="13.996" y="26.027"/><use xlink:href="#1" y="2.171"/><use xlink:href="#2" y="4.342"/><use xlink:href="#3" y="6.513"/><use xlink:href="#29" y="10.855"/><use xlink:href="#30" y="13.026"/><use xlink:href="#31" y="17.368"/><use xlink:href="#32" y="21.71"/><use xlink:href="#15" y="26.052"/></svg><svg x="5000"><use xlink:href="#a"/><use xlink:href="#b" x="14.996" y="26.027"/><use xlink:href="#1" y="2.171"/><use xlink:href="#2" y="4.342"/><use xlink:href="#3" y="6.513"/><use xlink:href="#29" y="10.855"/><use xlink:href="#30" y="13.026"/><use xlink:href="#31" y="17.368"/><use xlink:href="#32" y="21.71"/><use xlink:href="#15" y="26.052"/></svg><svg x="5100"><use xlink:href="#a"/><use xlink:href="#b" x="15.996" y="26.027"/><use xlink:href="#1" y="2.171"/><use xlink:href="#2" y="4.342"/><use xlink:href="#3" y="6.513"/><use xlink:href="#29" y="10.855"/><use xlink:href="#30" y="13.026"/><use xlink:href="#31" y="17.368"/><use xlink:href="#32" y="21.71"/><use xlink:href="#16" y="26.052"/></svg><svg x="5200"><use xlink:href="#a"/><use xlink:href="#b" x="16.996" y="26.027"/><use xlink:href="#1" y="2.171"/><use xlink:href="#2" y="4.342"/><use xlink:href="#3" y="6.513"/><use xlink:href="#29" y="10.855"/><use xlink:href="#30" y="13.026"/><use xlink:href="#31" y="17.368"/><use xlink:href="#32" y="21.71"/><use xlink:href="#17" y="26.052"/></svg><svg x="5300"><use xlink:href="#a"/><use xlink:href="#b" x="17.996" y="26.027"/><use xlink:href="#1" y="2.171"/><use xlink:href="#2" y="4.342"/><use xlink:href="#3" y="6.513"/><use xlink:href="#29" y="10.855"/><use xlink:href="#30" y="13.026"/><use xlink:href="#31" y="17.368"/><use xlink:href="#32" y="21.71"/><use xlink:href="#18" y="26.052"/></svg><svg x="5400"><use xlink:href="#a"/><use xlink:href="#b" x="18.996" y="26.027"/><use xlink:href="#1" y="2.171"/><use xlink:href="#2" y="4.342"/><use xlink:href="#3" y="6.513"/><use xlink:href="#29" y="10.855"/><use xlink:href="#30" y="13.026"/><use xlink:href="#31" y="17.368"/><use xlink:href="#32" y="21.71"/><use xlink:href="#19" y="26.052"/></svg><svg x="5500"><use xlink:href="#a"/><use xlink:href="#b" x="19.996" y="26.027"/><use xlink:href="#1" y="2.171"/><use xlink:href="#2" y="4.342"/><use xlink:href="#3" y="6.513"/><use xlink:href="#29" y="10.855"/><use xlink:href="#30" y="13.026"/><use xlink:href="#31" y="17.368"/><use xlink:href="#32" y="21.71"/><use xlink:href="#20" y="26.052"/></svg><svg x="5600"><use xlink:href="#a"/><use xlink:href="#b" x="20.996" y="26.027"/><use xlink:href="#1" y="2.171"/><use xlink:href="#2" y="4.342"/><use xlink:href="#3" y="6.513"/><use xlink:href="#29" y="10.855"/><use xlink:href="#30" y="13.026"/><use xlink:href="#31" y="17.368"/><use xlink:href="#32" y="21.71"/><use xlink:href="#20" y="26.052"/></svg><svg x="5700"><use xlink:href="#a"/><use xlink:href="#b" x="21.996" y="26.027"/><use xlink:href="#1" y="2.171"/><use xlink:href="#2" y="4.342"/><use xlink:href="#3" y="6.513"/><use xlink:href="#29" y="10.855"/><use xlink:href="#30" y="13.026"/><use xlink:href="#31" y="17.368"/><use xlink:href="#32" y="21.71"/><use xlink:href="#21" y="26.052"/></svg><svg x="5800"><use xlink:href="#a"/><use xlink:href="#b" x="22.996" y="26.027"/><use xlink:href="#1" y="2.171"/><use xlink:href="#2" y="4.342"/><use xlink:href="#3" y="6.513"/><use xlink:href="#29" y="10.855"/><use xlink:href="#30" y="13.026"/><use xlink:href="#31" y="17.368"/><use xlink:href="#32" y="21.71"/><use xlink:href="#22" y="26.052"/></svg><svg x="5900"><use xlink:href="#a"/><use xlink:href="#b" x="23.996" y="26.027"/><use xlink:href="#1" y="2.171"/><use xlink:href="#2" y="4.342"/><use xlink:href="#3" y="6.513"/><use xlink:href="#29" y="10.855"/><use xlink:href="#30" y="13.026"/><use xlink:href="#31" y="17.368"/><use xlink:href="#32" y="21.71"/><use xlink:href="#23" y="26.052"/></svg><svg x="6000"><use xlink:href="#a"/><use xlink:href="#b" x="24.996" y="26.027"/><use xlink:href="#1" y="2.171"/><use xlink:href="#2" y="4.342"/><use xlink:href="#3" y="6.513"/><use xlink:href="#29" y="10.855"/><use xlink:href="#30" y="13.026"/><use xlink:href="#31" y="17.368"/><use xlink:href="#32" y="21.71"/><use xlink:href="#24" y="26.052"/></svg><svg x="6100"><use xlink:href="#a"/><use xlink:href="#b" x="25.996" y="26.027"/><use xlink:href="#1" y="2.171"/><use xlink:href="#2" y="4.342"/><use xlink:href="#3" y="6.513"/><use xlink:href="#29" y="10.855"/><use xlink:href="#30" y="13.026"/><use xlink:href="#31" y="17.368"/><use xlink:href="#32" y="21.71"/><use xlink:href="#25" y="26.052"/></svg><svg x="6200"><use xlink:href="#a"/><use xlink:href="#b" x="26.996" y="26.027"/><use xlink:href="#1" y="2.171"/><use xlink:href="#2" y="4.342"/><use xlink:href="#3" y="6.513"/><use xlink:href="#29" y="10.855"/><use xlink:href="#30" y="13.026"/><use xlink:href="#31" y="17.368"/><use xlink:href="#32" y="21.71"/><use xlink:href="#26" y="26.052"/></svg><svg x="6300"><use xlink:href="#a"/><use xlink:href="#b" x="27.996" y="26.027"/><use xlink:href="#1" y="2.171"/><use xlink:href="#2" y="4.342"/><use xlink:href="#3" y="6.513"/><use xlink:href="#29" y="10.855"/><use xlink:href="#30" y="13.026"/><use xlink:href="#31" y="17.368"/><use xlink:href="#32" y="21.71"/><use xlink:href="#27" y="26.052"/></svg><svg x="6400"><use xlink:href="#a"/><use xlink:href="#b" x="28.996" y="26.027"/><use xlink:href="#1" y="2.171"/><use xlink:href="#2" y="4.342"/><use xlink:href="#3" y="6.513"/><use xlink:href="#29" y="10.855"/><use xlink:href="#30" y="13.026"/><use xlink:href="#31" y="17.368"/><use xlink:href="#32" y="21.71"/><use xlink:href="#28" y="26.052"/></svg><svg x="6500"><use xlink:href="#a"/><use xlink:href="#b" x="29.996" y="26.027"/><use xlink:href="#1" y="2.171"/><use xlink:href="#2" y="4.342"/><use xlink:href="#3" y="6.513"/><use xlink:href="#29" y="10.855"/><use xlink:href="#30" y="13.026"/><use xlink:href="#31" y="17.368"/><use xlink:href="#32" y="21.71"/><use xlink:href="#28" y="26.052"/></svg><svg x="6600"><use xlink:href="#a"/><use xlink:href="#b" x="30.996" y="26.027"/><use xlink:href="#1" y="2.171"/><use xlink:href="#2" y="4.342"/><use xlink:href="#3" y="6.513"/><use xlink:href="#29" y="10.855"/><use xlink:href="#30" y="13.026"/><use xlink:href="#31" y="17.368"/><use xlink:href="#32" y="21.71"/><text y="27.722" class="i">$</text><text x="2.004" y="27.722" class="g">systemprompt</text><text x="15.03" y="27.722" class="g">infra</text><text x="21.042" y="27.722" class="g">services</text><text x="30.06" y="27.722" class="g">s</text></svg><svg x="6700"><use xlink:href="#a"/><use xlink:href="#b" x="31.996" y="26.027"/><use xlink:href="#1" y="2.171"/><use xlink:href="#2" y="4.342"/><use xlink:href="#3" y="6.513"/><use xlink:href="#29" y="10.855"/><use xlink:href="#30" y="13.026"/><use xlink:href="#31" y="17.368"/><use xlink:href="#32" y="21.71"/><text y="27.722" class="i">$</text><text x="2.004" y="27.722" class="g">systemprompt</text><text x="15.03" y="27.722" class="g">infra</text><text x="21.042" y="27.722" class="g">services</text><text x="30.06" y="27.722" class="g">st</text></svg><svg x="6800"><use xlink:href="#a"/><use xlink:href="#b" x="32.996" y="26.027"/><use xlink:href="#1" y="2.171"/><use xlink:href="#2" y="4.342"/><use xlink:href="#3" y="6.513"/><use xlink:href="#29" y="10.855"/><use xlink:href="#30" y="13.026"/><use xlink:href="#31" y="17.368"/><use xlink:href="#32" y="21.71"/><text y="27.722" class="i">$</text><text x="2.004" y="27.722" class="g">systemprompt</text><text x="15.03" y="27.722" class="g">infra</text><text x="21.042" y="27.722" class="g">services</text><text x="30.06" y="27.722" class="g">sta</text></svg><svg x="6900"><use xlink:href="#a"/><use xlink:href="#b" x="33.996" y="26.027"/><use xlink:href="#1" y="2.171"/><use xlink:href="#2" y="4.342"/><use xlink:href="#3" y="6.513"/><use xlink:href="#29" y="10.855"/><use xlink:href="#30" y="13.026"/><use xlink:href="#31" y="17.368"/><use xlink:href="#32" y="21.71"/><text y="27.722" class="i">$</text><text x="2.004" y="27.722" class="g">systemprompt</text><text x="15.03" y="27.722" class="g">infra</text><text x="21.042" y="27.722" class="g">services</text><text x="30.06" y="27.722" class="g">stat</text></svg><svg x="7000"><use xlink:href="#a"/><use xlink:href="#b" x="34.996" y="26.027"/><use xlink:href="#1" y="2.171"/><use xlink:href="#2" y="4.342"/><use xlink:href="#3" y="6.513"/><use xlink:href="#29" y="10.855"/><use xlink:href="#30" y="13.026"/><use xlink:href="#31" y="17.368"/><use xlink:href="#32" y="21.71"/><text y="27.722" class="i">$</text><text x="2.004" y="27.722" class="g">systemprompt</text><text x="15.03" y="27.722" class="g">infra</text><text x="21.042" y="27.722" class="g">services</text><text x="30.06" y="27.722" class="g">statu</text></svg><svg x="7100"><use xlink:href="#a"/><use xlink:href="#b" x="35.996" y="26.027"/><use xlink:href="#1" y="2.171"/><use xlink:href="#2" y="4.342"/><use xlink:href="#3" y="6.513"/><use xlink:href="#29" y="10.855"/><use xlink:href="#30" y="13.026"/><use xlink:href="#31" y="17.368"/><use xlink:href="#32" y="21.71"/><use xlink:href="#33" y="26.052"/></svg><svg x="7200"><use xlink:href="#a"/><use xlink:href="#b" x="-.004" y="28.198"/><use xlink:href="#1" y="2.171"/><use xlink:href="#2" y="4.342"/><use xlink:href="#3" y="6.513"/><use xlink:href="#29" y="10.855"/><use xlink:href="#30" y="13.026"/><use xlink:href="#31" y="17.368"/><use xlink:href="#32" y="21.71"/><use xlink:href="#33" y="26.052"/></svg><svg x="7300"><use xlink:href="#a"/><use xlink:href="#b" x="-.004" y="36.882"/><use xlink:href="#1" y="2.171"/><use xlink:href="#2" y="4.342"/><use xlink:href="#3" y="6.513"/><use xlink:href="#29" y="10.855"/><use xlink:href="#30" y="13.026"/><use xlink:href="#31" y="17.368"/><use xlink:href="#32" y="21.71"/><use xlink:href="#33" y="26.052"/><use xlink:href="#34" y="30.394"/><use xlink:href="#35" y="32.565"/><use xlink:href="#36" y="34.736"/></svg><svg x="7400"><use xlink:href="#a"/><use xlink:href="#b" x="-.004" y="43.395"/><use xlink:href="#1" y="2.171"/><use xlink:href="#2" y="4.342"/><use xlink:href="#3" y="6.513"/><use xlink:href="#29" y="10.855"/><use xlink:href="#30" y="13.026"/><use xlink:href="#31" y="17.368"/><use xlink:href="#32" y="21.71"/><use xlink:href="#33" y="26.052"/><use xlink:href="#34" y="30.394"/><use xlink:href="#35" y="32.565"/><use xlink:href="#36" y="34.736"/><use xlink:href="#37" y="36.907"/><use xlink:href="#38" y="39.078"/><use xlink:href="#39" y="41.249"/></svg><svg x="7500"><use xlink:href="#a"/><use xlink:href="#b" x="-.004" y="45.566"/><use xlink:href="#1" y="2.171"/><use xlink:href="#2" y="4.342"/><use xlink:href="#3" y="6.513"/><use xlink:href="#29" y="10.855"/><use xlink:href="#30" y="13.026"/><use xlink:href="#31" y="17.368"/><use xlink:href="#32" y="21.71"/><use xlink:href="#33" y="26.052"/><use xlink:href="#34" y="30.394"/><use xlink:href="#35" y="32.565"/><use xlink:href="#36" y="34.736"/><use xlink:href="#37" y="36.907"/><use xlink:href="#38" y="39.078"/><use xlink:href="#39" y="41.249"/></svg><svg x="7600"><use xlink:href="#a"/><use xlink:href="#b" x="-.004" y="47.737"/><use xlink:href="#1" y="2.171"/><use xlink:href="#2" y="4.342"/><use xlink:href="#3" y="6.513"/><use xlink:href="#29" y="10.855"/><use xlink:href="#30" y="13.026"/><use xlink:href="#31" y="17.368"/><use xlink:href="#32" y="21.71"/><use xlink:href="#33" y="26.052"/><use xlink:href="#34" y="30.394"/><use xlink:href="#35" y="32.565"/><use xlink:href="#36" y="34.736"/><use xlink:href="#37" y="36.907"/><use xlink:href="#38" y="39.078"/><use xlink:href="#39" y="41.249"/><text y="47.261" class="n">&gt;&gt;&gt;</text><text x="4.008" y="47.261" class="n">ALLOW</text><text x="10.02" y="47.261" class="i">one</text><text x="14.028" y="47.261" class="i">supervisor,</text><text x="26.052" y="47.261" class="i">every</text><text x="32.064" y="47.261" class="i">service</text><text x="40.08" y="47.261" class="i">observable</text><text x="51.102" y="47.261" class="i">from</text><text x="56.112" y="47.261" class="i">the</text><text x="60.12" y="47.261" class="i">CLI</text></svg></svg></g></g></svg></svg>