<svg xmlns="http://www.w3.org/2000/svg" xmlns:xlink="http://www.w3.org/1999/xlink" width="840" height="581.04"><rect width="840" height="581.04" rx="5" ry="5" class="a"/><svg y="0%" x="0%"><circle cx="20" cy="20" r="6" fill="#ff5f58"/><circle cx="40" cy="20" r="6" fill="#ffbd2e"/><circle cx="60" cy="20" r="6" fill="#18c132"/></svg><svg height="521.04" viewBox="0 0 80 52.104" width="800" x="15" xmlns="http://www.w3.org/2000/svg" xmlns:xlink="http://www.w3.org/1999/xlink" y="50"><style>@keyframes o{0%{transform:translateX(0)}.1%{transform:translateX(-80px)}15.1%{transform:translateX(-160px)}22.7%{transform:translateX(-240px)}27.5%{transform:translateX(-560px)}57.6%{transform:translateX(-720px)}65.1%{transform:translateX(-800px)}69.9%{transform:translateX(-960px)}70%{transform:translateX(-1120px)}to{transform:translateX(-1200px)}}.a{fill:#fafafa}.f,.g,.h{white-space:pre}.f{fill:#fff;font-weight:700}.g,.h{fill:#b9c0cb}.h{fill:#66c2cd}.i,.j{fill:#a8cc8c;white-space:pre}.j,.k{font-weight:700}.k,.l,.q{fill:#e88388;white-space:pre}.q{fill:#66c2cd;font-weight:700}</style><g font-family="Monaco,Consolas,Menlo,'Bitstream Vera Sans Mono','Powerline Symbols',monospace" font-size="1.67"><defs><symbol id="1"><text x="2.004" y="1.67" class="f">GOVERNANCE</text></symbol><symbol id="2"><text x="2.004" y="1.67" class="g">Tool</text><text x="7.014" y="1.67" class="g">access</text><text x="14.028" y="1.67" class="g">control</text><text x="22.044" y="1.67" class="g">for</text><text x="26.052" y="1.67" class="g">AI</text><text x="29.058" y="1.67" class="g">agents</text></symbol><symbol id="3"><text x="2.004" y="1.67" class="h">━━━━━━━━━━━━━━━━━━━━━━━━━━━━━━━━━━━━━━━━━━━━━━━━━━</text></symbol><symbol id="4"><text x="2.004" y="1.67" class="h">──</text><text x="5.01" y="1.67" class="f">Admin</text><text x="11.022" y="1.67" class="f">agent</text><text x="17.034" y="1.67" class="f">requests</text><text x="26.052" y="1.67" class="f">tool</text><text x="31.062" y="1.67" class="f">access</text></symbol><symbol id="5"><text x="2.004" y="1.67" class="g">developer_agent</text><text x="18.036" y="1.67" class="g">→</text><text x="20.04" y="1.67" class="g">mcp__systemprompt__list_agents</text></symbol><symbol id="6"><text x="2.004" y="1.67" class="i">$</text><text x="4.008" y="1.67" class="g">systemprompt</text><text x="17.034" y="1.67" class="g">hooks</text><text x="23.046" y="1.67" class="g">govern</text><text x="30.06" y="1.67" class="g">--agent</text><text x="38.076" y="1.67" class="g">developer_agent</text><text x="54.108" y="1.67" class="g">--tool</text><text x="61.122" y="1.67" class="g">list_agents</text></symbol><symbol id="7"><text x="4.008" y="1.67" class="g">{</text></symbol><symbol id="8"><text x="6.012" y="1.67" class="h">&quot;hookSpecificOutput&quot;:</text><text x="28.056" y="1.67" class="g">{</text></symbol><symbol id="9"><text x="8.016" y="1.67" class="h">&quot;hookEventName&quot;:</text><text x="25.05" y="1.67" class="g">&quot;PreToolUse&quot;,</text></symbol><symbol id="10"><text x="8.016" y="1.67" class="h">&quot;permissionDecision&quot;:</text><text x="30.06" y="1.67" class="j">&quot;allow&quot;</text></symbol><symbol id="11"><text x="6.012" y="1.67" class="g">}</text></symbol><symbol id="12"><text x="4.008" y="1.67" class="g">}</text></symbol><symbol id="13"><text x="2.004" y="1.67" class="j">&gt;&gt;&gt;</text><text x="6.012" y="1.67" class="j">ALLOW</text><text x="13.026" y="1.67" class="i">admin</text><text x="19.038" y="1.67" class="i">scope,</text><text x="26.052" y="1.67" class="i">all</text><text x="30.06" y="1.67" class="i">3</text><text x="32.064" y="1.67" class="i">rules</text><text x="38.076" y="1.67" class="i">passed</text></symbol><symbol id="14"><text x="2.004" y="1.67" class="g">────────────────────────────────────────────────────────────</text></symbol><symbol id="15"><text x="2.004" y="1.67" class="h">──</text><text x="5.01" y="1.67" class="f">User</text><text x="10.02" y="1.67" class="f">agent</text><text x="16.032" y="1.67" class="f">requests</text><text x="25.05" y="1.67" class="f">same</text><text x="30.06" y="1.67" class="f">tool</text></symbol><symbol id="16"><text x="2.004" y="1.67" class="g">associate_agent</text><text x="18.036" y="1.67" class="g">→</text><text x="20.04" y="1.67" class="g">mcp__systemprompt__list_agents</text></symbol><symbol id="17"><text x="2.004" y="1.67" class="i">$</text><text x="4.008" y="1.67" class="g">systemprompt</text><text x="17.034" y="1.67" class="g">hooks</text><text x="23.046" y="1.67" class="g">govern</text><text x="30.06" y="1.67" class="g">--agent</text><text x="38.076" y="1.67" class="g">associate_agent</text><text x="54.108" y="1.67" class="g">--tool</text><text x="61.122" y="1.67" class="g">list_agents</text></symbol><symbol id="18"><text x="8.016" y="1.67" class="h">&quot;permissionDecision&quot;:</text><text x="30.06" y="1.67" class="k">&quot;deny&quot;</text><text x="36.072" y="1.67" class="g">,</text></symbol><symbol id="19"><text x="8.016" y="1.67" class="h">&quot;permissionDecisionReason&quot;:</text><text x="36.072" y="1.67" class="g">&quot;[GOVERNANCE]</text><text x="50.1" y="1.67" class="g">user</text><text x="55.11" y="1.67" class="g">scope</text><text x="61.122" y="1.67" class="g">cannot</text><text x="68.136" y="1.67" class="g">access</text><text x="75.15" y="1.67" class="g">admin</text></symbol><symbol id="20"><text y="1.67" class="g">-only</text><text x="6.012" y="1.67" class="g">tool:</text><text x="12.024" y="1.67" class="g">mcp__systemprompt__list_agents&quot;</text></symbol><symbol id="21"><text x="2.004" y="1.67" class="k">&gt;&gt;&gt;</text><text x="6.012" y="1.67" class="k">DENY</text><text x="13.026" y="1.67" class="l">scope_restriction</text><text x="31.062" y="1.67" class="l">—</text><text x="33.066" y="1.67" class="l">user</text><text x="38.076" y="1.67" class="l">cannot</text><text x="45.09" y="1.67" class="l">access</text><text x="52.104" y="1.67" class="l">admin</text><text x="58.116" y="1.67" class="l">tools</text></symbol><symbol id="a"><path fill="transparent" d="M0 0h80v24H0z"/></symbol><symbol id="b"><path fill="#6f7683" d="M0 0h1.102v2.171H0z"/></symbol></defs><path class="a" d="M0 0h80v52.104H0z"/><g style="animation-duration:6.668283s;animation-iteration-count:infinite;animation-name:o;animation-timing-function:steps(1,end)"><svg width="1280"><svg><use xlink:href="#a"/><use xlink:href="#b" x="-.004"/></svg><svg x="80"><use xlink:href="#a"/><use xlink:href="#b" x="-.004" y="13.001"/><use xlink:href="#1" y="4.342"/><use xlink:href="#2" y="6.513"/><use xlink:href="#3" y="8.684"/></svg><svg x="160"><use xlink:href="#a"/><use xlink:href="#b" x="-.004" y="19.514"/><use xlink:href="#1" y="4.342"/><use xlink:href="#2" y="6.513"/><use xlink:href="#3" y="8.684"/><use xlink:href="#4" y="13.026"/><use xlink:href="#5" y="15.197"/></svg><svg x="240"><use xlink:href="#a"/><use xlink:href="#b" x="-.004" y="21.685"/><use xlink:href="#1" y="4.342"/><use xlink:href="#2" y="6.513"/><use xlink:href="#3" y="8.684"/><use xlink:href="#4" y="13.026"/><use xlink:href="#5" y="15.197"/><use xlink:href="#6" y="19.539"/></svg><svg x="320"><use xlink:href="#a"/><use xlink:href="#b" x="-.004" y="28.198"/><use xlink:href="#1" y="4.342"/><use xlink:href="#2" y="6.513"/><use xlink:href="#3" y="8.684"/><use xlink:href="#4" y="13.026"/><use xlink:href="#5" y="15.197"/><use xlink:href="#6" y="19.539"/><use xlink:href="#7" y="21.71"/><use xlink:href="#8" y="23.881"/><use xlink:href="#9" y="26.052"/></svg><svg x="400"><use xlink:href="#a"/><use xlink:href="#b" x="-.004" y="34.711"/><use xlink:href="#1" y="4.342"/><use xlink:href="#2" y="6.513"/><use xlink:href="#3" y="8.684"/><use xlink:href="#4" y="13.026"/><use xlink:href="#5" y="15.197"/><use xlink:href="#6" y="19.539"/><use xlink:href="#7" y="21.71"/><use xlink:href="#8" y="23.881"/><use xlink:href="#9" y="26.052"/><use xlink:href="#10" y="28.223"/><use xlink:href="#11" y="30.394"/><use xlink:href="#12" y="32.565"/></svg><svg x="480"><use xlink:href="#a"/><use xlink:href="#b" x="-.004" y="36.882"/><use xlink:href="#1" y="4.342"/><use xlink:href="#2" y="6.513"/><use xlink:href="#3" y="8.684"/><use xlink:href="#4" y="13.026"/><use xlink:href="#5" y="15.197"/><use xlink:href="#6" y="19.539"/><use xlink:href="#7" y="21.71"/><use xlink:href="#8" y="23.881"/><use xlink:href="#9" y="26.052"/><use xlink:href="#10" y="28.223"/><use xlink:href="#11" y="30.394"/><use xlink:href="#12" y="32.565"/></svg><svg x="560"><use xlink:href="#a"/><use xlink:href="#b" x="-.004" y="39.053"/><use xlink:href="#1" y="4.342"/><use xlink:href="#2" y="6.513"/><use xlink:href="#3" y="8.684"/><use xlink:href="#4" y="13.026"/><use xlink:href="#5" y="15.197"/><use xlink:href="#6" y="19.539"/><use xlink:href="#7" y="21.71"/><use xlink:href="#8" y="23.881"/><use xlink:href="#9" y="26.052"/><use xlink:href="#10" y="28.223"/><use xlink:href="#11" y="30.394"/><use xlink:href="#12" y="32.565"/><use xlink:href="#13" y="36.907"/></svg><svg x="640"><use xlink:href="#a"/><use xlink:href="#b" x="-.004" y="43.395"/><use xlink:href="#1" y="4.342"/><use xlink:href="#2" y="6.513"/><use xlink:href="#3" y="8.684"/><use xlink:href="#4" y="13.026"/><use xlink:href="#5" y="15.197"/><use xlink:href="#6" y="19.539"/><use xlink:href="#7" y="21.71"/><use xlink:href="#8" y="23.881"/><use xlink:href="#9" y="26.052"/><use xlink:href="#10" y="28.223"/><use xlink:href="#11" y="30.394"/><use xlink:href="#12" y="32.565"/><use xlink:href="#13" y="36.907"/><use xlink:href="#14" y="39.078"/></svg><svg x="720"><use xlink:href="#a"/><use xlink:href="#b" x="-.004" y="49.908"/><use xlink:href="#1" y="4.342"/><use xlink:href="#2" y="6.513"/><use xlink:href="#3" y="8.684"/><use xlink:href="#4" y="13.026"/><use xlink:href="#5" y="15.197"/><use xlink:href="#6" y="19.539"/><use xlink:href="#7" y="21.71"/><use xlink:href="#8" y="23.881"/><use xlink:href="#9" y="26.052"/><use xlink:href="#10" y="28.223"/><use xlink:href="#11" y="30.394"/><use xlink:href="#12" y="32.565"/><use xlink:href="#13" y="36.907"/><use xlink:href="#14" y="39.078"/><use xlink:href="#15" y="43.42"/><use xlink:href="#16" y="45.591"/></svg><svg x="800"><use xlink:href="#a"/><use xlink:href="#b" x="-.004" y="49.908"/><use xlink:href="#1" y="2.171"/><use xlink:href="#2" y="4.342"/><use xlink:href="#3" y="6.513"/><use xlink:href="#4" y="10.855"/><use xlink:href="#5" y="13.026"/><use xlink:href="#6" y="17.368"/><use xlink:href="#7" y="19.539"/><use xlink:href="#8" y="21.71"/><use xlink:href="#9" y="23.881"/><use xlink:href="#10" y="26.052"/><use xlink:href="#11" y="28.223"/><use xlink:href="#12" y="30.394"/><use xlink:href="#13" y="34.736"/><use xlink:href="#14" y="36.907"/><use xlink:href="#15" y="41.249"/><use xlink:href="#16" y="43.42"/><use xlink:href="#17" y="47.762"/></svg><svg x="880"><use xlink:href="#a"/><use xlink:href="#b" x="-.004" y="49.908"/><use xlink:href="#5"/><use xlink:href="#6" y="4.342"/><use xlink:href="#7" y="6.513"/><use xlink:href="#8" y="8.684"/><use xlink:href="#9" y="10.855"/><use xlink:href="#10" y="13.026"/><use xlink:href="#11" y="15.197"/><use xlink:href="#12" y="17.368"/><use xlink:href="#13" y="21.71"/><use xlink:href="#14" y="23.881"/><use xlink:href="#15" y="28.223"/><use xlink:href="#16" y="30.394"/><use xlink:href="#17" y="34.736"/><use xlink:href="#7" y="36.907"/><use xlink:href="#8" y="39.078"/><use xlink:href="#9" y="41.249"/><use xlink:href="#18" y="43.42"/><use xlink:href="#19" y="45.591"/><use xlink:href="#20" y="47.762"/></svg><svg x="960"><use xlink:href="#a"/><use xlink:href="#b" x="-.004" y="49.908"/><use xlink:href="#6"/><use xlink:href="#7" y="2.171"/><use xlink:href="#8" y="4.342"/><use xlink:href="#9" y="6.513"/><use xlink:href="#10" y="8.684"/><use xlink:href="#11" y="10.855"/><use xlink:href="#12" y="13.026"/><use xlink:href="#13" y="17.368"/><use xlink:href="#14" y="19.539"/><use xlink:href="#15" y="23.881"/><use xlink:href="#16" y="26.052"/><use xlink:href="#17" y="30.394"/><use xlink:href="#7" y="32.565"/><use xlink:href="#8" y="34.736"/><use xlink:href="#9" y="36.907"/><use xlink:href="#18" y="39.078"/><use xlink:href="#19" y="41.249"/><use xlink:href="#20" y="43.42"/><use xlink:href="#11" y="45.591"/><use xlink:href="#12" y="47.762"/></svg><svg x="1040"><use xlink:href="#a"/><use xlink:href="#b" x="-.004" y="49.908"/><use xlink:href="#7"/><use xlink:href="#8" y="2.171"/><use xlink:href="#9" y="4.342"/><use xlink:href="#10" y="6.513"/><use xlink:href="#11" y="8.684"/><use xlink:href="#12" y="10.855"/><use xlink:href="#13" y="15.197"/><use xlink:href="#14" y="17.368"/><use xlink:href="#15" y="21.71"/><use xlink:href="#16" y="23.881"/><use xlink:href="#17" y="28.223"/><use xlink:href="#7" y="30.394"/><use xlink:href="#8" y="32.565"/><use xlink:href="#9" y="34.736"/><use xlink:href="#18" y="36.907"/><use xlink:href="#19" y="39.078"/><use xlink:href="#20" y="41.249"/><use xlink:href="#11" y="43.42"/><use xlink:href="#12" y="45.591"/></svg><svg x="1120"><use xlink:href="#a"/><use xlink:href="#b" x="-.004" y="49.908"/><use xlink:href="#8"/><use xlink:href="#9" y="2.171"/><use xlink:href="#10" y="4.342"/><use xlink:href="#11" y="6.513"/><use xlink:href="#12" y="8.684"/><use xlink:href="#13" y="13.026"/><use xlink:href="#14" y="15.197"/><use xlink:href="#15" y="19.539"/><use xlink:href="#16" y="21.71"/><use xlink:href="#17" y="26.052"/><use xlink:href="#7" y="28.223"/><use xlink:href="#8" y="30.394"/><use xlink:href="#9" y="32.565"/><use xlink:href="#18" y="34.736"/><use xlink:href="#19" y="36.907"/><use xlink:href="#20" y="39.078"/><use xlink:href="#11" y="41.249"/><use xlink:href="#12" y="43.42"/><use xlink:href="#21" y="47.762"/></svg><svg x="1200"><use xlink:href="#a"/><use xlink:href="#b" x="-.004" y="49.908"/><use xlink:href="#12"/><use xlink:href="#13" y="4.342"/><use xlink:href="#14" y="6.513"/><use xlink:href="#15" y="10.855"/><use xlink:href="#16" y="13.026"/><use xlink:href="#17" y="17.368"/><use xlink:href="#7" y="19.539"/><use xlink:href="#8" y="21.71"/><use xlink:href="#9" y="23.881"/><use xlink:href="#18" y="26.052"/><use xlink:href="#19" y="28.223"/><use xlink:href="#20" y="30.394"/><use xlink:href="#11" y="32.565"/><use xlink:href="#12" y="34.736"/><use xlink:href="#21" y="39.078"/><use xlink:href="#14" y="41.249"/><text x="2.004" y="47.261" class="q">Same</text><text x="7.014" y="47.261" class="q">tool.</text><text x="13.026" y="47.261" class="q">Two</text><text x="17.034" y="47.261" class="q">agents.</text><text x="25.05" y="47.261" class="q">Two</text><text x="29.058" y="47.261" class="q">outcomes.</text><text x="39.078" y="47.261" class="q">Both</text><text x="44.088" y="47.261" class="q">audited.</text></svg></svg></g></g></svg></svg>