<svg xmlns="http://www.w3.org/2000/svg" xmlns:xlink="http://www.w3.org/1999/xlink" width="840" height="581.04"><rect width="840" height="581.04" rx="5" ry="5" class="a"/><svg y="0%" x="0%"><circle cx="20" cy="20" r="6" fill="#ff5f58"/><circle cx="40" cy="20" r="6" fill="#ffbd2e"/><circle cx="60" cy="20" r="6" fill="#18c132"/></svg><svg height="521.04" viewBox="0 0 80 52.104" width="800" x="15" xmlns="http://www.w3.org/2000/svg" xmlns:xlink="http://www.w3.org/1999/xlink" y="50"><style>@keyframes n{0%{transform:translateX(0)}.1%{transform:translateX(-80px)}8.6%{transform:translateX(-160px)}12.8%{transform:translateX(-240px)}15.6%{transform:translateX(-480px)}32.5%{transform:translateX(-640px)}36.8%{transform:translateX(-720px)}40.2%{transform:translateX(-800px)}43.6%{transform:translateX(-880px)}46.9%{transform:translateX(-960px)}50.3%{transform:translateX(-1040px)}53.7%{transform:translateX(-1120px)}57.1%{transform:translateX(-1200px)}74.1%{transform:translateX(-1360px)}78.3%{transform:translateX(-1440px)}83.1%{transform:translateX(-1920px)}to{transform:translateX(-2000px)}}.a{fill:#fafafa}.f{fill:#fff;font-weight:700;white-space:pre}.g,.h,.i,.k,.p{fill:#b9c0cb;white-space:pre}.h,.i,.k,.p{fill:#66c2cd}.i,.k,.p{fill:#a8cc8c}.k,.p{fill:#dbab79}.p{fill:#66c2cd;font-weight:700}</style><g font-family="Monaco,Consolas,Menlo,'Bitstream Vera Sans Mono','Powerline Symbols',monospace" font-size="1.67"><defs><symbol id="1"><text x="2.004" y="1.67" class="f">REQUEST</text><text x="10.02" y="1.67" class="f">TRACING</text></symbol><symbol id="2"><text x="2.004" y="1.67" class="g">End-to-end</text><text x="13.026" y="1.67" class="g">typed</text><text x="19.038" y="1.67" class="g">request</text><text x="27.054" y="1.67" class="g">flow</text></symbol><symbol id="3"><text x="2.004" y="1.67" class="h">━━━━━━━━━━━━━━━━━━━━━━━━━━━━━━━━━━━━━━━━━━━━━━━━━━</text></symbol><symbol id="4"><text x="2.004" y="1.67" class="h">──</text><text x="5.01" y="1.67" class="f">Governance</text><text x="16.032" y="1.67" class="f">request</text></symbol><symbol id="5"><text x="2.004" y="1.67" class="g">POST</text><text x="7.014" y="1.67" class="g">/api/public/hooks/govern</text></symbol><symbol id="6"><text x="2.004" y="1.67" class="i">$</text><text x="4.008" y="1.67" class="g">systemprompt</text><text x="17.034" y="1.67" class="g">hooks</text><text x="23.046" y="1.67" class="g">govern</text><text x="30.06" y="1.67" class="g">--agent</text><text x="38.076" y="1.67" class="g">developer_agent</text><text x="54.108" y="1.67" class="g">--tool</text><text x="61.122" y="1.67" class="g">Read</text></symbol><symbol id="7"><text x="4.008" y="1.67" class="g">{</text></symbol><symbol id="8"><text x="6.012" y="1.67" class="h">&quot;hookSpecificOutput&quot;:</text><text x="28.056" y="1.67" class="g">{</text></symbol><symbol id="9"><text x="8.016" y="1.67" class="h">&quot;hookEventName&quot;:</text><text x="25.05" y="1.67" class="g">&quot;PreToolUse&quot;,</text></symbol><symbol id="10"><text x="8.016" y="1.67" class="h">&quot;permissionDecision&quot;:</text><text x="30.06" y="1.67" style="white-space:pre" fill="#a8cc8c" font-weight="700">&quot;allow&quot;</text></symbol><symbol id="11"><text x="6.012" y="1.67" class="g">}</text></symbol><symbol id="12"><text x="4.008" y="1.67" class="g">}</text></symbol><symbol id="13"><text x="2.004" y="1.67" class="i">HTTP</text><text x="7.014" y="1.67" class="i">200</text><text x="11.022" y="1.67" class="g">in</text><text x="14.028" y="1.67" class="h">2.8ms</text></symbol><symbol id="14"><text x="2.004" y="1.67" class="g">────────────────────────────────────────────────────────────</text></symbol><symbol id="15"><text x="2.004" y="1.67" class="h">──</text><text x="5.01" y="1.67" class="f">Request</text><text x="13.026" y="1.67" class="f">Pipeline</text></symbol><symbol id="16"><text x="2.004" y="1.67" class="g">6</text><text x="4.008" y="1.67" class="g">typed</text><text x="10.02" y="1.67" class="g">stages,</text><text x="18.036" y="1.67" class="g">zero</text><text x="23.046" y="1.67" class="g">unstructured</text><text x="36.072" y="1.67" class="g">data</text></symbol><symbol id="17"><text x="4.008" y="1.67" class="g">Client</text></symbol><symbol id="18"><text x="6.012" y="1.67" class="g">│</text></symbol><symbol id="19"><text x="4.008" y="1.67" class="h">▶</text><text x="6.012" y="1.67" class="h">Axum</text><text x="11.022" y="1.67" class="h">Router</text><text x="27.054" y="1.67" class="g">POST</text><text x="32.064" y="1.67" class="g">/api/public/hooks/govern</text></symbol><symbol id="20"><text x="4.008" y="1.67" class="h">▶</text><text x="6.012" y="1.67" class="h">JWT</text><text x="10.02" y="1.67" class="h">Validation</text><text x="27.054" y="1.67" class="g">extract_bearer</text><text x="42.084" y="1.67" class="g">→</text><text x="44.088" y="1.67" class="g">validate_jwt</text></symbol><symbol id="21"><text x="4.008" y="1.67" class="h">▶</text><text x="6.012" y="1.67" class="h">Scope</text><text x="12.024" y="1.67" class="h">Resolution</text><text x="27.054" y="1.67" class="g">agent_id</text><text x="36.072" y="1.67" class="g">→</text><text x="38.076" y="1.67" class="g">admin</text><text x="44.088" y="1.67" class="g">|</text><text x="46.092" y="1.67" class="g">user</text></symbol><symbol id="22"><text x="4.008" y="1.67" class="h">▶</text><text x="6.012" y="1.67" class="h">Rule</text><text x="11.022" y="1.67" class="h">Engine</text><text x="27.054" y="1.67" class="g">scope</text><text x="33.066" y="1.67" class="g">+</text><text x="35.07" y="1.67" class="g">secrets</text><text x="43.086" y="1.67" class="g">+</text><text x="45.09" y="1.67" class="g">rate_limit</text></symbol><symbol id="23"><text x="4.008" y="1.67" class="k">▶</text><text x="6.012" y="1.67" class="k">Async</text><text x="12.024" y="1.67" class="k">Audit</text><text x="26.052" y="1.67" class="g">tokio::spawn</text><text x="39.078" y="1.67" class="g">→</text><text x="41.082" y="1.67" class="g">INSERT</text></symbol><symbol id="24"><text x="4.008" y="1.67" class="i">▶</text><text x="6.012" y="1.67" class="i">Response</text><text x="26.052" y="1.67" class="g">HTTP</text><text x="31.062" y="1.67" class="g">200</text><text x="35.07" y="1.67" class="g">{</text><text x="37.074" y="1.67" class="g">allow</text><text x="43.086" y="1.67" class="g">|</text><text x="45.09" y="1.67" class="g">deny</text><text x="50.1" y="1.67" class="g">}</text></symbol><symbol id="25"><text x="2.004" y="1.67" class="h">──</text><text x="5.01" y="1.67" class="f">Execution</text><text x="15.03" y="1.67" class="f">Trace</text></symbol><symbol id="26"><text x="2.004" y="1.67" class="g">Every</text><text x="8.016" y="1.67" class="g">event</text><text x="14.028" y="1.67" class="g">logged</text><text x="21.042" y="1.67" class="g">with</text><text x="26.052" y="1.67" class="g">typed</text><text x="32.064" y="1.67" class="g">IDs</text></symbol><symbol id="27"><text x="2.004" y="1.67" class="i">$</text><text x="4.008" y="1.67" class="g">systemprompt</text><text x="17.034" y="1.67" class="g">infra</text><text x="23.046" y="1.67" class="g">logs</text><text x="28.056" y="1.67" class="g">trace</text><text x="34.068" y="1.67" class="g">list</text><text x="39.078" y="1.67" class="g">--limit</text><text x="47.094" y="1.67" class="g">3</text></symbol><symbol id="28"><text x="4.008" y="1.67" class="h">Recent</text><text x="11.022" y="1.67" class="h">Traces</text></symbol><symbol id="29"><text x="4.008" y="1.67" class="h">{</text></symbol><symbol id="30"><text x="6.012" y="1.67" class="h">&quot;traces&quot;:</text><text x="16.032" y="1.67" class="h">[</text></symbol><symbol id="31"><text x="8.016" y="1.67" class="h">{</text></symbol><symbol id="32"><text x="10.02" y="1.67" class="h">&quot;trace_id&quot;:</text><text x="22.044" y="1.67" class="h">&quot;dfd06273-957b-4fac-ab19-7facd6dc6ecf&quot;,</text></symbol><symbol id="33"><text x="10.02" y="1.67" class="h">&quot;timestamp&quot;:</text><text x="23.046" y="1.67" class="h">&quot;2026-04-01</text><text x="35.07" y="1.67" class="h">13:27:19&quot;,</text></symbol><symbol id="34"><text x="10.02" y="1.67" class="h">&quot;agent&quot;:</text><text x="19.038" y="1.67" class="h">&quot;developer_agent&quot;,</text></symbol><symbol id="35"><text x="10.02" y="1.67" class="h">&quot;status&quot;:</text><text x="20.04" y="1.67" class="h">&quot;completed&quot;,</text></symbol><symbol id="36"><text x="10.02" y="1.67" class="h">&quot;duration_ms&quot;:</text><text x="25.05" y="1.67" class="h">3115,</text></symbol><symbol id="37"><text x="10.02" y="1.67" class="h">&quot;ai_requests&quot;:</text><text x="25.05" y="1.67" class="h">3,</text></symbol><symbol id="38"><text x="10.02" y="1.67" class="h">&quot;mcp_calls&quot;:</text><text x="23.046" y="1.67" class="h">1</text></symbol><symbol id="39"><text x="8.016" y="1.67" class="h">},</text></symbol><symbol id="40"><text x="10.02" y="1.67" class="h">&quot;trace_id&quot;:</text><text x="22.044" y="1.67" class="h">&quot;12f6210b-6587-40d2-8cb5-131b4639e0f0&quot;,</text></symbol><symbol id="41"><text x="10.02" y="1.67" class="h">&quot;timestamp&quot;:</text><text x="23.046" y="1.67" class="h">&quot;2026-04-01</text><text x="35.07" y="1.67" class="h">12:27:08&quot;,</text></symbol><symbol id="42"><text x="10.02" y="1.67" class="h">&quot;duration_ms&quot;:</text><text x="25.05" y="1.67" class="h">2962,</text></symbol><symbol id="a"><path fill="transparent" d="M0 0h80v24H0z"/></symbol><symbol id="b"><path fill="#6f7683" d="M0 0h1.102v2.171H0z"/></symbol></defs><path class="a" d="M0 0h80v52.104H0z"/><g style="animation-duration:11.82171s;animation-iteration-count:infinite;animation-name:n;animation-timing-function:steps(1,end)"><svg width="2080"><svg><use xlink:href="#a"/><use xlink:href="#b" x="-.004"/></svg><svg x="80"><use xlink:href="#a"/><use xlink:href="#b" x="-.004" y="13.001"/><use xlink:href="#1" y="4.342"/><use xlink:href="#2" y="6.513"/><use xlink:href="#3" y="8.684"/></svg><svg x="160"><use xlink:href="#a"/><use xlink:href="#b" x="-.004" y="19.514"/><use xlink:href="#1" y="4.342"/><use xlink:href="#2" y="6.513"/><use xlink:href="#3" y="8.684"/><use xlink:href="#4" y="13.026"/><use xlink:href="#5" y="15.197"/></svg><svg x="240"><use xlink:href="#a"/><use xlink:href="#b" x="-.004" y="21.685"/><use xlink:href="#1" y="4.342"/><use xlink:href="#2" y="6.513"/><use xlink:href="#3" y="8.684"/><use xlink:href="#4" y="13.026"/><use xlink:href="#5" y="15.197"/><use xlink:href="#6" y="19.539"/></svg><svg x="320"><use xlink:href="#a"/><use xlink:href="#b" x="-.004" y="28.198"/><use xlink:href="#1" y="4.342"/><use xlink:href="#2" y="6.513"/><use xlink:href="#3" y="8.684"/><use xlink:href="#4" y="13.026"/><use xlink:href="#5" y="15.197"/><use xlink:href="#6" y="19.539"/><use xlink:href="#7" y="21.71"/><use xlink:href="#8" y="23.881"/><use xlink:href="#9" y="26.052"/></svg><svg x="400"><use xlink:href="#a"/><use xlink:href="#b" x="-.004" y="34.711"/><use xlink:href="#1" y="4.342"/><use xlink:href="#2" y="6.513"/><use xlink:href="#3" y="8.684"/><use xlink:href="#4" y="13.026"/><use xlink:href="#5" y="15.197"/><use xlink:href="#6" y="19.539"/><use xlink:href="#7" y="21.71"/><use xlink:href="#8" y="23.881"/><use xlink:href="#9" y="26.052"/><use xlink:href="#10" y="28.223"/><use xlink:href="#11" y="30.394"/><use xlink:href="#12" y="32.565"/></svg><svg x="480"><use xlink:href="#a"/><use xlink:href="#b" x="-.004" y="39.053"/><use xlink:href="#1" y="4.342"/><use xlink:href="#2" y="6.513"/><use xlink:href="#3" y="8.684"/><use xlink:href="#4" y="13.026"/><use xlink:href="#5" y="15.197"/><use xlink:href="#6" y="19.539"/><use xlink:href="#7" y="21.71"/><use xlink:href="#8" y="23.881"/><use xlink:href="#9" y="26.052"/><use xlink:href="#10" y="28.223"/><use xlink:href="#11" y="30.394"/><use xlink:href="#12" y="32.565"/><use xlink:href="#13" y="36.907"/></svg><svg x="560"><use xlink:href="#a"/><use xlink:href="#b" x="-.004" y="49.908"/><use xlink:href="#1" y="4.342"/><use xlink:href="#2" y="6.513"/><use xlink:href="#3" y="8.684"/><use xlink:href="#4" y="13.026"/><use xlink:href="#5" y="15.197"/><use xlink:href="#6" y="19.539"/><use xlink:href="#7" y="21.71"/><use xlink:href="#8" y="23.881"/><use xlink:href="#9" y="26.052"/><use xlink:href="#10" y="28.223"/><use xlink:href="#11" y="30.394"/><use xlink:href="#12" y="32.565"/><use xlink:href="#13" y="36.907"/><use xlink:href="#14" y="39.078"/><use xlink:href="#15" y="43.42"/><use xlink:href="#16" y="45.591"/></svg><svg x="640"><use xlink:href="#a"/><use xlink:href="#b" x="-.004" y="49.908"/><use xlink:href="#1" y="2.171"/><use xlink:href="#2" y="4.342"/><use xlink:href="#3" y="6.513"/><use xlink:href="#4" y="10.855"/><use xlink:href="#5" y="13.026"/><use xlink:href="#6" y="17.368"/><use xlink:href="#7" y="19.539"/><use xlink:href="#8" y="21.71"/><use xlink:href="#9" y="23.881"/><use xlink:href="#10" y="26.052"/><use xlink:href="#11" y="28.223"/><use xlink:href="#12" y="30.394"/><use xlink:href="#13" y="34.736"/><use xlink:href="#14" y="36.907"/><use xlink:href="#15" y="41.249"/><use xlink:href="#16" y="43.42"/></svg><svg x="720"><use xlink:href="#a"/><use xlink:href="#b" x="-.004" y="49.908"/><use xlink:href="#2"/><use xlink:href="#3" y="2.171"/><use xlink:href="#4" y="6.513"/><use xlink:href="#5" y="8.684"/><use xlink:href="#6" y="13.026"/><use xlink:href="#7" y="15.197"/><use xlink:href="#8" y="17.368"/><use xlink:href="#9" y="19.539"/><use xlink:href="#10" y="21.71"/><use xlink:href="#11" y="23.881"/><use xlink:href="#12" y="26.052"/><use xlink:href="#13" y="30.394"/><use xlink:href="#14" y="32.565"/><use xlink:href="#15" y="36.907"/><use xlink:href="#16" y="39.078"/><use xlink:href="#17" y="45.591"/><use xlink:href="#18" y="47.762"/></svg><svg x="800"><use xlink:href="#a"/><use xlink:href="#b" x="-.004" y="49.908"/><use xlink:href="#4" y="2.171"/><use xlink:href="#5" y="4.342"/><use xlink:href="#6" y="8.684"/><use xlink:href="#7" y="10.855"/><use xlink:href="#8" y="13.026"/><use xlink:href="#9" y="15.197"/><use xlink:href="#10" y="17.368"/><use xlink:href="#11" y="19.539"/><use xlink:href="#12" y="21.71"/><use xlink:href="#13" y="26.052"/><use xlink:href="#14" y="28.223"/><use xlink:href="#15" y="32.565"/><use xlink:href="#16" y="34.736"/><use xlink:href="#17" y="41.249"/><use xlink:href="#18" y="43.42"/><use xlink:href="#19" y="45.591"/><use xlink:href="#18" y="47.762"/></svg><svg x="880"><use xlink:href="#a"/><use xlink:href="#b" x="-.004" y="49.908"/><use xlink:href="#5"/><use xlink:href="#6" y="4.342"/><use xlink:href="#7" y="6.513"/><use xlink:href="#8" y="8.684"/><use xlink:href="#9" y="10.855"/><use xlink:href="#10" y="13.026"/><use xlink:href="#11" y="15.197"/><use xlink:href="#12" y="17.368"/><use xlink:href="#13" y="21.71"/><use xlink:href="#14" y="23.881"/><use xlink:href="#15" y="28.223"/><use xlink:href="#16" y="30.394"/><use xlink:href="#17" y="36.907"/><use xlink:href="#18" y="39.078"/><use xlink:href="#19" y="41.249"/><use xlink:href="#18" y="43.42"/><use xlink:href="#20" y="45.591"/><use xlink:href="#18" y="47.762"/></svg><svg x="960"><use xlink:href="#a"/><use xlink:href="#b" x="-.004" y="49.908"/><use xlink:href="#6"/><use xlink:href="#7" y="2.171"/><use xlink:href="#8" y="4.342"/><use xlink:href="#9" y="6.513"/><use xlink:href="#10" y="8.684"/><use xlink:href="#11" y="10.855"/><use xlink:href="#12" y="13.026"/><use xlink:href="#13" y="17.368"/><use xlink:href="#14" y="19.539"/><use xlink:href="#15" y="23.881"/><use xlink:href="#16" y="26.052"/><use xlink:href="#17" y="32.565"/><use xlink:href="#18" y="34.736"/><use xlink:href="#19" y="36.907"/><use xlink:href="#18" y="39.078"/><use xlink:href="#20" y="41.249"/><use xlink:href="#18" y="43.42"/><use xlink:href="#21" y="45.591"/><use xlink:href="#18" y="47.762"/></svg><svg x="1040"><use xlink:href="#a"/><use xlink:href="#b" x="-.004" y="49.908"/><use xlink:href="#8"/><use xlink:href="#9" y="2.171"/><use xlink:href="#10" y="4.342"/><use xlink:href="#11" y="6.513"/><use xlink:href="#12" y="8.684"/><use xlink:href="#13" y="13.026"/><use xlink:href="#14" y="15.197"/><use xlink:href="#15" y="19.539"/><use xlink:href="#16" y="21.71"/><use xlink:href="#17" y="28.223"/><use xlink:href="#18" y="30.394"/><use xlink:href="#19" y="32.565"/><use xlink:href="#18" y="34.736"/><use xlink:href="#20" y="36.907"/><use xlink:href="#18" y="39.078"/><use xlink:href="#21" y="41.249"/><use xlink:href="#18" y="43.42"/><use xlink:href="#22" y="45.591"/><use xlink:href="#18" y="47.762"/></svg><svg x="1120"><use xlink:href="#a"/><use xlink:href="#b" x="-.004" y="49.908"/><use xlink:href="#10"/><use xlink:href="#11" y="2.171"/><use xlink:href="#12" y="4.342"/><use xlink:href="#13" y="8.684"/><use xlink:href="#14" y="10.855"/><use xlink:href="#15" y="15.197"/><use xlink:href="#16" y="17.368"/><use xlink:href="#17" y="23.881"/><use xlink:href="#18" y="26.052"/><use xlink:href="#19" y="28.223"/><use xlink:href="#18" y="30.394"/><use xlink:href="#20" y="32.565"/><use xlink:href="#18" y="34.736"/><use xlink:href="#21" y="36.907"/><use xlink:href="#18" y="39.078"/><use xlink:href="#22" y="41.249"/><use xlink:href="#18" y="43.42"/><use xlink:href="#23" y="45.591"/><use xlink:href="#18" y="47.762"/></svg><svg x="1200"><use xlink:href="#a"/><use xlink:href="#b" x="-.004" y="49.908"/><use xlink:href="#11"/><use xlink:href="#12" y="2.171"/><use xlink:href="#13" y="6.513"/><use xlink:href="#14" y="8.684"/><use xlink:href="#15" y="13.026"/><use xlink:href="#16" y="15.197"/><use xlink:href="#17" y="21.71"/><use xlink:href="#18" y="23.881"/><use xlink:href="#19" y="26.052"/><use xlink:href="#18" y="28.223"/><use xlink:href="#20" y="30.394"/><use xlink:href="#18" y="32.565"/><use xlink:href="#21" y="34.736"/><use xlink:href="#18" y="36.907"/><use xlink:href="#22" y="39.078"/><use xlink:href="#18" y="41.249"/><use xlink:href="#23" y="43.42"/><use xlink:href="#18" y="45.591"/><use xlink:href="#24" y="47.762"/></svg><svg x="1280"><use xlink:href="#a"/><use xlink:href="#b" x="-.004" y="49.908"/><use xlink:href="#13" y="2.171"/><use xlink:href="#14" y="4.342"/><use xlink:href="#15" y="8.684"/><use xlink:href="#16" y="10.855"/><use xlink:href="#17" y="17.368"/><use xlink:href="#18" y="19.539"/><use xlink:href="#19" y="21.71"/><use xlink:href="#18" y="23.881"/><use xlink:href="#20" y="26.052"/><use xlink:href="#18" y="28.223"/><use xlink:href="#21" y="30.394"/><use xlink:href="#18" y="32.565"/><use xlink:href="#22" y="34.736"/><use xlink:href="#18" y="36.907"/><use xlink:href="#23" y="39.078"/><use xlink:href="#18" y="41.249"/><use xlink:href="#24" y="43.42"/><use xlink:href="#14" y="45.591"/></svg><svg x="1360"><use xlink:href="#a"/><use xlink:href="#b" x="-.004" y="49.908"/><use xlink:href="#15" y="2.171"/><use xlink:href="#16" y="4.342"/><use xlink:href="#17" y="10.855"/><use xlink:href="#18" y="13.026"/><use xlink:href="#19" y="15.197"/><use xlink:href="#18" y="17.368"/><use xlink:href="#20" y="19.539"/><use xlink:href="#18" y="21.71"/><use xlink:href="#21" y="23.881"/><use xlink:href="#18" y="26.052"/><use xlink:href="#22" y="28.223"/><use xlink:href="#18" y="30.394"/><use xlink:href="#23" y="32.565"/><use xlink:href="#18" y="34.736"/><use xlink:href="#24" y="36.907"/><use xlink:href="#14" y="39.078"/><use xlink:href="#25" y="43.42"/><use xlink:href="#26" y="45.591"/></svg><svg x="1440"><use xlink:href="#a"/><use xlink:href="#b" x="-.004" y="49.908"/><use xlink:href="#15"/><use xlink:href="#16" y="2.171"/><use xlink:href="#17" y="8.684"/><use xlink:href="#18" y="10.855"/><use xlink:href="#19" y="13.026"/><use xlink:href="#18" y="15.197"/><use xlink:href="#20" y="17.368"/><use xlink:href="#18" y="19.539"/><use xlink:href="#21" y="21.71"/><use xlink:href="#18" y="23.881"/><use xlink:href="#22" y="26.052"/><use xlink:href="#18" y="28.223"/><use xlink:href="#23" y="30.394"/><use xlink:href="#18" y="32.565"/><use xlink:href="#24" y="34.736"/><use xlink:href="#14" y="36.907"/><use xlink:href="#25" y="41.249"/><use xlink:href="#26" y="43.42"/><use xlink:href="#27" y="47.762"/></svg><svg x="1520"><use xlink:href="#a"/><use xlink:href="#b" x="-.004" y="49.908"/><use xlink:href="#17" y="2.171"/><use xlink:href="#18" y="4.342"/><use xlink:href="#19" y="6.513"/><use xlink:href="#18" y="8.684"/><use xlink:href="#20" y="10.855"/><use xlink:href="#18" y="13.026"/><use xlink:href="#21" y="15.197"/><use xlink:href="#18" y="17.368"/><use xlink:href="#22" y="19.539"/><use xlink:href="#18" y="21.71"/><use xlink:href="#23" y="23.881"/><use xlink:href="#18" y="26.052"/><use xlink:href="#24" y="28.223"/><use xlink:href="#14" y="30.394"/><use xlink:href="#25" y="34.736"/><use xlink:href="#26" y="36.907"/><use xlink:href="#27" y="41.249"/><use xlink:href="#28" y="45.591"/><use xlink:href="#29" y="47.762"/></svg><svg x="1600"><use xlink:href="#a"/><use xlink:href="#b" x="-.004" y="49.908"/><use xlink:href="#18"/><use xlink:href="#20" y="2.171"/><use xlink:href="#18" y="4.342"/><use xlink:href="#21" y="6.513"/><use xlink:href="#18" y="8.684"/><use xlink:href="#22" y="10.855"/><use xlink:href="#18" y="13.026"/><use xlink:href="#23" y="15.197"/><use xlink:href="#18" y="17.368"/><use xlink:href="#24" y="19.539"/><use xlink:href="#14" y="21.71"/><use xlink:href="#25" y="26.052"/><use xlink:href="#26" y="28.223"/><use xlink:href="#27" y="32.565"/><use xlink:href="#28" y="36.907"/><use xlink:href="#29" y="39.078"/><use xlink:href="#30" y="41.249"/><use xlink:href="#31" y="43.42"/><use xlink:href="#32" y="45.591"/><use xlink:href="#33" y="47.762"/></svg><svg x="1680"><use xlink:href="#a"/><use xlink:href="#b" x="-.004" y="49.908"/><use xlink:href="#22"/><use xlink:href="#18" y="2.171"/><use xlink:href="#23" y="4.342"/><use xlink:href="#18" y="6.513"/><use xlink:href="#24" y="8.684"/><use xlink:href="#14" y="10.855"/><use xlink:href="#25" y="15.197"/><use xlink:href="#26" y="17.368"/><use xlink:href="#27" y="21.71"/><use xlink:href="#28" y="26.052"/><use xlink:href="#29" y="28.223"/><use xlink:href="#30" y="30.394"/><use xlink:href="#31" y="32.565"/><use xlink:href="#32" y="34.736"/><use xlink:href="#33" y="36.907"/><use xlink:href="#34" y="39.078"/><use xlink:href="#35" y="41.249"/><use xlink:href="#36" y="43.42"/><use xlink:href="#37" y="45.591"/><use xlink:href="#38" y="47.762"/></svg><svg x="1760"><use xlink:href="#a"/><use xlink:href="#b" x="-.004" y="49.908"/><use xlink:href="#24"/><use xlink:href="#14" y="2.171"/><use xlink:href="#25" y="6.513"/><use xlink:href="#26" y="8.684"/><use xlink:href="#27" y="13.026"/><use xlink:href="#28" y="17.368"/><use xlink:href="#29" y="19.539"/><use xlink:href="#30" y="21.71"/><use xlink:href="#31" y="23.881"/><use xlink:href="#32" y="26.052"/><use xlink:href="#33" y="28.223"/><use xlink:href="#34" y="30.394"/><use xlink:href="#35" y="32.565"/><use xlink:href="#36" y="34.736"/><use xlink:href="#37" y="36.907"/><use xlink:href="#38" y="39.078"/><use xlink:href="#39" y="41.249"/><use xlink:href="#31" y="43.42"/><use xlink:href="#40" y="45.591"/><use xlink:href="#41" y="47.762"/></svg><svg x="1840"><use xlink:href="#a"/><use xlink:href="#b" x="-.004" y="49.908"/><use xlink:href="#25"/><use xlink:href="#26" y="2.171"/><use xlink:href="#27" y="6.513"/><use xlink:href="#28" y="10.855"/><use xlink:href="#29" y="13.026"/><use xlink:href="#30" y="15.197"/><use xlink:href="#31" y="17.368"/><use xlink:href="#32" y="19.539"/><use xlink:href="#33" y="21.71"/><use xlink:href="#34" y="23.881"/><use xlink:href="#35" y="26.052"/><use xlink:href="#36" y="28.223"/><use xlink:href="#37" y="30.394"/><use xlink:href="#38" y="32.565"/><use xlink:href="#39" y="34.736"/><use xlink:href="#31" y="36.907"/><use xlink:href="#40" y="39.078"/><use xlink:href="#41" y="41.249"/><use xlink:href="#34" y="43.42"/><use xlink:href="#35" y="45.591"/><use xlink:href="#42" y="47.762"/></svg><svg x="1920"><use xlink:href="#a"/><use xlink:href="#b" x="-.004" y="49.908"/><use xlink:href="#26"/><use xlink:href="#27" y="4.342"/><use xlink:href="#28" y="8.684"/><use xlink:href="#29" y="10.855"/><use xlink:href="#30" y="13.026"/><use xlink:href="#31" y="15.197"/><use xlink:href="#32" y="17.368"/><use xlink:href="#33" y="19.539"/><use xlink:href="#34" y="21.71"/><use xlink:href="#35" y="23.881"/><use xlink:href="#36" y="26.052"/><use xlink:href="#37" y="28.223"/><use xlink:href="#38" y="30.394"/><use xlink:href="#39" y="32.565"/><use xlink:href="#31" y="34.736"/><use xlink:href="#40" y="36.907"/><use xlink:href="#41" y="39.078"/><use xlink:href="#34" y="41.249"/><use xlink:href="#35" y="43.42"/><use xlink:href="#42" y="45.591"/><use xlink:href="#37" y="47.762"/></svg><svg x="2000"><use xlink:href="#a"/><use xlink:href="#b" x="-.004" y="49.908"/><use xlink:href="#28" y="2.171"/><use xlink:href="#29" y="4.342"/><use xlink:href="#30" y="6.513"/><use xlink:href="#31" y="8.684"/><use xlink:href="#32" y="10.855"/><use xlink:href="#33" y="13.026"/><use xlink:href="#34" y="15.197"/><use xlink:href="#35" y="17.368"/><use xlink:href="#36" y="19.539"/><use xlink:href="#37" y="21.71"/><use xlink:href="#38" y="23.881"/><use xlink:href="#39" y="26.052"/><use xlink:href="#31" y="28.223"/><use xlink:href="#40" y="30.394"/><use xlink:href="#41" y="32.565"/><use xlink:href="#34" y="34.736"/><use xlink:href="#35" y="36.907"/><use xlink:href="#42" y="39.078"/><use xlink:href="#37" y="41.249"/><text x="2.004" y="47.261" class="p">Every</text><text x="8.016" y="47.261" class="p">field</text><text x="14.028" y="47.261" class="p">typed.</text><text x="21.042" y="47.261" class="p">Every</text><text x="27.054" y="47.261" class="p">query</text><text x="33.066" y="47.261" class="p">compile-time</text><text x="46.092" y="47.261" class="p">checked.</text></svg></svg></g></g></svg></svg>