<svg xmlns="http://www.w3.org/2000/svg" xmlns:xlink="http://www.w3.org/1999/xlink" width="1072" height="786.72"><rect width="1072" height="786.72" rx="5" ry="5" class="a"/><svg y="0%" x="0%"><circle cx="20" cy="20" r="6" fill="#ff5f58"/><circle cx="40" cy="20" r="6" fill="#ffbd2e"/><circle cx="60" cy="20" r="6" fill="#18c132"/></svg><svg height="694.72" viewBox="0 0 100 69.472" width="1000" x="31" xmlns="http://www.w3.org/2000/svg" xmlns:xlink="http://www.w3.org/1999/xlink" y="66"><style>@keyframes n{0%{transform:translateX(0)}.2%{transform:translateX(-100px)}1.2%{transform:translateX(-200px)}9.5%{transform:translateX(-300px)}15.7%{transform:translateX(-500px)}48.8%{transform:translateX(-700px)}57.1%{transform:translateX(-800px)}66.9%{transform:translateX(-1000px)}to{transform:translateX(-1300px)}}.a{fill:#fafafa}.f{font-weight:700}.f,.g,.h{fill:#2d2d2d;white-space:pre}.h{fill:#2980b9}.i{font-weight:700}.i,.j,.k{fill:#27ae60;white-space:pre}.k{fill:#ea580c}</style><g font-family="Monaco,Consolas,Menlo,'Bitstream Vera Sans Mono','Powerline Symbols',monospace" font-size="1.67"><defs><symbol id="1"><text y="1.67" class="f">LOAD</text><text x="5.01" y="1.67" class="f">TEST</text></symbol><symbol id="2"><text y="1.67" class="g">Governance</text><text x="11.022" y="1.67" class="g">throughput</text><text x="22.044" y="1.67" class="g">under</text><text x="28.056" y="1.67" class="g">production</text><text x="39.078" y="1.67" class="g">load</text></symbol><symbol id="3"><text y="1.67" class="h">━━━━━━━━━━━━━━━━━━━━━━━━━━━━━━━━━━━━━━━━━━━━━━━━━━━━━━━━━━━━━━</text></symbol><symbol id="4"><text y="1.67" class="h">──</text><text x="3.006" y="1.67" class="f">500</text><text x="7.014" y="1.67" class="f">requests,</text><text x="17.034" y="1.67" class="f">50</text><text x="20.04" y="1.67" class="f">concurrent</text></symbol><symbol id="5"><text x="3.006" y="1.67" class="g">JWT</text><text x="7.014" y="1.67" class="g">→</text><text x="9.018" y="1.67" class="g">scope</text><text x="15.03" y="1.67" class="g">→</text><text x="17.034" y="1.67" class="g">3</text><text x="19.038" y="1.67" class="g">rules</text><text x="25.05" y="1.67" class="g">→</text><text x="27.054" y="1.67" class="g">audit</text><text x="33.066" y="1.67" class="g">write</text><text x="39.078" y="1.67" class="g">per</text><text x="43.086" y="1.67" class="g">request</text></symbol><symbol id="6"><text y="1.67" class="g">Running</text><text x="8.016" y="1.67" class="g">benchmark...</text></symbol><symbol id="7"><text y="1.67" class="g">Throughput</text><text x="19.038" y="1.67" class="i">1454</text><text x="24.048" y="1.67" class="i">req/s</text></symbol><symbol id="8"><text y="1.67" class="g">p50</text><text x="19.038" y="1.67" class="j">22.0ms</text></symbol><symbol id="9"><text y="1.67" class="g">p90</text><text x="19.038" y="1.67" class="k">61.1ms</text></symbol><symbol id="10"><text y="1.67" class="g">p99</text><text x="19.038" y="1.67" class="k">168.1ms</text></symbol><symbol id="11"><text y="1.67" class="g">Fastest</text><text x="19.038" y="1.67" class="j">5.1ms</text></symbol><symbol id="12"><text y="1.67" class="g">────────────────────────────────────────────────────────────</text></symbol><symbol id="13"><text y="1.67" class="h">──</text><text x="3.006" y="1.67" class="f">1000</text><text x="8.016" y="1.67" class="f">requests,</text><text x="18.036" y="1.67" class="f">100</text><text x="22.044" y="1.67" class="f">concurrent</text></symbol><symbol id="14"><text x="3.006" y="1.67" class="g">Doubled</text><text x="11.022" y="1.67" class="g">concurrency,</text><text x="24.048" y="1.67" class="g">sustained</text><text x="34.068" y="1.67" class="g">load</text></symbol><symbol id="15"><text y="1.67" class="g">Throughput</text><text x="19.038" y="1.67" class="i">1757</text><text x="24.048" y="1.67" class="i">req/s</text></symbol><symbol id="16"><text y="1.67" class="g">p50</text><text x="19.038" y="1.67" class="j">44.3ms</text></symbol><symbol id="17"><text y="1.67" class="g">p90</text><text x="19.038" y="1.67" class="k">101.2ms</text></symbol><symbol id="18"><text y="1.67" class="g">p99</text><text x="19.038" y="1.67" class="k">126.8ms</text></symbol><symbol id="19"><text y="1.67" class="h">──</text><text x="3.006" y="1.67" class="f">Enterprise</text><text x="14.028" y="1.67" class="f">Capacity</text></symbol><symbol id="20"><text x="3.006" y="1.67" class="g">10</text><text x="6.012" y="1.67" class="g">tool</text><text x="11.022" y="1.67" class="g">calls/min</text><text x="21.042" y="1.67" class="g">per</text><text x="25.05" y="1.67" class="g">developer</text></symbol><symbol id="21"><text y="1.67" class="g">1</text><text x="2.004" y="1.67" class="g">instance</text><text x="19.038" y="1.67" class="i">~8724</text><text x="25.05" y="1.67" class="i">devs</text></symbol><symbol id="22"><text y="1.67" class="g">3</text><text x="2.004" y="1.67" class="g">+</text><text x="4.008" y="1.67" class="g">PgBouncer</text><text x="19.038" y="1.67" class="j">~26172</text><text x="26.052" y="1.67" class="j">devs</text></symbol><symbol id="a"><path fill="transparent" d="M0 0h100v33H0z"/></symbol><symbol id="b"><path fill="#ea580c" d="M0 0h1.102v2.171H0z"/></symbol></defs><path class="a" d="M0 0h100v69.472H0z"/><g style="animation-duration:6.041899s;animation-iteration-count:infinite;animation-name:n;animation-timing-function:steps(1,end)"><svg width="1400"><svg><use xlink:href="#a"/><use xlink:href="#b" x="-.004"/></svg><svg x="100"><use xlink:href="#a"/><use xlink:href="#b" x="-.004" y="10.83"/><use xlink:href="#1" y="2.171"/><use xlink:href="#2" y="4.342"/><use xlink:href="#3" y="6.513"/></svg><svg x="200"><use xlink:href="#a"/><use xlink:href="#b" x="-.004" y="19.514"/><use xlink:href="#1" y="2.171"/><use xlink:href="#2" y="4.342"/><use xlink:href="#3" y="6.513"/><use xlink:href="#4" y="10.855"/><use xlink:href="#5" y="13.026"/></svg><svg x="300"><use xlink:href="#a"/><use xlink:href="#b" x="-.004" y="23.856"/><use xlink:href="#1" y="2.171"/><use xlink:href="#2" y="4.342"/><use xlink:href="#3" y="6.513"/><use xlink:href="#4" y="10.855"/><use xlink:href="#5" y="13.026"/><use xlink:href="#6" y="19.539"/></svg><svg x="400"><use xlink:href="#a"/><use xlink:href="#b" x="-.004" y="32.54"/><use xlink:href="#1" y="2.171"/><use xlink:href="#2" y="4.342"/><use xlink:href="#3" y="6.513"/><use xlink:href="#4" y="10.855"/><use xlink:href="#5" y="13.026"/><use xlink:href="#6" y="19.539"/><use xlink:href="#7" y="23.881"/><use xlink:href="#8" y="28.223"/><use xlink:href="#9" y="30.394"/></svg><svg x="500"><use xlink:href="#a"/><use xlink:href="#b" x="-.004" y="39.053"/><use xlink:href="#1" y="2.171"/><use xlink:href="#2" y="4.342"/><use xlink:href="#3" y="6.513"/><use xlink:href="#4" y="10.855"/><use xlink:href="#5" y="13.026"/><use xlink:href="#6" y="19.539"/><use xlink:href="#7" y="23.881"/><use xlink:href="#8" y="28.223"/><use xlink:href="#9" y="30.394"/><use xlink:href="#10" y="32.565"/><use xlink:href="#11" y="34.736"/></svg><svg x="600"><use xlink:href="#a"/><use xlink:href="#b" x="-.004" y="45.566"/><use xlink:href="#1" y="2.171"/><use xlink:href="#2" y="4.342"/><use xlink:href="#3" y="6.513"/><use xlink:href="#4" y="10.855"/><use xlink:href="#5" y="13.026"/><use xlink:href="#6" y="19.539"/><use xlink:href="#7" y="23.881"/><use xlink:href="#8" y="28.223"/><use xlink:href="#9" y="30.394"/><use xlink:href="#10" y="32.565"/><use xlink:href="#11" y="34.736"/><use xlink:href="#12" y="41.249"/></svg><svg x="700"><use xlink:href="#a"/><use xlink:href="#b" x="-.004" y="54.25"/><use xlink:href="#1" y="2.171"/><use xlink:href="#2" y="4.342"/><use xlink:href="#3" y="6.513"/><use xlink:href="#4" y="10.855"/><use xlink:href="#5" y="13.026"/><use xlink:href="#6" y="19.539"/><use xlink:href="#7" y="23.881"/><use xlink:href="#8" y="28.223"/><use xlink:href="#9" y="30.394"/><use xlink:href="#10" y="32.565"/><use xlink:href="#11" y="34.736"/><use xlink:href="#12" y="41.249"/><use xlink:href="#13" y="45.591"/><use xlink:href="#14" y="47.762"/></svg><svg x="800"><use xlink:href="#a"/><use xlink:href="#b" x="-.004" y="58.592"/><use xlink:href="#1" y="2.171"/><use xlink:href="#2" y="4.342"/><use xlink:href="#3" y="6.513"/><use xlink:href="#4" y="10.855"/><use xlink:href="#5" y="13.026"/><use xlink:href="#6" y="19.539"/><use xlink:href="#7" y="23.881"/><use xlink:href="#8" y="28.223"/><use xlink:href="#9" y="30.394"/><use xlink:href="#10" y="32.565"/><use xlink:href="#11" y="34.736"/><use xlink:href="#12" y="41.249"/><use xlink:href="#13" y="45.591"/><use xlink:href="#14" y="47.762"/><use xlink:href="#6" y="54.275"/></svg><svg x="900"><use xlink:href="#a"/><use xlink:href="#b" x="-.004" y="65.105"/><use xlink:href="#1" y="2.171"/><use xlink:href="#2" y="4.342"/><use xlink:href="#3" y="6.513"/><use xlink:href="#4" y="10.855"/><use xlink:href="#5" y="13.026"/><use xlink:href="#6" y="19.539"/><use xlink:href="#7" y="23.881"/><use xlink:href="#8" y="28.223"/><use xlink:href="#9" y="30.394"/><use xlink:href="#10" y="32.565"/><use xlink:href="#11" y="34.736"/><use xlink:href="#12" y="41.249"/><use xlink:href="#13" y="45.591"/><use xlink:href="#14" y="47.762"/><use xlink:href="#6" y="54.275"/><use xlink:href="#15" y="58.617"/><use xlink:href="#16" y="62.959"/></svg><svg x="1000"><use xlink:href="#a"/><use xlink:href="#b" x="-.004" y="69.447"/><use xlink:href="#1"/><use xlink:href="#2" y="2.171"/><use xlink:href="#3" y="4.342"/><use xlink:href="#4" y="8.684"/><use xlink:href="#5" y="10.855"/><use xlink:href="#6" y="17.368"/><use xlink:href="#7" y="21.71"/><use xlink:href="#8" y="26.052"/><use xlink:href="#9" y="28.223"/><use xlink:href="#10" y="30.394"/><use xlink:href="#11" y="32.565"/><use xlink:href="#12" y="39.078"/><use xlink:href="#13" y="43.42"/><use xlink:href="#14" y="45.591"/><use xlink:href="#6" y="52.104"/><use xlink:href="#15" y="56.446"/><use xlink:href="#16" y="60.788"/><use xlink:href="#17" y="62.959"/><use xlink:href="#18" y="65.13"/></svg><svg x="1100"><use xlink:href="#a"/><use xlink:href="#b" x="-.004" y="69.447"/><use xlink:href="#4" y="2.171"/><use xlink:href="#5" y="4.342"/><use xlink:href="#6" y="10.855"/><use xlink:href="#7" y="15.197"/><use xlink:href="#8" y="19.539"/><use xlink:href="#9" y="21.71"/><use xlink:href="#10" y="23.881"/><use xlink:href="#11" y="26.052"/><use xlink:href="#12" y="32.565"/><use xlink:href="#13" y="36.907"/><use xlink:href="#14" y="39.078"/><use xlink:href="#6" y="45.591"/><use xlink:href="#15" y="49.933"/><use xlink:href="#16" y="54.275"/><use xlink:href="#17" y="56.446"/><use xlink:href="#18" y="58.617"/><use xlink:href="#12" y="65.13"/></svg><svg x="1200"><use xlink:href="#a"/><use xlink:href="#b" x="-.004" y="69.447"/><use xlink:href="#7" y="2.171"/><use xlink:href="#8" y="6.513"/><use xlink:href="#9" y="8.684"/><use xlink:href="#10" y="10.855"/><use xlink:href="#11" y="13.026"/><use xlink:href="#12" y="19.539"/><use xlink:href="#13" y="23.881"/><use xlink:href="#14" y="26.052"/><use xlink:href="#6" y="32.565"/><use xlink:href="#15" y="36.907"/><use xlink:href="#16" y="41.249"/><use xlink:href="#17" y="43.42"/><use xlink:href="#18" y="45.591"/><use xlink:href="#12" y="52.104"/><use xlink:href="#19" y="56.446"/><use xlink:href="#20" y="58.617"/><use xlink:href="#21" y="65.13"/><use xlink:href="#22" y="67.301"/></svg><svg x="1300"><use xlink:href="#a"/><use xlink:href="#b" x="-.004" y="69.447"/><use xlink:href="#10"/><use xlink:href="#11" y="2.171"/><use xlink:href="#12" y="8.684"/><use xlink:href="#13" y="13.026"/><use xlink:href="#14" y="15.197"/><use xlink:href="#6" y="21.71"/><use xlink:href="#15" y="26.052"/><use xlink:href="#16" y="30.394"/><use xlink:href="#17" y="32.565"/><use xlink:href="#18" y="34.736"/><use xlink:href="#12" y="41.249"/><use xlink:href="#19" y="45.591"/><use xlink:href="#20" y="47.762"/><use xlink:href="#21" y="54.275"/><use xlink:href="#22" y="56.446"/><text y="60.287" class="g">10</text><text x="3.006" y="60.287" class="g">+</text><text x="5.01" y="60.287" class="g">PgBouncer</text><text x="19.038" y="60.287" class="j">~87240</text><text x="26.052" y="60.287" class="j">devs</text><text x="2.004" y="66.8" class="i">Governance</text><text x="13.026" y="66.8" class="i">adds</text><text x="18.036" y="66.8" class="i">&lt;1%</text><text x="22.044" y="66.8" class="i">latency</text><text x="30.06" y="66.8" class="i">to</text><text x="33.066" y="66.8" class="i">AI</text><text x="36.072" y="66.8" class="i">response</text><text x="45.09" y="66.8" class="i">time.</text></svg></svg></g></g></svg></svg>