<svg xmlns="http://www.w3.org/2000/svg" viewBox="167 461 666 78" aria-hidden="true">
<g>
<path fill="#fb9b34" d="M 234.109375 461.253906 L 218.292969 516.605469 L 211.96875 538.746094 L 223.039063 538.746094 L 238.859375 483.394531 L 245.179688 461.253906"/>
<path fill="#fb9b34" d="M 192.523438 474.636719 L 207.539063 474.636719 L 182.179688 500 L 207.539063 525.359375 L 192.523438 525.359375 L 167.15625 500.007813"/>
<path fill="#ffffff" d="M 285.796875 527.675781 L 252.582031 527.675781 L 252.582031 516.605469 L 274.722656 516.605469 L 274.722656 505.535156 L 252.582031 505.535156 L 252.582031 472.324219 L 285.796875 472.324219 L 285.796875 483.394531 L 263.652344 483.394531 L 263.652344 494.464844 L 285.796875 494.464844"/>
<path fill="#ffffff" d="M 372.359375 472.320313 L 372.359375 483.390625 L 350.21875 483.390625 L 350.21875 494.46875 L 372.359375 494.46875 L 372.359375 527.679688 L 339.148438 527.679688 L 339.148438 516.609375 L 361.289063 516.609375 L 361.289063 505.539063 L 339.148438 505.539063 L 339.148438 472.320313"/>
<path fill="#ffffff" d="M 413.640625 472.320313 L 413.640625 483.390625 L 402.570313 483.390625 L 402.570313 527.679688 L 391.5 527.679688 L 391.5 483.390625 L 380.210938 483.390625 L 380.210938 472.320313"/>
<path fill="#ffffff" d="M 454.925781 527.675781 L 421.714844 527.675781 L 421.714844 472.324219 L 454.925781 472.324219 L 454.925781 483.394531 L 432.785156 483.394531 L 432.785156 494.464844 L 443.855469 494.464844 L 443.855469 505.535156 L 432.785156 505.535156 L 432.785156 516.605469 L 454.925781 516.605469"/>
<path fill="#ffffff" d="M 477.066406 527.675781 L 465.996094 527.675781 L 465.996094 472.324219 L 477.066406 472.324219 L 477.066406 483.394531 L 488.136719 483.394531 L 488.136719 472.324219 L 499.207031 472.324219 L 499.207031 527.675781 L 488.136719 527.675781 L 488.136719 494.464844 L 477.066406 494.464844"/>
<path fill="#ffffff" d="M 521.347656 494.464844 L 532.417969 494.464844 L 532.417969 483.394531 L 521.347656 483.394531 Z M 521.347656 527.675781 L 510.277344 527.675781 L 510.277344 472.324219 L 543.488281 472.324219 L 543.488281 505.535156 L 521.347656 505.535156"/>
<path fill="#ffffff" d="M 609.914063 516.605469 L 620.984375 516.605469 L 620.984375 483.394531 L 609.914063 483.394531 Z M 632.054688 527.675781 L 598.84375 527.675781 L 598.84375 472.324219 L 632.054688 472.324219 Z M 632.054688 527.675781"/>
<path fill="#ffffff" d="M 654.195313 527.675781 L 643.125 527.675781 L 643.125 472.324219 L 654.195313 472.324219 L 654.195313 483.394531 L 665.265625 483.394531 L 665.265625 472.324219 L 676.335938 472.324219 L 676.335938 527.675781 L 665.265625 527.675781 L 665.265625 494.464844 L 654.195313 494.464844"/>
<path fill="#ffffff" d="M 698.480469 494.464844 L 709.550781 494.464844 L 709.550781 483.394531 L 698.480469 483.394531 Z M 698.480469 527.675781 L 687.40625 527.675781 L 687.40625 472.324219 L 720.621094 472.324219 L 720.621094 505.535156 L 698.480469 505.535156"/>
<path fill="#ffffff" d="M 753.832031 527.675781 L 742.761719 527.675781 L 742.761719 483.394531 L 731.691406 483.394531 L 731.691406 472.324219 L 764.902344 472.324219 L 764.902344 483.394531 L 753.832031 483.394531"/>
<path fill="#ffffff" d="M 328.078125 472.324219 L 317.007813 472.324219 L 317.007813 494.464844 L 305.9375 494.464844 L 305.9375 472.324219 L 294.867188 472.324219 L 294.867188 494.464844 L 305.9375 505.535156 L 305.9375 527.675781 L 317.007813 527.675781 L 317.007813 505.535156 L 328.078125 494.464844"/>
<path fill="#ffffff" d="M 587.777344 472.324219 L 554.554688 472.324219 L 554.554688 527.675781 L 565.625 527.675781 L 565.625 516.605469 L 576.695313 527.675781 L 587.777344 527.675781 L 587.777344 516.605469 L 576.695313 505.535156 L 565.625 505.535156 L 565.625 483.394531 L 576.695313 483.394531 L 576.695313 505.535156 L 587.777344 505.535156"/>
<path fill="#ff9a2f" d="M 766.898438 527.675781 L 776.320313 527.675781 L 776.320313 518.253906 L 766.898438 518.253906 Z M 766.898438 527.675781"/>
<path fill="#ff9a2f" d="M 785.742188 480.570313 L 795.160156 480.570313 L 795.160156 471.152344 L 785.742188 471.152344 Z M 785.742188 527.675781 L 795.160156 527.675781 L 795.160156 489.992188 L 785.742188 489.992188 Z M 785.742188 527.675781"/>
<path fill="#ff9a2f" d="M 823.425781 518.253906 L 814.003906 518.253906 L 814.003906 499.414063 L 823.425781 499.414063 Z M 804.582031 527.675781 L 832.84375 527.675781 L 832.84375 489.996094 L 804.582031 489.996094 Z M 804.582031 527.675781"/>
<path fill="#ffffff" d="M 372.359375 483.390625 L 372.359375 472.320313 L 339.148438 472.320313 L 339.148438 505.539063 L 361.289063 505.539063 L 361.289063 516.609375 L 339.148438 516.609375 L 339.148438 527.679688 L 372.359375 527.679688 L 372.359375 494.46875 L 350.21875 494.46875 L 350.21875 483.390625"/>
</g>
</svg>
