<svg width="200" height="50" viewBox="0 0 1160 582" version="1.1" xmlns="http://www.w3.org/2000/svg" style="fill-rule:evenodd;clip-rule:evenodd;stroke-linejoin:round;stroke-miterlimit:2;">
    <g transform="matrix(1,0,0,1,-315,-331)">
        <g transform="matrix(8.33333,0,0,8.33333,0,0)">
            <g transform="matrix(1,0.000482526,0.000482526,-1,36.9903,38.8742)">
                <path d="M1.653,-1.151C1.407,-1.284 1.215,-1.48 1.084,-1.728C0.953,-1.978 0.883,-2.226 0.883,-2.909L0.884,-4.96C0.884,-5.646 0.951,-5.89 1.086,-6.14C1.214,-6.39 1.406,-6.583 1.656,-6.72C1.901,-6.854 2.145,-6.922 2.818,-6.921L138.076,-6.924C138.748,-6.924 138.993,-6.856 139.239,-6.722C139.481,-6.582 139.677,-6.39 139.809,-6.138C139.941,-5.891 140.008,-5.643 140.011,-4.963L140.01,-2.907C140.01,-2.223 139.939,-1.981 139.811,-1.727C139.678,-1.484 139.482,-1.283 139.24,-1.15C138.99,-1.016 138.749,-0.948 138.078,-0.948L2.819,-0.946C2.142,-0.947 1.902,-1.018 1.653,-1.151ZM0.88,-20.437L0.88,-53.253C0.881,-53.962 1.352,-54.575 2.03,-54.745L5.463,-55.6C6.273,-55.802 7.089,-55.303 7.29,-54.479C7.321,-54.362 7.335,-54.24 7.335,-54.114L7.33,-43.628L13.119,-43.625C13.953,-43.625 14.63,-42.938 14.63,-42.093L14.633,-39.173C14.632,-38.332 13.955,-37.647 13.12,-37.647L7.331,-37.645L7.332,-24.883L13.42,-24.884C14.254,-24.884 14.929,-24.196 14.929,-23.357L14.928,-20.437C14.927,-19.591 14.251,-18.905 13.421,-18.905L2.391,-18.906C1.56,-18.906 0.883,-19.59 0.88,-20.437ZM25.899,-18.907C20.616,-18.906 18.009,-21.544 18.008,-26.887L18.005,-52.663C18.008,-58.008 20.557,-59.403 25.896,-60.74L29.36,-61.627C34.656,-62.942 37.252,-58.984 37.254,-53.637L37.252,-26.89C37.253,-21.547 34.637,-18.903 29.358,-18.906L25.899,-18.907ZM28.317,-55.679L27.002,-55.348C25.34,-54.919 24.551,-53.992 24.552,-52.27L24.552,-27.089C24.551,-25.364 25.33,-24.564 27.003,-24.568L28.32,-24.567C29.931,-24.566 30.706,-25.365 30.707,-27.09L30.708,-53.248C30.709,-54.733 30.132,-55.763 28.939,-55.764C28.746,-55.764 28.538,-55.737 28.317,-55.679ZM40.907,-26.89L40.91,-58.523C40.908,-63.866 43.589,-65.193 48.799,-66.508L52.262,-67.389C57.542,-68.724 60.148,-64.749 60.149,-59.403L60.149,-26.885C60.15,-21.545 57.54,-18.903 52.258,-18.906L48.798,-18.902C43.515,-18.903 40.906,-21.545 40.907,-26.89ZM51.216,-61.451L49.903,-61.111C48.23,-60.697 47.451,-59.851 47.45,-58.13L47.45,-27.087C47.449,-25.366 48.227,-24.568 49.9,-24.567L51.22,-24.566C52.833,-24.565 53.605,-25.367 53.606,-27.089L53.609,-59.011C53.606,-60.494 53.033,-61.531 51.844,-61.532C51.652,-61.532 51.443,-61.505 51.216,-61.451ZM64.192,-20.44L64.194,-69.052C64.192,-69.898 64.868,-70.585 65.702,-70.585L73.961,-70.581C80.271,-70.582 83.243,-67.502 83.242,-61.155L83.244,-28.335C83.241,-21.984 80.268,-18.905 73.963,-18.906L65.704,-18.903C64.866,-18.903 64.191,-19.591 64.192,-20.44ZM70.732,-64.726L70.736,-24.762L73.136,-24.763C75.722,-24.761 76.893,-25.989 76.89,-28.567L76.893,-60.923C76.89,-63.5 75.722,-64.725 73.136,-64.727L70.732,-64.726ZM88.604,-18.906C87.765,-18.906 87.09,-19.591 87.091,-20.438L87.093,-65.781C87.094,-66.628 87.77,-67.313 88.6,-67.313C88.724,-67.313 88.846,-67.3 88.965,-67.268L99.606,-64.594C100.282,-64.426 100.759,-63.81 100.758,-63.108L100.757,-60.535C100.757,-59.692 100.078,-59.01 99.244,-59.01C99.124,-59.01 98.996,-59.024 98.879,-59.055L93.588,-60.398L93.59,-20.438C93.589,-19.592 92.912,-18.904 92.077,-18.904L88.604,-18.906ZM103.639,-20.437L103.64,-61.608C103.641,-62.459 104.318,-63.141 105.149,-63.141C105.272,-63.141 105.394,-63.12 105.516,-63.096L117.118,-60.186C117.791,-60.019 118.265,-59.405 118.265,-58.701L118.264,-56.115C118.263,-55.269 117.588,-54.585 116.755,-54.585C116.631,-54.586 116.507,-54.601 116.39,-54.632L110.16,-56.215L110.162,-43.625L116.327,-43.626C117.163,-43.625 117.838,-42.937 117.842,-42.092L117.841,-39.179C117.84,-38.332 117.162,-37.646 116.328,-37.647L110.161,-37.646L110.159,-24.883L116.632,-24.884C117.468,-24.883 118.145,-24.202 118.145,-23.353L118.144,-20.436C118.143,-19.59 117.467,-18.904 116.633,-18.905L105.15,-18.904C104.316,-18.904 103.638,-19.591 103.639,-20.437ZM121.538,-26.892L121.537,-30.174C121.539,-33.495 122.38,-35.519 125.283,-37.605L131.803,-42.459C133.008,-43.38 133.613,-44.179 133.614,-45.959L133.615,-48.336C133.612,-49.997 132.802,-50.441 131.138,-50.855L130.287,-51.06C128.596,-51.493 127.813,-50.704 127.812,-49.049L127.814,-44.861C127.814,-44.015 127.14,-43.329 126.308,-43.33L123.051,-43.331C122.213,-43.332 121.535,-44.018 121.535,-44.858L121.537,-49.102C121.536,-54.383 124.091,-58.354 129.325,-57.021L132.163,-56.317C137.393,-54.993 140.012,-53.674 140.009,-48.331L140.007,-45.037C140.01,-41.538 139.104,-39.697 136.268,-37.606L129.748,-32.753C128.541,-31.894 127.934,-31.037 127.933,-29.254L127.936,-27.072C127.935,-25.413 128.722,-24.618 130.351,-24.617L131.136,-24.617C132.765,-24.616 133.55,-25.415 133.551,-27.073L133.548,-30.487C133.549,-31.333 134.224,-32.021 135.059,-32.021L138.38,-32.019C139.212,-32.019 139.889,-31.33 139.892,-30.486L139.891,-26.828C139.893,-21.543 137.293,-18.906 132.104,-18.908L129.386,-18.903C124.132,-18.906 121.539,-21.544 121.538,-26.892Z" style="fill:#FFFFFF;fill-rule:nonzero;"/>
            </g>
        </g>
    </g>
</svg>
